<?xml version="1.0" encoding="UTF-8"?>
<!DOCTYPE svg PUBLIC "-//W3C//DTD SVG 1.1//EN" "http://www.w3.org/Graphics/SVG/1.1/DTD/svg11.dtd">
<!-- Creator: CorelDRAW 2017 -->
<svg xmlns="http://www.w3.org/2000/svg" xml:space="preserve" width="297mm" height="210mm" version="1.1" style="shape-rendering:geometricPrecision; text-rendering:geometricPrecision; image-rendering:optimizeQuality; fill-rule:evenodd; clip-rule:evenodd"
viewBox="0 0 29700 21000"
 xmlns:xlink="http://www.w3.org/1999/xlink">
 <defs>
  <style type="text/css">
   <![CDATA[
    .str7 {stroke:#2B2A29;stroke-width:169.33}
    .str2 {stroke:#2B2A29;stroke-width:169.33}
    .str3 {stroke:#2B2A29;stroke-width:169.33}
    .str4 {stroke:#2B2A29;stroke-width:169.33}
    .str0 {stroke:#2B2A29;stroke-width:169.33}
    .str1 {stroke:#2B2A29;stroke-width:169.33}
    .str5 {stroke:#2B2A29;stroke-width:169.33}
    .str6 {stroke:#2B2A29;stroke-width:110.07}
    .fil2 {fill:none}
    .fil3 {fill:#2B2A29}
    .fil0 {fill:#A2D9F7}
    .fil5 {fill:#F7AA18}
    .fil4 {fill:#FFED00}
    .fil1 {fill:#2B2A29;fill-rule:nonzero}
   ]]>
  </style>
 </defs>
 <g id="Warstwa_x0020_1">
  <metadata id="CorelCorpID_0Corel-Layer"/>
  <g id="_2114550098480">
   <g>
    <path class="fil0 str0" d="M5677 8116c1523,8485 12837,10725 15170,2221 662,-2413 2116,-2502 3673,-2538l-3024 -1952c-1785,-990 -2479,697 -3577,2184 -2358,3192 -5348,4748 -12117,83l-125 2z"/>
    <g>
     <polygon class="fil1" points="18258,4318 18350,4355 18436,4393 18516,4433 18592,4474 18663,4517 18729,4561 18791,4606 18849,4653 18904,4700 18954,4748 19001,4797 19045,4846 19087,4896 19125,4947 19162,4998 19196,5048 19228,5099 19259,5150 19289,5200 19318,5251 19346,5300 19373,5350 19401,5399 19428,5447 19456,5495 19485,5542 19514,5588 19544,5633 19576,5678 19610,5721 19645,5764 19683,5805 19560,5921 19517,5875 19478,5827 19441,5779 19406,5730 19373,5681 19341,5631 19311,5582 19282,5532 19254,5482 19226,5433 19198,5383 19171,5334 19143,5285 19114,5237 19085,5189 19055,5141 19023,5094 18990,5048 18954,5002 18917,4957 18877,4912 18835,4868 18790,4825 18741,4783 18689,4741 18633,4700 18573,4660 18508,4621 18438,4583 18364,4546 18284,4511 18198,4476 "/>
    </g>
    <g>
     <polygon class="fil1" points="20560,3533 20694,3636 20639,3710 20589,3782 20545,3853 20506,3921 20471,3988 20441,4053 20415,4117 20393,4180 20374,4241 20358,4302 20345,4361 20335,4419 20328,4477 20322,4534 20318,4591 20316,4648 20316,4704 20317,4760 20318,4816 20320,4872 20323,4928 20326,4984 20328,5041 20331,5098 20332,5156 20333,5214 20332,5272 20330,5331 20325,5391 20319,5452 20310,5513 20299,5575 20133,5540 20143,5485 20151,5431 20157,5376 20161,5322 20163,5268 20163,5213 20163,5158 20161,5103 20159,5048 20157,4992 20154,4936 20151,4879 20149,4821 20147,4763 20147,4704 20147,4643 20149,4582 20153,4520 20159,4457 20168,4393 20179,4328 20193,4262 20211,4195 20232,4126 20257,4057 20286,3986 20319,3913 20357,3840 20400,3765 20448,3689 20501,3612 "/>
    </g>
    <g>
     <polygon class="fil1" points="17116,15014 17284,14985 17639,17076 17472,17105 "/>
    </g>
    <line class="fil2 str1" x1="18685" y1="17547" x2="17545" y2= "17036" />
    <line class="fil2 str2" x1="16697" y1="17973" x2="17567" y2= "17028" />
    <line class="fil2 str3" x1="13877" y1="17524" x2="13791" y2= "15665" />
    <line class="fil2 str4" x1="14901" y1="18137" x2="13885" y2= "17483" />
    <line class="fil2 str5" x1="12965" y1="18252" x2="13876" y2= "17457" />
    <ellipse class="fil3 str6" transform="matrix(-3.14643 0.554773 0.554773 3.14643 21175.2 7047.49)" rx="124" ry="121"/>
    <ellipse class="fil4" transform="matrix(-3.89558 0.686862 0.554773 3.14643 18894.7 11902)" rx="143" ry="138"/>
    <ellipse class="fil4" transform="matrix(-3.89558 0.686862 0.554773 3.14643 17884.3 13010.4)" rx="143" ry="138"/>
    <ellipse class="fil4" transform="matrix(-3.89558 0.686862 0.554773 3.14643 16510.2 14010.7)" rx="143" ry="138"/>
    <ellipse class="fil4" transform="matrix(-3.89558 0.686862 0.554773 3.14643 14988.8 14761.3)" rx="143" ry="138"/>
    <ellipse class="fil4" transform="matrix(-3.89558 0.686862 0.554773 3.14643 18894.7 11902)" rx="143" ry="138"/>
   </g>
   <path class="fil5 str7" d="M13394 8420c1180,0 2123,726 2462,1717 -1304,897 -2901,1222 -5074,567 142,-1257 1228,-2284 2612,-2284z"/>
  </g>
 </g>
</svg>
