<?xml version="1.0" encoding="utf-8"?>
<!-- Generator: Adobe Illustrator 23.0.2, SVG Export Plug-In . SVG Version: 6.00 Build 0)  -->
<svg version="1.1" id="Warstwa_1" xmlns="http://www.w3.org/2000/svg" xmlns:xlink="http://www.w3.org/1999/xlink" x="0px" y="0px"
	 viewBox="0 0 841.89 595.28" style="enable-background:new 0 0 841.89 595.28;" xml:space="preserve">
<style type="text/css">
	.st0{fill:#FDC300;}
</style>
<g>
	<path class="st0" d="M53.54,254.77c-0.81,0-1.47,3.98-1.99,11.93c0,0.66,0.59,1.07,1.77,1.21l6.96-0.44c0.51,0,1.03,0.33,1.55,0.99
		c0.51,27.68,1.1,44.57,1.77,50.68c-0.66,18.85-1.18,30.04-1.55,33.57c0,2.06-0.52,3.09-1.55,3.09h-1.77
		c-0.59,0-1.36-0.26-2.32-0.77c-2.14,0.37-3.61,0.77-4.42,1.21h-1.55l-1.44-0.22v0.22h-0.33c-0.59,5.52-1.51,9.5-2.76,11.93
		c0,0.88,3.83,1.33,11.48,1.33l25.07,3.53c1.91,0,3.2,0.44,3.86,1.33h0.44l1.33-1.1c1.4-4.64,2.69-8.24,3.86-10.82
		c-1.03-1.1-1.55-1.95-1.55-2.54v-2.1l-0.22-0.22c-7.73-0.51-12.99-1.18-15.79-1.99l0.77-29.15l-0.22-6.18l0.22-22.97V273.1
		c0-6.55,0.29-11.7,0.88-15.46c0-1.55-1.29-2.32-3.86-2.32l-10.05,0.44l-6.29-1.55L53.54,254.77L53.54,254.77z M55.09,257.64h4.42
		v0.22c-1.03,1.18-2.14,1.77-3.31,1.77h-0.55c-1.03,0-1.55-0.48-1.55-1.44v-0.33L55.09,257.64L55.09,257.64z M62.93,257.64h2.98
		v0.22l-0.66,0.55H63.7l-1.1-0.33L62.93,257.64L62.93,257.64z M69.55,261.95c0.81-1.18,1.69-1.77,2.65-1.77h0.44l0.33,0.33
		c0,0.44-0.26,1.03-0.77,1.77c-1.18,0.44-2.32,1.1-3.42,1.99h-0.55l-0.44-0.44v-0.22C67.79,262.8,68.38,262.25,69.55,261.95
		L69.55,261.95L69.55,261.95z M54.32,261.18h0.33l0.77,0.55l2.76,1.33v0.44l-0.99,0.11h-3.09l-0.55-0.55v-1.1L54.32,261.18
		L54.32,261.18z M66.24,273.66h0.22l0.33,0.44v0.55l-0.33,0.44h-0.22l-0.33-0.44v-0.55L66.24,273.66L66.24,273.66z M65.91,282.16
		h0.33v0.66h-0.77v-0.22L65.91,282.16L65.91,282.16z M72.65,292.87l0.33,0.33v0.44h-0.11l-0.66-0.66v-0.11H72.65L72.65,292.87z
		 M72.98,295.52v2.32c0,1.4-0.18,2.1-0.55,2.1H72.2l-0.11-1.88l0.33-3.09L72.98,295.52L72.98,295.52z M66.02,297.29h0.77v0.33
		c-0.88,0.37-1.33,0.7-1.33,0.99l0.22,0.22v0.77l-0.44,0.33l-0.33-0.33v-0.55C64.92,298.32,65.28,297.73,66.02,297.29L66.02,297.29
		L66.02,297.29z M72.87,301.15v0.77l-0.44,0.33h-0.33v-0.11l0.11-0.99H72.87L72.87,301.15z M68.34,312.74c0,4.12-0.3,6.18-0.88,6.18
		h-0.22v-0.44C67.53,314.66,67.9,312.74,68.34,312.74L68.34,312.74L68.34,312.74z M72.2,353.27c-0.07,0.96-0.26,1.43-0.55,1.43h-1.1
		l-0.22-0.22l-0.22-5.85v-12.92l0.22-9.61l0.33-0.44C71.47,325.66,71.98,334.87,72.2,353.27L72.2,353.27L72.2,353.27z M64.92,346.31
		c0.37,0,0.62,0.66,0.77,1.99v1.1l-0.77,0.77c-0.29,0-0.48-0.37-0.55-1.1v-0.55C64.36,347.05,64.55,346.31,64.92,346.31
		L64.92,346.31L64.92,346.31z M55.2,358.57h0.44l0.55,0.55v1.1h-0.22c-0.74,0-1.1-0.37-1.1-1.1v-0.22L55.2,358.57L55.2,358.57z
		 M85.34,358.57h1.55l0.99,0.11v0.66l-0.77,0.55c-1.47,0-2.36-0.33-2.65-0.99v-0.22L85.34,358.57L85.34,358.57z M50.78,359.12h0.44
		l0.11,0.55L51,360.12l-0.55-0.22v-0.44L50.78,359.12L50.78,359.12z M59.28,360.12h0.22l0.99,0.11v0.44L60.06,361h-0.99l-0.88-0.11
		v-0.22C58.18,360.37,58.55,360.19,59.28,360.12L59.28,360.12L59.28,360.12z M86.12,363.21l1.44,0.11v0.44l-0.99,0.22h-4.09
		c-3.46-0.07-5.19-0.4-5.19-0.99v-0.22L86.12,363.21L86.12,363.21z M57.19,363.32h0.33c1.77,0,3.2,0.15,4.31,0.44v0.22
		c0,0.37-0.85,0.55-2.54,0.55h-2.32l-0.33-0.44v-0.11L57.19,363.32L57.19,363.32z M83.03,366.3h2.32l0.99,0.11v0.44
		c-0.07,0.37-0.59,0.55-1.55,0.55H81.7l-0.55-0.33C81.15,366.7,81.77,366.45,83.03,366.3L83.03,366.3L83.03,366.3z M49.02,366.41
		h0.44l0.55,0.66l-0.33,0.33h-0.77l-0.44-0.33L49.02,366.41L49.02,366.41z M85.56,369.94h0.44l0.88,0.22v0.55l-0.88,0.22h-0.44
		l-0.99-0.22v-0.55L85.56,369.94L85.56,369.94z M130.52,292.32c-3.76,0.52-6.7,1.07-8.83,1.66c-3.61,1.25-6,3.13-7.18,5.63
		c-8.1,10.09-12.15,22.01-12.15,35.78v0.22c0,2.36,0.33,5.19,0.99,8.5c2.28,7.8,3.42,12.03,3.42,12.7c1.1,2.72,2.54,4.97,4.31,6.74
		c4.12,5.3,8.61,7.95,13.47,7.95l8.72,3.09c2.58,0,7.29-0.7,14.13-2.1c5.96-1.77,10.01-3.5,12.15-5.19c3.9-3.39,6.15-5.08,6.74-5.08
		c2.72,0.3,4.09,1.58,4.09,3.86h0.55c1.47,0,3.86-2.13,7.18-6.4v-0.55c-3.75-4.64-6.77-8.76-9.05-12.37
		c-3.39-2.36-5.26-3.76-5.63-4.2c-3.31,1.32-6.15,4.27-8.5,8.83l0.33,0.77c1.33,0.15,1.99,0.33,1.99,0.55v0.44
		c-5.74,6.11-9.61,9.46-11.6,10.05c-2.21,1.25-3.64,1.88-4.31,1.88c-4.57,0-8.43-0.55-11.59-1.66c-3.97-1.4-7.62-5.08-10.93-11.04
		c-1.84-1.91-2.76-3.61-2.76-5.08l-1.55-1.55v-0.33l0.99,0.33v-0.11l-0.22-0.77c-1.18-0.66-1.77-2.98-1.77-6.96
		c0-2.28-0.37-4.09-1.1-5.41c0-0.66,0.62-1.91,1.88-3.75h3.31c5.81,0,16.12,0.59,30.92,1.77c1.62-0.37,3.05-0.55,4.31-0.55h13.14
		l0.88-0.22c0-1.33,0.77-3.75,2.32-7.29l-0.11-1.21c0-1.47-2.03-6.63-6.07-15.46c0-1.47-2.61-4.16-7.84-8.06
		c-6.18-3.61-11.41-5.41-15.68-5.41C134.38,291.95,131.4,291.95,130.52,292.32L130.52,292.32L130.52,292.32z M125.33,295.41
		l0.22-0.22c3.83-1.55,7.18-2.32,10.05-2.32h0.22l0.33,0.33c0,0.37-0.44,0.59-1.33,0.66c-4.27,1.25-7.36,1.88-9.28,1.88h-0.22
		V295.41L125.33,295.41z M121.9,295.52h0.33l0.55,0.66v0.88c0,0.52-1.03,1.03-3.09,1.55h-0.11l-0.44-0.33v-0.22
		C119.14,296.95,120.06,296.11,121.9,295.52L121.9,295.52L121.9,295.52z M142.77,296.51c1.25,0.15,1.88,0.41,1.88,0.77v0.44
		l-0.22,0.11c-4.12-0.22-6.18-0.51-6.18-0.88v-0.44H142.77L142.77,296.51z M133.83,298.06h0.55c1.91,0,3.27,0.59,4.09,1.77v0.55
		l-0.22,0.22c-4.2-0.66-6.29-1.18-6.29-1.55v-0.22C131.95,298.46,132.58,298.21,133.83,298.06L133.83,298.06L133.83,298.06z
		 M142.33,299.27h0.44c2.58,0,4.23,0.88,4.97,2.65l3.09,1.32c1.18,0.3,2.02,0.63,2.54,0.99v0.22l-0.22,0.22l-0.77-0.22l-1.55,0.55
		h-0.22c-0.44,0-3.57-1.66-9.38-4.97v-0.22C141.23,299.53,141.59,299.35,142.33,299.27L142.33,299.27L142.33,299.27z M127.42,301.15
		h1.55l0.22,0.22v0.22c-3.17,0.96-5.23,1.84-6.18,2.65C123.01,302.77,124.48,301.74,127.42,301.15L127.42,301.15L127.42,301.15z
		 M118.92,308.66c2.65-2.5,8.21-4.56,16.67-6.18l5.19,0.77c3.09,0.44,5.74,1.8,7.95,4.08c5.15,4.57,7.73,7.55,7.73,8.95v2.87
		c0,0.88-0.33,1.73-0.99,2.54c-0.66-0.15-0.99-0.37-0.99-0.66c-1.18,0-3.94-0.7-8.28-2.1l-1.88,0.22l-1.55-0.55
		c-18.55-1.25-27.83-2.54-27.83-3.86v-0.44C116.57,312.45,117.89,310.57,118.92,308.66L118.92,308.66L118.92,308.66z M118.15,304.24
		h0.77v0.22c0,0.37-0.7,0.74-2.1,1.1h-0.22v-0.33C116.97,304.57,117.49,304.24,118.15,304.24L118.15,304.24L118.15,304.24z
		 M154.48,306.34l0.77,0.77v0.99l-0.33,0.44h-0.22c-0.74,0-1.25-0.4-1.55-1.22C153.15,306.67,153.59,306.34,154.48,306.34
		L154.48,306.34L154.48,306.34z M113.73,308.11h0.44v0.22l-0.44,0.33h-0.33v-0.11L113.73,308.11L113.73,308.11z M157.02,309.43
		l0.22,0.22c0.96,0,1.84,1.62,2.65,4.86l-0.33,0.33H159c-0.66-0.37-1.51-2.17-2.54-5.41H157.02L157.02,309.43z M115.83,310.65v0.22
		c0,0.66-0.26,1.1-0.77,1.33v-0.22C115.06,311.31,115.31,310.87,115.83,310.65L115.83,310.65L115.83,310.65z M162.21,316.28h0.44
		l0.33,0.33v0.44c0,0.59-0.26,0.96-0.77,1.11l-0.33-0.55v-0.99L162.21,316.28L162.21,316.28z M115.06,317.16h0.66v0.44
		c-0.44,0.74-1.03,1.33-1.77,1.77h-0.22l-0.33-0.44v-0.55C113.77,317.57,114.32,317.16,115.06,317.16L115.06,317.16L115.06,317.16z
		 M107.99,318.16c-1.25,3.61-2.17,5.41-2.76,5.41h-0.22c0.51-3.38,1.18-5.45,1.99-6.18C107.51,317.38,107.84,317.64,107.99,318.16
		L107.99,318.16L107.99,318.16z M136.59,320.92v0.55l-1.99,0.22h-1.33c-5.08,0-8.61-0.66-10.6-1.99v-0.33
		C127.24,319.44,131.88,319.96,136.59,320.92L136.59,320.92L136.59,320.92z M150.83,323.34v0.44h-0.55v-0.44H150.83L150.83,323.34z
		 M144.65,326.88c0,0.52-2.14,0.77-6.4,0.77c-2.65,0-3.97-0.18-3.97-0.55l3.2-0.44v-0.22l-0.11-0.11
		c-8.39-0.44-13.8-0.92-16.23-1.44v-0.33C136.81,325.08,144.65,325.85,144.65,326.88L144.65,326.88L144.65,326.88z M105.67,325.55
		l0.55,0.33c-0.15,1.03-0.41,1.55-0.77,1.55c-0.3,0-0.48-0.33-0.55-0.99l0.11-0.88H105.67L105.67,325.55z M118.04,325.88v0.22
		l0.11,0.22v0.55h-0.77v-0.77L118.04,325.88L118.04,325.88z M115.06,326.11h0.44l0.55,0.55v0.22l-2.65,0.33h-0.22v-0.11
		C113.47,326.44,114.1,326.11,115.06,326.11L115.06,326.11L115.06,326.11z M151.61,326.88c2.06,0,3.09,0.26,3.09,0.77v0.22
		l-1.55,0.11c-1.77,0-2.65-0.18-2.65-0.55C150.5,327.21,150.87,327.03,151.61,326.88L151.61,326.88L151.61,326.88z M106.55,339.8
		h-0.33c-1.03-1.62-1.55-3.27-1.55-4.97v-0.66c0-0.88,0.11-1.58,0.33-2.1l-0.11-0.22v-0.33l0.11-0.22
		C106.04,331.96,106.55,334.79,106.55,339.8L106.55,339.8L106.55,339.8z M107.55,344.66l0.44,0.33v0.44h-0.44l-0.33-0.44v-0.33
		H107.55L107.55,344.66z M110.42,349.85v0.22l-0.11,0.22c-0.59,0-1.18-0.84-1.77-2.54v-0.22l0.22-0.22
		C109.87,348.19,110.42,349.04,110.42,349.85L110.42,349.85L110.42,349.85z M160.11,347.97h0.22l0.55,0.55
		c-0.07,0.37-0.44,0.55-1.1,0.55h-0.66l-0.33-0.33C159,348.23,159.45,347.97,160.11,347.97L160.11,347.97L160.11,347.97z
		 M157.79,355.48v0.22c-0.37,1.4-1.07,2.1-2.1,2.1h-0.22l-0.22-0.22C155.84,356.18,156.69,355.48,157.79,355.48L157.79,355.48
		L157.79,355.48z M167.07,355.7h0.44v0.11c0,0.74-0.33,1.25-0.99,1.55h-0.44l-0.11-0.11C165.96,356.73,166.33,356.21,167.07,355.7
		L167.07,355.7L167.07,355.7z M173.03,357.35v0.22l-0.33,0.44h-0.22c-0.52,0-0.96-0.66-1.32-1.99v-0.22l0.22-0.11
		C172.26,355.7,172.81,356.25,173.03,357.35L173.03,357.35L173.03,357.35z M164.97,357.02h0.22v0.22c0,0.88-0.77,1.58-2.32,2.1
		l-0.44-0.44C162.65,357.65,163.49,357.02,164.97,357.02L164.97,357.02L164.97,357.02z M152.05,360.67l0.11,0.22
		c-0.29,0.74-0.74,1.25-1.32,1.55h-0.33C150.5,361.85,151.02,361.26,152.05,360.67L152.05,360.67L152.05,360.67z M161.43,361.11
		h0.22c0,0.44-0.52,1.14-1.54,2.1h-0.55C159.56,362.25,160.18,361.55,161.43,361.11L161.43,361.11L161.43,361.11z M116.05,364.53
		c0.59,0.22,1.51,1.14,2.76,2.76v0.11l-0.66-0.55c-1.7-0.59-2.58-1.18-2.65-1.77v-0.55H116.05L116.05,364.53z M126.65,365.08
		c0.74,0,1.84,0.4,3.31,1.21v0.22l-0.22,0.11c-2.14-0.44-3.2-0.88-3.2-1.33v-0.22H126.65L126.65,365.08z M135.82,366.85v0.44h-0.66
		v-0.44H135.82L135.82,366.85z M153.7,366.85h0.44c-0.66,1.55-1.51,2.32-2.54,2.32C151.61,368.43,152.31,367.66,153.7,366.85
		L153.7,366.85L153.7,366.85z M147.52,369.17h0.77c1.03,0,1.62,0.26,1.77,0.77v0.22c-4.05,1.03-7.77,1.55-11.15,1.55h-2.76
		l-0.55-0.55v-0.22c0.07-0.37,0.59-0.55,1.55-0.55h0.55l3.31,0.33C142.99,369.68,145.16,369.17,147.52,369.17L147.52,369.17
		L147.52,369.17z M193.01,293.42c-0.74,1.55-1.44,2.5-2.1,2.87v0.22l0.22,0.11c0.74,0,1.32,1.36,1.77,4.09v1.21
		c0,1.1-0.4,1.91-1.21,2.43c0,1.03,0.85,2.03,2.54,2.98c2.58-0.51,4.97-0.77,7.18-0.77c1.91,0,2.87,0.44,2.87,1.33l-0.22,8.5
		l-0.99,35.89c0,0.74-0.37,1.25-1.1,1.55c-4.12,0.52-6.18,1.18-6.18,1.99c-4.12,1.25-6.18,2.28-6.18,3.09v0.33
		c0.88,6.11,1.84,9.17,2.87,9.17l19.88,1.33c4.71-0.07,7.47-0.26,8.28-0.55c2.43,0,3.53-2.13,3.31-6.4l-0.33-3.53v-1.32
		c-0.52-1.4-2.14-2.1-4.86-2.1h-0.33c-0.15,0.74-0.37,1.1-0.66,1.1h-0.55l-0.77-0.55l-0.33-32.24v-12.37l0.11-0.77
		c3.68-2.58,6.92-3.86,9.72-3.86c1.62,0,3.42,0.37,5.41,1.1c7.07,4.2,10.6,7.44,10.6,9.72v0.22h-0.33l-1.21-0.77h-0.22
		c-0.51,0-0.81,1.29-0.88,3.86c0,1.33,0.26,3.13,0.77,5.41l-0.22,16.78c0,3.53,0.26,6.44,0.77,8.72c0,0.74-0.4,1.11-1.21,1.11
		c-3.09,0.96-4.64,1.73-4.64,2.32v0.55c0,5.3,0.85,7.95,2.54,7.95l1.54-0.33l13.14,1.1l3.86-0.77c0.37-0.81,1.07-3.64,2.1-8.5
		c0-0.51-0.55-0.88-1.66-1.1c-2.58-0.59-3.87-3.24-3.87-7.95l0.11-4.42v-11.04l-0.33-3.53c0.15-3.75,0.4-6.18,0.77-7.29
		c1.33-3.31,5.26-5.26,11.82-5.85c5.3,0,9.09,1.51,11.37,4.53c0,1.03,0.11,1.55,0.33,1.55l1.22-0.77h0.99l1.33,0.33
		c2.72,2.21,4.09,4.08,4.09,5.63l0.33,9.28v0.22c-0.74,4.05-1.03,10.05-0.88,18c0.59,3.24-0.92,4.6-4.53,4.09
		c-2.14,0-3.2,0.7-3.2,2.1v1.99l0.77,4.09v0.33l-0.44,1.55v0.22l1.99,1.88c0,0.81,0.11,1.21,0.33,1.21h1.55l8.94-0.22l4.75,0.55
		c2.94,0,6.77-0.37,11.48-1.1h0.33c0.37,0,0.95,0,1.77,0c0-2.21-0.07-4.53-0.22-6.96c0-5.96-0.85-8.94-2.54-8.94
		c-2.43,0.81-4.09,1.21-4.97,1.21h-0.55c-0.44-0.07-0.66-0.59-0.66-1.55v-4.31c-2.43-19.14-4.05-29.59-4.86-31.36
		c0-4.71-4.31-10.56-12.92-17.56c-4.64-3.09-9.02-4.64-13.14-4.64c-0.88,0-2.02,0.29-3.42,0.88c-10.75,5.6-16.56,8.39-17.45,8.39
		l-0.55-0.22c-0.59-1.03-1.88-2.83-3.86-5.41c-2.95-4.42-8.87-6.63-17.78-6.63l-7.95,0.22h-0.22v-0.33l0.66-0.99
		c0-0.22-0.59-0.4-1.77-0.55C206.41,291.76,199.05,292.54,193.01,293.42L193.01,293.42L193.01,293.42z M213,292.98h1.1l0.22,0.22
		c0,0.74-0.4,1.1-1.21,1.1l-0.55-0.55v-0.33L213,292.98L213,292.98z M203.72,293.97l0.88,0.22c0,0.37-1.07,0.63-3.2,0.77l-0.44-0.44
		C200.96,294.23,201.88,294.05,203.72,293.97L203.72,293.97L203.72,293.97z M215.65,296.07c0-1.03,1.99-1.55,5.96-1.55h4.53v0.22
		l-9.94,1.77l-0.55-0.22V296.07L215.65,296.07z M212.78,295.85h0.55l0.22,0.66l-0.55,0.33h-0.22l-0.44-0.33v-0.22L212.78,295.85
		L212.78,295.85z M231.88,296.07c2.58,0.07,3.87,0.41,3.87,0.99v0.33h-0.22c-0.81,0-2.28-0.29-4.42-0.88v-0.44H231.88L231.88,296.07
		z M197.87,297.84h3.31l0.33,0.33c0,0.52-2.06,0.77-6.18,0.77l-0.33-0.33v-0.55L197.87,297.84L197.87,297.84z M270.97,297.84h0.11
		c5.3,1.25,7.95,2.39,7.95,3.42v0.44h-3.09c-1.25,0-2.36-0.66-3.31-1.99c-1.77-0.59-2.65-0.96-2.65-1.1
		C270.05,298.32,270.38,298.06,270.97,297.84L270.97,297.84L270.97,297.84z M230.55,298.94h1.55c1.47,0,2.5,1.03,3.09,3.09v0.66
		h-0.44c-2.21-1.99-4.53-2.98-6.96-2.98l-7.84,0.77v-0.11C220.1,299.42,223.63,298.94,230.55,298.94L230.55,298.94L230.55,298.94z
		 M263.79,298.94v0.44c-2.72,2.43-4.45,3.64-5.19,3.64h-0.22v-0.22C258.38,301.26,260.18,299.97,263.79,298.94L263.79,298.94
		L263.79,298.94z M207.7,299.72h0.44v0.22l-0.44,0.44h-0.33v-0.22L207.7,299.72L207.7,299.72z M216.09,300.38v0.33l-0.44,0.44h-0.22
		l-0.33-0.44l0.33-0.55L216.09,300.38L216.09,300.38z M270.31,300.16c0.96,0,1.47,0.18,1.55,0.55l-0.33,0.44h-0.55
		c-0.96,0-1.47-0.22-1.55-0.66v-0.33H270.31L270.31,300.16z M203.83,300.93l0.66,0.22v0.33c-2.5,1.55-4.97,2.32-7.4,2.32
		c-1.77,0-2.65-0.51-2.65-1.55C194.45,301.37,197.57,300.93,203.83,300.93L203.83,300.93L203.83,300.93z M238.5,301.7
		c1.4,1.03,2.28,2.06,2.65,3.09v0.22h-0.33c-0.74-0.37-1.58-1.29-2.54-2.76v-0.55H238.5L238.5,301.7z M224.7,302.25h0.99
		c2.87,0,5.52,1.03,7.95,3.09l-0.44,0.44h-0.11c-1.33,0-3.02-0.52-5.08-1.55c-2.95-0.74-4.42-1.21-4.42-1.44
		C223.6,302.51,223.97,302.33,224.7,302.25L224.7,302.25L224.7,302.25z M236.52,302.48c0.66,0.29,0.99,0.81,0.99,1.55v0.22
		c-0.88,0-1.32-0.48-1.32-1.44L236.52,302.48L236.52,302.48z M256.61,303.25l0.55,0.22c0,0.74-0.7,1.18-2.1,1.32h-0.77l-0.22-0.22
		C254.29,304.06,255.14,303.62,256.61,303.25L256.61,303.25L256.61,303.25z M209.13,304.02c0.74,0.44,1.1,1.21,1.1,2.32v0.22
		c-0.3,11.19-0.74,16.78-1.32,16.78h-0.22l-0.33-0.44v-1.55l0.33-2.32l-0.99-1.66c0.51-1.47,0.77-2.98,0.77-4.53v-7.73
		C208.47,304.54,208.69,304.17,209.13,304.02L209.13,304.02L209.13,304.02z M216.86,304.02h1.1v0.33c0,0.37-0.63,0.63-1.88,0.77
		h-0.77v-0.33C215.32,304.43,215.83,304.17,216.86,304.02L216.86,304.02L216.86,304.02z M269.75,304.02h0.22
		c2.94,0,4.6,0.44,4.97,1.32c-0.37,0.52-2.61,0.77-6.74,0.77c-0.37,0-0.7-0.26-0.99-0.77v-0.33
		C267.43,304.35,268.28,304.02,269.75,304.02L269.75,304.02L269.75,304.02z M239.06,305.35c1.77,0.59,2.65,1.03,2.65,1.32v1.55
		h-0.11c-1.84-0.66-2.76-1.55-2.76-2.65v-0.22H239.06L239.06,305.35z M249.33,306.56h3.86v0.11c-1.99,1.84-3.61,2.76-4.86,2.76
		l-0.55-0.55v-1.43C248.07,306.86,248.59,306.56,249.33,306.56L249.33,306.56L249.33,306.56z M282.12,307.44
		c2.35,1.91,3.53,3.53,3.53,4.86v0.22h-0.99v-0.55c-1.47-1.1-2.5-2.28-3.09-3.53v-0.99H282.12L282.12,307.44z M274.06,310.54h2.87
		c1.55,1.03,2.65,2.06,3.31,3.09v0.66l-0.44,0.33c-1.92,0-3.98-1.21-6.18-3.64L274.06,310.54L274.06,310.54z M213,310.98
		c0.51,0,0.77,0.88,0.77,2.65v1.21c0,2.8-0.33,4.2-0.99,4.2h-0.22l-0.22-0.88v-1.99c0-2.21,0.15-3.94,0.44-5.19H213L213,310.98z
		 M243.47,313.08c0.66,0,1.1,0.26,1.32,0.77v0.44h-0.33c-0.81,0-1.22-0.4-1.22-1.21H243.47L243.47,313.08z M249.44,316.72v0.44
		l-0.77,0.77h-0.33c-0.29,0-0.48-0.4-0.55-1.22l0.11-0.55C248.85,316.17,249.36,316.35,249.44,316.72L249.44,316.72L249.44,316.72z
		 M285.21,316.39c1.4,1.4,2.1,2.8,2.1,4.2v0.22h-0.11c-0.74,0-1.47-1.36-2.21-4.09v-0.33H285.21L285.21,316.39z M288.08,322.35h1.44
		c0.37,0.15,0.55,0.55,0.55,1.21v1.33l-0.22,0.99h-0.55l-1.77-2.76C287.6,322.61,287.79,322.35,288.08,322.35L288.08,322.35
		L288.08,322.35z M213,322.9h0.11l0.77,0.77v0.77l-0.33,0.44h-0.22l-0.77-0.77v-0.77L213,322.9L213,322.9z M208.91,324.12l0.33,0.33
		v0.77h-0.11l-0.44-0.33v-0.77H208.91L208.91,324.12z M208.47,352.16c-0.15,1.55-0.85,2.32-2.1,2.32h-0.33
		c-0.44,0-0.7-0.77-0.77-2.32C208.58,352.16,209.65,352.16,208.47,352.16L208.47,352.16L208.47,352.16z M243.14,331.63
		c0.51,0,0.81,1.95,0.88,5.85v0.11c0,1.47-0.18,2.76-0.55,3.86h-0.55l-0.22-2.87v-5.63l0.22-1.33H243.14L243.14,331.63z
		 M287.97,333.39l0.77,0.77v5.96l-0.77,0.77h-0.22l-0.55-0.55v-0.44l-0.44-5.96l0.22-0.55H287.97L287.97,333.39z M213.88,355.37
		c0,0.44-0.11,0.66-0.33,0.66h-0.77c-1.32,0-1.99-1.03-1.99-3.09v-0.22L213.88,355.37L213.88,355.37z M287.75,346.53h0.22v1.55
		h-0.44l-0.33-0.44v-0.55L287.75,346.53L287.75,346.53z M248.11,350.95h0.22l0.33,0.44l-0.33,0.55l-0.55-0.22v-0.33L248.11,350.95
		L248.11,350.95z M247.56,354.04h1.1l0.44,0.44v0.11l-0.77,0.77h-0.99l-0.55-0.55L247.56,354.04L247.56,354.04z M196.77,356.91h1.55
		l1.32,0.22v0.55c-1.18,0.37-2.21,1.11-3.09,2.21h-0.22l-0.22-2.21C196.18,357.17,196.4,356.91,196.77,356.91L196.77,356.91
		L196.77,356.91z M288.3,350.84l0.44,0.44v0.33l-0.44,0.66l-0.55-0.66v-0.11L288.3,350.84L288.3,350.84z M220.29,357.69l0.44,0.44
		l-0.44,0.55l-0.99-0.22v-0.77H220.29L220.29,357.69z M193.78,358.35l0.22,0.11l0.88,7.84h-0.55c-0.74,0-1.47-1.77-2.21-5.3
		c0.88-0.81,1.33-1.69,1.33-2.65H193.78L193.78,358.35z M204.27,358.68h1.32l0.99,0.22v0.55l-0.99,0.22h-1.32l-0.99-0.22v-0.55
		L204.27,358.68L204.27,358.68z M217.75,360.45h1.21V361l-2.32,0.22h-2.87v-0.44L217.75,360.45L217.75,360.45z M293.38,354.15h0.55
		l0.44,0.44v0.88l-0.77,0.77h-0.44l-0.55-0.55v-0.22C292.61,354.81,292.87,354.37,293.38,354.15L293.38,354.15L293.38,354.15z
		 M244.03,360.78h0.99l0.44,0.44v0.33l-0.77,0.22l-0.99-0.22v-0.33L244.03,360.78L244.03,360.78z M199.42,361.44h0.55l0.77,0.55
		c7.29,0.59,11.48,0.33,12.59-0.77v0.22h-1.43l-3.42-0.22l-2.1,0.44v0.33l7.51,0.44v0.55c-2.14,0.37-4.79,0.63-7.95,0.77
		c-0.59,0-1.18-0.37-1.77-1.1c-3.53,0.74-5.3,0.52-5.3-0.66L199.42,361.44L199.42,361.44z M216.2,361.77
		c2.06,0.07,3.09,0.33,3.09,0.77v0.55l-0.77,0.66c-1.92-0.22-2.87-0.73-2.87-1.55L216.2,361.77L216.2,361.77z M301.89,357.47h0.33
		l0.22,0.55c-0.07,1.55-0.26,2.32-0.55,2.32l-0.55-0.55v-1.77L301.89,357.47L301.89,357.47z M197.1,362.65l0.55,0.55v0.99h-0.44
		l-0.33-0.44v-1.1H197.1L197.1,362.65z M298.24,359.01c0.37,0.08,0.55,0.44,0.55,1.1v0.22c-0.15,0.37-0.55,0.55-1.21,0.55h-0.55
		l-0.22-0.11C297.25,359.6,297.73,359.01,298.24,359.01L298.24,359.01L298.24,359.01z M293.72,360h0.44l0.55,0.33
		c0,0.59-1.47,0.92-4.42,0.99h-1.99v-0.44C288.3,360.3,290.11,360,293.72,360L293.72,360L293.72,360z M217.52,364.97v0.33
		c-0.59,0.74-1.29,1.25-2.1,1.55l-0.44-0.33v-0.22C215.79,365.42,216.64,364.97,217.52,364.97L217.52,364.97L217.52,364.97z
		 M284.33,362.1h2.43c0.66,0,1.07,0.18,1.21,0.55c-0.22,0.52-0.81,0.77-1.77,0.77h-4.09v-0.33
		C283.15,362.43,283.89,362.1,284.33,362.1L284.33,362.1L284.33,362.1z M318.22,253.56v0.77l0.55,0.99c0,0.3-0.41,0.48-1.21,0.55
		v0.66c0.81,1.03,1.21,1.8,1.21,2.32v0.33l-1.55-0.33c-0.29,0-0.55,0.77-0.77,2.32l0.22,0.55l0.33,9.5
		c0.07,0.74,0.66,1.69,1.77,2.87l4.42-1.21c3.61,0.3,5.41,0.63,5.41,0.99c1.03,5.3,1.88,20.5,2.54,45.6
		c1.25,4.12,2.21,11.41,2.87,21.86c0,8.76,0.4,13.14,1.21,13.14c1.4,0,2.1,0.11,2.1,0.33v0.22l-0.44,0.55
		c-2.5,0.29-4.23,0.63-5.19,0.99c-4.64,0.66-6.96,1.36-6.96,2.1v0.22l3.31-0.33h0.55c0.96,0,1.47,0.18,1.55,0.55v0.33l-2.1,0.44
		l1.77,1.77v0.11h-1.44l-1.33,0.22v0.44l0.55,0.77h-1.88l-0.55-0.66v-2.43h-0.66c-1.55,1.1-2.32,2.58-2.32,4.42l0.22,0.22v0.77
		c0,2.65,0.66,4.31,1.99,4.97l2.1-0.55c3.46,0.74,9.9,1.36,19.32,1.88l7.18,1.77c1.25-0.15,1.88-0.4,1.88-0.77v-0.33
		c-1.4-0.44-2.1-1.03-2.1-1.77v-0.55h0.77l0.22,0.11c1.1-0.52,1.88-1.21,2.32-2.1v-0.33l-0.44-2.21v-1.66l0.22-2.21l-0.77-1.55
		c-2.21-0.66-3.75-1.36-4.64-2.1c-4.42-0.51-6.63-1.4-6.63-2.65l-0.33-16.45c0-1.18,0.44-2.02,1.33-2.54l-0.22-0.99
		c0.81-2.8,1.47-4.2,1.99-4.2h0.99v0.33l-0.44,0.66v0.11c0,0.22,0.26,0.44,0.77,0.66c0.73,0,1.69-0.59,2.87-1.77
		c3.9-3.02,6.7-4.56,8.39-4.64c0.96,0,2.28,2.58,3.97,7.73c5.23,10.31,8.65,17.37,10.27,21.2c1.4,4.05,2.43,8.94,3.09,14.69
		c0.59,3.09,1.51,4.64,2.76,4.64h0.88c9.13,0,15.13,0.22,18,0.66l1.21-0.22c1.55,0,2.32-0.7,2.32-2.1c0-4.42-0.66-7.73-1.99-9.94
		l1.21-1.66c0-1.18-3.42-1.77-10.27-1.77c-3.9,0-5.85-0.59-5.85-1.77h0.44l0.99,0.99l0.77-0.22c-0.44-1.77-1.36-4.09-2.76-6.96
		c-9.94-20.02-14.94-30.4-15.02-31.14l0.11-0.55l14.58-10.05l-0.44-1.1c0-0.44,0.18-0.66,0.55-0.66c2.36-1.03,3.53-2.17,3.53-3.42
		h0.55l3.09,0.22l0.55-0.22c0.96-1.4,1.69-2.1,2.21-2.1c1.55,0,2.32-0.99,2.32-2.98c0-4.71-0.4-7.07-1.21-7.07
		c-2.95-0.44-4.42-0.96-4.42-1.55v-0.22l0.33-0.44c0.88,0,2.32,0.33,4.31,0.99l0.55-0.55v-0.22c-1.84-1.91-7.36-2.87-16.56-2.87
		l-6.18,0.33c-2.06,0-3.09,1.1-3.09,3.31c-0.52,9.13-1.29,13.69-2.32,13.69c-11.7,7.95-20.21,14.13-25.51,18.55h-0.77
		c-1.03-5.59-1.55-18.77-1.55-39.53c-0.52-11.41-1.25-17.81-2.21-19.21v-0.55l0.66-1.33c-0.59-3.98-1.25-5.96-1.99-5.96
		c-1.62-1.55-6.96-2.83-16.01-3.86h-1.21L318.22,253.56L318.22,253.56z M334.78,261.29l0.55,0.22c0,0.88-0.37,1.8-1.1,2.76
		c-0.59,0-1.18-0.51-1.77-1.55v-0.44C333.05,261.62,333.82,261.29,334.78,261.29L334.78,261.29L334.78,261.29z M323.96,264.27h0.55
		c2.5,0,3.75,0.26,3.75,0.77l-0.77,0.77c-0.59,1.77-1.69,2.65-3.31,2.65h-1.55l-0.44-0.33v-0.66c0-0.44,0.99-0.74,2.98-0.88v-0.44
		c-1.55-0.29-2.32-0.66-2.32-1.1v-0.22C322.85,264.53,323.22,264.34,323.96,264.27L323.96,264.27L323.96,264.27z M335.99,283.15v2.1
		l-0.44,0.44h-0.22c-0.52,0-0.77-1.21-0.77-3.64v-3.09l0.44-0.66C335.51,278.29,335.84,279.91,335.99,283.15L335.99,283.15
		L335.99,283.15z M375.41,288.78l0.33,0.33v0.22l-0.33,0.44h-0.66l-0.33-0.44V289L375.41,288.78L375.41,288.78z M373.65,293.97h0.22
		v0.55l-0.77,2.76l0.77,1.77c0,0.37-0.15,0.55-0.44,0.55h-0.99c-0.37,0-0.63-0.66-0.77-1.99
		C371.66,295.78,372.32,294.56,373.65,293.97L373.65,293.97L373.65,293.97z M388.11,298.28h3.09l0.99,0.11v0.44
		c0,0.37-0.52,0.63-1.55,0.77c-3.39-0.15-5.08-0.4-5.08-0.77C385.57,298.46,386.42,298.28,388.11,298.28L388.11,298.28
		L388.11,298.28z M335,300.6l0.55,0.55L335,301.7l-0.44-0.33v-0.77H335L335,300.6z M372.65,300.6h0.55v0.33
		c-0.22,0.52-0.66,0.77-1.32,0.77h-0.22l-0.55-0.55C371.18,300.78,371.7,300.6,372.65,300.6L372.65,300.6L372.65,300.6z
		 M369.56,308.11c2.43-2.72,4.31-4.08,5.63-4.08h0.77v0.55c0,0.37-0.52,0.7-1.55,0.99c-2.72,1.84-4.27,2.76-4.64,2.76h-0.22V308.11
		L369.56,308.11z M384.03,305.79h0.22l-0.22,0.55c-6.04,5.08-10.86,8.06-14.46,8.94h-0.22v-0.44
		C373.98,310.65,378.87,307.63,384.03,305.79L384.03,305.79L384.03,305.79z M346.81,324.12v0.55c-0.88,1.18-1.99,1.77-3.31,1.77
		h-0.55v-0.33C344.13,324.78,345.41,324.12,346.81,324.12L346.81,324.12L346.81,324.12z M361.83,325.11c1.1,0,1.8,1.1,2.1,3.31v0.11
		l-0.11,0.22c-0.74,0-1.51-1.03-2.32-3.09C361.5,325.3,361.61,325.11,361.83,325.11L361.83,325.11L361.83,325.11z M338.86,326.22
		h0.22v0.44l-0.44,0.33h-0.33v-0.11L338.86,326.22L338.86,326.22z M354.87,326.22v0.22c-1.77,1.62-3.57,2.73-5.41,3.31h-0.22
		l-0.11-0.22C349.13,329.09,351.05,327.98,354.87,326.22L354.87,326.22L354.87,326.22z M339.2,330.3h0.22
		c0.37,1.25,0.55,2.36,0.55,3.31v0.33c0,1.03-0.26,1.62-0.77,1.77h-0.33l-0.44-0.33v-1.43C338.42,331.52,338.68,330.3,339.2,330.3
		L339.2,330.3L339.2,330.3z M367.24,333.83c3.9,6.18,5.85,10.34,5.85,12.48v0.66h-0.66c-2.65-4.71-4.49-9.05-5.52-13.03v-0.11
		H367.24L367.24,333.83z M339.2,338.03h0.44l0.33,0.44v2.43c0,1.03-0.44,1.55-1.33,1.55l-0.33-0.33v-2.1
		C338.31,338.99,338.61,338.33,339.2,338.03L339.2,338.03L339.2,338.03z M375.41,339.36l0.33,0.44v0.55h-0.22l-0.55-0.55v-0.44
		H375.41L375.41,339.36z M339.97,345.76v0.99c0,0.96-0.18,1.47-0.55,1.55h-0.22v-1.55l0.22-0.99H339.97L339.97,345.76z
		 M373.87,348.52l0.11,0.11c1.84,2.58,2.76,4.27,2.76,5.08h-0.44c-1.03-0.88-1.92-2.5-2.65-4.86v-0.33H373.87L373.87,348.52z
		 M339.64,353.49c0.29,0,0.48,0.33,0.55,0.99c0,0.66-0.26,1.1-0.77,1.32h-0.22l-0.77-0.77
		C338.42,354.37,338.83,353.86,339.64,353.49L339.64,353.49L339.64,353.49z M380.82,358.13c0.66,0,1.1,0.26,1.32,0.77v0.22
		l-0.55,0.55h-1.21l-0.55-0.55v-0.44C379.83,358.46,380.16,358.28,380.82,358.13L380.82,358.13L380.82,358.13z M353.77,361.44
		l0.33,0.33v0.44h-0.22l-0.55-0.55v-0.22H353.77L353.77,361.44z M349.69,362.43h0.77c0.51,0.22,1.03,1.03,1.55,2.43l-0.44,0.44
		h-0.11c-1.4,0-2.5-0.66-3.31-1.99C348.43,362.73,348.95,362.43,349.69,362.43L349.69,362.43L349.69,362.43z M398.71,362.99
		l0.44,0.33v0.77h-0.44l-0.33-0.33v-0.77H398.71L398.71,362.99z M338.09,363.32l0.33,0.44h-0.55v-0.44H338.09L338.09,363.32z
		 M343.28,363.32l0.44,0.44h-0.77L343.28,363.32L343.28,363.32z M336.54,364.31c2.21,0.07,3.31,0.26,3.31,0.55v0.22
		c0,0.52-1.62,0.77-4.86,0.77h-0.99l-7.18-0.22v-0.11l-0.11-0.22v-0.22C327.82,364.72,331.1,364.46,336.54,364.31L336.54,364.31
		L336.54,364.31z M389.11,364.86h1.1l0.44,0.44l-0.55,0.55h-0.77l-0.66-0.55L389.11,364.86L389.11,364.86z M393.19,365.53v0.77
		h-0.77l-0.66-0.66v-0.11H393.19L393.19,365.53z M399.37,366.3h0.11v1.1c0,2.06-0.18,3.09-0.55,3.09h-0.22v-2.65
		C398.71,366.89,398.93,366.37,399.37,366.3L399.37,366.3L399.37,366.3z M344.61,366.41c1.84,0,2.76,0.22,2.76,0.66v0.11l-0.99,0.22
		l-2.32-0.33v-0.44L344.61,366.41L344.61,366.41z M331.47,367.62h6.85c6.26,0,9.39,0.7,9.39,2.1v0.55l-16.56-2.32L331.47,367.62
		L331.47,367.62z M349.91,369.5c0.59,0,0.96,0.22,1.1,0.66l-0.33,0.33h-1.21l-0.33-0.33v-0.44L349.91,369.5L349.91,369.5z
		 M389.33,372.26h5.96l0.99,0.22v0.11l-0.44,0.44h-0.55l-3.53,0.22l-3.2-0.22h-0.66l-0.11-0.22
		C387.85,372.44,388.37,372.26,389.33,372.26L389.33,372.26L389.33,372.26z M450.55,296.73c-4.05,0-9.24,1.18-15.57,3.53
		c-7.44,3.02-13.51,9.72-18.22,20.1c-2.21,1.84-3.31,5.12-3.31,9.83c-2.8,7.58-4.2,11.96-4.2,13.14c0.88,2.28,1.99,4.86,3.31,7.73
		c0,4.34,4.64,10.71,13.91,19.1c7.29,2.94,11.85,4.42,13.69,4.42h2.87c4.12,0,8.17-0.26,12.15-0.77c4.05,0,8.06-1.92,12.04-5.74
		c9.06-12.59,13.8-19.88,14.25-21.86c0.81-5.08,1.47-8.43,1.99-10.05l-0.44-5.52l0.22-1.99l-1.21-3.09
		c-0.52-2.87-0.88-4.34-1.1-4.42h-0.22c-0.29,1.03-0.55,1.55-0.77,1.55h-0.33c-1.47-2.58-2.39-4.53-2.76-5.85
		c0-0.37,0.15-0.55,0.44-0.55h0.11c0.88,0,1.73,0.7,2.54,2.1h0.22c0-2.28-2.58-5.63-7.73-10.05c-5.37-4.34-10.79-7.8-16.23-10.38
		h-1.33L450.55,296.73L450.55,296.73z M454.42,299.27c2.06,0.15,3.09,0.85,3.09,2.1v0.66l-0.22,0.11l-1.66-0.11
		c-1.84,0-2.95-0.66-3.31-1.99C452.32,299.68,453.02,299.42,454.42,299.27L454.42,299.27L454.42,299.27z M427.59,307.78
		c5.59-5.3,11.93-7.95,18.99-7.95l2.43,0.44v0.11c0,0.66-3.46,1.32-10.38,1.99l-0.77-0.22l-1.21,0.55c-5.74,4.27-8.87,6.4-9.39,6.4
		v-0.55L427.59,307.78L427.59,307.78z M463.14,303.36h0.22c1.77,0.59,2.65,1.44,2.65,2.54c-1.25,0-2.36-0.66-3.31-1.99v-0.22
		L463.14,303.36L463.14,303.36z M459.61,307v0.22l-0.11,0.22c-1.1,0-2.61-0.74-4.53-2.21v-0.11l0.22-0.22
		C456.52,304.9,457.99,305.61,459.61,307L459.61,307L459.61,307z M449.78,304.24H450l1.21,0.44c0,0.29-3.94,0.88-11.82,1.77v-0.66
		C441.54,304.76,445,304.24,449.78,304.24L449.78,304.24L449.78,304.24z M455.08,304.68c-1.84,0.88-2.69,1.55-2.54,1.99v0.11
		l1.54-1.32l-0.44-0.44v-0.33H455.08L455.08,304.68z M450,308.33l2.87,0.44v0.33l-10.82,2.54h-2.1l-0.33-0.44v-0.11
		C439.62,310.06,443.08,309.14,450,308.33L450,308.33L450,308.33z M470.43,313.63v0.11l-0.33,0.44h-0.44
		c-2.5-1.33-3.98-2.61-4.42-3.87v-0.22C468.26,311.79,469.99,312.97,470.43,313.63L470.43,313.63L470.43,313.63z M431.45,308.88
		v0.44c-0.81,1.25-1.66,1.88-2.54,1.88C428.91,310.17,429.76,309.4,431.45,308.88L431.45,308.88L431.45,308.88z M461.38,311.64
		c0.88,0,1.32,0.44,1.32,1.33v0.22l-0.33,0.44c-0.74,0-1.44-0.48-2.1-1.43C460.27,311.97,460.64,311.79,461.38,311.64L461.38,311.64
		L461.38,311.64z M425.05,329.97c0-1.18,1.62-3.42,4.86-6.74c1.1-2.65,2.98-5.3,5.63-7.95c0-1.47,5.96-2.43,17.89-2.87h1.77
		c3.09,0.96,6.11,3.42,9.05,7.4c3.9,3.02,5.85,4.82,5.85,5.41c-0.37,1.84-0.55,4.09-0.55,6.73c0,3.68,0.29,6.37,0.88,8.06v1.44
		c0.15,4.12-2.61,9.24-8.28,15.35l-5.52,4.64c-2.43,1.03-5.78,1.99-10.05,2.87l-2.76-0.33c-5.08-1.18-8.54-2.8-10.38-4.86
		c-3.9-1.91-5.85-3.39-5.85-4.42c-1.92-3.46-3.46-6.4-4.64-8.83v-0.99C423.46,338.69,424.16,333.72,425.05,329.97L425.05,329.97
		L425.05,329.97z M468.77,314.73c1.55,0,3.13,0.96,4.75,2.87v0.22l-0.33,0.44h-0.55c-2.43-0.96-3.94-2.06-4.53-3.31v-0.22H468.77
		L468.77,314.73z M429.57,315.51v0.22l-0.44,0.33h-0.33v-0.55H429.57L429.57,315.51z M427.37,317.05h0.66l0.11,0.22
		c0,0.74-0.7,1.69-2.1,2.87h-0.33v-0.99C426.08,318.27,426.63,317.57,427.37,317.05L427.37,317.05L427.37,317.05z M420.08,318.93
		h0.22c0,0.66-0.22,1.07-0.66,1.21h-0.11C419.53,319.48,419.71,319.08,420.08,318.93L420.08,318.93L420.08,318.93z M417.76,324.01
		v0.33c-0.3,0.66-0.74,0.99-1.33,0.99C416.43,324.45,416.88,324.01,417.76,324.01L417.76,324.01L417.76,324.01z M481.25,330.41h0.22
		l0.44,0.33v0.66l-0.66,0.55l-0.33-0.44v-0.77L481.25,330.41L481.25,330.41z M479.37,339.69h0.22l1.66,2.32v0.33
		c-0.88,1.4-1.32,2.65-1.32,3.75h-0.22c-0.44-0.07-0.74-1.69-0.88-4.86C478.89,340.2,479.08,339.69,479.37,339.69L479.37,339.69
		L479.37,339.69z M420.41,338.69h0.22v0.33l-0.33,0.44h-0.44v-0.22L420.41,338.69L420.41,338.69z M411.8,342.01h0.11l0.22,0.88v0.77
		l-0.22,0.22c-0.22,0-0.41-0.51-0.55-1.55L411.8,342.01L411.8,342.01z M478.38,349.74l0.55,0.33c0.15-1.69-0.07-2.39-0.66-2.1h-0.22
		l-0.22-0.99l-0.22,2.76H478.38L478.38,349.74z M476.83,349.85h0.44v0.22c-0.66,1.69-1.33,2.54-1.99,2.54l-0.11-0.22
		C475.69,350.69,476.24,349.85,476.83,349.85L476.83,349.85L476.83,349.85z M415.44,349.07c0.88,0,1.73,2.39,2.54,7.18v0.22
		l-0.22,0.11c-1.77-0.51-2.72-2.43-2.87-5.74v-1.21L415.44,349.07L415.44,349.07z M421.07,359.34h0.22
		c0.73,0.44,1.11,1.03,1.11,1.77h-0.55c-0.52-0.29-0.92-0.7-1.22-1.21v-0.22L421.07,359.34L421.07,359.34z M424.38,364.75
		c4.71,1.11,7.32,1.95,7.84,2.54v0.11h-1.66c-3.31,0-5.71-0.7-7.18-2.1v-0.55H424.38L424.38,364.75z M439.4,367.62v0.22l-0.22,0.22
		c-2.95,0-4.42-0.33-4.42-0.99v-0.44C436.46,366.63,438,366.96,439.4,367.62L439.4,367.62L439.4,367.62z M433.22,368.18h0.44
		l0.33,0.44l-0.33,0.33h-1.99v-0.11C431.74,368.4,432.26,368.18,433.22,368.18L433.22,368.18L433.22,368.18z M460.6,369.61
		l0.22,0.22c0,0.44-0.88,0.99-2.65,1.66h-0.22v-0.11C458.25,370.72,459.13,370.13,460.6,369.61L460.6,369.61L460.6,369.61z
		 M452.21,369.17h1.33c0.51,0.29,0.88,0.7,1.1,1.21v0.33c0,0.44-0.88,0.7-2.65,0.77c-1.55-0.15-2.32-0.41-2.32-0.77v-0.33
		C450.26,369.57,451.11,369.17,452.21,369.17L452.21,369.17L452.21,369.17z M500.3,254.77c-0.81,0-1.47,3.98-1.99,11.93
		c0,0.66,0.59,1.07,1.77,1.21l6.96-0.44c0.51,0,1.03,0.33,1.55,0.99c0.52,27.68,1.11,44.57,1.77,50.68
		c-0.66,18.85-1.18,30.04-1.55,33.57c0,2.06-0.52,3.09-1.55,3.09h-1.77c-0.59,0-1.36-0.26-2.32-0.77c-2.14,0.37-3.61,0.77-4.42,1.21
		h-1.55l-1.44-0.22v0.22h-0.33c-0.59,5.52-1.51,9.5-2.76,11.93c0,0.88,3.83,1.33,11.48,1.33l25.07,3.53c1.91,0,3.2,0.44,3.86,1.33
		h0.44l1.32-1.1c1.4-4.64,2.69-8.24,3.86-10.82c-1.03-1.1-1.54-1.95-1.54-2.54v-2.1l-0.22-0.22c-7.73-0.51-12.99-1.18-15.79-1.99
		l0.77-29.15l-0.22-6.18l0.22-22.97V273.1c0-6.55,0.29-11.7,0.88-15.46c0-1.55-1.29-2.32-3.87-2.32l-10.05,0.44l-6.29-1.55
		L500.3,254.77L500.3,254.77z M501.84,257.64h4.42v0.22c-1.03,1.18-2.14,1.77-3.31,1.77h-0.55c-1.03,0-1.55-0.48-1.55-1.44v-0.33
		L501.84,257.64L501.84,257.64z M509.68,257.64h2.98v0.22l-0.66,0.55h-1.55l-1.1-0.33L509.68,257.64L509.68,257.64z M516.31,261.95
		c0.81-1.18,1.69-1.77,2.65-1.77h0.44l0.33,0.33c0,0.44-0.26,1.03-0.77,1.77c-1.18,0.44-2.32,1.1-3.42,1.99h-0.55l-0.44-0.44v-0.22
		C514.54,262.8,515.13,262.25,516.31,261.95L516.31,261.95L516.31,261.95z M501.07,261.18h0.33l0.77,0.55l2.76,1.33v0.44l-0.99,0.11
		h-3.09l-0.55-0.55v-1.1L501.07,261.18L501.07,261.18z M512.99,273.66h0.22l0.33,0.44v0.55l-0.33,0.44h-0.22l-0.33-0.44v-0.55
		L512.99,273.66L512.99,273.66z M512.66,282.16h0.33v0.66h-0.77v-0.22L512.66,282.16L512.66,282.16z M519.4,292.87l0.33,0.33v0.44
		h-0.11l-0.66-0.66v-0.11H519.4L519.4,292.87z M519.73,295.52v2.32c0,1.4-0.19,2.1-0.55,2.1h-0.22l-0.11-1.88l0.33-3.09
		L519.73,295.52L519.73,295.52z M512.77,297.29h0.77v0.33c-0.88,0.37-1.32,0.7-1.32,0.99l0.22,0.22v0.77l-0.44,0.33l-0.33-0.33
		v-0.55C511.67,298.32,512.04,297.73,512.77,297.29L512.77,297.29L512.77,297.29z M519.62,301.15v0.77l-0.44,0.33h-0.33v-0.11
		l0.11-0.99H519.62L519.62,301.15z M515.09,312.74c0,4.12-0.3,6.18-0.88,6.18h-0.22v-0.44
		C514.28,314.66,514.65,312.74,515.09,312.74L515.09,312.74L515.09,312.74z M518.96,353.27c-0.07,0.96-0.26,1.43-0.55,1.43h-1.1
		l-0.22-0.22l-0.22-5.85v-12.92l0.22-9.61l0.33-0.44C518.22,325.66,518.74,334.87,518.96,353.27L518.96,353.27L518.96,353.27z
		 M511.67,346.31c0.37,0,0.63,0.66,0.77,1.99v1.1l-0.77,0.77c-0.3,0-0.48-0.37-0.55-1.1v-0.55
		C511.12,347.05,511.3,346.31,511.67,346.31L511.67,346.31L511.67,346.31z M501.95,358.57h0.44l0.55,0.55v1.1h-0.22
		c-0.74,0-1.1-0.37-1.1-1.1v-0.22L501.95,358.57L501.95,358.57z M532.1,358.57h1.55l0.99,0.11v0.66l-0.77,0.55
		c-1.47,0-2.36-0.33-2.65-0.99v-0.22L532.1,358.57L532.1,358.57z M497.53,359.12h0.44l0.11,0.55l-0.33,0.44l-0.55-0.22v-0.44
		L497.53,359.12L497.53,359.12z M506.04,360.12h0.22l0.99,0.11v0.44l-0.44,0.33h-0.99l-0.88-0.11v-0.22
		C504.93,360.37,505.3,360.19,506.04,360.12L506.04,360.12L506.04,360.12z M532.87,363.21l1.44,0.11v0.44l-0.99,0.22h-4.09
		c-3.46-0.07-5.19-0.4-5.19-0.99v-0.22L532.87,363.21L532.87,363.21z M503.94,363.32h0.33c1.77,0,3.2,0.15,4.31,0.44v0.22
		c0,0.37-0.85,0.55-2.54,0.55h-2.32l-0.33-0.44v-0.11L503.94,363.32L503.94,363.32z M529.78,366.3h2.32l0.99,0.11v0.44
		c-0.07,0.37-0.59,0.55-1.55,0.55h-3.09l-0.55-0.33C527.9,366.7,528.53,366.45,529.78,366.3L529.78,366.3L529.78,366.3z
		 M495.77,366.41h0.44l0.55,0.66l-0.33,0.33h-0.77l-0.44-0.33L495.77,366.41L495.77,366.41z M532.32,369.94h0.44l0.88,0.22v0.55
		l-0.88,0.22h-0.44l-0.99-0.22v-0.55L532.32,369.94L532.32,369.94z M567.92,286.13c-0.52,0-2.25,0.85-5.19,2.54
		c-6.11,3.98-9.97,8.28-11.59,12.92c-0.44,6.55-0.85,10.27-1.21,11.15c0,0.74,1.43,1.33,4.31,1.77c0.66-1.77,1.18-2.65,1.55-2.65
		l0.99-0.22c3.46,0,5.3-0.26,5.52-0.77c0.51-4.2,1.8-7.62,3.86-10.27c0-1.18,2.72-2.28,8.17-3.31l6.18,0.77
		c6.18,0,10.38,1.88,12.59,5.63c2.58,4.57,4.38,9.17,5.41,13.8c0,0.52-0.22,0.77-0.66,0.77h-0.88c-1.55-1.18-4.35-1.77-8.39-1.77
		h-0.77l-6.96,0.22c-5.15,0-10.42,1.4-15.79,4.2c-1.62,0.52-3.24,1.77-4.86,3.76c-3.24,3.9-5.56,7.88-6.96,11.92
		c-1.55,2.5-2.32,5.15-2.32,7.95v4.42c0,3.31,0.92,6.07,2.76,8.28c2.28,4.49,3.75,7.07,4.42,7.73c3.83,3.31,8.54,5.45,14.13,6.4H573
		c4.93,0,9.42-0.59,13.47-1.77c6.18-2.65,12.26-5.08,18.22-7.29c6.7,5.96,10.82,8.98,12.37,9.05h0.11c0.74,0,2.43-1.29,5.08-3.86
		c3.61-2.72,5.41-4.71,5.41-5.96v-0.22c-1.1,0-3.35-1.66-6.74-4.97c-3.75-4.71-5.63-8.54-5.63-11.48l0.55-15.24l-0.22-3.64
		c0-5.74-0.81-9.39-2.43-10.93c-1.47-7.14-3.28-11.82-5.41-14.02c-1.03-3.09-4.53-7.47-10.49-13.14c-5.08-1.47-8.5-2.21-10.27-2.21
		L567.92,286.13L567.92,286.13z M585.14,288.78h0.77l0.55,0.66l-0.33,0.33h-0.77l-0.66-0.55L585.14,288.78L585.14,288.78z
		 M596.74,290c0.66,0,1.36,0.37,2.1,1.1v0.44h-0.22c-0.66,0-1.36-0.4-2.1-1.21V290H596.74L596.74,290z M576.97,290.22h0.66v0.55
		c-1.62,0.66-2.91,0.99-3.86,0.99c-0.96,0-1.47-0.22-1.54-0.66v-0.33C573.25,290.4,574.84,290.22,576.97,290.22L576.97,290.22
		L576.97,290.22z M558.42,295.74c1.77-2.13,3.13-3.2,4.08-3.2h0.22v0.55c-1.84,1.92-3.2,2.87-4.09,2.87h-0.22V295.74L558.42,295.74z
		 M579.73,294.64h1.33l0.77,0.77v0.22l-0.33,0.33h-1.99l-0.55-0.77L579.73,294.64L579.73,294.64z M557.1,307l0.44,0.33v1.22
		c0,0.66-0.22,1.03-0.66,1.1h-0.11v-2.32L557.1,307L557.1,307z M612.97,319.26c0.15,0,0.33,0.26,0.55,0.77l-0.22,0.77
		c-0.29,0-0.48-0.4-0.55-1.21v-0.33H612.97L612.97,319.26z M609.32,324.67h0.11c0.66,0.74,0.99,1.77,0.99,3.09h-0.22
		c-0.44,0-0.88-0.77-1.33-2.32V325L609.32,324.67L609.32,324.67z M564.49,325.55h0.11V326c-0.3,0.66-0.81,0.99-1.55,0.99h-0.33
		v-0.66L564.49,325.55L564.49,325.55z M565.38,335.49c3.09-3.38,8.46-5.96,16.12-7.73c2.8,0,7.95,1.07,15.46,3.2
		c2.28,0.74,3.42,1.66,3.42,2.76l0.22,0.11c0.66,5.67,1.43,10.57,2.32,14.69v0.77c0,0.74-0.41,1.32-1.22,1.77
		c-12.07,5.96-19.14,8.94-21.2,8.94c-1.25-0.15-2.28-0.4-3.09-0.77c-5.89-2.43-9.9-4.93-12.04-7.51v-0.44l1.44,0.22v-0.22
		l-1.55-1.88c-1.03,0-1.88-3.09-2.54-9.28C562.73,338.95,563.61,337.41,565.38,335.49L565.38,335.49L565.38,335.49z M608.88,330.19
		v0.22h-0.33v-0.55L608.88,330.19L608.88,330.19z M609.43,333.17v0.55l-0.33,0.33l-0.44-0.33v-0.55H609.43L609.43,333.17z
		 M604.69,337.04h0.11l0.44,0.33v0.44l-0.55,0.11l-0.44-0.55L604.69,337.04L604.69,337.04z M610.21,337.37
		c0.66,1.55,0.99,3.35,0.99,5.41V343l-0.33,0.33c-0.66,0-1.07-1.91-1.21-5.74v-0.22H610.21L610.21,337.37z M604.25,342.23h0.55
		l0.44,0.33v0.77l-0.55,0.66h-0.22l-0.55-0.66v-0.77L604.25,342.23L604.25,342.23z M617.16,356.69c0.51,0,0.99,0.85,1.43,2.54v0.33
		h-0.44c-0.52,0-0.96-0.63-1.33-1.88v-0.99H617.16L617.16,356.69z M560.74,357.13h0.22l0.55,0.55v0.33h-0.77l-0.33-0.33v-0.22
		L560.74,357.13L560.74,357.13z M612.42,359.23h0.77l0.77,0.77v0.33L613.3,361h-0.11c-0.52-0.22-0.92-0.7-1.22-1.43L612.42,359.23
		L612.42,359.23z M595.96,359.56h0.55v0.22c-2.28,1.18-4.16,1.77-5.63,1.77h-0.77v-0.22C590.48,360.67,592.43,360.08,595.96,359.56
		L595.96,359.56L595.96,359.56z M615.84,361.88h0.55l0.77,0.77v0.22l-0.33,0.44h-0.77l-0.55-0.66v-0.33L615.84,361.88L615.84,361.88
		z M577.96,362.88h1.99l0.33,0.44v0.11c0,0.44-0.52,0.7-1.55,0.77c-0.66,0-1.1-0.26-1.32-0.77L577.96,362.88L577.96,362.88z
		 M561.18,365.19h0.55c2.13,1.32,4.45,2.43,6.96,3.31c3.9,0.74,5.85,1.32,5.85,1.77v0.11c-2.36,0-4.38-0.37-6.07-1.1
		c-4.64-1.32-7.22-2.5-7.73-3.53v-0.11L561.18,365.19L561.18,365.19z M638.02,291.99l-2.32,6.96l0.22,5.63
		c0,1.03-0.26,1.88-0.77,2.54v0.55c1.18,1.33,2.13,1.99,2.87,1.99l7.18-0.99h0.77c0.88,0,1.33,4.82,1.33,14.46l-0.55,14.13v8.72
		l-0.22,4.75c0.88,1.18,1.33,2.03,1.33,2.54v0.22l-0.77,0.99c-3.09,0.66-4.64,1.29-4.64,1.88c0.44,5.45,0.92,9.2,1.44,11.26
		c0.66,1.77,1.95,2.65,3.87,2.65l17.78-0.33c1.03-2.8,1.55-5.37,1.55-7.73v-0.22c0-1.69-0.33-2.91-0.99-3.64
		c-3.98-0.59-5.96-1.1-5.96-1.55v-0.44l2.43-0.33l3.31,0.33v-0.77c0-0.81-1.99-1.58-5.96-2.32c-0.59,0-0.99-5.15-1.22-15.46
		c0-5.67,0.77-9.09,2.32-10.27c4.56-5,7.03-7.51,7.4-7.51c4.86-5,10.19-7.51,16.01-7.51c0.66,0,2.61,0.7,5.85,2.1
		c4.34,5.23,6.52,9.17,6.52,11.81c0,2.28-0.11,3.42-0.33,3.42l-0.99,13.58c-1.32,4.27-2.43,8.83-3.31,13.69
		c-1.69,1.55-2.54,4.05-2.54,7.51l0.22,5.3c0,3.16,1.8,4.97,5.41,5.41c5.59-1.32,10.75-1.99,15.46-1.99h3.09
		c2.5,0,4.71-0.59,6.63-1.77c1.03,0,1.84-3.72,2.43-11.15c-0.44-0.37-1.51-0.55-3.2-0.55h-2.54l-5.85-0.22l-0.11-1.33v-0.22
		l1.55-7.18l-0.99-8.06l0.99-11.04v-1.21c0-9.13-2.06-16.97-6.18-23.52c-2.72-3.61-5.56-6-8.5-7.18c-4.05-3.09-7.8-4.64-11.26-4.64
		c-5.37,0-12.15,1.8-20.32,5.41c-3.46,1.1-5.52,2.21-6.18,3.31c-1.18,0-1.95-1.44-2.32-4.31v-2.65c0-1.03,0.26-2.5,0.77-4.42
		l-0.33-0.44h-12.59c-2.28,0-4.71-0.18-7.29-0.55L638.02,291.99L638.02,291.99z M651.38,294.75v0.22h0.33v0.33l-0.55,0.99
		c0,0.88-3.35,1.33-10.05,1.33c-1.54-0.07-2.32-0.26-2.32-0.55v-0.44L651.38,294.75L651.38,294.75z M683.62,296.84
		c0.96,0,2.58,0.7,4.86,2.1l1.55-0.33h0.55c0.96,0,1.55,0.26,1.77,0.77v0.33l-0.22,0.22l-4.86,0.22l-1.66-0.44
		c-1.77-1.25-3.02-1.88-3.75-1.88v-0.22C682.07,297.1,682.66,296.84,683.62,296.84L683.62,296.84L683.62,296.84z M671.47,300.38
		c2.43-1.47,4.86-2.21,7.29-2.21h0.22v0.22c0,0.52-2.39,1.36-7.18,2.54l-0.33-0.44V300.38L671.47,300.38z M643.98,299.94l0.66,0.22
		c0,0.37-0.66,0.63-1.99,0.77h-0.33l-0.44-0.44C641.88,300.12,642.58,299.94,643.98,299.94L643.98,299.94L643.98,299.94z
		 M643.21,303.58l0.22-0.11c3.39-1.18,5.45-2.02,6.18-2.54h0.44l0.11,0.55l-0.11,5.08c0,0.37-0.15,0.55-0.44,0.55
		c-0.66,0-1.29-0.18-1.88-0.55c0-0.51,0.26-1.03,0.77-1.55v-0.44c-0.22-0.51-0.81-0.77-1.77-0.77h-0.55l-2.98,0.22V303.58
		L643.21,303.58z M669.93,301.26h0.33v0.22c0,0.22-0.44,0.48-1.33,0.77v-0.22l-0.22-0.11C668.71,301.63,669.12,301.41,669.93,301.26
		L669.93,301.26L669.93,301.26z M638.79,301.48h2.54v0.22c-1.18,0.88-2.1,1.33-2.76,1.33c-0.59-0.22-0.88-0.48-0.88-0.77v-0.22
		C637.68,301.74,638.05,301.56,638.79,301.48L638.79,301.48L638.79,301.48z M691.57,303.03c1.69,0.29,2.54,0.7,2.54,1.21
		c0,0.44-0.26,0.88-0.77,1.33c-1.84-0.15-2.76-0.48-2.76-0.99C690.58,303.91,690.91,303.4,691.57,303.03L691.57,303.03
		L691.57,303.03z M663.97,303.25h0.11l0.22,0.22v0.11c-1.62,1.84-3.17,2.76-4.64,2.76v-0.55
		C661.43,304.1,662.86,303.25,663.97,303.25L663.97,303.25L663.97,303.25z M696.54,303.58h0.66c0.88,0,1.4,0.22,1.55,0.66v0.11
		l-0.66,0.66h-0.88c-0.66,0-1.07-0.26-1.21-0.77L696.54,303.58L696.54,303.58z M681.52,304.24h0.99v0.33c0,0.44-0.77,0.77-2.32,0.99
		h-0.77v-0.44C679.42,304.68,680.12,304.39,681.52,304.24L681.52,304.24L681.52,304.24z M654.25,304.35c0.51,0,0.92,0.85,1.21,2.54
		c1.1,1.69,1.66,2.8,1.66,3.31c0,0.74-0.7,1.62-2.1,2.65c-0.44,2.36-0.77,3.53-0.99,3.53c-0.59-0.37-0.88-0.96-0.88-1.77l0.11-1.1
		l-0.55-2.21v-0.88c0.37-0.44,0.55-1.21,0.55-2.32v-2.76l0.22-0.99H654.25L654.25,304.35z M640.34,306.12l0.77,0.22v0.22l-0.55,0.55
		h-1.55v-0.22C639.01,306.6,639.45,306.34,640.34,306.12L640.34,306.12L640.34,306.12z M693.89,307.33l-0.44,0.33h-0.11l-0.66-0.33
		v-0.22l0.22-0.22L693.89,307.33L693.89,307.33z M684.61,307.67l1.33,0.44c0,0.37-1.14,0.55-3.42,0.55h-0.22l-0.22-0.22
		C682.07,308.07,682.92,307.81,684.61,307.67L684.61,307.67L684.61,307.67z M666.28,310.2c1.91-1.4,3.13-2.1,3.64-2.1h0.99v0.11
		c-4.79,4.12-8.47,6.33-11.04,6.63v-0.44C659.88,313.08,662.01,311.68,666.28,310.2L666.28,310.2L666.28,310.2z M696.54,308.44
		c1.99,1.55,2.98,3.09,2.98,4.64v0.77l-0.66,0.55c-0.37,0-0.55-0.44-0.55-1.33c-1.4-2.43-2.1-3.83-2.1-4.2v-0.44H696.54
		L696.54,308.44z M649.39,308.66h0.44l-0.44,2.1h-0.33l-0.22-0.55C648.91,309.17,649.09,308.66,649.39,308.66L649.39,308.66
		L649.39,308.66z M690.36,310.2h0.77l0.66,0.55v0.55l-0.44,0.44h-3.87v-0.44C687.48,310.94,688.44,310.57,690.36,310.2L690.36,310.2
		L690.36,310.2z M674.79,311.75h0.33l0.44,0.33c0,0.66-1.1,1.25-3.31,1.77C672.47,312.45,673.31,311.75,674.79,311.75L674.79,311.75
		L674.79,311.75z M669.93,312.3v0.22h0.33c0,0.81-0.81,1.92-2.43,3.31h-0.44v-0.22C668.2,313.41,669.04,312.3,669.93,312.3
		L669.93,312.3L669.93,312.3z M656.01,313.52h0.22c0.81,0.15,1.25,2.14,1.32,5.96c0,3.09-0.33,5.48-0.99,7.18h-0.33
		c-0.66,0-0.99-2.58-0.99-7.73c0-0.51-0.26-1.03-0.77-1.55c0.88-0.73,1.33-1.51,1.33-2.32l-0.22-0.99
		C655.57,313.7,655.72,313.52,656.01,313.52L656.01,313.52L656.01,313.52z M701.4,321.25v1.33l-0.33,1.1
		c-0.22-0.07-0.99-2.43-2.32-7.07v-0.66C699.7,315.95,700.59,317.71,701.4,321.25L701.4,321.25L701.4,321.25z M705.7,316.39
		c0.73,0,1.29,2.69,1.66,8.06h-0.33c-0.81,0-1.32-2.69-1.55-8.06H705.7L705.7,316.39z M665.51,316.72h0.33l-0.33,1.77h-0.66
		l-0.33-0.33v-0.22L665.51,316.72L665.51,316.72z M661.2,318.16h0.22l0.33,0.33v0.44l-0.55,0.11l-0.33-0.55L661.2,318.16
		L661.2,318.16z M705.81,338.36h-0.77l-0.55-1.88v-0.22C705.3,336.26,705.74,336.96,705.81,338.36L705.81,338.36L705.81,338.36z
		 M699.52,344.21h0.11v1.77c0,0.96-0.18,1.47-0.55,1.55h-0.22l-0.11-0.22C698.97,345.25,699.23,344.21,699.52,344.21L699.52,344.21
		L699.52,344.21z M699.52,348.3v2.65l-0.44,1.77h-0.33c0-1.18-0.26-2.13-0.77-2.87C697.97,348.82,698.49,348.3,699.52,348.3
		L699.52,348.3L699.52,348.3z M704.71,348.41v0.66h-0.44v-0.66H704.71L704.71,348.41z M709.9,351.39v0.11c0,1.4-0.63,2.91-1.88,4.53
		h-0.22v-3.75l0.33-3.2C709.31,349.07,709.9,349.85,709.9,351.39L709.9,351.39L709.9,351.39z M704.71,354.48h0.22v0.33l-0.66,1.77
		h-0.11v-0.22C704.16,355.11,704.34,354.48,704.71,354.48L704.71,354.48L704.71,354.48z M644.97,356.91h1.55
		c0,0.81,0.51,1.73,1.55,2.76v0.22l-0.55,0.55h-0.77c-1.25,0-1.95-0.96-2.1-2.87v-0.22L644.97,356.91L644.97,356.91z M704.49,359.12
		l0.55,0.55v0.22l-0.33,0.33h-0.22l-0.55-0.55v-0.55H704.49L704.49,359.12z M717.63,361.55h2.1v0.44c0,0.59-2.32,0.92-6.96,0.99
		v-0.44C712.77,362.03,714.39,361.7,717.63,361.55L717.63,361.55L717.63,361.55z M657.89,363.1c3.39,0,5.08,0.33,5.08,0.99
		c0,0.52-2.5,0.77-7.51,0.77c-2.72,0-4.09-0.26-4.09-0.77C651.74,363.43,653.92,363.1,657.89,363.1L657.89,363.1L657.89,363.1z
		 M692.9,364.53l0.77,0.77v0.11l-0.33,0.44h-0.44l-0.33-0.44v-0.88H692.9L692.9,364.53z M716.08,364.64h0.77
		c0.96,0,1.55,0.26,1.77,0.77v0.44c-0.37,0.74-1.4,1.1-3.09,1.1c-0.74,0-1.18-0.26-1.33-0.77v-0.55
		C714.43,364.97,715.05,364.64,716.08,364.64L716.08,364.64L716.08,364.64z M702.39,367.4c1.84,0,3.13,0.44,3.86,1.33
		c0,0.44-2.76,0.77-8.28,0.99c-0.81,0-1.4-0.4-1.77-1.21C696.21,367.92,698.27,367.55,702.39,367.4L702.39,367.4L702.39,367.4z
		 M692.56,371.49h0.55c2.21,0,3.86,0.51,4.97,1.55v0.11l-1.32,0.22h-0.77c-2.72,0-4.09-0.33-4.09-0.99v-0.33L692.56,371.49
		L692.56,371.49z M792.72,253.67l-0.77,0.11V254l0.55,0.77v0.44c-2.36,0-3.53,0.52-3.53,1.55c0,0.44,0.22,0.81,0.66,1.1
		c0.81,0,1.25,0.26,1.33,0.77v0.44c-1.47,0.15-2.32,0.33-2.54,0.55c0.22,7.07,0.81,10.6,1.77,10.6c1.33,0,3.57,1.03,6.74,3.09v0.22
		c-0.44,0-0.81,0.33-1.1,0.99c-0.96,18.48-1.88,29.92-2.76,34.34h-0.55l-0.99-0.55c-6.92-5.67-15.79-8.5-26.61-8.5h-1.43
		c-7.07,0-12.22,1.47-15.46,4.42c-2.28,2.28-4.64,5.56-7.07,9.83c-5.08,8.83-7.62,17.04-7.62,24.62c0.22,0.74,0.44,1.1,0.66,1.1
		l0.77-0.99c0.07-0.88,0.26-1.32,0.55-1.32l0.33,0.44v2.87c0,0.96-0.26,1.55-0.77,1.77h-0.33l-0.22-1.44h-0.77
		c-0.22,1.18-0.41,3.75-0.55,7.73l0.22,0.77h0.55c0.15-1.77,0.48-2.65,0.99-2.65h0.88c2.06,2.8,3.09,5.23,3.09,7.29v1.99l-0.11,0.22
		l-0.66-0.22c-1.69-2.65-3.02-4.38-3.97-5.19h-0.44l-0.22,0.55c0,0.52,0.92,2.06,2.76,4.64c1.62,3.09,3.24,5.52,4.86,7.29
		c4.78,4.34,10.12,7.25,16.01,8.72c6.33-0.44,13.8-2.95,22.42-7.51c2.87-2.35,4.93-3.53,6.18-3.53l-0.22,5.08
		c0.51,5.15,0.96,7.73,1.33,7.73l5.85,0.22l4.09-0.99h1.66l0.77,1.33h0.99c5.01,0,7.91-1.1,8.72-3.31v-0.11l-0.77-0.99v-1.55
		l0.77-0.77c0-1.91-2.58-3.35-7.73-4.31v-3.64c1.25-7.58,1.88-12.29,1.88-14.13v-0.55l0.22-0.99c-0.22-1.4-0.59-2.1-1.11-2.1v-0.33
		c0.59,0,0.88-2.32,0.88-6.96c0-3.98,0.77-12.44,2.32-25.4l-0.11-1.1c-1.03-0.15-1.55-0.48-1.55-0.99l0.11-2.1
		c1.03-2.87,1.55-5.26,1.55-7.18v-2.32c0-0.66,0.4-1.29,1.21-1.88c0-0.96,0.11-1.44,0.33-1.44c0.44-15.09,0.92-25.07,1.44-29.92
		c0-0.59-0.59-1.47-1.77-2.65c-0.15-3.02-0.33-4.53-0.55-4.53c0-0.44-2.14-1.07-6.4-1.88L792.72,253.67L792.72,253.67z
		 M793.05,260.18h1.21l0.33,0.44v0.11h-1.88v-0.11L793.05,260.18L793.05,260.18z M801.55,261.73h0.99l0.99,0.22v0.33h-2.32v-0.11
		L801.55,261.73L801.55,261.73z M798.24,263.72h1.99l0.55,0.55c0,0.37-1.22,0.63-3.64,0.77l-0.44-0.44
		C797.06,264.01,797.58,263.72,798.24,263.72L798.24,263.72L798.24,263.72z M792.83,264.05h1.44l0.33,0.44
		c-0.07,0.37-0.44,0.55-1.1,0.55l-0.99-0.22v-0.33L792.83,264.05L792.83,264.05z M758.82,303.91h0.77l0.66,0.55v0.33l-0.77,0.77
		h-0.77l-0.44-0.33v-0.77L758.82,303.91L758.82,303.91z M768.32,304.46h1.55c2.94,0.15,4.56,0.52,4.86,1.1v0.44h-6.63l-0.33-0.44
		C767.76,304.98,767.95,304.61,768.32,304.46L768.32,304.46L768.32,304.46z M804.42,305.24h0.66v-0.77h-0.66V305.24L804.42,305.24z
		 M752.31,305.46h0.77c0.96,0,1.47,0.18,1.55,0.55c0,1.33-1.8,2.47-5.41,3.42h-0.55l-0.44-0.33v-0.55
		C749.47,306.49,750.83,305.46,752.31,305.46L752.31,305.46L752.31,305.46z M781.24,307c1.69,0.37,2.54,1.07,2.54,2.1h-0.22
		c-0.59,0-2.17-0.51-4.75-1.55v-0.44h0.33L781.24,307L781.24,307z M796.14,307.78l0.22,0.88v0.44l-0.22,0.22
		c-0.37-0.07-0.55-0.59-0.55-1.55H796.14L796.14,307.78z M763.9,310.43h0.99v0.22l-0.44,0.33h-0.77l-0.22-0.11L763.9,310.43
		L763.9,310.43z M744.8,313.74c2.87-2.06,4.53-3.09,4.97-3.09h0.99l-0.55,1.1c-1.03,0-3.09,2.14-6.18,6.4
		c-0.88,2.28-1.54,3.46-1.99,3.53h-0.55v-0.44C741.78,319.26,742.88,316.76,744.8,313.74L744.8,313.74L744.8,313.74z M758.82,311.64
		h1.55v0.11l-0.33,0.44h-1.54v-0.22L758.82,311.64L758.82,311.64z M769.64,311.64l0.99,0.11v0.44l-3.31,0.33h-0.33l-0.22-0.11
		C766.77,311.97,767.73,311.71,769.64,311.64L769.64,311.64L769.64,311.64z M774.94,311.64h0.11c0.66,0,1.07,0.18,1.21,0.55
		l-0.44,0.33h-0.77l-0.55-0.55L774.94,311.64L774.94,311.64z M782.01,311.75l0.22,0.22l-0.33,0.44l-0.66-0.66H782.01L782.01,311.75z
		 M785.32,312.74c1.18,0,2.13,0.44,2.87,1.33v0.44h-0.11c-3.02-0.73-4.53-1.33-4.53-1.77H785.32L785.32,312.74z M744.13,333.06
		c1.1-6.55,3.57-12.04,7.4-16.45c0-1.47,4.05-2.58,12.15-3.31l2.32,0.44c11.11,0.15,16.67,0.74,16.67,1.77v0.11h-2.32l-0.22,0.22
		l0.99,0.77c2.94,0.59,4.42,1.18,4.42,1.77l-0.55,0.99c0,0.29,1.14,1.51,3.42,3.64c1.18,0,1.77,2.17,1.77,6.51v1.55
		c0,2.14-0.4,4.01-1.21,5.63c-1.33,6.55-2.54,10.42-3.64,11.6c-2.06,0-4.49,2.06-7.29,6.18c-6.48,3.39-13.33,5.08-20.54,5.08
		c-3.17,0-6.26-0.77-9.28-2.32c-3.83-6.7-5.74-10.82-5.74-12.37v-2.21C742.48,340.02,743.03,336.82,744.13,333.06L744.13,333.06
		L744.13,333.06z M787.31,318.38h0.33c0.51,0.22,0.77,0.66,0.77,1.33c0,0.66-0.18,1.07-0.55,1.21h-0.44l-0.77-0.77v-1.21
		L787.31,318.38L787.31,318.38z M741.48,331.52h0.55v0.77c-0.37,2.06-0.88,3.09-1.55,3.09c-0.37,0-0.55-0.15-0.55-0.44
		C740.45,332.66,740.97,331.52,741.48,331.52L741.48,331.52L741.48,331.52z M789.63,356.8h0.55c0,0.74,0.18,1.25,0.55,1.55v1.21
		l-0.77,0.77h-0.22c0-0.96-0.3-1.44-0.88-1.44v-0.77C788.85,357.47,789.11,357.02,789.63,356.8L789.63,356.8L789.63,356.8z
		 M779.36,357.24h0.22l0.33,0.33v0.44c-0.66,0.88-1.51,1.51-2.54,1.88h-0.11v-0.55C777.92,358.31,778.62,357.61,779.36,357.24
		L779.36,357.24L779.36,357.24z M774.5,358.35h0.55v0.44c-0.74,1.54-4.45,2.5-11.15,2.87h-1.99v-0.44
		C762.57,360.63,766.77,359.67,774.5,358.35L774.5,358.35L774.5,358.35z M797.14,359.12c0.37,0.07,0.55,0.59,0.55,1.55v1.55
		l-0.33,0.44h-0.22l-0.44-0.44v-2.1l0.22-0.99H797.14L797.14,359.12z M742.81,360.34c0.59,0,2.02,0.44,4.31,1.33v0.55
		c-3.24-0.37-4.86-0.81-4.86-1.32v-0.44L742.81,360.34L742.81,360.34z M746.34,362.77h0.77c5.89,1.25,8.83,2.36,8.83,3.31v0.22
		l-0.22,0.22h-0.77c-6.04-1.1-9.05-2.21-9.05-3.31L746.34,362.77L746.34,362.77z M789.63,363.43h0.33v0.33l-0.55,0.55h-0.44v-0.33
		L789.63,363.43L789.63,363.43z M768.76,363.98h2.87l0.33,0.33c0,0.51-1.58,0.85-4.75,0.99h-0.99l-0.44-0.33v-0.22
		C765.78,364.24,766.77,363.98,768.76,363.98L768.76,363.98L768.76,363.98z M798.13,364.53l0.33,0.44v0.33h-0.77l-0.33-0.33v-0.44
		H798.13L798.13,364.53z M760.37,368.18l4.53,0.44v0.33c-3.31,0.66-5.71,0.99-7.18,0.99h-1.99l-0.33-0.33v-0.44
		C755.4,368.66,757.05,368.32,760.37,368.18L760.37,368.18L760.37,368.18z M804.42,368.62c1.18,0.15,1.77,0.4,1.77,0.77v0.33
		l-0.99,0.22h-3.09c-0.96,0-1.47-0.18-1.55-0.55C800.56,369.02,801.85,368.77,804.42,368.62L804.42,368.62L804.42,368.62z"/>
</g>
</svg>
