<?xml version="1.0" encoding="UTF-8" standalone="no"?>
<!-- Created with Inkscape (http://www.inkscape.org/) -->

<svg
   width="210mm"
   height="297mm"
   viewBox="0 0 210 297"
   version="1.1"
   id="svg439"
   inkscape:version="1.1.1 (3bf5ae0d25, 2021-09-20)"
   sodipodi:docname="wl1.svg"
   xmlns:inkscape="http://www.inkscape.org/namespaces/inkscape"
   xmlns:sodipodi="http://sodipodi.sourceforge.net/DTD/sodipodi-0.dtd"
   xmlns="http://www.w3.org/2000/svg"
   xmlns:svg="http://www.w3.org/2000/svg">
  <sodipodi:namedview
     id="namedview441"
     pagecolor="#ffffff"
     bordercolor="#666666"
     borderopacity="1.0"
     inkscape:pageshadow="2"
     inkscape:pageopacity="0.0"
     inkscape:pagecheckerboard="0"
     inkscape:document-units="mm"
     showgrid="false"
     inkscape:zoom="0.71446409"
     inkscape:cx="396.80091"
     inkscape:cy="561.95967"
     inkscape:window-width="1920"
     inkscape:window-height="991"
     inkscape:window-x="-9"
     inkscape:window-y="-9"
     inkscape:window-maximized="1"
     inkscape:current-layer="layer1" />
  <defs
     id="defs436" />
  <g
     inkscape:label="Warstwa 1"
     inkscape:groupmode="layer"
     id="layer1">
    <g
       id="g12159"
       transform="matrix(1.3755009,0,0,1.3755009,-94.657227,-24.03747)"
       style="display:inline">
      <path
         d="m 133.43156,87.789206 -0.14333,0.453245 -0.14333,0.302208 -0.14299,0.453414 -0.14333,0.302208 -0.14333,0.453278 -0.14332,0.604585 v 1.510939 l 0.14332,0.755791 0.14333,0.453245 0.14333,0.453684 0.14299,0.453413 0.14333,0.453279 0.14333,0.453244 0.14299,0.453684 0.14333,0.453278 0.14333,0.302209 0.14333,0.453684 0.14299,0.453278 h -0.57288 l -0.85858,-0.151442 -0.57264,-0.150766 -0.71581,-0.151104 -0.57247,-0.151442 -0.71583,-0.151104 -0.57207,-0.151104 -0.7158,-0.151443 -0.57264,-0.150766 -0.71566,-0.151104 -0.85913,-0.151442 h -1.00179 l -0.42931,0.151442 -0.28632,0.151104 -0.14265,0.150766 -0.14333,0.151443 -0.14333,0.151104 -0.14333,0.151104 v 0.151442 l 0.14333,0.30187 0.14333,0.302546 0.14333,0.302208 0.14265,0.151104 0.14333,0.302208 0.14333,0.151104 0.14265,0.302546 0.14333,0.151104 0.14333,0.150767 0.14333,0.151104 0.14333,0.151104 0.14333,0.150766 0.14265,0.151104 0.14333,0.151442 0.14333,0.151104 0.14265,0.150766 0.14333,0.151442 0.14333,0.151101 0.28598,0.15111 0.14333,0.15144 0.28666,0.15076 0.28598,0.15145 0.28632,0.1511 0.28599,0.15077 0.28666,0.15144 0.42927,0.15111 0.42931,0.1511 0.42928,0.15077 0.57264,0.15111 0.57288,0.1511 0.71543,0.15144 0.57247,0.15111 0.7158,0.15076 0.71583,0.15111 0.7158,0.1511 0.7154,0.15077 h 0.5725 v 0.30254 l 0.143,0.45325 0.14332,0.30254 0.14333,0.45328 0.14299,0.45325 0.14333,0.45368 0.14333,0.30221 0.14299,0.45328 0.143,0.45324 0.14332,0.30255 0.14333,0.45328 0.14333,0.45368 0.14266,0.30221 0.14332,0.45324 0.14333,0.30255 h -0.28665 l -0.71567,0.1511 -0.57223,0.15077 -0.7158,0.1511 -0.30695,0.14705 0.16362,-0.44925 v -0.30255 l -0.7158,-0.1511 -1.00179,-0.15111 -0.71583,-0.15076 -0.7158,-0.15111 -0.57247,-0.1511 -0.71543,-0.15077 -0.57261,-0.1511 -0.42972,-0.15111 -0.57206,-0.15144 -0.57301,-0.15077 -0.57251,-0.15144 -0.42928,-0.1511 -0.42931,-0.15111 -0.42968,-0.15144 -0.42945,-0.15076 -0.42931,-0.15111 -0.57247,-0.15144 -0.42931,-0.15077 -0.57261,-0.1511 -0.42931,-0.15144 -0.7158,-0.15111 -0.71567,-0.15076 -1.86091,-0.15111 h -0.14299 l -1.86078,0.15111 -0.57264,0.15076 v 0.30255 l 0.14299,0.30187 0.14333,0.15144 0.14333,0.30187 0.14333,0.30255 0.14333,0.30254 0.14299,0.30221 0.14333,0.30221 0.14333,0.30221 0.14333,0.30221 0.14265,0.30221 0.14333,0.30254 0.14333,0.15077 0.14265,0.1511 0.14333,0.15111 0.14333,0.15144 0.14333,0.15076 0.28598,0.15111 0.28632,0.15144 0.42932,0.15077 0.57247,0.15144 0.57264,0.1511 0.57247,0.15111 0.28598,0.1511 0.42972,0.15077 0.28598,0.1511 0.42972,0.15144 0.42927,0.15111 0.28599,0.15076 0.42971,0.15144 0.28599,0.15111 0.42931,0.15076 0.28666,0.15111 0.42927,0.1511 0.28666,0.15144 0.42931,0.15111 0.28598,0.1511 0.57251,0.15077 0.57301,0.1511 0.57207,0.15111 0.71583,0.15076 0.7158,0.15111 0.85859,0.1511 0.859,0.15077 0.85899,0.1511 0.85876,0.15144 0.57247,0.15111 0.42931,0.1511 0.42968,0.15144 0.42931,0.15077 0.71581,0.1511 0.85858,0.15145 0.7158,0.15076 0.28599,0.15111 h 0.28632 v 0.90709 l 0.28598,0.15111 h 0.57261 v 0.45328 h -0.85873 v 0.60458 l 0.14333,0.60445 0.14265,0.60445 0.14333,0.60459 0.14333,0.45324 0.14266,0.60445 0.14332,0.60459 0.14333,0.45324 0.14333,0.60459 0.14333,0.60445 0.14299,0.45371 0.14299,0.60442 0.14333,0.60418 0.14063,0.32317 -0.56977,-0.17207 -1.00232,-0.1511 -0.71543,-0.15077 -0.42968,-0.15144 -0.42932,-0.1511 -0.28598,-0.15077 -0.28632,-0.1511 -0.28598,-0.15111 -0.28666,-0.15144 -0.28632,-0.15076 -0.28598,-0.15111 -0.57264,-0.15144 -1.43106,-0.15111 -0.57264,-0.1511 -0.42969,-0.15077 -0.42931,-0.1511 -0.42927,-0.1511 -0.42972,-0.15077 -0.42928,-0.1511 -0.42931,-0.15145 -0.42931,-0.1511 -0.42968,-0.15077 -0.42932,-0.15144 -0.42941,-0.1511 -0.42931,-0.15111 -0.28632,-0.15144 -0.42941,-0.15076 -0.42931,-0.15145 -0.42928,-0.1511 -0.42972,-0.15077 -0.42928,-0.15144 -0.42931,-0.1511 -0.42927,-0.15111 -0.42972,-0.15144 -0.28666,-0.15076 -0.42928,-0.15111 -0.42931,-0.15144 -0.42928,-0.1511 -0.42971,-0.15077 -0.42931,-0.1511 -0.42928,-0.15111 -0.42945,-0.15076 -0.28632,-0.15111 -0.42931,-0.1511 -0.42931,-0.15144 -0.42941,-0.15111 -0.42972,-0.15076 -0.42928,-0.15145 -0.42931,-0.1511 -0.42928,-0.15111 -0.42971,-0.15076 -0.28599,-0.15111 -0.42927,-0.15144 h -0.42972 l -0.57247,0.15144 -0.14333,0.15111 -0.14265,0.15076 -0.14333,0.15111 -0.14333,0.1511 -0.14266,0.15145 -0.14332,0.15076 v 0.30255 l 0.14332,0.60441 0.14266,0.15111 0.14333,0.30221 0.14333,0.15144 0.14265,0.30187 0.14333,0.15144 0.14333,0.1511 0.14299,0.15111 0.14299,0.15144 0.14333,0.15077 0.14333,0.1511 0.14333,0.15144 0.14333,0.15077 0.14299,0.15144 0.14299,0.1511 0.28598,0.15111 0.14333,0.15144 0.14333,0.15077 0.28666,0.1511 0.14299,0.15144 0.28632,0.15111 0.28598,0.15076 0.14333,0.15111 0.28598,0.1511 0.28666,0.15077 0.14333,0.1511 0.28598,0.15111 0.28632,0.15144 0.28598,0.1511 0.42931,0.15077 0.28633,0.15144 0.28665,0.1511 0.42931,0.15111 0.42928,0.15076 0.42931,0.15111 0.42969,0.15144 0.71543,0.15077 h 1.28827 v 0.30254 l 0.14333,0.15111 0.14333,0.1511 0.14265,0.15077 0.28666,0.1511 0.28598,0.1511 0.28666,0.15145 0.5725,0.15076 0.57247,0.15144 0.7158,0.15111 0.85873,0.15076 0.85899,0.15145 0.85863,0.1511 0.7158,0.1511 0.57247,0.15145 0.42931,0.15076 0.42968,0.15111 0.28598,0.15144 0.42932,0.1511 0.42927,0.15077 0.42972,0.1511 0.42928,0.15111 0.42944,0.15076 0.57247,0.15111 0.42972,0.1511 0.42931,0.15144 0.57261,0.15111 0.42931,0.1511 0.57247,0.15077 0.42931,0.1511 0.7158,0.15144 0.7158,0.15077 h 0.42932 l 0.57247,-0.15077 v 0.30187 l 0.14333,0.60459 0.14333,0.45372 0.14332,0.3022 0.143,0.45325 0.14333,0.45328 0.14332,0.30221 0.14266,0.45338 0.14333,0.45327 0.14333,0.30221 0.14332,0.45342 0.14266,0.45354 0.14333,0.45338 0.14333,0.30187 0.14265,0.62034 -1.43082,-0.16699 -0.57261,-0.15077 -0.57247,-0.1511 -0.42931,-0.15144 -0.42928,-0.15111 -0.42972,-0.15076 -0.42931,-0.15144 -0.42941,-0.15111 -0.28632,-0.15076 -0.42928,-0.15111 -0.42931,-0.1511 -0.42945,-0.15111 -0.28632,-0.15144 -0.28598,-0.15076 -0.42972,-0.15145 -0.28598,-0.1511 -0.28632,-0.1511 -0.42945,-0.15077 -0.28598,-0.1511 -0.57304,-0.15111 -1.14471,-0.15076 -0.42968,-0.15111 -0.28599,-0.15144 -0.14332,-0.15111 -0.28599,-0.1511 -0.14333,-0.15077 -0.28665,-0.1511 -0.28599,-0.1511 -0.28632,-0.15145 -0.42931,-0.15076 -0.42931,-0.15111 -0.42968,-0.15144 -0.42931,-0.15076 -0.28599,-0.15145 -0.28665,-0.1511 -0.42932,-0.1511 -0.28632,-0.15145 -0.28598,-0.1511 -0.28632,-0.15077 -0.28598,-0.15144 -0.28598,-0.1511 -0.28632,-0.15077 -0.28666,-0.15144 -0.28598,-0.1511 -0.28666,-0.15077 -0.42931,-0.1511 -0.28598,-0.15111 -0.28666,-0.15144 -0.42931,-0.1511 -0.57261,-0.15111 -0.57247,-0.15076 h -2.14744 l -0.71529,0.15076 -0.57261,0.15111 -0.42971,0.1511 -0.42928,0.15144 -0.42931,0.15111 -0.28599,0.1511 -0.28665,0.15077 -0.42932,0.1511 -0.28632,0.15144 -0.28598,0.15077 v 0.45324 l 0.14333,0.60486 0.28598,0.15144 0.28599,0.15077 0.28632,0.15144 0.42941,0.1511 0.28632,0.15077 0.28598,0.15144 0.28666,0.1511 0.28598,0.15111 0.28666,0.15076 0.28598,0.15111 0.28632,0.1511 0.28598,0.15144 0.28666,0.15111 0.28598,0.15076 0.28633,0.15111 0.28598,0.1511 0.28666,0.15077 0.42927,0.1511 0.28599,0.15111 v 0.15144 l -0.143,0.15077 v 0.15144 l 0.143,0.1511 0.42971,0.15111 0.42928,0.1511 0.42931,0.15077 0.28632,0.1511 0.42931,0.15144 0.42972,0.15077 0.28598,0.1511 0.42931,0.15144 0.42928,0.15111 0.42972,0.15076 0.28598,0.15111 0.42928,0.1511 0.42971,0.15144 0.42928,0.15111 0.28666,0.15076 0.42931,0.15145 0.42928,0.1511 0.42931,0.15077 0.28632,0.15144 0.42931,0.1511 0.42931,0.15111 0.42928,0.15144 0.28666,0.15076 0.42928,0.15145 0.42931,0.1511 0.42971,0.1511 0.28599,0.15077 0.42971,0.1511 0.42928,0.15111 0.42931,0.15076 h 0.14333 l 0.14333,-0.3022 0.14265,0.1511 0.14299,0.15077 0.14333,0.1511 0.14333,0.1511 0.28598,0.15145 0.14333,0.1511 0.28599,0.15077 0.28665,0.1511 0.14333,0.15111 0.42931,0.15144 0.28599,0.15076 0.28665,0.15111 0.28599,0.15144 0.42968,0.15077 0.42931,0.15144 0.42941,0.1511 0.42932,0.15111 0.42971,0.15144 0.57247,0.15076 0.42928,0.15111 0.71584,0.15144 0.71539,0.1511 0.7158,0.15077 0.57251,0.15144 0.42927,0.15111 0.28666,0.15076 0.28598,0.15111 0.14333,0.1511 h 0.28632 v 0.30255 l 0.14333,0.15076 0.14299,0.30255 0.14333,0.45328 0.14333,0.60458 0.14299,0.60445 0.14299,0.75576 0.14333,0.90696 0.14333,0.75532 0.1413,0.32215 -0.7139,-0.17105 -1.00219,-0.1511 -1.57443,-0.15111 -1.288,-0.15076 -0.85903,-0.15111 -0.57247,-0.15144 -0.5726,-0.15077 -0.42972,-0.1511 -0.42928,-0.15144 -0.42931,-0.15111 -0.42931,-0.1511 -0.42968,-0.15077 -0.42931,-0.1511 -0.42928,-0.15111 -0.42931,-0.15144 -0.42969,-0.15076 -0.42931,-0.15145 -0.28598,-0.1511 -0.42928,-0.15077 -0.42971,-0.15144 -0.42928,-0.1511 -0.28598,-0.1511 -0.42972,-0.15144 -0.28598,-0.15111 -0.42972,-0.15076 -0.28598,-0.15111 -0.42928,-0.1511 -0.42972,-0.15077 -0.57247,-0.1511 -0.42944,-0.15111 -0.42928,-0.15144 -0.42931,-0.15076 -0.57248,-0.15111 -0.42931,-0.15144 -0.57301,-0.1511 -0.42931,-0.15111 -0.57247,-0.15076 -0.42931,-0.15111 -0.57261,-0.15144 -0.5725,-0.15077 -0.42928,-0.1511 -0.57305,-0.15144 -0.57206,-0.15111 -0.57264,-0.15076 -0.57288,-0.15145 -0.42931,-0.1511 -0.57261,-0.1511 -0.7158,-0.15145 -0.5721,-0.15076 -0.7158,-0.15144 h -0.85899 l -0.14266,0.15144 -0.14333,0.45328 v 1.66228 l 0.14333,0.45368 0.14266,0.15077 0.14332,0.30254 0.14333,0.15111 0.14266,0.15076 0.14333,0.15111 0.14333,0.1511 0.14332,0.15077 0.14333,0.1511 0.14299,0.15144 0.28632,0.1511 0.14333,0.15111 0.28599,0.15144 0.28598,0.15077 0.28632,0.1511 0.28666,0.15144 0.28598,0.15077 0.42928,0.15144 0.28632,0.1511 0.42944,0.15111 0.42928,0.15076 0.57251,0.15111 0.42927,0.1511 0.71624,0.15144 0.57207,0.15111 0.57261,0.15076 0.57291,0.15145 0.71539,0.1511 0.7158,0.15077 0.71584,0.1511 0.57247,0.1511 0.7158,0.15145 0.57223,0.15076 0.57247,0.15111 0.42972,0.15144 0.28598,0.1511 0.42931,0.15111 0.28666,0.15076 0.14333,0.15111 0.28598,0.1511 0.14333,0.15077 0.14333,0.1511 0.14333,0.15144 0.28598,0.15111 0.42928,0.15076 0.42972,0.15145 0.57247,0.1511 0.71539,0.1511 0.42972,0.15145 0.57247,0.15076 0.42945,0.15111 0.42931,0.15144 0.42928,0.15076 0.42972,0.15145 0.42927,0.1511 0.57251,0.1511 0.7158,0.15077 0.57261,0.1511 0.42931,0.15111 0.57247,0.15144 0.42931,0.1511 0.42928,0.15077 0.42971,0.1511 0.57261,0.15111 0.57251,0.15076 0.7158,0.15111 3.57812,0.1511 0.14333,0.75579 0.14333,0.75532 0.14299,0.75579 0.14333,0.60445 0.14333,0.60459 0.14333,0.60445 0.14333,0.45368 0.14265,0.30221 0.14333,0.30221 0.14333,0.30221 0.14333,0.30254 0.14299,0.30221 0.14333,0.1511 0.14333,0.15145 0.14299,0.30187 0.14333,0.15144 0.14332,0.15076 0.28632,0.15111 0.143,0.15144 0.28632,0.1511 0.28598,0.15111 0.42931,0.15144 h 1.86091 l 0.14333,-2.72058 0.14333,-3.1737 v -0.45324 h -0.42968 l -0.14299,-0.15144 -0.14333,-0.45328 -0.14333,-0.30255 0.14333,-0.15076 0.14333,-0.30255 0.14299,-0.1511 0.14333,-0.30221 0.14333,-0.1511 0.14332,-0.15111 0.14333,-0.30221 0.14333,-0.15144 0.14299,-0.1511 0.14333,-0.30221 0.14333,-0.15111 0.14299,-0.30254 0.14299,-0.15077 0.14333,-0.15144 0.14333,-0.30187 0.14266,-0.15144 0.14332,-0.30221 0.14333,-0.15144 0.14333,-0.15077 0.14333,-0.30254 0.14265,-0.15111 0.14333,-0.15076 0.14333,-0.30221 0.14266,-0.15077 0.14333,-0.30221 0.14332,-0.15144 0.143,-0.1511 0.14299,-0.30221 0.14333,-0.1511 0.14332,-0.15111 0.14333,-0.30221 v -0.45324 h 0.7154 l 0.28632,-0.15144 0.28598,-0.15111 0.28632,-0.1511 0.14333,-0.15077 0.14333,-0.1511 0.14299,-0.15111 0.14333,-0.15144 0.14333,-0.15076 0.14299,-0.15145 0.14333,-0.30187 0.14333,-0.15144 0.14333,-0.1511 0.14265,-0.30254 0.14333,-0.15111 0.14333,-0.30221 0.14299,-0.1511 0.14333,-0.30221 0.14265,-0.1511 0.14333,-0.30221 0.14333,-0.15111 0.14265,-0.30254 0.14333,-0.15111 0.14299,-0.15076 0.14333,-0.30255 0.14333,-0.15076 0.14265,-0.15111 0.14333,-0.15144 0.28666,-0.1511 0.14299,-0.15077 0.28632,-0.15144 0.28599,-0.15111 0.28665,-0.1511 0.28599,-0.15144 0.14333,-0.15077 0.28632,-0.15144 0.14299,-0.1511 0.14333,-0.15077 0.14332,-0.15144 0.14266,-0.15111 0.14333,-0.1511 0.14333,-0.30221 0.14333,-0.30254 0.14332,-0.60445 0.143,-0.15077 0.14332,-0.1511 0.14333,-0.15111 0.28599,-0.15144 0.14332,-0.15077 0.14333,-0.15144 0.14266,-0.30221 0.14333,-0.90652 0.42971,-0.15144 0.28599,-0.15111 0.28632,-0.1511 0.28598,-0.15077 0.28598,-0.1511 0.14333,-0.15144 0.14299,-0.15111 0.28666,-0.15076 0.14333,-0.15144 0.14299,-0.15111 0.14333,-0.15076 0.14333,-0.15111 0.14265,-0.1511 0.14333,-0.15111 0.14333,-0.15144 0.14333,-0.15076 0.14299,-0.15145 0.14333,-0.1511 0.14333,-0.15111 0.14299,-0.15076 0.14333,-0.15111 0.14265,-0.1511 0.14333,-0.15077 0.14333,-0.30254 0.14265,-0.15111 0.14333,-0.1511 0.14299,-0.30221 0.14333,-0.1511 0.14299,-0.30221 0.14333,-0.1511 0.14333,-0.30221 0.14333,-0.15144 0.14333,-0.30221 0.14299,-0.30255 0.14333,-0.15076 0.14333,-0.30255 0.14299,-0.30221 0.14333,-0.45328 0.14333,-0.30254 0.14333,-0.45325 0.14265,-0.45328 v -1.3602 l -0.14265,-0.15111 h -0.14333 l -0.42931,0.15111 -0.42928,0.15076 -0.42972,0.15145 -0.28598,0.1511 -0.14333,0.45328 -0.28632,-0.15077 -0.14265,-0.15144 h -0.57264 l -0.42955,0.15144 -0.42945,0.15077 -0.28598,0.1511 -0.28666,0.15144 -0.28598,0.15111 -0.14333,0.15076 -0.28666,0.15111 -0.14333,0.1511 -0.28598,0.15077 -0.14333,0.1511 -0.14299,0.15111 -0.14333,0.15144 -0.28598,0.1511 -0.14333,0.15111 -0.14333,0.15076 -0.14333,0.15111 -0.14333,0.15144 -0.14333,0.15076 -0.14265,0.15111 -0.14333,0.15144 -0.14333,0.15077 -0.14265,0.30254 -0.14333,0.15111 -0.14333,0.1511 -0.14333,0.15144 -0.14299,0.30221 -0.14333,0.15111 -0.14333,0.15076 -0.14333,0.30255 -0.14333,0.1511 -0.14265,0.30221 -0.14333,0.1511 -0.14333,0.15145 -0.14299,0.1511 -0.14333,0.15077 -0.14333,0.1511 -0.28598,0.1511 -0.14299,0.15077 -0.14333,0.1511 -0.14333,0.15111 -0.28598,0.15144 -0.14333,0.15077 -0.14333,0.15144 -0.14299,0.1511 -0.14333,0.15111 -0.28666,0.1511 -0.14265,0.15077 -0.14333,0.1511 -0.14333,0.15144 -0.28632,0.15077 -0.14265,0.1511 -0.14333,0.15144 -0.14333,0.15111 -0.14265,0.15076 -0.14333,0.15111 -0.14299,0.1511 -0.14333,0.15144 -0.14333,0.15111 -0.14265,0.15077 -0.14333,0.15144 -0.14333,0.30187 -0.14333,0.15144 -0.14299,0.1511 -0.14333,0.15111 -0.14333,0.15144 -0.14299,0.30221 -0.14333,0.1511 -0.14333,0.15111 -0.14333,0.15076 -0.14299,0.15111 -0.14265,0.1511 -0.14333,0.15077 -0.14333,0.1511 -0.14333,0.1511 -0.14299,0.15145 -0.14333,0.1511 -0.14333,0.15077 -0.14265,0.1511 -0.14333,0.30255 -0.14333,0.15076 -0.14333,0.15111 -0.14333,0.15144 -0.14299,0.15076 -0.14299,0.15145 -0.14333,0.1511 -0.14333,0.1511 -0.14265,0.15145 -0.14333,0.15076 -0.14333,0.15111 -0.14265,0.15144 -0.14333,0.1511 -0.14333,0.15077 -0.14333,0.15144 -0.14333,0.15111 -0.14265,0.15076 -0.14333,0.15111 -0.14333,0.1511 -0.14299,0.15144 -0.14299,0.15111 -0.14333,0.15076 -0.14333,0.30255 -0.14299,0.1511 -0.14333,0.15077 -0.14333,0.1511 -0.14333,0.15111 -0.14333,0.15076 -0.14333,0.15111 -0.14299,0.15144 -0.14333,0.1511 -0.14333,0.1511 -0.14265,0.15144 -0.14333,0.15077 -0.14333,0.1511 -0.14333,0.15145 -0.14265,0.15076 -0.14333,0.15144 -0.14333,0.15111 -0.14333,0.1511 -0.14333,0.15077 -0.14265,0.1511 -0.14333,0.15111 -0.14333,0.15144 -0.14265,0.1511 -0.14333,0.15077 -0.14299,0.15144 -0.14333,0.15111 -0.14299,0.15076 -0.28632,0.15111 v -0.30221 l -0.14333,-0.75579 -0.14333,-0.60442 -0.14299,-0.75579 -0.14333,-0.45324 -0.14333,-0.60459 -0.14299,-0.60445 -0.14333,-0.60445 -0.14333,-0.45368 v -1.35994 l 0.14333,-0.1511 0.14333,-0.30255 0.14299,-0.30221 0.14333,-0.1511 0.14333,-0.30221 0.14299,-0.1511 0.14333,-0.15111 0.14333,-0.3022 0.14333,-0.15145 0.14332,-0.3022 0.143,-0.15077 0.14332,-0.30221 0.143,-0.30221 0.14332,-0.1511 0.14266,-0.30221 0.14333,-0.15144 0.14333,-0.30221 0.14265,-0.15144 0.14333,-0.30187 0.14333,-0.15144 0.14333,-0.15077 0.14333,-0.1511 0.14265,-0.15144 0.14333,-0.15111 0.14333,-0.1511 0.14333,-0.15077 0.14265,-0.1511 0.28666,-0.15145 0.14299,-0.1511 0.28632,-0.15077 0.14333,-0.15144 0.14333,-0.1511 0.28598,-0.15077 0.14333,-0.1511 0.28598,-0.15111 0.14299,-0.1511 0.28666,-0.15144 0.14265,-0.15077 0.14333,-0.15144 0.28632,-0.1511 0.14333,-0.15111 0.28598,-0.15076 0.14333,-0.15111 0.14266,-0.1511 0.28665,-0.15077 0.14299,-0.1511 0.143,-0.15144 0.14332,-0.15111 0.14333,-0.1511 0.14333,-0.15077 0.14333,-0.1511 0.14266,-0.15111 0.14332,-0.15144 0.14333,-0.15076 0.14299,-0.30255 0.14333,-0.30221 v -1.2089 l 0.28666,-0.15144 0.42928,-0.1511 0.28632,-0.15077 0.28598,-0.15111 0.28598,-0.1511 0.28666,-0.15144 0.14333,-0.15111 0.14265,-0.1511 0.14333,-0.15077 0.28632,-0.1511 0.14333,-0.1511 0.14266,-0.15077 0.14333,-0.1511 0.14332,-0.15145 0.14266,-0.30187 0.14333,-0.15144 0.14299,-0.1511 0.14333,-0.15111 0.14333,-0.3022 0.14265,-0.15111 0.14333,-0.15144 0.14333,-0.15077 0.14333,-0.30254 0.14299,-0.15111 0.14333,-0.15076 0.14333,-0.15111 0.14299,-0.1511 0.14333,-0.15144 0.14332,-0.15111 0.14333,-0.15076 0.143,-0.15144 0.14265,-0.15111 0.14333,-0.15076 0.14333,-0.30221 0.14333,-0.30221 0.14299,-0.15111 0.14333,-0.30254 0.14332,-0.45325 0.14266,-0.45327 0.14333,-0.45325 0.14333,-0.60502 v -2.56881 l -0.14333,-0.45371 h -0.42928 l -0.42931,0.1511 -0.42931,0.15144 -0.42969,0.15111 -0.28598,0.1511 -0.42928,0.15077 -0.28665,0.1511 -0.28599,0.1511 -0.28665,0.15077 -0.28632,0.1511 -0.14266,0.15145 -0.28666,0.1511 -0.14265,0.15077 -0.28632,0.15144 -0.14333,0.1511 -0.28598,0.15111 -0.14333,0.15144 -0.14333,0.15077 -0.14333,0.1511 -0.14299,0.15144 -0.28632,0.15077 -0.14299,0.30254 -0.14333,0.15111 -0.14333,0.15144 -0.14333,0.15077 -0.14299,0.1511 -0.14265,0.15144 -0.14333,0.30221 -0.14333,0.30221 -0.42931,0.15076 -0.28598,0.15111 -0.28666,0.1511 -0.28632,0.15144 -0.14299,0.15111 -0.14299,0.15076 -0.14333,0.15145 -0.14333,0.1511 -0.28598,0.1511 -0.14333,0.15077 -0.14266,0.1511 -0.14333,0.15145 -0.14333,0.15076 -0.14332,0.15111 -0.14333,0.15144 -0.14266,0.1511 -0.14333,0.15111 -0.14332,0.15076 -0.143,0.30221 -0.14299,0.15144 -0.14333,0.15077 -0.14333,0.15144 -0.14299,0.15111 -0.14333,0.15076 -0.14332,0.15144 -0.14333,0.15111 -0.14333,0.30254 -0.14333,0.15077 -0.14299,0.1511 -0.14333,0.15145 -0.14333,0.1511 -0.14265,0.15077 -0.14333,0.3022 -0.14333,0.15077 -0.14333,0.1511 -0.14265,0.15111 -0.14333,0.15144 -0.14333,0.30221 -0.14333,0.15076 -0.14333,0.15111 -0.14265,0.15144 -0.14333,0.30187 -0.14333,0.15144 -0.14266,0.15077 -0.14332,0.1511 -0.143,0.15144 -0.14332,0.30221 -0.143,0.15144 -0.14332,0.15077 -0.14333,0.15144 -0.14333,0.30187 -0.14333,0.15145 -0.14299,0.1511 -0.14333,0.1511 -0.14333,0.15077 -0.14299,0.30221 -0.14333,0.15144 -0.14333,0.1511 -0.14333,0.15077 -0.14265,0.1511 -0.14333,0.30221 -0.14333,0.15111 -0.14333,0.1511 -0.14333,0.15144 -0.14299,0.15077 -0.14333,0.15144 -0.14333,0.1511 -0.14265,0.30255 -0.14333,0.15077 -0.14333,0.1511 -0.14333,0.15144 -0.14299,0.15077 h -0.14333 l -0.14299,-0.45325 -0.14333,-0.3022 -0.14333,-0.30221 -0.14265,-0.30221 -0.14333,-0.30255 -0.14333,-0.45328 -0.14265,-0.60458 -0.14333,-0.75562 -0.14333,-0.75532 -0.14333,-0.7562 -0.14333,-0.90652 -0.14265,-0.90696 v -1.51111 l 0.14265,-0.30255 0.14333,-0.15076 0.28632,-0.15111 0.28598,-0.15144 0.14333,-0.15076 0.28598,-0.15145 0.14333,-0.1511 0.14333,-0.1511 0.14299,-0.15077 0.14333,-0.1511 0.28598,-0.15111 0.14333,-0.30254 0.14333,-0.15077 0.14265,-0.15144 0.14333,-0.15111 0.14333,-0.3022 0.14299,-0.15111 0.14333,-0.15144 0.14333,-0.15077 0.14333,-0.1511 0.14333,-0.15144 0.28598,-0.15111 0.14333,-0.1511 0.14333,-0.15077 0.28598,-0.1511 0.14333,-0.1511 0.28598,-0.15077 0.14333,-0.1511 0.28632,-0.15145 0.143,-0.1511 0.28632,-0.15077 0.14332,-0.15144 0.14266,-0.1511 0.14333,-0.15111 0.14333,-0.15144 0.14265,-0.15077 0.14333,-0.15144 0.14333,-0.1511 0.14333,-0.30221 0.14333,-0.1511 0.14265,-0.15111 0.14333,-0.30221 0.14333,-0.1511 0.14333,-0.30255 0.14265,-0.15076 0.14333,-0.30221 0.14333,-0.15077 0.14299,-0.3022 0.14333,-0.15145 0.14333,-0.1511 0.14333,-0.15077 0.14332,-0.15144 0.14333,-0.1511 0.14299,-0.15111 0.14333,-0.15076 0.14333,-0.15111 0.28599,-0.15144 0.14332,-0.15076 0.14333,-0.15111 0.14266,-0.15144 0.28665,-0.1511 0.14333,-0.15111 0.14333,-0.15077 0.14266,-0.1511 0.14333,-0.15144 0.14332,-0.15111 0.14266,-0.15076 0.14333,-0.15144 0.14333,-0.15111 0.14299,-0.15076 0.14299,-0.15145 0.14333,-0.1511 0.14333,-0.1511 0.14333,-0.15145 0.14332,-0.1511 0.14266,-0.15077 0.14333,-0.1511 0.28598,-0.1511 0.14333,-0.15077 0.14333,-0.1511 0.28598,-0.15111 0.14299,-0.15076 0.14333,-0.15111 0.14333,-0.1511 0.28598,-0.15144 0.14333,-0.15111 0.14333,-0.1511 0.14299,-0.15077 0.14333,-0.30254 0.14333,-0.15077 0.14333,-0.1511 0.14265,-0.15145 0.14333,-0.3022 0.14333,-0.15111 0.14299,-0.30221 0.14333,-0.15144 0.14265,-0.30221 0.14333,-0.30187 0.14333,-0.30254 0.14265,-0.30221 0.14333,-0.30255 0.14299,-0.30254 0.14333,-0.60418 v -1.51138 l -0.14333,-0.30221 -0.14299,-0.1511 -0.14333,-0.15145 -0.28598,-0.1511 -0.42945,-0.15077 h -1.14507 l -0.85903,0.15077 -0.71567,0.1511 -0.5722,0.15145 -0.28666,0.1511 -0.28632,0.15077 -0.14299,0.15144 -0.14299,0.1511 -0.14333,0.15077 -0.14333,0.15144 -0.14265,0.1511 -0.14333,0.30255 -0.14333,0.30221 -0.14265,0.30221 -0.14333,0.3022 -0.14333,0.15111 -0.14333,0.15076 -0.14333,0.15111 -0.28598,0.1511 -0.14333,0.15145 -0.28598,0.1511 -0.28632,0.15077 -0.14299,0.1511 -0.28632,0.1511 -0.28632,0.15145 -0.14333,0.15076 -0.28598,0.15111 -0.14333,0.15144 -0.28599,0.15076 -0.14332,0.15145 -0.14333,0.1511 -0.14266,0.1511 -0.14333,0.30221 -0.14333,0.15111 -0.14332,0.15144 -0.14333,0.1511 -0.14266,0.30221 -0.14333,0.1511 -0.14332,0.30221 -0.14266,0.30255 -0.14333,0.1511 -0.14299,0.30221 -0.14333,0.30221 -0.14299,0.15076 -0.14333,0.30255 -0.14333,0.30221 -0.14333,0.30255 -0.14332,0.1511 -0.143,0.30221 -0.14332,0.30254 -0.14333,0.15077 -0.143,0.1511 -0.14332,0.30255 h -0.28666 -0.28598 l -0.14333,0.15077 -0.14333,0.1511 -0.14333,0.1511 -0.14299,0.15145 -0.14333,0.1511 -0.14333,0.15077 -0.14265,0.15144 -0.14333,0.1511 -0.14333,0.15077 -0.14333,0.1511 -0.14299,0.15111 -0.14333,0.15144 -0.14299,0.15076 -0.14333,0.15111 -0.14333,0.15144 -0.28598,0.1511 -0.14333,0.15111 -0.14266,0.15076 -0.14332,0.15111 -0.14333,0.1511 -0.14333,0.15077 -0.14333,0.1511 -0.14266,0.15144 -0.14332,0.15111 -0.14333,0.15076 -0.14299,0.15145 -0.143,0.1511 -0.14332,0.15111 -0.14333,0.15144 -0.14299,0.15076 -0.14333,0.15111 -0.14333,0.15144 -0.14333,0.15077 -0.14333,0.15144 -0.14299,0.1511 -0.14333,-0.30254 -0.14333,-0.45328 -0.14333,-0.30221 -0.14265,-0.30221 -0.14299,-0.45324 -0.14333,-0.30255 -0.14266,-0.30221 -0.14333,-0.30221 -0.14332,-0.45368 -0.14333,-0.45328 -0.14333,-0.45324 v -1.51128 l 0.14333,-0.30187 0.14333,-0.30255 0.14332,-0.3022 0.14333,-0.15111 0.14266,-0.1511 0.14333,-0.30255 0.14299,-0.15076 0.14265,-0.15111 0.14333,-0.1511 0.14333,-0.15077 0.14333,-0.1511 0.14299,-0.15111 0.14333,-0.15076 0.14333,-0.15111 0.14333,-0.1511 v -0.30255 h 0.28598 l 0.14333,-0.1511 0.14333,-0.15077 0.14299,-0.1511 0.14299,-0.15144 0.14333,-0.15077 0.14333,-0.1511 0.14265,-0.15145 0.14333,-0.1511 0.14333,-0.15077 0.14333,-0.1511 0.14333,-0.1511 0.14265,-0.15111 0.14333,-0.15144 0.14333,-0.15077 0.14265,-0.15144 0.14333,-0.1511 0.14333,-0.15077 0.14299,-0.15144 0.14333,-0.1511 0.14299,-0.15111 0.14333,-0.15076 0.28666,-0.15111 0.14265,-0.15144 0.14333,-0.30221 0.14333,-0.15076 0.14299,-0.15111 0.14333,-0.1511 0.14333,-0.15077 0.14333,-0.1511 0.14333,-0.15111 0.14265,-0.15144 0.14333,-0.15077 0.14333,-0.15144 0.14333,-0.1511 0.14299,-0.30255 0.14333,-0.15076 0.14333,-0.15111 0.14299,-0.15144 0.14333,-0.15077 0.14333,-0.1511 0.14332,-0.15144 0.14333,-0.30221 0.14299,-0.1511 0.14333,-0.15111 0.143,-0.15144 0.14332,-0.1511 0.14266,-0.15077 0.14333,-0.30255 0.14333,-0.15076 0.14265,-0.15111 0.14333,-0.1511 0.14333,-0.15144 0.14333,-0.15111 0.14333,-0.3022 0.14265,-0.15111 0.14333,-0.1511 0.14333,-0.15077 0.14333,-0.1511 0.14265,-0.15111 0.14333,-0.3022 0.14333,-0.15145 0.14299,-0.1511 0.14333,-0.15111 0.14333,-0.15077 0.14333,-0.1511 0.14332,-0.1511 0.14333,-0.15145 0.14299,-0.15076 0.14333,-0.15111 0.14333,-0.15144 0.14299,-0.30221 0.14299,-0.15111 0.14333,-0.151099 0.14333,-0.151442 v -0.30187 l -0.14333,-0.151442 -0.14333,-0.151104 -0.14299,-0.150767 -0.14299,-0.151104 -0.14333,-0.151104 -0.14333,-0.150766 -0.28598,-0.151104 h -1.14508 l -0.42971,0.151104 -0.28598,0.150766 -0.28632,0.151104 -0.14333,0.151104 -0.28599,0.150767 -0.14333,0.151104 -0.28598,0.151442 -0.14299,0.151104 -0.28598,0.150766 -0.14333,0.151442 -0.28666,0.151099 -0.14333,0.15111 -0.14299,0.15144 -0.14333,0.15077 -0.28598,0.15144 -0.14333,0.15111 -0.14333,0.15076 -0.28598,0.15145 -0.14333,0.1511 -0.14333,0.1511 -0.14333,0.15077 -0.28598,0.15111 -0.14333,0.1511 -0.14333,0.15145 -0.14265,0.1511 -0.28666,0.15077 -0.14333,0.1511 -0.14299,0.1511 -0.14333,0.15077 -0.14299,0.1511 -0.28666,0.15111 -0.14265,0.15144 -0.14333,0.15077 -0.14333,0.1511 -0.14265,0.15144 -0.28632,0.15111 -0.14333,0.1511 -0.14333,0.15077 -0.14265,0.1511 -0.28666,0.15144 -0.14299,0.15077 -0.14299,0.1511 -0.14333,0.15144 -0.14333,0.15111 -0.28598,0.1511 -0.14333,0.15077 -0.14333,0.1511 -0.14333,0.15144 -0.14299,0.15111 -0.28632,0.15076 -0.14333,0.15145 -0.14266,0.1511 -0.14299,0.15077 -0.28598,0.15144 -0.14333,0.1511 -0.14333,0.15111 -0.28666,0.15144 -0.14265,0.15076 -0.14333,0.15145 -0.28666,0.1511 -0.14265,0.15111 -0.28666,0.15076 -0.14299,0.15111 -0.28632,0.1511 -0.14333,-0.1511 -0.14333,-0.45328 -0.14265,-0.45325 -0.14333,-0.45368 -0.14299,-0.45328 -0.14333,-0.45324 -0.14299,-0.45342 -0.14333,-0.45368 -0.14333,-0.45328 -0.14299,-0.45325 -0.14299,-0.45368 -0.14333,-0.45328 -0.14333,-0.45324 -0.14333,-0.45328 v -0.45386 l 0.28632,-0.15076 0.14333,-0.15111 0.14299,-0.1511 0.14299,-0.30221 0.14333,-0.15111 0.14333,-0.15144 0.14299,-0.15077 0.14333,-0.15144 0.14299,-0.1511 0.14333,-0.30255 0.14266,-0.150766 0.14332,-0.302546 0.14333,-0.151104 0.14333,-0.150766 0.14333,-0.302208 0.14299,-0.150766 0.14333,-0.302208 0.14333,-0.151442 0.14265,-0.302208 0.14333,-0.150766 0.14333,-0.302208 0.14333,-0.150766 0.14265,-0.302547 0.14333,-0.150766 0.14333,-0.302546 0.14333,-0.302208 0.14333,-0.302208 0.14265,-0.151104 0.14333,-0.302208 0.14299,-0.302546 0.14266,-0.302208 0.14333,-0.302208 0.14333,-0.302547 0.14333,-0.302208 0.14299,-0.302208 0.14333,-0.302546 0.14332,-0.302208 0.14333,-0.453684 0.14333,-0.302208 0.14299,-0.453279 0.14333,-0.453684 0.14333,-0.755756 V 89.44699 l -0.14333,-0.302208 -0.14333,-0.151104 -0.14299,-0.151442 -0.28632,-0.151104 h -0.7158 l -0.42928,0.151104 -0.28598,0.151442 -0.28666,0.151104 -0.14333,0.151104 -0.14332,0.150766 -0.28599,0.151104 -0.14333,0.151104 -0.14332,0.151442 -0.14266,0.150766 -0.14333,0.302546 -0.14333,0.150766 -0.14299,0.151443 -0.14333,0.151104 -0.14333,0.151104 -0.14332,0.151442 -0.14333,0.150766 -0.14266,0.302546 -0.14333,0.151104 -0.14299,0.150766 -0.14333,0.151442 -0.14299,0.302208 -0.14333,0.151104 -0.14333,0.151104 -0.14299,0.302546 -0.14299,0.150766 -0.14333,0.151443 -0.14333,0.151104 -0.14332,0.302208 -0.14333,0.151104 -0.14266,0.151442 -0.14333,0.150766 -0.14333,0.302546 -0.14265,0.151104 -0.14333,0.151104 -0.14333,0.150766 -0.14333,0.151104 -0.14299,0.151104 -0.14333,0.151442 -0.28665,0.150766 h -0.14333 l -0.14266,-0.302208 -0.14333,-0.60445 -0.14332,-0.755757 -0.143,-0.60445 -0.14299,-0.604585 -0.14333,-0.453244 -0.14332,-0.453279 -0.14266,-0.453684 -0.14333,-0.302208 -0.14333,-0.453684 -0.14333,-0.302208 -0.14299,-0.30187 -0.14299,-0.151442 -0.14333,-0.302208 -0.14333,-0.150766 -0.14299,-0.151104 -0.14333,-0.302547 -0.14333,-0.151104 -0.14299,-0.150766 -0.28598,-0.151104 -0.14333,-0.151104 -0.14333,-0.150766 -0.28598,-0.151104 -0.28632,-0.151104 -0.28598,-0.151442 -0.57247,-0.151104 h -0.42972 z"
         style="fill:#ff8c00;fill-opacity:1;fill-rule:evenodd;stroke:none;stroke-width:1.39197"
         id="path8803" />
      <path
         d="m 132.40357,166.75308 -0.7158,0.1511 -0.42931,0.1511 -0.28598,0.15077 -0.14299,0.1511 -0.14333,0.15111 -0.14333,0.30221 -0.14333,0.1511 -0.14299,0.30221 -0.14333,0.45372 -0.14333,0.45324 -0.14299,0.75576 v 2.11556 l 0.14299,0.45368 0.14333,0.30221 0.14333,0.1511 0.14299,0.15144 0.14333,0.15077 0.14333,0.15144 0.14333,0.15111 0.14299,0.15076 0.14299,0.15144 0.14333,0.15111 0.14333,0.1511 0.14333,0.30255 0.14265,0.15076 0.7158,0.15145 0.42931,0.1511 h 1.4316 l 0.71567,-0.1511 0.57223,-0.15145 0.28666,-0.15076 0.14299,-0.15111 0.14333,-0.15144 0.14299,-0.1511 0.14333,-0.15111 0.14333,-0.15144 0.14333,-0.15076 0.14265,-0.15111 0.14333,-0.15144 0.14333,-0.15077 0.14265,-0.15144 0.14333,-0.1511 0.14333,-0.15077 0.14333,-0.15144 0.28632,-0.1511 0.14299,-0.15111 0.14333,-0.15144 v -0.75532 l -0.14333,-0.60445 -0.14299,-0.45368 -0.14299,-0.45328 -0.14333,-0.30221 -0.14333,-0.30254 -0.14333,-0.30187 -0.14333,-0.30255 -0.14265,-0.1511 -0.14333,-0.30221 -0.14333,-0.15144 -0.14265,-0.15111 -0.14333,-0.15076 -0.14333,-0.15145 -0.14333,-0.1511 -0.14299,-0.1511 -0.28632,-0.15077 -0.14333,-0.1511 -0.28598,-0.15111 -0.57261,-0.15144 h -1.71761 z"
         style="fill:#ff8c00;fill-opacity:1;fill-rule:evenodd;stroke:none;stroke-width:1.39197"
         id="path8805" />
      <path
         d="m 176.34693,156.02269 -0.859,0.15111 -0.28598,0.1511 -0.28598,0.15144 -0.14333,0.15111 -0.14333,0.1511 -0.14299,0.15077 -0.14333,0.1511 -0.14299,0.15144 -0.14333,0.15077 -0.28666,0.1511 -0.14265,0.15145 -0.14333,0.15076 -0.14333,0.15111 -0.14265,0.15144 v 1.05773 l 0.14265,0.90693 0.14333,0.90665 0.14333,0.75579 0.14265,0.45369 0.14333,0.30187 0.14333,0.30221 0.14333,0.1511 0.14299,0.15144 0.14333,0.15111 0.28632,0.15076 0.57251,0.15111 h 1.00191 l 1.00179,-0.15111 0.42968,-0.15076 0.42931,-0.15111 0.28598,-0.15144 0.14333,-0.1511 0.28599,-0.15077 0.14332,-0.15144 0.28632,-0.15111 0.14333,-0.15076 0.14266,-0.15144 0.14333,-0.15111 0.14332,-0.1511 0.14333,-0.30221 0.143,-0.15144 0.14332,-0.30221 0.143,-0.30221 0.14299,-0.60458 v -0.45325 l -0.14299,-0.90696 -0.143,-0.75576 -0.14332,-0.60445 -0.143,-0.30221 -0.14333,-0.1511 -0.14332,-0.15077 -0.28599,-0.1511 -0.28632,-0.1511 -0.28665,-0.15145 -0.14266,-0.1511 h -0.28666 v -0.30221 h -1.14507 z"
         style="fill:#ff8c00;fill-opacity:1;fill-rule:evenodd;stroke:none;stroke-width:1.39197"
         id="path8807" />
      <path
         d="m 157.02315,173.25136 -0.5722,0.15144 -0.42971,0.15111 -0.42928,0.15076 -0.14333,0.15145 -0.14333,0.1511 -0.14265,0.1511 -0.14333,0.15145 -0.14333,0.1511 -0.14265,0.15077 -0.14333,0.30254 -0.14333,0.45325 v 1.51111 l 0.14333,0.60445 0.14333,0.45368 0.14265,0.30221 0.14333,0.30254 0.14333,0.15077 0.14265,0.30255 0.14333,0.1511 0.14333,0.15077 0.14299,0.1511 0.14299,0.1511 0.14333,0.15145 0.14333,0.1511 0.28666,0.15077 0.28598,0.1511 h 1.4315 l 0.5722,-0.1511 0.42972,-0.15077 0.42931,-0.1511 0.42928,-0.15145 0.14333,-0.1511 0.28598,-0.1511 0.28632,-0.15077 0.14333,-0.1511 0.28598,-0.15111 0.14333,-0.15144 0.14333,-0.15077 0.14333,-0.1511 0.14299,-0.15144 0.14333,-0.15077 0.14333,-0.30254 0.14299,-0.30255 0.14333,-0.45325 v -1.3602 l -0.14333,-0.45328 -0.14299,-0.30221 -0.14333,-0.30255 -0.14333,-0.15076 -0.14299,-0.15111 -0.14333,-0.15144 -0.14333,-0.1511 -0.14333,-0.15111 -0.14265,-0.15144 -0.28666,-0.15076 -0.14299,-0.15111 -0.28599,-0.15144 -0.57264,-0.15077 h -2.0041 z"
         style="fill:#ff8c00;fill-opacity:1;fill-rule:evenodd;stroke:none;stroke-width:1.39197"
         id="path8809" />
      <path
         d="m 130.11335,71.088866 -0.28598,0.150766 -0.28632,0.151104 -0.14333,0.151104 -0.28599,0.151442 -0.14332,0.151104 -0.143,0.150766 -0.14332,0.151442 -0.28599,0.151104 -0.14333,0.151104 -0.14265,0.150766 -0.14333,0.151105 -0.14333,0.151442 -0.14333,0.150766 -0.14333,0.151104 -0.14299,0.151442 -0.14333,0.151104 -0.14333,0.151104 -0.14332,0.150766 v 0.453718 l 0.14332,0.302208 0.14333,0.30187 0.14333,0.302546 0.14299,0.302546 0.14333,0.150766 0.14333,0.302546 0.14333,0.302208 0.14333,0.302209 0.14265,0.302208 0.14333,0.302546 0.14333,0.302208 0.14299,0.151104 0.14333,0.302546 h 0.57247 l 0.42972,-0.151442 0.42928,-0.151104 0.57264,-0.151104 0.42928,-0.150766 0.42931,-0.151104 h 0.5726 l 0.14333,0.151104 0.14333,0.150766 0.14333,0.302208 0.14265,0.151442 h 0.28632 l 0.14333,-0.151442 0.14299,-0.151104 0.14333,-0.151104 0.14333,-0.302208 0.14299,-0.151442 0.143,-0.151104 0.14332,-0.151104 0.14333,-0.150766 0.14333,-0.151104 0.14266,-0.151104 0.14332,-0.150767 0.14333,-0.151104 0.14299,-0.151104 0.143,-0.151442 0.14333,-0.150766 0.14332,-0.151442 0.14266,-0.302208 0.14333,-0.151442 0.14333,-0.150766 v -0.453278 l -0.14333,-0.151442 -0.14333,-0.151105 -0.14266,-0.151104 -0.14332,-0.302208 -0.14333,-0.151104 -0.143,-0.302546 -0.14299,-0.150766 -0.14333,-0.302546 -0.14332,-0.150766 -0.14266,-0.302208 -0.14333,-0.151442 -0.14333,-0.150766 -0.14332,-0.151104 -0.143,-0.151442 -0.14299,-0.151104 -0.14333,-0.151105 -0.28598,-0.150766 -0.28666,-0.151104 h -2.43338 z"
         style="fill:#ff8c00;fill-opacity:1;fill-rule:evenodd;stroke:none;stroke-width:1.39197"
         id="path8811" />
      <path
         d="m 149.00741,79.098699 -0.14333,0.151442 -0.14299,0.150766 -0.14333,0.151442 -0.14333,0.151104 -0.28598,0.150766 -0.14333,0.151443 -0.14333,0.151104 -0.14266,0.150766 -0.14333,0.151104 -0.14332,0.151104 -0.14333,0.151442 -0.14333,0.151104 -0.14299,0.151104 v 1.81362 l 0.14299,1.208596 0.14333,0.302208 0.14333,0.151442 0.14332,0.151104 0.14333,0.150767 0.14266,0.151442 0.28666,0.151104 0.28598,0.150766 0.28632,0.151104 0.28598,0.151104 0.57264,0.151104 0.57247,0.150766 h 1.57483 l 0.5722,-0.150766 0.28632,-0.151104 0.28632,-0.151104 0.14333,-0.151104 0.28598,-0.150766 0.14333,-0.151104 0.14299,-0.151442 0.14299,-0.150767 0.14333,-0.151104 0.14333,-0.302546 0.14266,-0.151104 0.14332,-0.453413 0.14333,-0.453245 v -1.813485 l -0.14333,-0.453279 -0.14332,-0.453684 -0.14266,-0.151104 -0.14333,-0.150766 -0.14333,-0.151104 -0.14299,-0.151442 -0.14299,-0.150766 -0.28632,-0.151104 -0.42931,-0.151442 -0.57261,-0.150766 -1.2883,-0.151442 -1.14508,-0.151104 h -0.5725 z"
         style="fill:#ff8c00;fill-opacity:1;fill-rule:evenodd;stroke:none;stroke-width:1.39197"
         id="path8813" />
      <path
         d="m 167.47219,97.989782 -0.42932,0.150766 -0.14332,0.151442 -0.28599,0.151104 -0.14299,0.151104 -0.14299,0.151442 -0.14333,0.150766 -0.14333,0.151443 -0.14333,0.151104 -0.14333,0.150766 -0.14332,0.453684 v 0.755787 l 0.14332,0.75532 0.14333,0.75579 0.14333,0.45325 0.14333,0.30254 0.14333,0.30187 0.14299,0.15144 0.14299,0.15111 0.28599,0.1511 0.14332,0.15077 0.28599,0.1511 0.14333,0.15145 0.14299,0.1511 2.0041,0.15077 h 1.86095 l 0.5722,-0.15077 0.28632,-0.1511 0.14333,-0.15145 0.14265,-0.30221 0.14333,-0.3022 0.14333,-0.30255 0.14333,-0.60415 0.14333,-0.60488 v -1.2086 l -0.14333,-0.30255 -0.14333,-0.302205 -0.14333,-0.150766 -0.14333,-0.151104 -0.14265,-0.151104 -0.14333,-0.151442 -0.14333,-0.150766 -0.14333,-0.151104 -0.28598,-0.151443 -0.28598,-0.150766 -0.14333,-0.151442 -0.28666,-0.151104 -0.42931,-0.151104 -0.42928,-0.151442 -0.42931,-0.150766 -1.14552,-0.151104 h -0.28598 z"
         style="fill:#ff8c00;fill-opacity:1;fill-rule:evenodd;stroke:none;stroke-width:1.39197"
         id="path8815" />
      <path
         d="m 112.3644,88.619607 -0.57247,0.151442 -0.28666,0.150766 -0.42927,0.151442 -0.14333,0.151104 -0.28599,0.151104 -0.14333,0.151442 -0.14332,0.150766 -0.14333,0.151104 -0.14299,0.151442 -0.14333,0.151104 -0.14333,0.150766 -0.14299,0.151442 -0.14333,0.302209 -0.14333,0.453717 v 0.906523 l 0.14333,0.755757 0.14333,0.755622 0.14299,0.604585 0.14333,0.302208 0.14333,0.302208 0.14299,0.151442 0.14333,0.151104 0.28665,0.150767 0.28599,0.151442 0.28632,0.151104 0.28598,0.150766 h 1.2883 l 0.57261,-0.150766 0.42931,-0.151104 0.42928,-0.151442 0.28632,-0.150767 0.28666,-0.151104 0.28598,-0.151442 0.14333,-0.151104 0.14299,-0.151104 0.14333,-0.151442 0.14333,-0.150766 0.14333,-0.302546 0.14333,-0.302208 0.14299,-0.60445 v -1.209035 l -0.14299,-1.058134 -0.14333,-0.755318 -0.14333,-0.453278 -0.57251,-0.151442 -0.14299,-0.151104 -0.28598,-0.151104 -0.28666,-0.151443 -0.14333,-0.150766 -0.28598,-0.151442 -0.28666,-0.151104 h -0.71539 z"
         style="fill:#ff8c00;fill-opacity:1;fill-rule:evenodd;stroke:none;stroke-width:1.39197"
         id="path8817" />
      <path
         d="m 119.66435,151.64027 -0.57264,0.1511 -0.28632,0.15077 -0.42931,0.1511 -0.14265,0.15145 -0.28666,0.15076 -0.14333,0.15111 -0.14299,0.15144 -0.14333,0.1511 -0.14333,0.15111 -0.14333,0.15076 -0.14333,0.15111 -0.14265,0.30254 -0.14333,0.30221 -0.14333,0.45325 v 1.36024 l 0.14333,0.45324 0.14333,0.30255 0.14265,0.1511 0.14333,0.15111 0.14333,0.15076 0.42931,0.15111 h 0.7158 l 0.57247,-0.15111 0.14333,0.45328 0.14333,0.45324 0.14265,0.15111 0.14333,0.15144 0.14333,0.1511 0.42928,0.15111 h 0.14333 l 0.7158,-0.15111 0.28598,-0.1511 0.28666,-0.15144 0.28598,-0.15111 0.28598,-0.15076 0.14333,-0.15144 0.14333,-0.15111 0.14333,-0.15076 0.14333,-0.15145 0.14333,-0.1511 0.14265,-0.15077 0.14333,-0.1511 0.14333,-0.1511 0.14265,-0.15145 0.14333,-0.3022 0.14333,-0.30221 0.14299,-0.30221 v -1.20944 l -0.14299,-0.30187 -0.14333,-0.30221 -0.14333,-0.15144 -0.14265,-0.15111 -0.14333,-0.3022 -0.14333,-0.15111 -0.14265,-0.1511 -0.14333,-0.15144 -0.14333,-0.15111 -0.14333,-0.15076 -0.14333,-0.15145 -0.14333,-0.1511 -0.28598,-0.15077 -0.14333,-0.1511 -0.28598,-0.1511 h -1.14511 z"
         style="fill:#ff8c00;fill-opacity:1;fill-rule:evenodd;stroke:none;stroke-width:1.39197"
         id="path8819" />
      <path
         d="m 112.93691,139.24761 -0.42972,0.15144 -0.28598,0.15111 -0.14333,0.15076 -0.14299,0.15145 -0.14265,0.1511 -0.14333,0.15077 -0.14333,0.1511 -0.14299,0.1511 -0.14333,0.15145 -0.14299,0.1511 -0.14333,0.15077 -0.14333,0.15144 -0.14266,0.1511 -0.14332,0.30221 -0.14333,0.15111 -0.14333,0.1511 -0.14299,0.30221 -0.14333,0.15144 -0.14333,0.3022 -0.14299,0.30221 v 0.90693 l 0.14299,0.30221 0.14333,0.30254 0.14333,0.15111 0.14299,0.30221 0.14333,0.1511 0.14333,0.15077 0.14332,0.1511 0.14266,0.30255 0.14333,0.15076 0.14333,0.15111 0.28632,0.15144 0.14299,0.1511 0.28666,0.15111 0.14265,0.15076 h 0.85899 l 0.7158,-0.15076 0.42931,-0.15111 0.42928,-0.1511 0.28666,-0.15144 0.14333,-0.15111 0.28598,-0.15076 0.14333,-0.15144 0.14299,-0.15111 0.14333,-0.30221 0.14333,-0.1511 0.14333,-0.30221 0.14333,-0.45368 0.14299,-0.45328 0.14333,-0.60459 0.14333,-0.60441 0.14333,-0.75579 v -0.1511 l -0.14333,-0.15077 -0.14333,-0.30221 -0.14333,-0.15144 -0.14299,-0.15077 -0.14333,-0.1511 -0.14333,-0.30255 -0.14333,-0.1511 -0.14333,-0.15077 -0.14299,-0.30254 -0.14333,-0.15077 -0.14299,-0.1511 -0.14299,-0.30255 h -1.00219 z"
         style="fill:#ff8c00;fill-opacity:1;fill-rule:evenodd;stroke:none;stroke-width:1.39197"
         id="path8821" />
      <path
         d="m 161.60387,88.317669 -0.42971,0.150766 -0.42932,0.151104 -0.42927,0.151442 -0.57264,0.150766 -0.42969,0.151442 -0.14265,1.058134 -0.14333,0.453279 -0.14333,0.302208 v 0.755757 l 0.14333,0.302208 0.28598,0.150766 0.14333,0.302546 0.14333,0.453278 0.14299,0.60445 0.57264,0.151104 0.28599,0.151443 0.28632,0.150766 0.14332,0.151442 0.28599,0.151104 0.28665,0.150766 0.42928,0.151442 0.7158,0.151104 h 0.14266 l 1.00191,-0.151104 0.7158,-0.151442 0.42972,-0.150766 v -0.302546 -0.150766 l 0.14265,-0.302547 0.14333,-0.453278 0.14333,-0.302546 0.14266,-0.453245 0.14332,-0.302208 0.14333,-0.302546 0.14333,-0.453278 v -0.302546 l -0.14333,-0.302209 -0.14333,-0.151104 -0.14332,-0.302208 -0.14266,-0.151104 -0.14333,-0.151442 -0.14333,-0.30187 -0.14265,-0.151442 -0.14333,-0.151104 -0.14333,-0.151104 -0.14333,-0.151442 -0.14299,-0.150766 -0.14333,-0.151442 -0.14333,-0.151104 -0.28665,-0.150766 -0.28599,-0.151442 h -1.57442 z"
         style="fill:#ff8c00;fill-opacity:1;fill-rule:evenodd;stroke:none;stroke-width:1.39197"
         id="path8823" />
      <path
         d="m 177.34871,145.29275 -0.71543,0.15111 -0.71566,0.15144 -0.7158,0.15076 -0.57264,0.15111 -0.14299,0.15144 -0.14333,0.30221 -0.14299,0.45324 -0.14333,0.30221 -0.14333,0.30255 -0.28598,0.15076 -0.14333,0.90696 -0.14333,0.15145 v 0.45328 l 0.14333,0.45324 0.14333,0.45368 0.14265,0.30221 0.14333,0.30221 0.14333,0.45368 0.14333,0.30187 0.14299,0.30255 0.14333,0.30221 0.14299,0.45328 0.14333,0.30254 h 0.28598 l 0.42944,-0.15144 0.42969,-0.1511 0.28598,-0.15077 0.42968,-0.15144 0.42931,-0.15111 0.28599,-0.15076 0.42968,-0.15111 0.42931,-0.1511 0.28598,-0.15144 0.42931,-0.15077 0.42972,-0.1511 v -3.92962 l -0.14333,-0.1511 -0.14333,-0.30221 -0.14333,-0.30221 -0.14265,-0.60486 -0.14333,-0.60445 h -0.57247 z"
         style="fill:#ff8c00;fill-opacity:1;fill-rule:evenodd;stroke:none;stroke-width:1.39197"
         id="path8825" />
      <path
         d="m 120.80946,76.982702 -0.71583,0.151442 -0.7154,0.151104 -0.14333,0.150766 -0.14332,0.151104 -0.143,0.151104 -0.14333,0.151442 -0.14265,0.150766 -0.14333,0.302546 -0.14333,0.30187 -0.14265,0.302546 -0.14333,0.302546 -0.14333,0.302209 -0.14333,0.30187 -0.14299,0.302546 -0.14333,0.453278 -0.14333,0.453684 v 1.511108 l 0.14333,0.453245 0.14333,0.151104 0.14299,0.151442 0.14333,0.150766 0.14333,0.151104 0.14333,0.151442 0.28598,0.151104 0.42931,0.150766 0.7158,0.151104 h 0.85859 l 0.859,-0.151104 0.28666,-0.150766 0.28598,-0.151104 0.14333,-0.151442 0.14265,-0.151104 0.14333,-0.302208 0.14333,-0.151104 0.14333,-0.302208 0.14333,-0.302208 0.14333,-0.302208 0.14265,-0.453684 0.14333,-0.453245 v -1.057864 l -0.14333,-0.755757 -0.14265,-0.75579 -0.14333,-0.755182 -0.14333,-0.453684 -0.14333,-0.150766 -0.14333,-0.151105 -0.14333,-0.151442 -0.42928,-0.151104 h -0.14265 z"
         style="fill:#ff8c00;fill-opacity:1;fill-rule:evenodd;stroke:none;stroke-width:1.39197"
         id="path8827" />
      <path
         d="m 109.93102,126.40167 -0.28598,0.15144 -0.28666,0.15111 -0.14333,0.1511 -0.14299,0.15077 -0.14333,0.1511 -0.14265,0.15144 -0.14333,0.15077 -0.14333,0.30255 -0.14266,0.30187 -0.14332,0.45368 -0.143,0.45341 -0.14265,0.60442 -0.14333,0.75579 v 0.75532 l 0.14333,0.30221 0.14265,0.15144 0.143,0.15076 0.14332,0.15145 0.14266,0.3022 0.14333,0.15111 0.14333,0.15076 0.14265,0.30255 0.14333,0.15077 0.14299,0.1511 0.14333,0.15144 0.28666,0.15111 h 1.2879 l 0.42968,-0.15111 0.28598,-0.15144 0.28598,-0.1511 0.143,-0.15077 0.28665,-0.15144 0.14266,-0.15111 0.28665,-0.15076 0.14333,-0.15111 0.14333,-0.1511 0.14266,-0.1511 0.14332,-0.15145 0.14333,-0.15076 0.14266,-0.15144 0.14333,-0.15111 0.14333,-0.1511 0.14299,-0.30221 v -0.75576 l -0.14299,-0.45324 -0.14333,-0.30255 -0.14333,-0.45328 -0.14266,-0.3022 -0.14333,-0.30221 -0.14332,-0.15144 -0.14266,-0.30187 -0.14333,-0.15145 -0.14333,-0.30187 -0.14332,-0.15144 -0.14333,-0.1511 -0.14266,-0.15077 -0.14333,-0.1511 -0.14332,-0.15111 -0.143,-0.15144 -0.28598,-0.1511 h -1.2883 z"
         style="fill:#ff8c00;fill-opacity:1;fill-rule:evenodd;stroke:none;stroke-width:1.39197"
         id="path8829" />
      <path
         d="m 176.9194,108.71973 -0.7158,0.1511 -0.71567,0.1511 -0.71542,0.15077 -0.14333,0.1511 -0.28632,0.15145 -0.14299,0.30187 -0.14333,0.15144 -0.14333,0.30221 -0.14333,0.3022 -0.14265,0.45372 v 1.2086 l 0.14265,0.60502 0.14333,0.30187 0.28666,0.15144 0.28598,0.15077 0.28632,0.1511 0.5725,0.15145 0.57261,0.1511 0.71567,0.15077 1.00191,0.1511 h 1.14512 l 0.85858,-0.1511 0.28666,-0.15077 0.28598,-0.1511 0.28632,-0.15145 0.143,-0.1511 0.14332,-0.15077 0.14333,-0.30254 v -0.90696 l -0.14333,-0.30221 -0.14332,-0.15111 -0.143,-0.15076 -0.14299,-0.15111 v -0.1511 -0.90696 l -0.14333,-0.45338 -0.14299,-0.30187 -0.14333,-0.15144 -0.14333,-0.15111 -0.28598,-0.15076 -0.14333,-0.15111 -0.42971,-0.1511 -0.57207,-0.15111 h -0.71583 z"
         style="fill:#ff8c00;fill-opacity:1;fill-rule:evenodd;stroke:none;stroke-width:1.39197"
         id="path8831" />
      <path
         d="m 183.50392,134.2603 -0.85899,0.15144 -0.7158,0.15111 -0.7154,0.15076 -0.14333,0.15144 -0.14333,0.15111 -0.14333,0.1511 -0.14333,0.30221 -0.14299,0.30255 -0.14299,0.1511 -0.14333,0.30221 -0.14299,0.30221 -0.14333,0.3022 -0.14333,0.60459 v 0.60445 l 0.14333,0.45338 0.14333,0.30221 0.14299,0.15144 0.14333,0.30187 0.14299,0.15144 0.14299,0.15111 0.14333,0.15076 0.14333,0.15144 0.28666,0.15111 0.14333,0.15076 0.14299,0.15111 0.14333,0.1511 0.28598,0.15144 0.14333,0.15111 0.14333,0.15076 0.28598,0.15145 0.14333,0.1511 0.28632,0.1511 h 0.42931 l 0.14333,-0.1511 0.28598,-0.1511 0.14333,-0.15145 0.28599,-0.15076 0.14332,-0.15111 0.28633,-0.15144 0.14332,-0.1511 0.28599,-0.15111 0.28598,-0.15076 0.14299,-0.15111 0.28666,-0.15144 0.14265,-0.15076 v -1.21012 l -0.14265,-0.90581 -0.14333,-1.05787 -0.14333,-0.90693 -0.14299,-0.45327 -0.14299,-0.15111 -0.28666,-0.15144 -0.14265,-0.15077 -0.14333,-0.1511 -0.14333,-0.15144 -0.14299,-0.15077 h -0.14333 z"
         style="fill:#ff8c00;fill-opacity:1;fill-rule:evenodd;stroke:none;stroke-width:1.39197"
         id="path8833" />
      <path
         d="m 181.92913,120.96108 -0.42932,0.15144 -0.42927,0.15111 -0.42972,0.15076 -0.28598,0.15144 -0.28598,0.15111 -0.28666,0.1511 -0.28598,0.15077 -0.14333,0.1511 -0.14333,0.15145 -0.14333,0.15076 -0.14333,0.15111 -0.14265,0.15144 -0.14333,0.1511 -0.14333,0.15111 -0.14266,0.3022 -0.14332,0.45328 -0.14333,0.75576 v 0.30254 l 0.14333,0.15077 0.14332,0.15111 0.14266,0.15144 0.14333,0.1511 0.14333,0.15077 0.14265,0.1511 0.14333,0.15111 h 0.28632 v 0.3022 l 0.14333,0.15111 0.14265,0.15144 0.14333,0.1511 0.14333,0.15111 0.14333,0.30221 0.14299,0.15144 0.14333,0.15076 0.14299,0.30255 0.14299,0.15077 0.28632,0.1511 0.42972,0.15144 h 0.85872 l 0.71567,-0.15144 0.42931,-0.1511 0.42941,-0.15077 0.14333,-1.05783 0.14333,-0.1511 0.14299,-0.15145 v -1.05772 l -0.14299,-0.75576 -0.14333,-0.75576 -0.14333,-0.75535 -0.14333,-0.75562 -0.14265,-0.30255 -0.28666,-0.15076 -0.14265,-0.30221 -0.14333,-0.45328 -0.14333,-0.30255 h -0.28666 z"
         style="fill:#ff8c00;fill-opacity:1;fill-rule:evenodd;stroke:none;stroke-width:1.39197"
         id="path8835" />
      <path
         d="m 108.3566,101.1632 -0.42928,0.15111 -0.28666,0.1511 -0.14333,0.15144 -0.14333,0.15077 -0.14333,0.1511 -0.14265,0.15145 -0.14333,0.1511 -0.14333,0.45325 v 1.81362 l 0.14333,0.45324 0.14333,0.45372 0.14265,0.30221 0.14333,0.3022 0.14333,0.15077 0.14333,0.30221 0.14333,0.15076 0.14333,0.30221 0.14265,0.15144 0.14299,0.15111 0.14333,0.15076 0.28598,0.15111 0.28599,0.1511 h 0.28665 l 0.71584,-0.1511 0.42928,-0.15111 0.14332,-0.15076 0.28599,-0.15111 0.14333,-0.15144 0.14333,-0.1511 0.14299,-0.15111 0.14333,-0.15076 0.14299,-0.15111 0.14333,-0.1511 0.14332,-0.15077 0.14266,-0.3022 0.14299,-0.15145 0.14333,-0.15076 0.14333,-0.15144 0.14265,-0.15111 v -0.60445 l -0.14265,-1.96479 -0.14333,-0.15077 -0.14333,-0.1511 -0.14299,-0.1511 -0.14266,-0.15145 -0.14332,-0.1511 -0.14333,-0.15077 -0.14299,-0.15144 -0.14333,-0.1511 -0.14299,-0.15111 -0.28666,-0.15076 h -1.86092 z"
         style="fill:#ff8c00;fill-opacity:1;fill-rule:evenodd;stroke:none;stroke-width:1.39197"
         id="path8837" />
      <path
         d="m 108.07011,113.85824 -0.14266,0.15077 -0.14333,0.1511 -0.14333,0.15111 -0.28665,0.15144 -0.42928,0.1511 -0.42931,0.15077 -0.42928,0.15144 -0.42972,0.15111 -0.42931,0.15076 -0.28598,0.15111 -0.42972,0.1511 -0.14265,0.15077 v 1.66299 l 0.14265,0.30153 0.14333,0.30254 0.14333,0.30255 0.14333,0.15077 0.14299,0.30254 0.14299,0.15077 0.14333,0.15144 0.14299,0.30221 0.14333,0.15144 0.14333,0.15077 0.14333,0.1511 0.28598,0.15144 0.14333,0.15111 h 0.85859 l 0.57291,-0.15111 0.42928,-0.15144 0.14333,-0.1511 0.14265,-0.15077 0.14333,-0.15144 0.28598,-0.15111 0.28666,-0.1511 0.42972,-0.15144 0.14299,-0.15077 0.14333,-0.15144 0.14333,-0.30187 0.14299,-0.15144 0.14333,-0.15111 0.14333,-0.1511 0.14333,-0.15144 0.14265,-0.30187 0.14333,-0.15144 0.14333,-0.15111 0.14299,-0.15076 v -0.45318 l -0.14299,-0.30221 -0.14333,-0.30255 -0.14333,-0.3022 -0.14265,-0.15111 -0.14333,-0.1511 -0.14333,-0.15077 -0.14333,-0.1511 -0.42928,-0.15144 -0.7158,-0.15077 -0.14333,-0.30255 -0.14265,-0.1511 -0.14333,-0.1511 -0.14333,-0.15077 -0.14265,-0.1511 h -0.14333 z"
         style="fill:#ff8c00;fill-opacity:1;fill-rule:evenodd;stroke:none;stroke-width:1.39197"
         id="path8839" />
      <path
         d="m 127.82316,159.80097 -0.42931,0.15111 -0.57247,0.1511 -0.42932,0.15144 -0.42971,0.15111 -0.42942,0.15076 -0.14332,0.15111 -0.14333,0.3022 -0.14299,0.30221 -0.143,0.60459 v 0.45328 l 0.143,0.60445 0.14299,0.30254 0.14333,0.30221 0.14332,0.45368 0.14333,0.15077 0.14266,0.30255 0.14333,0.15076 0.14333,0.30221 0.14332,0.1511 0.14333,0.15077 0.14266,0.1511 0.28665,0.15145 0.28599,0.1511 h 0.5725 l 0.7158,-0.1511 0.57247,-0.15145 0.42932,-0.1511 0.28665,-0.15077 0.14333,-0.1511 0.14299,-0.1511 0.14333,-0.15111 0.14333,-0.15076 0.14299,-0.15111 0.14333,-0.15144 0.14333,-0.30187 0.14333,-0.30255 0.14299,-0.60458 v -1.0577 l -0.14299,-0.75579 -1.14511,-0.1511 -0.28666,-0.15077 -0.14333,-0.30221 -0.14265,-0.3022 -0.14333,-0.45369 -0.28632,-0.15076 h -0.28598 z"
         style="fill:#ff8c00;fill-opacity:1;fill-rule:evenodd;stroke:none;stroke-width:1.39197"
         id="path8841" />
    </g>
  </g>
</svg>
