<?xml version="1.0" encoding="UTF-8" standalone="no"?>
<!-- Creator: CorelDRAW 2017 -->

<svg
   xml:space="preserve"
   width="297mm"
   height="210mm"
   version="1.1"
   style="shape-rendering:geometricPrecision; text-rendering:geometricPrecision; image-rendering:optimizeQuality; fill-rule:evenodd; clip-rule:evenodd"
   viewBox="0 0 29700 21000"
   id="svg5682"
   sodipodi:docname="wl10.svg"
   inkscape:version="1.1.1 (3bf5ae0d25, 2021-09-20)"
   xmlns:inkscape="http://www.inkscape.org/namespaces/inkscape"
   xmlns:sodipodi="http://sodipodi.sourceforge.net/DTD/sodipodi-0.dtd"
   xmlns="http://www.w3.org/2000/svg"
   xmlns:svg="http://www.w3.org/2000/svg"><sodipodi:namedview
   id="namedview5684"
   pagecolor="#ffffff"
   bordercolor="#666666"
   borderopacity="1.0"
   inkscape:pageshadow="2"
   inkscape:pageopacity="0.0"
   inkscape:pagecheckerboard="0"
   inkscape:document-units="mm"
   showgrid="false"
   inkscape:zoom="1.0104563"
   inkscape:cx="561.62743"
   inkscape:cy="397.34522"
   inkscape:window-width="1920"
   inkscape:window-height="991"
   inkscape:window-x="-9"
   inkscape:window-y="-9"
   inkscape:window-maximized="1"
   inkscape:current-layer="Warstwa_x0020_1" />
 <defs
   id="defs3680">
  <style
   type="text/css"
   id="style3678">
   <![CDATA[
    .str1 {stroke:#99CC66;stroke-width:84.68}
    .str0 {stroke:fuchsia;stroke-width:148.77}
    .fil3 {fill:#C6C6C6}
    .fil4 {fill:#00CCFF}
    .fil0 {fill:#33CC33}
    .fil6 {fill:#99CC66}
    .fil5 {fill:#00CCFF;fill-rule:nonzero}
    .fil7 {fill:#99CC66;fill-rule:nonzero}
    .fil1 {fill:fuchsia;fill-rule:nonzero}
    .fil2 {fill:#FF6600;fill-rule:nonzero}
   ]]>
  </style>
 </defs>
 <g
   id="Warstwa_x0020_1"
   inkscape:label="Warstwa 1">
  <metadata
   id="CorelCorpID_0Corel-Layer" />
  
  
  
  
  
  
  
  
  <g
   id="g5673"
   transform="translate(-471.3217,-7096.01)">
   <g
   id="g5609">
    <path
   class="fil6"
   d="m 5634,11468 c -136,-124 -715,-194 -712,124 1,120 22,235 180,219 71,-17 178,-182 178,-97 3,292 -594,224 -395,-262 0,-41 -289,-119 -359,-112 -670,61 -146,723 -43,324 27,2 58,10 58,34 -148,446 -526,28 -393,-257 -63,-266 -937,16 -507,364 9,0 172,-194 173,-78 -178,429 -629,-115 -229,-373 260,-152 388,-89 641,-11 404,-181 474,-49 716,40 91,-94 491,-182 737,12 -3,27 -39,50 -47,73 z"
   id="path5605" />
    <path
   id="path5607"
   class="fil7"
   d="m 4880,11592 v 0 l 2,-34 6,-32 9,-30 13,-27 16,-25 19,-22 22,-20 24,-17 25,-15 27,-13 28,-10 29,-9 30,-7 31,-5 31,-4 32,-2 32,-1 32,1 32,2 32,3 32,4 31,5 30,6 30,7 28,8 27,9 26,10 24,10 23,11 21,12 19,13 17,14 -57,63 -11,-9 -14,-9 -16,-9 -18,-9 -21,-9 -22,-8 -24,-8 -25,-7 -27,-6 -27,-6 -28,-5 -29,-4 -29,-3 -29,-2 -29,-1 -29,1 -28,2 -27,3 -26,4 -25,6 -24,7 -22,8 -20,9 -18,11 -16,12 -14,13 -12,14 -10,15 -8,17 -6,19 -4,21 -1,24 v 0 l -85,1 z m 233,260 -6,1 -16,1 h -16 -15 l -15,-1 -14,-2 -14,-3 -13,-4 -13,-5 -12,-6 -11,-6 -10,-7 -10,-8 -9,-9 -8,-9 -7,-10 -7,-10 -6,-10 -5,-11 -5,-11 -4,-11 -3,-11 -3,-11 -3,-11 -2,-12 -2,-12 -1,-12 -1,-12 -1,-12 -1,-12 v -12 -12 -12 l 85,-1 v 11 11 10 l 1,10 1,10 1,10 1,9 1,9 2,9 2,8 2,8 2,8 3,7 3,7 3,6 3,6 3,5 4,5 4,4 4,4 4,4 5,3 5,3 6,3 6,2 7,2 8,2 9,1 10,1 h 11 11 l 12,-1 -6,1 20,82 z m 0,0 -3,1 h -3 z m 126,-138 v 0 -3 0 l 1,3 4,7 9,7 11,4 h 8 l 4,-1 h 1 l -1,1 -3,2 -4,3 -5,4 -5,5 -6,5 -6,6 -7,6 -7,6 -7,7 -7,7 -8,7 -8,7 -8,7 -8,7 -8,7 -9,6 -9,6 -9,6 -9,5 -10,5 -10,4 -11,3 -20,-82 3,-1 4,-1 5,-2 5,-3 6,-4 6,-4 6,-5 7,-5 7,-6 7,-6 7,-6 7,-7 7,-7 7,-7 7,-7 7,-6 7,-6 7,-6 7,-6 7,-6 7,-5 7,-5 8,-5 10,-4 12,-3 h 15 l 17,6 14,11 9,13 4,12 2,11 1,11 v 0 l -85,1 z m -310,-263 -3,16 -15,42 -11,39 -7,36 -4,33 v 30 l 3,28 5,25 8,23 10,21 11,19 13,17 15,15 16,13 17,11 18,9 19,7 20,5 20,4 20,2 h 20 l 19,-2 18,-4 17,-5 16,-7 14,-9 13,-10 11,-11 9,-13 8,-14 6,-16 4,-18 1,-21 85,-1 -2,32 -6,30 -10,28 -13,25 -17,23 -19,20 -22,17 -23,14 -25,11 -26,8 -27,6 -27,3 h -28 l -28,-2 -28,-5 -27,-8 -27,-10 -26,-13 -25,-16 -23,-19 -21,-21 -19,-24 -17,-27 -14,-30 -11,-32 -7,-35 -4,-37 v -39 l 4,-41 9,-43 13,-45 17,-47 -3,16 85,-1 z m 0,0 v 9 l -3,8 3,-16 z m -405,-154 v 0 l 10,-1 h 11 l 11,1 12,1 12,1 13,2 14,2 14,3 15,3 15,3 15,3 16,4 16,4 16,4 16,4 16,5 16,5 15,5 15,5 15,5 14,5 13,5 13,5 12,5 11,6 11,6 10,6 9,7 9,8 9,10 8,14 4,20 -85,1 2,12 3,5 1,1 -2,-1 -4,-3 -6,-3 -7,-4 -9,-4 -10,-4 -11,-5 -12,-5 -13,-5 -13,-5 -14,-5 -14,-4 -15,-4 -15,-4 -15,-4 -15,-4 -15,-4 -15,-3 -14,-3 -14,-3 -13,-3 -13,-2 -12,-2 -11,-2 -10,-1 -9,-1 h -8 -6 -4 v 0 l -8,-84 z m 8,84 v 0 0 h 1 z m -51,324 44,-32 -12,39 -15,34 -19,29 -22,23 -25,18 -27,12 -28,5 -28,-1 -27,-6 -26,-10 -24,-14 -22,-17 -21,-20 -19,-22 -17,-24 -14,-26 -12,-28 -9,-29 -6,-30 -2,-31 2,-32 7,-32 12,-31 17,-30 23,-29 28,-26 33,-24 39,-21 44,-18 50,-15 56,-11 62,-8 8,84 -56,7 -49,10 -43,12 -36,15 -30,16 -24,17 -19,18 -15,19 -11,19 -7,19 -4,20 -1,20 1,21 4,21 6,20 8,20 10,19 12,17 13,15 14,13 14,11 14,8 14,6 13,3 h 11 l 10,-2 10,-4 10,-7 11,-12 11,-17 11,-23 9,-30 44,-32 -6,84 z m -38,-53 9,-34 35,3 -44,32 z m 59,31 -2,14 v 1 1 1 1 l 1,2 1,1 1,1 1,1 1,1 1,1 v 0 0 0 0 0 0 h -1 -1 -1 -1 -1 -1 -1 -2 -2 -2 -2 -2 -2 -2 -2 -2 l 6,-84 h 3 3 3 3 3 l 3,1 3,1 3,1 3,1 3,1 3,1 3,1 4,1 3,1 4,1 4,2 4,2 4,2 4,2 4,3 4,3 4,3 3,4 3,4 3,4 3,5 3,5 2,5 2,5 1,6 1,6 v 6 l -2,14 -80,-27 z m 83,13 v 7 l -2,7 z m -394,-266 -3,28 -9,23 -7,24 -5,24 -2,25 v 25 l 2,25 4,25 5,24 7,24 9,23 10,22 12,21 13,20 14,18 14,16 15,14 15,12 15,10 15,8 15,5 15,3 14,1 14,-1 14,-4 14,-6 14,-9 15,-13 15,-17 15,-22 15,-26 14,-31 14,-37 80,27 -16,42 -17,38 -19,33 -20,29 -22,25 -24,21 -25,16 -26,12 -27,7 -27,3 -27,-2 -26,-6 -25,-9 -24,-12 -23,-15 -22,-17 -20,-19 -19,-21 -18,-23 -16,-25 -14,-26 -13,-28 -11,-29 -9,-30 -7,-30 -5,-31 -2,-32 v -32 l 3,-32 6,-32 9,-32 13,-31 -3,28 82,-20 z m 0,0 3,14 -6,13 3,-28 z m -548,416 -27,-9 -40,-35 -33,-35 -26,-36 -19,-36 -12,-37 -5,-37 1,-36 8,-34 13,-32 18,-30 22,-28 25,-25 28,-23 30,-21 32,-19 34,-17 35,-15 36,-13 37,-11 37,-9 37,-7 37,-4 36,-2 36,1 34,4 33,7 31,10 29,14 26,19 22,23 17,28 11,32 -82,20 -5,-15 -8,-12 -11,-11 -14,-10 -18,-9 -21,-7 -24,-5 -27,-3 -29,-1 -31,1 -32,4 -32,6 -33,8 -32,10 -32,11 -31,13 -29,15 -27,16 -25,17 -22,18 -19,19 -15,20 -12,20 -8,20 -4,20 -1,21 3,22 8,23 13,25 19,27 26,28 34,30 -27,-9 1,85 z m 0,0 h -15 l -12,-10 27,9 z m 134,-136 -3,17 v -6 -3 1 l 2,3 5,5 6,3 5,1 h 3 v 0 l -2,1 -4,2 -5,3 -6,3 -6,4 -7,5 -7,5 -7,6 -7,6 -7,6 -7,7 -7,7 -7,7 -7,6 -6,6 -6,6 -6,5 -5,5 -5,5 -4,4 -5,4 -7,5 -23,7 -1,-85 -21,6 -2,2 1,-1 3,-3 4,-4 5,-5 5,-5 6,-6 7,-6 7,-7 7,-7 8,-7 8,-7 8,-7 8,-7 9,-7 9,-7 9,-7 9,-6 9,-6 10,-5 10,-5 11,-4 12,-2 h 14 l 16,3 15,8 12,12 8,14 5,14 2,14 1,14 -3,17 -78,-32 z m 81,16 v 9 l -3,8 z m -250,-336 2,-1 -32,23 -27,24 -23,24 -19,25 -15,25 -11,26 -8,26 -5,26 -2,26 v 25 l 3,25 5,24 8,23 9,22 11,21 13,19 14,17 15,15 16,13 16,10 16,8 16,5 16,3 h 16 l 16,-3 16,-6 16,-9 17,-13 17,-18 17,-23 17,-28 16,-34 78,32 -19,41 -21,36 -23,31 -25,26 -27,21 -28,16 -29,10 -30,5 h -30 l -29,-5 -28,-9 -26,-12 -25,-16 -23,-19 -21,-21 -19,-24 -17,-26 -15,-28 -13,-29 -10,-31 -7,-32 -4,-33 -1,-34 3,-35 7,-35 11,-35 15,-34 20,-33 24,-32 29,-31 33,-29 38,-27 2,-1 43,73 z m -44,-72 1,-1 h 1 z m 681,63 -30,2 -24,-7 -23,-7 -22,-7 -21,-7 -21,-6 -20,-6 -20,-6 -19,-5 -19,-5 -18,-5 -18,-4 -17,-4 -17,-3 -17,-3 -17,-2 -16,-1 -16,-1 h -16 l -16,1 -17,1 -17,2 -17,3 -17,4 -18,4 -18,5 -19,6 -19,7 -20,8 -21,10 -21,11 -22,12 -23,13 -43,-73 25,-14 24,-13 24,-12 23,-11 23,-10 22,-8 22,-7 22,-6 21,-5 21,-4 21,-3 20,-2 20,-1 20,-1 h 20 l 20,1 20,2 19,2 19,3 19,4 19,4 19,5 20,5 20,5 20,6 20,6 21,6 21,7 21,7 22,7 23,7 23,7 -30,2 35,77 z m 0,0 -15,7 -15,-5 z m 729,31 -45,10 -23,-9 -22,-9 -21,-9 -20,-9 -20,-9 -19,-9 -18,-9 -18,-8 -17,-8 -17,-8 -16,-7 -16,-7 -16,-6 -16,-5 -16,-5 -16,-4 -17,-3 -17,-2 -18,-2 -18,-1 h -19 l -20,1 -22,2 -23,3 -24,5 -26,6 -27,7 -29,9 -30,11 -32,12 -34,14 -36,16 -35,-77 38,-16 36,-15 34,-13 33,-11 31,-10 30,-8 29,-7 27,-5 26,-4 25,-3 24,-1 h 24 l 23,1 22,2 21,3 21,4 20,5 19,6 19,6 19,7 18,7 18,8 18,8 18,8 18,8 18,9 18,9 19,9 19,9 20,8 21,8 21,8 -45,10 61,59 z m 0,0 -19,20 -26,-9 45,-10 z m 665,-23 16,39 -21,-16 -22,-14 -23,-13 -24,-12 -24,-10 -25,-9 -25,-8 -26,-7 -26,-6 -26,-4 -26,-3 -26,-2 -26,-1 h -26 -26 l -25,1 -25,2 -25,3 -24,4 -23,4 -22,5 -22,5 -21,6 -19,6 -18,7 -17,7 -16,7 -14,7 -12,7 -10,7 -9,7 -6,6 -61,-59 12,-12 14,-11 15,-10 16,-10 18,-9 19,-9 20,-8 21,-8 22,-7 23,-7 24,-6 25,-5 26,-5 27,-4 27,-3 28,-2 28,-1 h 29 l 29,1 29,2 29,3 30,4 30,5 29,6 29,8 29,9 29,11 28,12 28,14 27,15 26,17 26,19 16,39 -84,-11 z m 68,-28 19,15 -3,24 z m -44,75 -69,18 2,-5 2,-4 2,-4 2,-4 2,-4 2,-3 2,-3 2,-3 2,-3 2,-3 2,-3 2,-2 2,-2 2,-2 2,-2 2,-2 2,-2 2,-2 2,-2 1,-2 1,-2 1,-2 1,-1 1,-1 1,-1 v -1 -1 -1 0 0 0 1 l 84,11 -1,6 -1,5 -1,5 -2,5 -2,4 -2,4 -2,4 -2,4 -2,4 -2,3 -2,3 -2,3 -2,3 -2,3 -2,3 -2,3 -2,2 -2,2 -2,2 -2,2 -2,2 -2,2 -1,2 -1,2 -1,1 -1,1 -1,1 -1,1 v 1 0 0 0 l -69,18 57,-63 z m 12,45 -21,62 -48,-44 z" />
   </g>
   <g
   id="g5615">
    <path
   class="fil6"
   d="m 7735,11438 c -167,-98 -668,-159 -666,159 1,120 22,235 180,219 71,-17 178,-182 178,-97 3,292 -594,224 -395,-262 0,-41 -289,-119 -359,-112 -670,61 -146,723 -43,324 27,2 58,10 58,34 -148,446 -526,28 -393,-257 -63,-265 -937,16 -507,364 9,0 172,-194 173,-78 -178,429 -629,-115 -229,-373 260,-152 388,-89 641,-11 404,-181 474,-49 716,40 91,-94 460,-193 671,-19 -10,23 -19,46 -27,69 z"
   id="path5611" />
    <path
   id="path5613"
   class="fil7"
   d="m 7027,11598 v 0 l 1,-33 5,-31 8,-29 11,-27 14,-25 17,-23 19,-20 21,-18 23,-16 24,-13 25,-11 26,-9 27,-8 28,-6 29,-5 29,-3 29,-2 30,-1 30,1 30,2 29,3 29,4 29,4 28,5 27,6 26,7 25,7 24,8 23,9 22,9 20,10 19,10 -43,73 -14,-8 -16,-8 -18,-8 -20,-7 -21,-7 -23,-7 -24,-6 -25,-5 -25,-5 -26,-4 -26,-3 -27,-2 -27,-1 -27,-1 -26,1 -26,2 -25,3 -24,4 -23,5 -22,6 -21,7 -19,9 -18,10 -16,11 -14,12 -12,13 -11,14 -9,16 -7,18 -5,20 -3,22 -1,24 v 0 l -85,1 z m 233,260 -6,1 -16,1 h -16 -15 l -15,-1 -14,-2 -14,-3 -13,-4 -13,-5 -12,-6 -11,-6 -10,-7 -10,-8 -9,-9 -8,-9 -7,-10 -7,-10 -6,-10 -5,-11 -5,-11 -4,-11 -3,-11 -3,-11 -3,-11 -2,-12 -2,-12 -1,-12 -1,-12 -1,-12 -1,-12 v -12 -12 -12 l 85,-1 v 11 11 10 l 1,10 1,10 1,10 1,9 1,9 2,9 2,8 2,8 2,8 3,7 3,7 3,6 3,6 3,5 4,5 4,4 4,4 4,4 5,3 5,3 6,3 6,2 7,2 8,2 9,1 10,1 h 11 11 l 12,-1 -6,1 20,82 z m 0,0 -3,1 h -3 z m 126,-138 v 0 -3 0 l 1,3 4,7 9,7 11,4 h 8 l 4,-1 h 1 l -1,1 -3,2 -4,3 -5,4 -5,5 -6,5 -6,6 -7,6 -7,6 -7,7 -7,7 -8,7 -8,7 -8,7 -8,7 -8,7 -9,6 -9,6 -9,6 -9,5 -10,5 -10,4 -11,3 -20,-82 3,-1 4,-1 4,-2 5,-3 6,-4 6,-4 6,-5 7,-5 7,-6 7,-6 7,-6 7,-7 7,-7 7,-7 7,-7 7,-6 7,-6 7,-6 7,-6 7,-6 7,-5 7,-5 8,-5 10,-4 12,-3 h 15 l 17,6 14,11 9,13 4,12 2,11 1,11 v 0 l -85,1 z m -310,-263 -3,16 -15,42 -11,39 -7,36 -4,33 v 30 l 3,28 5,25 8,23 10,21 11,19 13,17 15,15 16,13 17,11 18,9 19,7 20,6 20,4 20,2 h 20 l 19,-2 18,-4 17,-5 16,-7 14,-9 13,-10 11,-11 9,-13 8,-14 6,-16 4,-18 1,-21 85,-1 -2,32 -6,30 -10,28 -13,25 -17,23 -19,20 -22,17 -23,14 -25,11 -26,8 -27,6 -27,3 h -28 l -28,-2 -28,-5 -27,-8 -27,-10 -26,-13 -25,-16 -23,-19 -21,-21 -19,-24 -17,-27 -14,-30 -11,-32 -7,-35 -4,-37 v -39 l 4,-41 9,-43 13,-45 17,-47 -3,16 85,-1 z m 0,0 v 9 l -3,8 3,-16 z m -405,-154 v 0 l 10,-1 h 11 l 11,1 12,1 12,1 13,2 14,2 14,3 15,3 15,3 15,3 16,4 16,4 16,4 16,4 16,5 16,5 15,5 15,5 15,5 14,5 13,5 13,5 12,5 11,6 11,6 10,6 9,7 9,8 9,10 8,14 4,20 -85,1 2,12 3,5 1,1 -2,-1 -4,-3 -6,-3 -7,-4 -9,-4 -10,-4 -11,-5 -12,-5 -13,-5 -13,-5 -14,-5 -14,-4 -15,-4 -15,-4 -15,-4 -15,-4 -15,-4 -15,-3 -14,-3 -14,-3 -13,-3 -13,-2 -12,-2 -11,-2 -10,-1 -9,-1 h -8 -6 -4 v 0 l -8,-84 z m 8,84 v 0 0 h 1 z m -51,324 44,-32 -12,39 -15,34 -19,29 -22,23 -25,18 -27,12 -28,5 -28,-1 -27,-6 -26,-10 -24,-14 -22,-17 -21,-20 -19,-22 -17,-24 -14,-26 -12,-28 -9,-29 -6,-30 -2,-31 2,-32 7,-32 12,-31 17,-30 23,-29 28,-26 33,-24 39,-21 44,-18 50,-15 56,-11 62,-8 8,84 -56,7 -49,10 -43,12 -36,15 -30,16 -24,17 -19,18 -15,19 -11,19 -7,19 -4,20 -1,20 1,21 4,21 6,20 8,20 10,19 12,17 13,15 14,13 14,11 14,8 14,6 13,3 h 11 l 10,-2 10,-4 10,-7 11,-12 11,-17 11,-23 9,-30 44,-32 -6,84 z m -38,-53 9,-34 35,3 -44,32 z m 59,31 -2,14 v 1 1 1 1 l 1,2 1,1 1,1 1,1 1,1 1,1 v 0 0 0 0 0 0 h -1 -1 -1 -1 -1 -1 -1 -2 -2 -2 -2 -2 -2 -2 -2 -2 l 6,-84 h 3 3 3 3 3 l 3,1 3,1 3,1 3,1 4,1 3,1 3,1 4,1 3,1 4,1 4,2 4,2 4,2 4,2 4,3 4,3 4,3 3,4 3,4 3,4 3,5 3,5 2,5 2,5 1,6 1,6 v 6 l -2,14 -80,-27 z m 83,13 v 7 l -2,7 z m -394,-266 -3,28 -9,23 -7,24 -5,24 -2,25 v 25 l 2,25 4,25 5,24 7,24 9,23 10,22 12,21 13,20 14,18 14,16 15,14 15,12 15,10 15,8 15,5 15,3 14,1 14,-1 14,-4 14,-6 14,-9 15,-13 15,-17 15,-22 15,-26 14,-31 14,-37 80,27 -16,42 -17,38 -19,33 -20,29 -22,25 -24,21 -25,16 -26,12 -27,7 -27,3 -27,-2 -26,-6 -25,-9 -24,-12 -23,-15 -22,-17 -20,-19 -19,-21 -18,-23 -16,-25 -14,-26 -13,-28 -11,-29 -9,-30 -7,-30 -5,-31 -2,-32 v -32 l 3,-32 6,-32 9,-32 13,-31 -3,28 82,-20 z m 0,0 3,14 -6,13 3,-28 z m -548,416 -27,-9 -40,-35 -33,-35 -26,-36 -19,-36 -12,-37 -5,-37 1,-36 8,-34 13,-32 18,-30 22,-28 25,-25 28,-23 30,-21 32,-19 34,-17 35,-15 36,-13 37,-11 37,-9 37,-7 37,-4 36,-2 36,1 34,4 33,7 31,10 29,14 26,19 22,23 17,28 11,32 -82,20 -5,-15 -8,-12 -11,-11 -14,-10 -18,-9 -21,-7 -24,-5 -27,-3 -29,-1 -31,1 -32,4 -32,6 -33,8 -32,10 -32,11 -31,13 -29,15 -27,16 -25,17 -22,18 -19,19 -15,20 -12,20 -8,20 -4,20 -1,21 3,22 8,23 13,25 19,27 26,28 34,30 -27,-9 1,85 z m 0,0 h -15 l -12,-10 27,9 z m 134,-136 -3,17 v -6 -3 1 l 2,3 5,5 6,3 5,1 h 3 v 0 l -2,1 -4,2 -5,3 -6,3 -6,4 -7,5 -7,5 -7,6 -7,6 -7,6 -7,7 -7,7 -7,7 -7,6 -6,6 -6,6 -6,5 -5,5 -5,5 -4,4 -5,4 -7,5 -23,7 -1,-85 -21,6 -2,2 1,-1 3,-3 4,-4 5,-5 5,-5 6,-6 7,-6 7,-7 7,-7 8,-7 8,-7 8,-7 8,-7 9,-7 9,-7 9,-7 9,-6 9,-6 10,-5 10,-5 11,-4 12,-2 h 14 l 16,3 15,8 12,12 8,14 5,14 2,14 1,14 -3,17 -78,-32 z m 81,16 v 9 l -3,8 z m -250,-336 2,-1 -32,23 -27,24 -23,24 -19,25 -15,25 -11,26 -8,26 -5,26 -2,26 v 25 l 3,25 5,24 8,23 9,22 11,21 13,19 14,17 15,15 16,13 16,10 16,8 16,5 16,3 h 16 l 16,-3 16,-6 16,-9 17,-13 17,-18 17,-23 17,-28 16,-34 78,32 -19,41 -21,36 -23,31 -25,26 -27,21 -28,16 -29,10 -30,5 h -30 l -29,-5 -28,-9 -26,-12 -25,-16 -23,-19 -21,-21 -19,-24 -17,-26 -15,-28 -13,-29 -10,-31 -7,-32 -4,-33 -1,-34 3,-35 7,-35 11,-35 15,-34 20,-33 24,-32 29,-31 33,-29 38,-27 2,-1 43,73 z m -44,-72 1,-1 h 1 z m 681,63 -30,2 -24,-7 -23,-7 -22,-7 -21,-7 -21,-6 -20,-6 -20,-6 -19,-5 -19,-5 -18,-5 -18,-4 -17,-4 -17,-3 -17,-3 -17,-2 -16,-1 -16,-1 h -16 l -16,1 -17,1 -17,2 -17,3 -17,4 -18,4 -18,5 -19,6 -19,7 -20,8 -21,10 -21,11 -22,12 -23,13 -43,-73 25,-14 24,-13 24,-12 23,-11 23,-10 22,-8 22,-7 22,-6 21,-5 21,-4 21,-3 20,-2 20,-1 20,-1 h 20 l 20,1 20,2 19,2 19,3 19,4 19,4 19,5 20,5 20,5 20,6 20,6 21,6 21,7 21,7 22,7 23,7 23,7 -30,2 35,77 z m 0,0 -15,7 -15,-5 z m 729,31 -45,10 -23,-9 -22,-9 -21,-9 -20,-9 -19,-9 -19,-9 -18,-9 -18,-8 -17,-8 -17,-8 -16,-7 -16,-7 -16,-6 -16,-5 -16,-5 -16,-4 -17,-3 -17,-2 -18,-2 -18,-1 h -19 l -20,1 -22,2 -23,3 -24,5 -26,6 -27,7 -29,9 -30,11 -32,12 -34,14 -36,16 -35,-77 38,-16 36,-15 34,-13 33,-11 31,-10 30,-8 29,-7 27,-5 26,-4 25,-3 24,-1 h 24 l 23,1 22,2 21,3 21,4 20,5 19,6 19,6 19,7 18,7 18,8 18,8 18,8 18,8 18,9 18,9 19,9 19,9 20,8 21,8 21,8 -45,10 61,59 z m 0,0 -19,20 -26,-9 45,-10 z m 602,-65 12,50 -18,-14 -19,-12 -19,-11 -20,-10 -21,-9 -21,-8 -22,-6 -22,-5 -23,-4 -23,-3 -23,-2 -23,-1 h -24 l -23,1 -23,1 -23,2 -23,3 -22,4 -22,4 -21,5 -21,5 -20,6 -19,6 -18,7 -17,7 -16,7 -15,7 -13,7 -12,7 -10,7 -9,7 -7,6 -61,-59 12,-11 13,-11 14,-10 16,-10 17,-9 18,-9 19,-9 20,-8 21,-8 22,-7 23,-7 23,-6 24,-5 25,-5 25,-4 26,-3 26,-2 26,-2 27,-1 h 27 l 27,1 27,3 27,4 27,5 27,6 26,8 26,9 25,11 25,12 24,14 23,16 23,17 12,50 -77,-35 z m 66,-15 25,21 -13,29 z m -33,65 -62,23 1,-2 1,-2 1,-2 1,-2 1,-2 1,-2 1,-2 1,-2 1,-2 1,-2 1,-2 1,-2 1,-2 1,-2 1,-2 1,-2 1,-2 1,-2 1,-2 1,-2 1,-2 1,-2 1,-2 1,-2 1,-2 1,-2 1,-2 1,-2 1,-2 1,-2 1,-2 1,-2 77,35 -1,2 -1,2 -1,2 -1,2 -1,2 -1,2 -1,2 -1,2 -1,2 -1,2 -1,2 -1,2 -1,2 -1,2 -1,2 -1,2 -1,2 -1,2 -1,2 -1,2 -1,2 -1,2 -1,2 -1,2 -1,2 -1,2 -1,2 -1,2 -1,2 -1,2 -1,2 -1,2 -62,23 43,-73 z m 19,50 -17,49 -45,-26 z" />
   </g>
   <g
   id="g5621">
    <path
   class="fil6"
   d="m 9832,11468 c -136,-124 -715,-194 -712,124 1,120 22,235 180,219 71,-17 178,-182 178,-97 3,292 -594,224 -395,-262 0,-41 -289,-119 -359,-112 -670,61 -146,723 -43,324 27,2 58,10 58,34 -148,446 -526,28 -393,-257 -63,-266 -937,16 -507,364 9,0 172,-194 173,-78 -178,429 -629,-115 -229,-373 260,-152 388,-89 641,-11 404,-181 474,-49 716,40 91,-94 491,-182 737,12 -3,27 -39,50 -47,73 z"
   id="path5617" />
    <path
   id="path5619"
   class="fil7"
   d="m 9078,11592 v 0 l 2,-34 6,-32 9,-30 13,-27 16,-25 19,-22 22,-20 24,-17 25,-15 27,-13 28,-10 29,-9 30,-7 31,-5 31,-4 32,-2 32,-1 32,1 32,2 32,3 32,4 31,5 30,6 30,7 28,8 27,9 26,10 24,10 23,11 21,12 19,13 17,14 -57,63 -11,-9 -14,-9 -16,-9 -18,-9 -21,-9 -22,-8 -24,-8 -25,-7 -27,-6 -27,-6 -28,-5 -29,-4 -29,-3 -29,-2 -29,-1 -29,1 -28,2 -27,3 -26,4 -25,6 -24,7 -22,8 -20,9 -18,11 -16,12 -14,13 -12,14 -10,15 -8,17 -6,19 -4,21 -1,24 v 0 l -85,1 z m 233,260 -6,1 -16,1 h -16 -15 l -15,-1 -14,-2 -14,-3 -13,-4 -13,-5 -12,-6 -11,-6 -10,-7 -10,-8 -9,-9 -8,-9 -7,-10 -7,-10 -6,-10 -5,-11 -5,-11 -4,-11 -3,-11 -3,-11 -3,-11 -2,-12 -2,-12 -1,-12 -1,-12 -1,-12 -1,-12 v -12 -12 -12 l 85,-1 v 11 11 10 l 1,10 1,10 1,10 1,9 1,9 2,9 2,8 2,8 2,8 3,7 3,7 3,6 3,6 3,5 4,5 4,4 4,4 4,4 5,3 5,3 6,3 6,2 7,2 8,2 9,1 10,1 h 11 11 l 12,-1 -6,1 20,82 z m 0,0 -3,1 h -3 z m 126,-138 v 0 -3 0 l 1,3 4,7 9,7 11,4 h 8 l 4,-1 h 1 l -1,1 -3,2 -4,3 -5,4 -5,5 -6,5 -6,6 -7,6 -7,6 -7,7 -7,7 -8,7 -8,7 -8,7 -8,7 -8,7 -9,6 -9,6 -9,6 -9,5 -10,5 -10,4 -11,3 -20,-82 3,-1 4,-1 5,-2 5,-3 6,-4 6,-4 6,-5 7,-5 7,-6 7,-6 7,-6 7,-7 7,-7 7,-7 7,-7 7,-6 7,-6 7,-6 7,-6 7,-6 7,-5 7,-5 8,-5 10,-4 12,-3 h 15 l 17,6 14,11 9,13 4,12 2,11 1,11 v 0 l -85,1 z m -310,-263 -3,16 -15,42 -11,39 -7,36 -4,33 v 30 l 3,28 5,25 8,23 10,21 11,19 13,17 15,15 16,13 17,11 18,9 19,7 20,5 20,4 20,2 h 20 l 19,-2 18,-4 17,-5 16,-7 14,-9 13,-10 11,-11 9,-13 8,-14 6,-16 4,-18 1,-21 85,-1 -2,32 -6,30 -10,28 -13,25 -17,23 -19,20 -22,17 -23,14 -25,11 -26,8 -27,6 -27,3 h -28 l -28,-2 -28,-5 -27,-8 -27,-10 -26,-13 -25,-16 -23,-19 -21,-21 -19,-24 -17,-27 -14,-30 -11,-32 -7,-35 -4,-37 v -39 l 4,-41 9,-43 13,-45 17,-47 -3,16 85,-1 z m 0,0 v 9 l -3,8 3,-16 z m -405,-154 v 0 l 10,-1 h 11 l 11,1 12,1 12,1 13,2 14,2 14,3 15,3 15,3 15,3 16,4 16,4 16,4 16,4 16,5 16,5 15,5 15,5 15,5 14,5 13,5 13,5 12,5 11,5 11,6 10,6 9,7 9,8 9,10 8,14 4,20 -85,1 2,12 3,5 1,1 -2,-1 -4,-3 -6,-3 -7,-4 -9,-4 -10,-4 -11,-5 -12,-5 -13,-5 -13,-5 -14,-5 -14,-4 -15,-4 -15,-4 -15,-4 -15,-4 -15,-4 -15,-3 -14,-3 -14,-3 -13,-3 -13,-2 -12,-2 -11,-2 -10,-1 -9,-1 h -8 -6 -4 v 0 l -8,-84 z m 8,84 v 0 0 h 1 z m -51,324 44,-32 -12,39 -15,34 -19,29 -22,23 -25,18 -27,12 -28,5 -28,-1 -27,-6 -26,-10 -24,-14 -22,-17 -21,-20 -19,-22 -17,-24 -14,-26 -12,-28 -9,-29 -6,-30 -2,-31 2,-32 7,-32 12,-31 17,-30 23,-29 28,-26 33,-24 39,-21 44,-18 50,-15 56,-11 62,-8 8,84 -56,7 -49,10 -43,12 -36,15 -30,16 -24,17 -19,18 -15,19 -11,19 -7,19 -4,20 -1,20 1,21 4,21 6,20 8,20 10,19 12,17 13,15 14,13 14,11 14,8 14,6 13,3 h 11 l 10,-2 10,-4 10,-7 11,-12 11,-17 11,-23 9,-30 44,-32 -6,84 z m -38,-53 9,-34 35,3 -44,32 z m 59,31 -2,14 v 1 1 1 1 l 1,2 1,1 1,1 1,1 1,1 1,1 v 0 0 0 0 0 0 h -1 -1 -1 -1 -1 -1 -1 -2 -2 -2 -2 -2 -2 -2 -2 -2 l 6,-84 h 3 3 3 3 3 l 3,1 3,1 3,1 3,1 4,1 3,1 3,1 4,1 3,1 4,1 4,2 4,2 4,2 4,2 4,3 4,3 4,3 3,4 3,4 3,4 3,5 3,5 2,5 2,5 1,6 1,6 v 6 l -2,14 -80,-27 z m 83,13 v 7 l -2,7 z m -394,-266 -3,28 -9,23 -7,24 -5,24 -2,25 v 25 l 2,25 4,25 5,24 7,24 9,23 10,22 12,21 13,20 14,18 14,16 15,14 15,12 15,10 15,8 15,5 15,3 14,1 14,-1 14,-4 14,-6 14,-9 15,-13 15,-17 15,-22 15,-26 14,-31 14,-37 80,27 -16,42 -17,38 -19,33 -20,29 -22,25 -24,21 -25,16 -26,12 -27,7 -27,3 -27,-2 -26,-6 -25,-9 -24,-12 -23,-15 -22,-17 -20,-19 -19,-21 -18,-23 -16,-25 -14,-26 -13,-28 -11,-29 -9,-30 -7,-30 -5,-31 -2,-32 v -32 l 3,-32 6,-32 9,-32 13,-31 -3,28 82,-20 z m 0,0 3,14 -6,13 3,-28 z m -548,416 -27,-9 -40,-35 -33,-35 -26,-36 -19,-36 -12,-37 -5,-37 1,-36 8,-34 13,-32 18,-30 22,-28 25,-25 28,-23 30,-21 32,-19 34,-17 35,-15 36,-13 37,-11 37,-9 37,-7 37,-4 36,-2 36,1 34,4 33,7 31,10 29,14 26,19 22,23 17,28 11,32 -82,20 -5,-15 -8,-12 -11,-11 -14,-10 -18,-9 -21,-7 -24,-5 -27,-3 -29,-1 -31,1 -32,4 -32,6 -33,8 -32,10 -32,11 -31,13 -29,15 -27,16 -25,17 -22,18 -19,19 -15,20 -12,20 -8,20 -4,20 -1,21 3,22 8,23 13,25 19,27 26,28 34,30 -27,-9 1,85 z m 0,0 h -15 l -12,-10 27,9 z m 134,-136 -3,17 v -6 -3 1 l 2,3 5,5 6,3 5,1 h 3 v 0 l -2,1 -4,2 -5,3 -6,3 -6,4 -7,5 -7,5 -7,6 -7,6 -7,6 -7,7 -7,7 -7,7 -7,6 -6,6 -6,6 -6,5 -5,5 -5,5 -4,4 -5,4 -7,5 -23,7 -1,-85 -21,6 -2,2 1,-1 3,-3 4,-4 5,-5 5,-5 6,-6 7,-6 7,-7 7,-7 8,-7 8,-7 8,-7 8,-7 9,-7 9,-7 9,-7 9,-6 9,-6 10,-5 10,-5 11,-4 12,-2 h 14 l 16,3 15,8 12,12 8,14 5,14 2,14 1,14 -3,17 -78,-32 z m 81,16 v 9 l -3,8 z m -250,-336 2,-1 -32,23 -27,24 -23,24 -19,25 -15,25 -11,26 -8,26 -5,26 -2,26 v 25 l 3,25 5,24 8,23 9,22 11,21 13,19 14,17 15,15 16,13 16,10 16,8 16,5 16,3 h 16 l 16,-3 16,-6 16,-9 17,-13 17,-18 17,-23 17,-28 16,-34 78,32 -19,41 -21,36 -23,31 -25,26 -27,21 -28,16 -29,10 -30,5 h -30 l -29,-5 -28,-9 -26,-12 -25,-16 -23,-19 -21,-21 -19,-24 -17,-26 -15,-28 -13,-29 -10,-31 -7,-32 -4,-33 -1,-34 3,-35 7,-35 11,-35 15,-34 20,-33 24,-32 29,-31 33,-29 38,-27 2,-1 43,73 z m -44,-72 1,-1 h 1 z m 681,63 -30,2 -24,-7 -23,-7 -22,-7 -21,-7 -21,-6 -20,-6 -20,-6 -19,-5 -19,-5 -18,-5 -18,-4 -17,-4 -17,-3 -17,-3 -17,-2 -16,-1 -16,-1 h -16 l -16,1 -17,1 -17,2 -17,3 -17,4 -18,4 -18,5 -19,6 -19,7 -20,8 -21,10 -21,11 -22,12 -23,13 -43,-73 25,-14 24,-13 24,-12 23,-11 23,-10 22,-8 22,-7 22,-6 21,-5 21,-4 21,-3 20,-2 20,-1 20,-1 h 20 l 20,1 20,2 19,2 19,3 19,4 19,4 19,5 20,5 20,5 20,6 20,6 21,6 21,7 21,7 22,7 23,7 23,7 -30,2 35,77 z m 0,0 -15,7 -15,-5 z m 729,31 -45,10 -23,-9 -22,-9 -21,-9 -20,-9 -20,-9 -19,-9 -18,-9 -18,-8 -17,-8 -17,-8 -16,-7 -16,-7 -16,-6 -16,-5 -16,-5 -16,-4 -17,-3 -17,-2 -18,-2 -18,-1 h -19 l -20,1 -22,2 -23,3 -24,5 -26,6 -27,7 -29,9 -30,11 -32,12 -34,14 -36,16 -35,-77 38,-16 36,-15 34,-13 33,-11 31,-10 30,-8 29,-7 27,-5 26,-4 25,-3 24,-1 h 24 l 23,1 22,2 21,3 21,4 20,5 19,6 19,6 19,7 18,7 18,8 18,8 18,8 18,8 18,9 18,9 19,9 19,9 20,8 21,8 21,8 -45,10 61,59 z m 0,0 -19,20 -26,-9 45,-10 z m 665,-23 16,39 -21,-16 -22,-14 -23,-13 -24,-12 -24,-10 -25,-9 -25,-8 -26,-7 -26,-6 -26,-4 -26,-3 -26,-2 -26,-1 h -26 -26 l -25,1 -25,2 -25,3 -24,4 -23,4 -22,5 -22,5 -21,6 -19,6 -18,7 -17,7 -16,7 -14,7 -12,7 -10,7 -9,7 -6,6 -61,-59 12,-12 14,-11 15,-10 16,-10 18,-9 19,-9 20,-8 21,-8 22,-7 23,-7 24,-6 25,-5 26,-5 27,-4 27,-3 28,-2 28,-1 h 29 l 29,1 29,2 29,3 30,4 30,5 29,6 29,8 29,9 29,11 28,12 28,14 27,15 26,17 26,19 16,39 -84,-11 z m 68,-28 19,15 -3,24 z m -44,75 -69,18 2,-5 2,-4 2,-4 2,-4 2,-4 2,-3 2,-3 2,-3 2,-3 2,-3 2,-3 2,-2 2,-2 2,-2 2,-2 2,-2 2,-2 2,-2 2,-2 1,-2 1,-2 1,-2 1,-1 1,-1 1,-1 v -1 -1 -1 0 0 0 1 l 84,11 -1,6 -1,5 -1,5 -2,5 -2,4 -2,4 -2,4 -2,4 -2,4 -2,3 -2,3 -2,3 -2,3 -2,3 -2,3 -2,3 -2,2 -2,2 -2,2 -2,2 -2,2 -2,2 -1,2 -1,2 -1,1 -1,1 -1,1 -1,1 v 1 0 0 0 l -69,18 57,-63 z m 12,45 -21,62 -48,-44 z" />
   </g>
   <g
   id="g5627">
    <path
   class="fil6"
   d="m 11933,11438 c -167,-98 -668,-159 -666,159 1,120 22,235 180,219 71,-17 178,-182 178,-97 3,292 -594,224 -395,-262 0,-41 -289,-119 -359,-112 -670,61 -146,723 -43,324 27,2 58,10 58,34 -148,446 -526,28 -393,-257 -63,-265 -937,16 -507,364 9,0 172,-194 173,-78 -178,429 -629,-115 -229,-373 260,-152 388,-89 641,-11 404,-181 474,-49 716,40 91,-94 460,-193 671,-19 -10,23 -19,46 -27,69 z"
   id="path5623" />
    <path
   id="path5625"
   class="fil7"
   d="m 11225,11598 v 0 l 1,-33 5,-31 8,-29 11,-27 14,-25 17,-23 19,-20 21,-18 23,-16 24,-13 25,-11 26,-9 27,-8 28,-6 29,-5 29,-3 29,-2 30,-1 30,1 30,2 29,3 29,4 29,4 28,5 27,6 26,7 25,7 24,8 23,9 22,9 20,10 19,10 -43,73 -14,-8 -16,-8 -18,-8 -20,-7 -21,-7 -23,-7 -24,-6 -25,-5 -25,-5 -26,-4 -26,-3 -27,-2 -27,-1 -27,-1 -26,1 -26,2 -25,3 -24,4 -23,5 -22,6 -21,7 -19,9 -18,10 -16,11 -14,12 -12,13 -11,14 -9,16 -7,18 -5,20 -3,22 -1,24 v 0 l -85,1 z m 233,260 -6,1 -16,1 h -16 -15 l -15,-1 -14,-2 -14,-3 -13,-4 -13,-5 -12,-6 -11,-6 -10,-7 -10,-8 -9,-9 -8,-9 -7,-10 -7,-10 -6,-10 -5,-11 -5,-11 -4,-11 -3,-11 -3,-11 -3,-11 -2,-12 -2,-12 -1,-12 -1,-12 -1,-12 -1,-12 v -12 -12 -12 l 85,-1 v 11 11 10 l 1,10 1,10 1,10 1,9 1,9 2,9 2,8 2,8 2,8 3,7 3,7 3,6 3,6 3,5 4,5 4,4 4,4 4,4 5,3 5,3 6,3 6,2 7,2 8,2 9,1 10,1 h 11 11 l 12,-1 -6,1 20,82 z m 0,0 -3,1 h -3 z m 126,-138 v 0 -3 0 l 1,3 4,7 9,7 11,4 h 8 l 4,-1 h 1 l -1,1 -3,2 -4,3 -5,4 -5,4 -6,5 -6,6 -7,6 -7,6 -7,7 -7,7 -8,7 -8,7 -8,7 -8,7 -8,7 -9,6 -9,6 -9,6 -9,5 -10,5 -10,4 -11,3 -20,-82 3,-1 4,-1 4,-2 5,-3 6,-4 6,-4 6,-5 7,-5 7,-6 7,-6 7,-6 7,-7 7,-7 7,-7 7,-7 7,-6 7,-6 7,-6 7,-6 7,-6 7,-5 7,-5 8,-5 10,-4 12,-3 h 15 l 17,6 14,12 9,13 4,12 2,11 1,11 v 0 l -85,1 z m -310,-263 -3,16 -15,42 -11,39 -7,36 -4,33 v 30 l 3,28 5,25 8,23 10,21 11,19 13,17 15,15 16,13 17,11 18,9 19,7 20,6 20,4 20,2 h 20 l 19,-2 18,-4 17,-5 16,-7 14,-9 13,-10 11,-11 9,-13 8,-14 6,-16 4,-18 1,-21 85,-1 -2,32 -6,30 -10,28 -13,25 -17,23 -19,20 -22,17 -23,14 -25,11 -26,8 -27,6 -27,3 h -28 l -28,-2 -28,-5 -27,-8 -27,-10 -26,-13 -25,-16 -23,-19 -21,-21 -19,-24 -17,-27 -14,-30 -11,-32 -7,-35 -4,-37 v -39 l 4,-41 9,-43 13,-45 17,-47 -3,16 85,-1 z m 0,0 v 9 l -3,8 3,-16 z m -405,-154 v 0 l 10,-1 h 11 l 11,1 12,1 12,1 13,2 14,2 14,3 15,3 15,3 15,3 16,4 16,4 16,4 16,4 16,5 16,5 15,5 15,5 15,5 14,5 13,5 13,5 12,5 11,6 11,6 10,6 9,6 9,8 9,10 8,14 4,20 -85,1 2,12 3,5 1,1 -2,-1 -4,-3 -6,-3 -7,-4 -9,-4 -10,-4 -11,-5 -12,-5 -13,-5 -13,-5 -14,-5 -14,-4 -15,-4 -15,-4 -15,-4 -15,-4 -15,-4 -15,-3 -14,-3 -14,-3 -13,-3 -13,-2 -12,-2 -11,-2 -10,-1 -9,-1 h -8 -6 -4 v 0 l -8,-84 z m 8,84 v 0 0 h 1 z m -51,324 44,-32 -12,39 -15,34 -19,29 -22,23 -25,18 -27,12 -28,5 -28,-1 -27,-6 -26,-10 -24,-14 -22,-17 -21,-20 -19,-22 -17,-24 -14,-26 -12,-28 -9,-29 -6,-30 -2,-31 2,-32 7,-32 12,-31 17,-30 23,-29 28,-26 33,-24 39,-21 44,-18 50,-15 56,-11 62,-8 8,84 -56,7 -49,10 -43,12 -36,15 -30,16 -24,17 -19,18 -15,19 -11,19 -7,19 -4,20 -1,20 1,21 4,21 6,20 8,20 10,19 12,17 13,15 14,13 14,11 14,8 14,6 13,3 h 11 l 10,-2 10,-4 10,-7 11,-12 11,-17 11,-23 9,-30 44,-32 -6,84 z m -38,-53 9,-34 35,3 -44,32 z m 59,31 -2,14 v 1 1 1 1 l 1,2 1,1 1,1 1,1 1,1 1,1 v 0 0 0 0 0 0 h -1 -1 -1 -1 -1 -1 -1 -2 -2 -2 -2 -2 -2 -2 -2 -2 l 6,-84 h 3 3 3 3 3 l 3,1 3,1 3,1 3,1 4,1 3,1 3,1 4,1 3,1 4,1 4,2 4,2 4,2 4,2 4,3 4,3 4,3 3,4 3,4 3,4 3,5 3,5 2,5 2,5 1,6 1,6 v 6 l -2,14 -80,-27 z m 83,13 v 7 l -2,7 z m -394,-266 -3,28 -9,23 -7,24 -5,24 -2,25 v 25 l 2,25 4,25 5,24 7,24 9,23 10,22 12,21 13,20 14,18 14,16 15,14 15,12 15,10 15,8 15,5 15,3 14,1 14,-1 14,-4 14,-6 14,-9 15,-13 15,-17 15,-22 15,-26 14,-31 14,-37 80,27 -16,42 -17,38 -19,33 -20,29 -22,25 -24,21 -25,16 -26,12 -27,7 -27,3 -27,-2 -26,-6 -25,-9 -24,-12 -23,-15 -22,-17 -20,-19 -19,-21 -18,-23 -16,-25 -14,-26 -13,-28 -11,-29 -9,-30 -7,-30 -5,-31 -2,-32 v -32 l 3,-32 6,-32 9,-32 13,-31 -3,28 82,-20 z m 0,0 3,14 -6,13 3,-28 z m -548,416 -27,-9 -40,-35 -33,-35 -26,-36 -19,-36 -12,-37 -5,-37 1,-36 8,-34 13,-32 18,-30 22,-28 25,-25 28,-23 30,-21 32,-19 34,-17 35,-15 36,-13 37,-11 37,-9 37,-7 37,-4 36,-2 36,1 34,4 33,7 31,10 29,14 26,19 22,23 17,28 11,32 -82,20 -5,-15 -8,-12 -11,-11 -14,-10 -18,-9 -21,-7 -24,-5 -27,-3 -29,-1 -31,1 -32,4 -32,6 -33,8 -32,10 -32,11 -31,13 -29,15 -27,16 -25,17 -22,18 -19,19 -15,20 -12,20 -8,20 -5,20 -1,21 3,22 8,23 13,25 19,27 26,28 34,30 -27,-9 1,85 z m 0,0 h -15 l -12,-10 27,9 z m 134,-136 -3,17 v -6 -3 1 l 2,3 5,5 6,3 5,1 h 3 v 0 l -2,1 -4,2 -5,3 -6,3 -6,4 -7,5 -7,5 -7,6 -7,6 -7,6 -7,7 -7,7 -7,7 -7,6 -6,6 -6,6 -6,5 -5,5 -5,5 -4,4 -5,4 -7,5 -23,7 -1,-85 -21,6 -2,2 1,-1 3,-3 4,-4 5,-5 5,-5 6,-6 7,-6 7,-7 7,-7 8,-7 8,-7 8,-7 8,-7 9,-7 9,-7 9,-7 9,-6 9,-6 10,-5 10,-5 11,-4 12,-2 h 14 l 16,3 15,8 12,12 8,14 5,14 2,14 1,14 -3,17 -78,-32 z m 81,16 v 9 l -3,8 z m -250,-336 2,-1 -32,23 -27,24 -23,24 -19,25 -15,25 -11,26 -8,26 -5,26 -2,26 v 25 l 3,25 5,24 8,23 10,22 11,21 13,19 14,17 15,15 16,13 16,10 16,8 16,5 16,3 h 16 l 16,-3 16,-6 16,-9 17,-13 17,-18 17,-23 17,-28 16,-34 78,32 -19,41 -21,36 -23,31 -25,26 -27,21 -28,16 -29,10 -30,5 h -30 l -29,-5 -28,-9 -26,-12 -25,-16 -23,-19 -21,-21 -19,-24 -17,-26 -15,-28 -13,-29 -10,-31 -7,-32 -4,-33 -1,-34 3,-35 7,-35 11,-35 15,-34 20,-33 24,-32 29,-31 33,-29 38,-27 2,-1 z m -44,-72 1,-1 h 1 z m 681,63 -30,2 -24,-7 -23,-7 -22,-7 -21,-7 -21,-6 -20,-6 -20,-6 -19,-5 -19,-5 -18,-5 -18,-4 -17,-4 -17,-3 -17,-3 -17,-2 -16,-1 -16,-1 h -16 l -16,1 -17,1 -17,2 -17,3 -17,4 -18,4 -18,5 -19,6 -19,7 -20,8 -21,10 -21,11 -22,12 -23,13 -43,-73 25,-14 24,-13 24,-12 23,-11 23,-10 22,-8 22,-7 22,-6 21,-5 21,-4 21,-3 20,-2 20,-1 20,-1 h 20 l 20,1 20,2 19,2 19,3 19,4 19,4 19,5 20,5 20,5 20,6 20,6 21,6 21,7 21,7 22,7 23,7 23,7 -30,2 35,77 z m 0,0 -15,7 -15,-5 z m 729,31 -45,10 -23,-9 -22,-9 -21,-9 -20,-9 -20,-9 -19,-9 -18,-9 -18,-8 -17,-8 -17,-8 -16,-7 -16,-7 -16,-6 -16,-5 -16,-5 -16,-4 -17,-3 -17,-2 -18,-2 -19,-1 h -19 l -20,1 -22,2 -23,3 -24,5 -26,6 -27,7 -29,9 -30,11 -32,12 -34,14 -36,16 -35,-77 38,-16 36,-15 34,-13 33,-11 31,-10 30,-8 29,-7 28,-5 26,-4 25,-3 24,-1 h 24 l 23,1 22,2 21,3 21,4 20,5 19,6 19,6 19,7 18,7 18,8 18,8 18,8 18,8 18,9 18,9 19,9 19,9 20,8 21,8 21,8 -45,10 61,59 z m 0,0 -19,20 -26,-9 45,-10 z m 602,-65 12,50 -18,-14 -19,-12 -19,-11 -20,-10 -21,-9 -21,-8 -22,-6 -22,-5 -23,-4 -23,-3 -23,-2 -23,-1 h -24 l -23,1 -23,1 -23,2 -23,3 -22,4 -22,4 -21,5 -21,5 -20,6 -19,6 -18,7 -17,7 -16,7 -15,7 -13,7 -12,7 -10,7 -9,7 -7,6 -61,-59 12,-11 13,-11 14,-10 16,-10 17,-9 18,-9 19,-9 20,-8 21,-8 22,-7 23,-7 23,-6 24,-5 25,-5 25,-4 26,-3 26,-2 26,-2 27,-1 h 27 l 27,1 27,3 27,4 27,5 27,6 26,8 26,9 25,11 25,12 24,14 23,16 23,17 12,50 -77,-34 z m 66,-15 25,20 -13,29 -12,-50 z m -33,65 -62,23 1,-2 1,-2 1,-2 1,-2 1,-2 1,-2 1,-2 1,-2 1,-2 1,-2 1,-2 1,-2 1,-2 1,-2 1,-2 1,-2 1,-2 1,-2 1,-2 1,-2 1,-2 1,-2 1,-2 1,-2 1,-2 1,-2 1,-2 1,-2 1,-2 1,-2 1,-2 1,-2 77,34 -1,2 -1,2 -1,2 -1,2 -1,2 -1,2 -1,2 -1,2 -1,2 -1,2 -1,2 -1,2 -1,2 -1,2 -1,2 -1,2 -1,2 -1,2 -1,2 -1,2 -1,2 -1,2 -1,2 -1,2 -1,2 -1,2 -1,2 -1,2 -1,2 -1,2 -1,2 -1,2 -62,23 43,-73 z m 19,50 -17,49 -45,-26 z" />
   </g>
   <g
   id="g5633">
    <path
   class="fil6"
   d="m 14039,11468 c -136,-124 -715,-194 -712,124 1,120 22,235 180,219 71,-17 178,-182 178,-97 3,292 -594,224 -395,-262 0,-41 -289,-119 -359,-112 -670,61 -146,723 -43,324 27,2 58,10 58,34 -148,446 -526,28 -393,-257 -63,-266 -937,16 -507,364 9,0 172,-194 173,-78 -178,429 -629,-115 -229,-373 260,-152 388,-89 641,-11 404,-181 474,-49 716,40 91,-94 491,-182 737,12 -3,27 -39,50 -47,73 z"
   id="path5629" />
    <path
   id="path5631"
   class="fil7"
   d="m 13285,11592 v 0 l 2,-34 6,-32 9,-30 13,-27 16,-25 19,-22 22,-20 24,-17 25,-15 27,-13 28,-10 29,-9 30,-7 31,-5 31,-4 32,-2 32,-1 32,1 32,2 32,3 32,4 31,5 30,6 30,7 28,8 27,9 26,10 24,10 23,11 21,12 19,13 17,14 -57,63 -11,-9 -14,-9 -16,-9 -18,-9 -21,-9 -22,-8 -24,-8 -25,-7 -27,-6 -27,-6 -28,-5 -29,-4 -29,-3 -29,-2 -29,-1 -29,1 -28,2 -27,3 -26,4 -25,6 -24,7 -22,8 -20,9 -18,11 -16,12 -14,13 -12,14 -10,15 -8,17 -6,19 -4,21 -1,24 v 0 l -85,1 z m 233,260 -6,1 -16,1 h -16 -15 l -15,-1 -14,-2 -14,-3 -13,-4 -13,-5 -12,-6 -11,-6 -10,-7 -10,-8 -9,-9 -8,-9 -7,-10 -7,-10 -6,-10 -5,-11 -5,-11 -4,-11 -3,-11 -3,-11 -3,-11 -2,-12 -2,-12 -1,-12 -1,-12 -1,-12 -1,-12 v -12 -12 -12 l 85,-1 v 11 11 10 l 1,10 1,10 1,10 1,9 1,9 2,9 2,8 2,8 2,8 3,7 3,7 3,6 3,6 3,5 4,5 4,4 4,4 4,4 5,3 5,3 6,3 6,2 7,2 8,2 9,1 10,1 h 11 11 l 12,-1 -6,1 20,82 z m 0,0 -3,1 h -3 z m 126,-138 v 0 -3 0 l 1,3 4,7 9,7 11,4 h 8 l 4,-1 h 1 l -1,1 -3,2 -4,3 -5,4 -5,5 -6,5 -6,6 -7,6 -7,6 -7,7 -7,7 -8,7 -8,7 -8,7 -8,7 -8,7 -9,6 -9,6 -9,6 -9,5 -10,5 -10,4 -11,3 -20,-82 3,-1 4,-1 5,-2 5,-3 6,-4 6,-4 6,-5 7,-5 7,-6 7,-6 7,-6 7,-7 7,-7 7,-7 7,-7 7,-6 7,-6 7,-6 7,-6 7,-6 7,-5 7,-5 8,-5 10,-4 12,-3 h 15 l 17,6 14,11 9,13 4,12 2,11 1,11 v 0 l -85,1 z m -310,-263 -3,16 -15,42 -11,39 -7,36 -4,33 v 30 l 3,28 5,25 8,23 10,21 11,19 13,17 15,15 16,13 17,11 18,9 19,7 20,5 20,4 20,2 h 20 l 19,-2 18,-4 17,-5 16,-7 14,-9 13,-10 11,-11 9,-13 8,-14 6,-16 4,-18 1,-21 85,-1 -2,32 -6,30 -10,28 -13,25 -17,23 -19,20 -22,17 -23,14 -25,11 -26,8 -27,6 -27,3 h -28 l -28,-2 -28,-5 -27,-8 -27,-10 -26,-13 -25,-16 -23,-19 -21,-21 -19,-24 -17,-27 -14,-30 -11,-32 -7,-35 -4,-37 v -39 l 4,-41 9,-43 13,-45 17,-47 -3,16 85,-1 z m 0,0 v 9 l -3,8 3,-16 z m -405,-154 v 0 l 10,-1 h 11 l 11,1 12,1 12,1 13,2 14,2 14,3 15,3 15,3 15,3 16,4 16,4 16,4 16,4 16,5 16,5 15,5 15,5 15,5 14,5 13,5 13,5 12,5 11,6 11,6 10,6 9,7 9,8 9,10 8,14 4,20 -85,1 2,12 3,5 1,1 -2,-1 -4,-3 -6,-3 -7,-4 -9,-4 -10,-4 -11,-5 -12,-5 -13,-5 -13,-5 -14,-5 -14,-4 -15,-4 -15,-4 -15,-4 -15,-4 -15,-4 -15,-3 -14,-3 -14,-3 -13,-3 -13,-2 -12,-2 -11,-2 -10,-1 -9,-1 h -8 -6 -4 v 0 l -8,-84 z m 8,84 v 0 0 h 1 z m -51,324 44,-32 -12,39 -15,34 -19,29 -22,23 -25,18 -27,12 -28,5 -28,-1 -27,-6 -26,-10 -24,-14 -22,-17 -21,-20 -19,-22 -17,-24 -14,-26 -12,-28 -9,-29 -6,-30 -2,-31 2,-32 7,-32 12,-31 17,-30 23,-29 28,-26 33,-24 39,-21 44,-18 50,-15 56,-11 62,-8 8,84 -56,7 -49,10 -43,12 -36,15 -30,16 -24,17 -19,18 -15,19 -11,19 -7,19 -4,20 -1,20 1,21 4,21 6,20 8,20 10,19 12,17 13,15 14,13 14,11 14,8 14,6 13,3 h 11 l 10,-2 10,-4 10,-7 11,-12 11,-17 11,-23 9,-30 44,-32 -6,84 z m -38,-53 9,-34 35,3 -44,32 z m 59,31 -2,14 v 1 1 1 1 l 1,2 1,1 1,1 1,1 1,1 1,1 v 0 0 0 0 0 0 h -1 -1 -1 -1 -1 -1 -1 -2 -2 -2 -2 -2 -2 -2 -2 -2 l 6,-84 h 3 3 3 3 3 l 3,1 3,1 3,1 3,1 3,1 3,1 3,1 4,1 3,1 4,1 4,2 4,2 4,2 4,2 4,3 4,3 4,3 3,4 3,4 3,4 3,5 3,5 2,5 2,5 1,6 1,6 v 6 l -2,14 -80,-27 z m 83,13 v 7 l -2,7 z m -394,-266 -3,28 -9,23 -7,24 -5,24 -2,25 v 25 l 2,25 4,25 5,24 7,24 9,23 10,22 12,21 13,20 14,18 14,16 15,14 15,12 15,10 15,8 15,5 15,3 14,1 14,-1 14,-4 14,-6 14,-9 15,-13 15,-17 15,-22 15,-26 14,-31 14,-37 80,27 -16,42 -17,38 -19,33 -20,29 -22,25 -24,21 -25,16 -26,12 -27,7 -27,3 -27,-2 -26,-6 -25,-9 -24,-12 -23,-15 -22,-17 -20,-19 -19,-21 -18,-23 -16,-25 -14,-26 -13,-28 -11,-29 -9,-30 -7,-30 -5,-31 -2,-32 v -32 l 3,-32 6,-32 9,-32 13,-31 -3,28 82,-20 z m 0,0 3,14 -6,13 3,-28 z m -548,416 -27,-9 -40,-35 -33,-35 -26,-36 -19,-36 -12,-37 -5,-37 1,-36 8,-34 13,-32 18,-30 22,-28 25,-25 28,-23 30,-21 32,-19 34,-17 35,-15 36,-13 37,-11 37,-9 37,-7 37,-4 36,-2 36,1 34,4 33,7 31,10 29,14 26,19 22,23 17,28 11,32 -82,20 -5,-15 -8,-12 -11,-11 -14,-10 -18,-9 -21,-7 -24,-5 -27,-3 -29,-1 -31,1 -32,4 -32,6 -33,8 -32,10 -32,11 -31,13 -29,15 -27,16 -25,17 -22,18 -19,19 -15,20 -12,20 -8,20 -4,20 -1,21 3,22 8,23 13,25 19,27 26,28 34,30 -27,-9 1,85 z m 0,0 h -15 l -12,-10 27,9 z m 134,-136 -3,17 v -6 -3 1 l 2,3 5,5 6,3 5,1 h 3 v 0 l -2,1 -4,2 -5,3 -6,3 -6,4 -7,5 -7,5 -7,6 -7,6 -7,6 -7,7 -7,7 -7,7 -7,6 -6,6 -6,6 -6,5 -5,5 -5,5 -4,4 -5,4 -7,5 -23,7 -1,-85 -21,6 -2,2 1,-1 3,-3 4,-4 5,-5 5,-5 6,-6 7,-6 7,-7 7,-7 8,-7 8,-7 8,-7 8,-7 9,-7 9,-7 9,-7 9,-6 9,-6 10,-5 10,-5 11,-4 12,-2 h 14 l 16,3 15,8 12,12 8,14 5,14 2,14 1,14 -3,17 -78,-32 z m 81,16 v 9 l -3,8 z m -250,-336 2,-1 -32,23 -27,24 -23,24 -19,25 -15,25 -11,26 -8,26 -5,26 -2,26 v 25 l 3,25 5,24 8,23 9,22 11,21 13,19 14,17 15,15 16,13 16,10 16,8 16,5 16,3 h 16 l 16,-3 16,-6 16,-9 17,-13 17,-18 17,-23 17,-28 16,-34 78,32 -19,41 -21,36 -23,31 -25,26 -27,21 -28,16 -29,10 -30,5 h -30 l -29,-5 -28,-9 -26,-12 -25,-16 -23,-19 -21,-21 -19,-24 -17,-26 -15,-28 -13,-29 -10,-31 -7,-32 -4,-33 -1,-34 3,-35 7,-35 11,-35 15,-34 20,-33 24,-32 29,-31 33,-29 38,-27 2,-1 43,73 z m -44,-72 1,-1 h 1 z m 681,63 -30,2 -24,-7 -23,-7 -22,-7 -21,-7 -21,-6 -20,-6 -20,-6 -19,-5 -19,-5 -18,-5 -18,-4 -17,-4 -17,-3 -17,-3 -17,-2 -16,-1 -16,-1 h -16 l -16,1 -17,1 -17,2 -17,3 -17,4 -18,4 -18,5 -19,6 -19,7 -20,8 -21,10 -21,11 -22,12 -23,13 -43,-73 25,-14 24,-13 24,-12 23,-11 23,-10 22,-8 22,-7 22,-6 21,-5 21,-4 21,-3 20,-2 20,-1 20,-1 h 20 l 20,1 20,2 19,2 19,3 19,4 19,4 19,5 20,5 20,5 20,6 20,6 21,6 21,7 21,7 22,7 23,7 23,7 -30,2 35,77 z m 0,0 -15,7 -15,-5 z m 729,31 -45,10 -23,-9 -22,-9 -21,-9 -20,-9 -20,-9 -19,-9 -18,-9 -18,-8 -17,-8 -17,-8 -16,-7 -16,-7 -16,-6 -16,-5 -16,-5 -16,-4 -17,-3 -17,-2 -18,-2 -18,-1 h -19 l -20,1 -22,2 -23,3 -24,5 -26,6 -27,7 -29,9 -30,11 -32,12 -34,14 -36,16 -35,-77 38,-16 36,-15 34,-13 33,-11 31,-10 30,-8 29,-7 27,-5 26,-4 25,-3 24,-1 h 24 l 23,1 22,2 21,3 21,4 20,5 19,6 19,6 19,7 18,7 18,8 18,8 18,8 18,8 18,9 18,9 19,9 19,9 20,8 21,8 21,8 -45,10 61,59 z m 0,0 -19,20 -26,-9 45,-10 z m 665,-23 16,39 -21,-16 -22,-14 -23,-13 -24,-12 -24,-10 -25,-9 -25,-8 -26,-7 -26,-6 -26,-4 -26,-3 -26,-2 -26,-1 h -26 -26 l -25,1 -25,2 -25,3 -24,4 -23,4 -22,5 -22,5 -21,6 -19,6 -18,7 -17,7 -16,7 -14,7 -12,7 -10,7 -9,7 -6,6 -61,-59 12,-12 14,-11 15,-10 16,-10 18,-9 19,-9 20,-8 21,-8 22,-7 23,-7 24,-6 25,-5 26,-5 27,-4 27,-3 28,-2 28,-1 h 29 l 29,1 29,2 29,3 30,4 30,5 29,6 29,8 29,9 29,11 28,12 28,14 27,15 26,17 26,19 16,39 -84,-11 z m 68,-28 19,15 -3,24 z m -44,75 -69,18 2,-5 2,-4 2,-4 2,-4 2,-4 2,-3 2,-3 2,-3 2,-3 2,-3 2,-3 2,-2 2,-2 2,-2 2,-2 2,-2 2,-2 2,-2 2,-2 1,-2 1,-2 1,-2 1,-1 1,-1 1,-1 v -1 -1 -1 0 0 0 1 l 84,11 -1,6 -1,5 -1,5 -2,5 -2,4 -2,4 -2,4 -2,4 -2,4 -2,3 -2,3 -2,3 -2,3 -2,3 -2,3 -2,3 -2,2 -2,2 -2,2 -2,2 -2,2 -2,2 -1,2 -1,2 -1,1 -1,1 -1,1 -1,1 v 1 0 0 0 l -69,18 57,-63 z m 12,45 -21,62 -48,-44 z" />
   </g>
   <g
   id="g5639">
    <path
   class="fil6"
   d="m 16139,11438 c -167,-98 -668,-159 -666,159 1,120 22,235 180,219 71,-17 178,-182 178,-97 3,292 -594,224 -395,-262 0,-41 -289,-119 -359,-112 -670,61 -146,723 -43,324 27,2 58,10 58,34 -148,446 -526,28 -393,-257 -63,-265 -937,16 -507,364 9,0 172,-194 173,-78 -178,429 -629,-115 -229,-373 260,-152 388,-89 641,-11 404,-181 474,-49 716,40 91,-94 460,-193 671,-19 -10,23 -19,46 -27,69 z"
   id="path5635" />
    <path
   id="path5637"
   class="fil7"
   d="m 15431,11598 v 0 l 1,-33 5,-31 8,-29 11,-27 14,-25 17,-23 19,-20 21,-18 23,-16 24,-13 25,-11 26,-9 27,-8 28,-6 29,-5 29,-3 29,-2 30,-1 30,1 30,2 29,3 29,4 29,4 28,5 27,6 26,7 25,7 24,8 23,9 22,9 20,10 19,10 -43,73 -14,-8 -16,-8 -18,-8 -20,-7 -21,-7 -23,-7 -24,-6 -25,-5 -25,-5 -26,-4 -26,-3 -27,-2 -27,-1 -27,-1 -26,1 -26,2 -25,3 -24,4 -23,5 -22,6 -21,7 -19,9 -18,10 -16,11 -14,12 -12,13 -11,14 -9,16 -7,18 -5,20 -3,22 -1,24 v 0 l -85,1 z m 233,260 -6,1 -16,1 h -16 -15 l -15,-1 -14,-2 -14,-3 -13,-4 -13,-5 -12,-6 -11,-6 -10,-7 -10,-8 -9,-9 -8,-9 -7,-10 -7,-10 -6,-10 -5,-11 -5,-11 -4,-11 -3,-11 -3,-11 -3,-11 -2,-12 -2,-12 -1,-12 -1,-12 -1,-12 -1,-12 v -12 -12 -12 l 85,-1 v 11 11 10 l 1,10 1,10 1,10 1,9 1,9 2,9 2,8 2,8 2,8 3,7 3,7 3,6 3,6 3,5 4,5 4,4 4,4 4,4 5,3 5,3 6,3 6,2 7,2 8,2 9,1 10,1 h 11 11 l 12,-1 -6,1 20,82 z m 0,0 -3,1 h -3 z m 126,-138 v 0 -3 0 l 1,3 4,7 9,7 11,4 h 8 l 4,-1 h 1 l -1,1 -3,2 -4,3 -5,4 -5,5 -6,5 -6,6 -7,6 -7,6 -7,7 -7,7 -8,7 -8,7 -8,7 -8,7 -8,7 -9,6 -9,6 -9,6 -9,5 -10,5 -10,4 -11,3 -20,-82 3,-1 4,-1 4,-2 5,-3 6,-4 6,-4 6,-5 7,-5 7,-6 7,-6 7,-6 7,-7 7,-7 7,-7 7,-7 7,-6 7,-6 7,-6 7,-6 7,-6 7,-5 7,-5 8,-5 10,-4 12,-3 h 15 l 17,6 14,11 9,13 4,12 2,11 1,11 v 0 l -85,1 z m -310,-263 -3,16 -15,42 -11,39 -7,36 -4,33 v 30 l 3,28 5,25 8,23 10,21 11,19 13,17 15,15 16,13 17,11 18,9 19,7 20,6 20,4 20,2 h 20 l 19,-2 18,-4 17,-5 16,-7 14,-9 13,-10 11,-11 9,-13 8,-14 6,-16 4,-18 1,-21 85,-1 -2,32 -6,30 -10,28 -13,25 -17,23 -19,20 -22,17 -23,14 -25,11 -26,8 -27,6 -27,3 h -28 l -28,-2 -28,-5 -27,-8 -27,-10 -26,-13 -25,-16 -23,-19 -21,-21 -19,-24 -17,-27 -14,-30 -11,-32 -7,-35 -4,-37 v -39 l 4,-41 9,-43 13,-45 17,-47 -3,16 85,-1 z m 0,0 v 9 l -3,8 3,-16 z m -405,-154 v 0 l 10,-1 h 11 l 11,1 12,1 12,1 13,2 14,2 14,3 15,3 15,3 15,3 16,4 16,4 16,4 16,4 16,5 16,5 15,5 15,5 15,5 14,5 13,5 13,5 12,5 11,6 11,6 10,6 9,7 9,8 9,10 8,14 4,20 -85,1 2,12 3,5 1,1 -2,-1 -4,-3 -6,-3 -7,-4 -9,-4 -10,-4 -11,-5 -12,-5 -13,-5 -13,-5 -14,-5 -14,-4 -15,-4 -15,-4 -15,-4 -15,-4 -15,-4 -15,-3 -14,-3 -14,-3 -13,-3 -13,-2 -12,-2 -11,-2 -10,-1 -9,-1 h -8 -6 -4 v 0 l -8,-84 z m 8,84 v 0 0 h 1 z m -51,324 44,-32 -12,39 -15,34 -19,29 -22,23 -25,18 -27,12 -28,5 -28,-1 -27,-6 -26,-10 -24,-14 -22,-17 -21,-20 -19,-22 -17,-24 -14,-26 -12,-28 -9,-29 -6,-30 -2,-31 2,-32 7,-32 12,-31 17,-30 23,-29 28,-26 33,-24 39,-21 44,-18 50,-15 56,-11 62,-8 8,84 -56,7 -49,10 -43,12 -36,15 -30,16 -24,17 -19,18 -15,19 -11,19 -7,19 -4,20 -1,20 1,21 4,21 6,20 8,20 10,19 12,17 13,15 14,13 14,11 14,8 14,6 13,3 h 11 l 10,-2 10,-4 10,-7 11,-12 11,-17 11,-23 9,-30 44,-32 -6,84 z m -38,-53 9,-34 35,3 -44,32 z m 59,31 -2,14 v 1 1 1 1 l 1,2 1,1 1,1 1,1 1,1 1,1 v 0 0 0 0 0 0 h -1 -1 -1 -1 -1 -1 -1 -2 -2 -2 -2 -2 -2 -2 -2 -2 l 6,-84 h 3 3 3 3 3 l 3,1 3,1 3,1 3,1 4,1 3,1 3,1 4,1 3,1 4,1 4,2 4,2 4,2 4,2 4,3 4,3 4,3 3,4 3,4 3,4 3,5 3,5 2,5 2,5 1,6 1,6 v 6 l -2,14 -80,-27 z m 83,13 v 7 l -2,7 z m -394,-266 -3,28 -9,23 -7,24 -5,24 -2,25 v 25 l 2,25 4,25 5,24 7,24 9,23 10,22 12,21 13,20 14,18 14,16 15,14 15,12 15,10 15,8 15,5 15,3 14,1 14,-1 14,-4 14,-6 14,-9 15,-13 15,-17 15,-22 15,-26 14,-31 14,-37 80,27 -16,42 -17,38 -19,33 -20,29 -22,25 -24,21 -25,16 -26,12 -27,7 -27,3 -27,-2 -26,-6 -25,-9 -24,-12 -23,-15 -22,-17 -20,-19 -19,-21 -18,-23 -16,-25 -14,-26 -13,-28 -11,-29 -9,-30 -7,-30 -5,-31 -2,-32 v -32 l 3,-32 6,-32 9,-32 13,-31 -3,28 82,-20 z m 0,0 3,14 -6,13 3,-28 z m -548,416 -27,-9 -40,-35 -33,-35 -26,-36 -19,-36 -12,-37 -5,-37 1,-36 8,-34 13,-32 18,-30 22,-28 25,-25 28,-23 30,-21 32,-19 34,-17 35,-15 36,-13 37,-11 37,-9 37,-7 37,-4 36,-2 36,1 34,4 33,7 31,10 29,14 26,19 22,23 17,28 11,32 -82,20 -5,-15 -8,-12 -11,-11 -14,-10 -18,-9 -21,-7 -24,-5 -27,-3 -29,-1 -31,1 -32,4 -32,6 -33,8 -32,10 -32,11 -31,13 -29,15 -27,16 -25,17 -22,18 -19,19 -15,20 -12,20 -8,20 -4,20 -1,21 3,22 8,23 13,25 19,27 26,28 34,30 -27,-9 1,85 z m 0,0 h -15 l -12,-10 27,9 z m 134,-136 -3,17 v -6 -3 1 l 2,3 5,5 6,3 5,1 h 3 v 0 l -2,1 -4,2 -5,3 -6,3 -6,4 -7,5 -7,5 -7,6 -7,6 -7,6 -7,7 -7,7 -7,7 -7,6 -6,6 -6,6 -6,5 -5,5 -5,5 -4,4 -5,4 -7,5 -23,7 -1,-85 -21,6 -2,2 1,-1 3,-3 4,-4 5,-5 5,-5 6,-6 7,-6 7,-7 7,-7 8,-7 8,-7 8,-7 8,-7 9,-7 9,-7 9,-7 9,-6 9,-6 10,-5 10,-5 11,-4 12,-2 h 14 l 16,3 15,8 12,12 8,14 5,14 2,14 1,14 -3,17 -78,-32 z m 81,16 v 9 l -3,8 z m -250,-336 2,-1 -32,23 -27,24 -23,24 -19,25 -15,25 -11,26 -8,26 -5,26 -2,26 v 25 l 3,25 5,24 8,23 10,22 11,21 13,19 14,17 15,15 16,13 16,10 16,8 16,5 16,3 h 16 l 16,-3 16,-6 16,-9 17,-13 17,-18 17,-23 17,-28 16,-34 78,32 -19,41 -21,36 -23,31 -25,26 -27,21 -28,16 -29,10 -30,5 h -30 l -29,-5 -28,-9 -26,-12 -25,-16 -23,-19 -21,-21 -19,-24 -17,-26 -15,-28 -13,-29 -10,-31 -7,-32 -4,-33 -1,-34 3,-35 7,-35 11,-35 15,-34 20,-33 24,-32 29,-31 33,-29 38,-27 2,-1 z m -44,-72 1,-1 h 1 z m 681,63 -30,2 -24,-7 -23,-7 -22,-7 -21,-7 -21,-6 -20,-6 -20,-6 -19,-5 -19,-5 -18,-5 -18,-4 -17,-4 -17,-3 -17,-3 -17,-2 -16,-1 -16,-1 h -16 l -16,1 -17,1 -17,2 -17,3 -17,4 -18,4 -18,5 -19,6 -19,7 -20,8 -21,10 -21,11 -22,12 -23,13 -43,-73 25,-14 24,-13 24,-12 23,-11 23,-10 22,-8 22,-7 22,-6 21,-5 21,-4 21,-3 20,-2 20,-1 20,-1 h 20 l 20,1 20,2 19,2 19,3 19,4 19,4 19,5 20,5 20,5 20,6 20,6 21,6 21,7 21,7 22,7 23,7 23,7 -30,2 35,77 z m 0,0 -15,7 -15,-5 z m 729,31 -45,10 -23,-9 -22,-9 -21,-9 -20,-9 -20,-9 -19,-9 -18,-9 -18,-8 -17,-8 -17,-8 -16,-7 -16,-7 -16,-6 -16,-5 -16,-5 -16,-4 -17,-3 -17,-2 -18,-2 -19,-1 h -19 l -20,1 -22,2 -23,3 -24,5 -26,6 -27,7 -29,9 -30,11 -32,12 -34,14 -36,16 -35,-77 38,-16 36,-15 34,-13 33,-11 31,-10 30,-8 29,-7 28,-5 26,-4 25,-3 24,-1 h 24 l 23,1 22,2 21,3 21,4 20,5 19,6 19,6 19,7 18,7 18,8 18,8 18,8 18,8 18,9 18,9 19,9 19,9 20,8 21,8 21,8 -45,10 61,59 z m 0,0 -19,20 -26,-9 45,-10 z m 602,-65 12,50 -18,-14 -19,-12 -19,-11 -20,-10 -21,-9 -21,-8 -22,-6 -22,-5 -23,-4 -23,-3 -23,-2 -23,-1 h -24 l -23,1 -23,1 -23,2 -23,3 -22,4 -22,4 -21,5 -21,5 -20,6 -19,6 -18,7 -17,7 -16,7 -15,7 -13,7 -12,7 -10,7 -9,7 -7,6 -61,-59 12,-11 13,-11 14,-10 16,-10 17,-9 18,-9 19,-9 20,-8 21,-8 22,-7 23,-7 23,-6 24,-5 25,-5 25,-4 26,-3 26,-2 26,-2 27,-1 h 27 l 27,1 27,3 27,4 27,5 27,6 26,8 26,9 25,11 25,12 24,14 23,16 23,17 12,50 -77,-34 z m 66,-15 25,20 -13,29 -12,-50 z m -33,65 -62,23 1,-2 1,-2 1,-2 1,-2 1,-2 1,-2 1,-2 1,-2 1,-2 1,-2 1,-2 1,-2 1,-2 1,-2 1,-2 1,-2 1,-2 1,-2 1,-2 1,-2 1,-2 1,-2 1,-2 1,-2 1,-2 1,-2 1,-2 1,-2 1,-2 1,-2 1,-2 1,-2 77,34 -1,2 -1,2 -1,2 -1,2 -1,2 -1,2 -1,2 -1,2 -1,2 -1,2 -1,2 -1,2 -1,2 -1,2 -1,2 -1,2 -1,2 -1,2 -1,2 -1,2 -1,2 -1,2 -1,2 -1,2 -1,2 -1,2 -1,2 -1,2 -1,2 -1,2 -1,2 -1,2 -62,23 43,-73 z m 19,50 -17,49 -45,-26 z" />
   </g>
   <g
   id="g5645">
    <path
   class="fil6"
   d="m 18237,11468 c -136,-124 -715,-194 -712,124 1,120 22,235 180,219 71,-17 178,-182 178,-97 3,292 -594,224 -395,-262 0,-41 -289,-119 -359,-112 -670,61 -146,723 -43,324 27,2 58,10 58,34 -148,446 -526,28 -393,-257 -63,-266 -937,16 -507,364 9,0 172,-194 173,-78 -178,429 -629,-115 -229,-373 260,-152 388,-89 641,-11 404,-181 474,-49 716,40 91,-94 491,-182 737,12 -3,27 -39,50 -47,73 z"
   id="path5641" />
    <path
   id="path5643"
   class="fil7"
   d="m 17483,11592 v 0 l 2,-34 6,-32 9,-30 13,-27 16,-25 19,-22 22,-20 24,-17 25,-15 27,-13 28,-10 29,-9 30,-7 31,-5 31,-4 32,-2 32,-1 32,1 32,2 32,3 32,4 31,5 30,6 30,7 28,8 27,9 26,10 24,10 23,11 21,12 19,13 17,14 -57,63 -11,-9 -14,-9 -16,-9 -18,-9 -21,-9 -22,-8 -24,-8 -25,-7 -27,-6 -27,-6 -28,-5 -29,-4 -29,-3 -29,-2 -29,-1 -29,1 -28,2 -27,3 -26,4 -25,6 -24,7 -22,8 -20,9 -18,11 -16,12 -14,13 -12,14 -10,15 -8,17 -6,19 -4,21 -1,24 v 0 l -85,1 z m 233,260 -6,1 -16,1 h -16 -15 l -15,-1 -14,-2 -14,-3 -13,-4 -13,-5 -12,-6 -11,-6 -10,-7 -10,-8 -9,-9 -8,-9 -7,-10 -7,-10 -6,-10 -5,-11 -5,-11 -4,-11 -3,-11 -3,-11 -3,-11 -2,-12 -2,-12 -1,-12 -1,-12 -1,-12 -1,-12 v -12 -12 -12 l 85,-1 v 11 11 10 l 1,10 1,10 1,10 1,9 1,9 2,9 2,8 2,8 2,8 3,7 3,7 3,6 3,6 3,5 4,5 4,4 4,4 4,4 5,3 5,3 6,3 6,2 7,2 8,2 9,1 10,1 h 11 11 l 12,-1 -6,1 20,82 z m 0,0 -3,1 h -3 z m 126,-138 v 0 -3 0 l 1,3 4,7 9,7 11,4 h 8 l 4,-1 h 1 l -1,1 -3,2 -4,3 -5,4 -5,5 -6,5 -6,6 -7,6 -7,6 -7,7 -7,7 -8,7 -8,7 -8,7 -8,7 -8,7 -9,6 -9,6 -9,6 -9,5 -10,5 -10,4 -11,3 -20,-82 3,-1 4,-1 5,-2 5,-3 6,-4 6,-4 6,-5 7,-5 7,-6 7,-6 7,-6 7,-7 7,-7 7,-7 7,-7 7,-6 7,-6 7,-6 7,-6 7,-6 7,-5 7,-5 8,-5 10,-4 12,-3 h 15 l 17,6 14,11 9,13 4,12 2,11 1,11 v 0 l -85,1 z m -310,-263 -3,16 -15,42 -11,39 -7,36 -4,33 v 30 l 3,28 5,25 8,23 10,21 11,19 13,17 15,15 16,13 17,11 18,9 19,7 20,5 20,4 20,2 h 20 l 19,-2 18,-4 17,-5 16,-7 14,-9 13,-10 11,-11 9,-13 8,-14 6,-16 4,-18 1,-21 85,-1 -2,32 -6,30 -10,28 -13,25 -17,23 -19,20 -22,17 -23,14 -25,11 -26,8 -27,6 -27,3 h -28 l -28,-2 -28,-5 -27,-8 -27,-10 -26,-13 -25,-16 -23,-19 -21,-21 -19,-24 -17,-27 -14,-30 -11,-32 -7,-35 -4,-37 v -39 l 4,-41 9,-43 13,-45 17,-47 -3,16 85,-1 z m 0,0 v 9 l -3,8 3,-16 z m -405,-154 v 0 l 10,-1 h 11 l 11,1 12,1 12,1 13,2 14,2 14,3 15,3 15,3 15,3 16,4 16,4 16,4 16,4 16,5 16,5 15,5 15,5 15,5 14,5 13,5 13,5 12,5 11,5 11,6 10,6 9,7 9,8 9,10 8,14 4,20 -85,1 2,12 3,5 1,1 -2,-1 -4,-3 -6,-3 -7,-4 -9,-4 -10,-4 -11,-5 -12,-5 -13,-5 -13,-5 -14,-5 -14,-4 -15,-4 -15,-4 -15,-4 -15,-4 -15,-4 -15,-3 -14,-3 -14,-3 -13,-3 -13,-2 -12,-2 -11,-2 -10,-1 -9,-1 h -8 -6 -4 v 0 l -8,-84 z m 8,84 v 0 0 h 1 z m -51,324 44,-32 -12,39 -15,34 -19,29 -22,23 -25,18 -27,12 -28,5 -28,-1 -27,-6 -26,-10 -24,-14 -22,-17 -21,-20 -19,-22 -17,-24 -14,-26 -12,-28 -9,-29 -6,-30 -2,-31 2,-32 7,-32 12,-31 17,-30 23,-29 28,-26 33,-24 39,-21 44,-18 50,-15 56,-11 62,-8 8,84 -56,7 -49,10 -43,12 -36,15 -30,16 -24,17 -19,18 -15,19 -11,19 -7,19 -4,20 -1,20 1,21 4,21 6,20 8,20 10,19 12,17 13,15 14,13 14,11 14,8 14,6 13,3 h 11 l 10,-2 10,-4 10,-7 11,-12 11,-17 11,-23 9,-30 44,-32 -6,84 z m -38,-53 9,-34 35,3 -44,32 z m 59,31 -2,14 v 1 1 1 1 l 1,2 1,1 1,1 1,1 1,1 1,1 v 0 0 0 0 0 0 h -1 -1 -1 -1 -1 -1 -1 -2 -2 -2 -2 -2 -2 -2 -2 -2 l 6,-84 h 3 3 3 3 3 l 3,1 3,1 3,1 3,1 4,1 3,1 3,1 4,1 3,1 4,1 4,2 4,2 4,2 4,2 4,3 4,3 4,3 3,4 3,4 3,4 3,5 3,5 2,5 2,5 1,6 1,6 v 6 l -2,14 -80,-27 z m 83,13 v 7 l -2,7 z m -394,-266 -3,28 -9,23 -7,24 -5,24 -2,25 v 25 l 2,25 4,25 5,24 7,24 9,23 10,22 12,21 13,20 14,18 14,16 15,14 15,12 15,10 15,8 15,5 15,3 14,1 14,-1 14,-4 14,-6 14,-9 15,-13 15,-17 15,-22 15,-26 14,-31 14,-37 80,27 -16,42 -17,38 -19,33 -20,29 -22,25 -24,21 -25,16 -26,12 -27,7 -27,3 -27,-2 -26,-6 -25,-9 -24,-12 -23,-15 -22,-17 -20,-19 -19,-21 -18,-23 -16,-25 -14,-26 -13,-28 -11,-29 -9,-30 -7,-30 -5,-31 -2,-32 v -32 l 3,-32 6,-32 9,-32 13,-31 -3,28 82,-20 z m 0,0 3,14 -6,13 3,-28 z m -548,416 -27,-9 -40,-35 -33,-35 -26,-36 -19,-36 -12,-37 -5,-37 1,-36 8,-34 13,-32 18,-30 22,-28 25,-25 28,-23 30,-21 32,-19 34,-17 35,-15 36,-13 37,-11 37,-9 37,-7 37,-4 36,-2 36,1 34,4 33,7 31,10 29,14 26,19 22,23 17,28 11,32 -82,20 -5,-15 -8,-12 -11,-11 -14,-10 -18,-9 -21,-7 -24,-5 -27,-3 -29,-1 -31,1 -32,4 -32,6 -33,8 -32,10 -32,11 -31,13 -29,15 -27,16 -25,17 -22,18 -19,19 -15,20 -12,20 -8,20 -4,20 -1,21 3,22 8,23 13,25 19,27 26,28 34,30 -27,-9 1,85 z m 0,0 h -15 l -12,-10 27,9 z m 134,-136 -3,17 v -6 -3 1 l 2,3 5,5 6,3 5,1 h 3 v 0 l -2,1 -4,2 -5,3 -6,3 -6,4 -7,5 -7,5 -7,6 -7,6 -7,6 -7,7 -7,7 -7,7 -7,6 -6,6 -6,6 -6,5 -5,5 -5,5 -4,4 -5,4 -7,5 -23,7 -1,-85 -21,6 -2,2 1,-1 3,-3 4,-4 5,-5 5,-5 6,-6 7,-6 7,-7 7,-7 8,-7 8,-7 8,-7 8,-7 9,-7 9,-7 9,-7 9,-6 9,-6 10,-5 10,-5 11,-4 12,-2 h 14 l 16,3 15,8 12,12 8,14 5,14 2,14 1,14 -3,17 -78,-32 z m 81,16 v 9 l -3,8 z m -250,-336 2,-1 -32,23 -27,24 -23,24 -19,25 -15,25 -11,26 -8,26 -5,26 -2,26 v 25 l 3,25 5,24 8,23 10,22 11,21 13,19 14,17 15,15 16,13 16,10 16,8 16,5 16,3 h 16 l 16,-3 16,-6 16,-9 17,-13 17,-18 17,-23 17,-28 16,-34 78,32 -19,41 -21,36 -23,31 -25,26 -27,21 -28,16 -29,10 -30,5 h -30 l -29,-5 -28,-9 -26,-12 -25,-16 -23,-19 -21,-21 -19,-24 -17,-26 -15,-28 -13,-29 -10,-31 -7,-32 -4,-33 -1,-34 3,-35 7,-35 11,-35 15,-34 20,-33 24,-32 29,-31 33,-29 38,-27 2,-1 z m -44,-72 1,-1 h 1 z m 681,63 -30,2 -24,-7 -23,-7 -22,-7 -21,-7 -21,-6 -20,-6 -20,-6 -19,-5 -19,-5 -18,-5 -18,-4 -17,-4 -17,-3 -17,-3 -17,-2 -16,-1 -16,-1 h -16 l -16,1 -17,1 -17,2 -17,3 -17,4 -18,4 -18,5 -19,6 -19,7 -20,8 -21,10 -21,11 -22,12 -23,13 -43,-73 25,-14 24,-13 24,-12 23,-11 23,-10 22,-8 22,-7 22,-6 21,-5 21,-4 21,-3 20,-2 20,-1 20,-1 h 20 l 20,1 20,2 19,2 19,3 19,4 19,4 19,5 20,5 20,5 20,6 20,6 21,6 21,7 21,7 22,7 23,7 23,7 -30,2 35,77 z m 0,0 -15,7 -15,-5 z m 729,31 -45,10 -23,-9 -22,-9 -21,-9 -20,-9 -20,-9 -19,-9 -18,-9 -18,-8 -17,-8 -17,-8 -16,-7 -16,-7 -16,-6 -16,-5 -16,-5 -16,-4 -17,-3 -17,-2 -18,-2 -19,-1 h -19 l -20,1 -22,2 -23,3 -24,5 -26,6 -27,7 -29,9 -30,11 -32,12 -34,14 -36,16 -35,-77 38,-16 36,-15 34,-13 33,-11 31,-10 30,-8 29,-7 28,-5 26,-4 25,-3 24,-1 h 24 l 23,1 22,2 21,3 21,4 20,5 19,6 19,6 19,7 18,7 18,8 18,8 18,8 18,8 18,9 18,9 19,9 19,9 20,8 21,8 21,8 -45,10 61,59 z m 0,0 -19,20 -26,-9 45,-10 z m 665,-23 16,39 -21,-16 -22,-14 -23,-13 -24,-12 -24,-10 -25,-9 -25,-8 -26,-7 -26,-6 -26,-4 -26,-3 -26,-2 -26,-1 h -26 -26 l -25,1 -25,2 -25,3 -24,4 -23,4 -22,5 -22,5 -21,6 -19,6 -18,7 -17,7 -16,7 -14,7 -12,7 -10,7 -9,7 -6,6 -61,-59 12,-12 14,-11 15,-10 16,-10 18,-9 19,-9 20,-8 21,-8 22,-7 23,-7 24,-6 25,-5 26,-5 27,-4 27,-3 28,-2 28,-1 h 29 l 29,1 29,2 29,3 30,4 30,5 29,6 29,8 29,9 29,11 28,12 28,14 27,15 26,17 26,19 16,39 -84,-11 z m 68,-28 19,15 -3,24 z m -44,75 -69,18 2,-5 2,-4 2,-4 2,-4 2,-4 2,-3 2,-3 2,-3 2,-3 2,-3 2,-3 2,-2 2,-2 2,-2 2,-2 2,-2 2,-2 2,-2 2,-2 1,-2 1,-2 1,-2 1,-1 1,-1 1,-1 v -1 -1 -1 0 0 0 1 l 84,11 -1,6 -1,5 -1,5 -2,5 -2,4 -2,4 -2,4 -2,4 -2,4 -2,3 -2,3 -2,3 -2,3 -2,3 -2,3 -2,3 -2,2 -2,2 -2,2 -2,2 -2,2 -2,2 -1,2 -1,2 -1,1 -1,1 -1,1 -1,1 v 1 0 0 0 l -69,18 57,-63 z m 12,45 -21,62 -48,-44 z" />
   </g>
   <g
   id="g5651">
    <path
   class="fil6"
   d="m 20337,11438 c -167,-98 -668,-159 -666,159 1,120 22,235 180,219 71,-17 178,-182 178,-97 3,292 -594,224 -395,-262 0,-41 -289,-119 -359,-112 -670,61 -146,723 -43,324 27,2 58,10 58,34 -148,446 -526,28 -393,-257 -63,-265 -937,16 -507,364 9,0 172,-194 173,-78 -178,429 -629,-115 -229,-373 260,-152 388,-89 641,-11 404,-181 474,-49 716,40 91,-94 460,-193 671,-19 -10,23 -19,46 -27,69 z"
   id="path5647" />
    <path
   id="path5649"
   class="fil7"
   d="m 19629,11598 v 0 l 1,-33 5,-31 8,-29 11,-27 14,-25 17,-23 19,-20 21,-18 23,-16 24,-13 25,-11 26,-9 27,-8 28,-6 29,-5 29,-3 29,-2 30,-1 30,1 30,2 29,3 29,4 29,4 28,5 27,6 26,7 25,7 24,8 23,9 22,9 20,10 19,10 -43,73 -14,-8 -16,-8 -18,-8 -20,-7 -21,-7 -23,-7 -24,-6 -25,-5 -25,-5 -26,-4 -26,-3 -27,-2 -27,-1 -27,-1 -26,1 -26,2 -25,3 -24,4 -23,5 -22,6 -21,7 -19,9 -18,10 -16,11 -14,12 -12,13 -11,14 -9,16 -7,18 -5,20 -3,22 -1,24 v 0 l -85,1 z m 233,260 -6,1 -16,1 h -16 -15 l -15,-1 -14,-2 -14,-3 -13,-4 -13,-5 -12,-6 -11,-6 -10,-7 -10,-8 -9,-9 -8,-9 -7,-10 -7,-10 -6,-10 -5,-11 -5,-11 -4,-11 -3,-11 -3,-11 -3,-11 -2,-12 -2,-12 -1,-12 -1,-12 -1,-12 -1,-12 v -12 -12 -12 l 85,-1 v 11 11 10 l 1,10 1,10 1,10 1,9 1,9 2,9 2,8 2,8 2,8 3,7 3,7 3,6 3,6 3,5 4,5 4,4 4,4 4,4 5,3 5,3 6,3 6,2 7,2 8,2 9,1 10,1 h 11 11 l 12,-1 -6,1 20,82 z m 0,0 -3,1 h -3 z m 126,-138 v 0 -3 0 l 1,3 4,7 9,7 11,4 h 8 l 4,-1 h 1 l -1,1 -3,2 -4,3 -5,4 -5,4 -6,5 -6,6 -7,6 -7,6 -7,7 -7,7 -8,7 -8,7 -8,7 -8,7 -8,7 -9,6 -9,6 -9,6 -9,5 -10,5 -10,4 -11,3 -20,-82 3,-1 4,-1 4,-2 5,-3 6,-4 6,-4 6,-5 7,-5 7,-6 7,-6 7,-6 7,-7 7,-7 7,-7 7,-7 7,-6 7,-6 7,-6 7,-6 7,-6 7,-5 7,-5 8,-5 10,-4 12,-3 h 15 l 17,6 14,12 9,13 4,12 2,11 1,11 v 0 l -85,1 z m -310,-263 -3,16 -15,42 -11,39 -7,36 -4,33 v 30 l 3,28 5,25 8,23 10,21 11,19 13,17 15,15 16,13 17,11 18,9 19,7 20,6 20,4 20,2 h 20 l 19,-2 18,-4 17,-5 16,-7 14,-9 13,-10 11,-11 9,-13 8,-14 6,-16 4,-18 1,-21 85,-1 -2,32 -6,30 -10,28 -13,25 -17,23 -19,20 -22,17 -23,14 -25,11 -26,8 -27,6 -27,3 h -28 l -28,-2 -28,-5 -27,-8 -27,-10 -26,-13 -25,-16 -23,-19 -21,-21 -19,-24 -17,-27 -14,-30 -11,-32 -7,-35 -4,-37 v -39 l 4,-41 9,-43 13,-45 17,-47 -3,16 85,-1 z m 0,0 v 9 l -3,8 3,-16 z m -405,-154 v 0 l 10,-1 h 11 l 11,1 12,1 12,1 13,2 14,2 14,3 15,3 15,3 15,3 16,4 16,4 16,4 16,4 16,5 16,5 15,5 15,5 15,5 14,5 13,5 13,5 12,5 11,6 11,6 10,6 9,6 9,8 9,10 8,14 4,20 -85,1 2,12 3,5 1,1 -2,-1 -4,-3 -6,-3 -7,-4 -9,-4 -10,-4 -11,-5 -12,-5 -13,-5 -13,-5 -14,-5 -14,-4 -15,-4 -15,-4 -15,-4 -15,-4 -15,-4 -15,-3 -14,-3 -14,-3 -13,-3 -13,-2 -12,-2 -11,-2 -10,-1 -9,-1 h -8 -6 -4 v 0 l -8,-84 z m 8,84 v 0 0 h 1 z m -51,324 44,-32 -12,39 -15,34 -19,29 -22,23 -25,18 -27,12 -28,5 -28,-1 -27,-6 -26,-10 -24,-14 -22,-17 -21,-20 -19,-22 -17,-24 -14,-26 -12,-28 -9,-29 -6,-30 -2,-31 2,-32 7,-32 12,-31 17,-30 23,-29 28,-26 33,-24 39,-21 44,-18 50,-15 56,-11 62,-8 8,84 -56,7 -49,10 -43,12 -36,15 -30,16 -24,17 -19,18 -15,19 -11,19 -7,19 -4,20 -1,20 1,21 4,21 6,20 8,20 10,19 12,17 13,15 14,13 14,11 14,8 14,6 13,3 h 11 l 10,-2 10,-4 10,-7 11,-12 11,-17 11,-23 9,-30 44,-32 -6,84 z m -38,-53 9,-34 35,3 -44,32 z m 59,31 -2,14 v 1 1 1 1 l 1,2 1,1 1,1 1,1 1,1 1,1 v 0 0 0 0 0 0 h -1 -1 -1 -1 -1 -1 -1 -2 -2 -2 -2 -2 -2 -2 -2 -2 l 6,-84 h 3 3 3 3 3 l 3,1 3,1 3,1 3,1 3,1 3,1 3,1 4,1 3,1 4,1 4,2 4,2 4,2 4,2 4,3 4,3 4,3 3,4 3,4 3,4 3,5 3,5 2,5 2,5 1,6 1,6 v 6 l -2,14 -80,-27 z m 83,13 v 7 l -2,7 z m -394,-266 -3,28 -9,23 -7,24 -5,24 -2,25 v 25 l 2,25 4,25 5,24 7,24 9,23 10,22 12,21 13,20 14,18 14,16 15,14 15,12 15,10 15,8 15,5 15,3 14,1 14,-1 14,-4 14,-6 14,-9 15,-13 15,-17 15,-22 15,-26 14,-31 14,-37 80,27 -16,42 -17,38 -19,33 -20,29 -22,25 -24,21 -25,16 -26,12 -27,7 -27,3 -27,-2 -26,-6 -25,-9 -24,-12 -23,-15 -22,-17 -20,-19 -19,-21 -18,-23 -16,-25 -14,-26 -13,-28 -11,-29 -9,-30 -7,-30 -5,-31 -2,-32 v -32 l 3,-32 6,-32 9,-32 13,-31 -3,28 82,-20 z m 0,0 3,14 -6,13 3,-28 z m -548,416 -27,-9 -40,-35 -33,-35 -26,-36 -19,-36 -12,-37 -5,-37 1,-36 8,-34 13,-32 18,-30 22,-28 25,-25 28,-23 30,-21 32,-19 34,-17 35,-15 36,-13 37,-11 37,-9 37,-7 37,-4 36,-2 36,1 34,4 33,7 31,10 29,14 26,19 22,23 17,28 11,32 -82,20 -5,-15 -8,-12 -11,-11 -14,-10 -18,-9 -21,-7 -24,-5 -27,-3 -29,-1 -31,1 -32,4 -32,6 -33,8 -32,10 -32,11 -31,13 -29,15 -27,16 -25,17 -22,18 -19,19 -15,20 -12,20 -8,20 -5,20 -1,21 3,22 8,23 13,25 19,27 26,28 34,30 -27,-9 1,85 z m 0,0 h -15 l -12,-10 27,9 z m 134,-136 -3,17 v -6 -3 1 l 2,3 5,5 6,3 5,1 h 3 v 0 l -2,1 -4,2 -5,3 -6,3 -6,4 -7,5 -7,5 -7,6 -7,6 -7,6 -7,7 -7,7 -7,7 -7,6 -6,6 -6,6 -6,5 -5,5 -5,5 -4,4 -5,4 -7,5 -23,7 -1,-85 -21,6 -2,2 1,-1 3,-3 4,-4 5,-5 5,-5 6,-6 7,-6 7,-7 7,-7 8,-7 8,-7 8,-7 8,-7 9,-7 9,-7 9,-7 9,-6 9,-6 10,-5 10,-5 11,-4 12,-2 h 14 l 16,3 15,8 12,12 8,14 5,14 2,14 1,14 -3,17 -78,-32 z m 81,16 v 9 l -3,8 z m -250,-336 2,-1 -32,23 -27,24 -23,24 -19,25 -15,25 -11,26 -8,26 -5,26 -2,26 v 25 l 3,25 5,24 8,23 10,22 11,21 13,19 14,17 15,15 16,13 16,10 16,8 16,5 16,3 h 16 l 16,-3 16,-6 16,-9 17,-13 17,-18 17,-23 17,-28 16,-34 78,32 -19,41 -21,36 -23,31 -25,26 -27,21 -28,16 -29,10 -30,5 h -30 l -29,-5 -28,-9 -26,-12 -25,-16 -23,-19 -21,-21 -19,-24 -17,-26 -15,-28 -13,-29 -10,-31 -7,-32 -4,-33 -1,-34 3,-35 7,-35 11,-35 15,-34 20,-33 24,-32 29,-31 33,-29 38,-27 2,-1 z m -44,-72 1,-1 h 1 z m 681,63 -30,2 -24,-7 -23,-7 -22,-7 -21,-7 -21,-6 -20,-6 -20,-6 -19,-5 -19,-5 -18,-5 -18,-4 -17,-4 -17,-3 -17,-3 -17,-2 -16,-1 -16,-1 h -16 l -16,1 -17,1 -17,2 -17,3 -17,4 -18,4 -18,5 -19,6 -19,7 -20,8 -21,10 -21,11 -22,12 -23,13 -43,-73 25,-14 24,-13 24,-12 23,-11 23,-10 22,-8 22,-7 22,-6 21,-5 21,-4 21,-3 20,-2 20,-1 20,-1 h 20 l 20,1 20,2 19,2 19,3 19,4 19,4 19,5 20,5 20,5 20,6 20,6 21,6 21,7 21,7 22,7 23,7 23,7 -30,2 35,77 z m 0,0 -15,7 -15,-5 z m 729,31 -45,10 -23,-9 -22,-9 -21,-9 -20,-9 -20,-9 -19,-9 -18,-9 -18,-8 -17,-8 -17,-8 -16,-7 -16,-7 -16,-6 -16,-5 -16,-5 -16,-4 -17,-3 -17,-2 -18,-2 -19,-1 h -19 l -20,1 -22,2 -23,3 -24,5 -26,6 -27,7 -29,9 -30,11 -32,12 -34,14 -36,16 -35,-77 38,-16 36,-15 34,-13 33,-11 31,-10 30,-8 29,-7 28,-5 26,-4 25,-3 24,-1 h 24 l 23,1 22,2 21,3 21,4 20,5 19,6 19,6 19,7 18,7 18,8 18,8 18,8 18,8 18,9 18,9 19,9 19,9 20,8 21,8 21,8 -45,10 61,59 z m 0,0 -19,20 -26,-9 45,-10 z m 602,-65 12,50 -18,-14 -19,-12 -19,-11 -20,-10 -21,-9 -21,-8 -22,-6 -22,-5 -23,-4 -23,-3 -23,-2 -23,-1 h -24 l -23,1 -23,1 -23,2 -23,3 -22,4 -22,4 -21,5 -21,5 -20,6 -19,6 -18,7 -17,7 -16,7 -15,7 -13,7 -12,7 -10,7 -9,7 -7,6 -61,-59 12,-11 13,-11 14,-10 16,-10 17,-9 18,-9 19,-9 20,-8 21,-8 22,-7 23,-7 23,-6 24,-5 25,-5 25,-4 26,-3 26,-2 26,-2 27,-1 h 27 l 27,1 27,3 27,4 27,5 27,6 26,8 26,9 25,11 25,12 24,14 23,16 23,17 12,50 -77,-34 z m 66,-15 25,20 -13,29 -12,-50 z m -33,65 -62,23 1,-2 1,-2 1,-2 1,-2 1,-2 1,-2 1,-2 1,-2 1,-2 1,-2 1,-2 1,-2 1,-2 1,-2 1,-2 1,-2 1,-2 1,-2 1,-2 1,-2 1,-2 1,-2 1,-2 1,-2 1,-2 1,-2 1,-2 1,-2 1,-2 1,-2 1,-2 1,-2 77,34 -1,2 -1,2 -1,2 -1,2 -1,2 -1,2 -1,2 -1,2 -1,2 -1,2 -1,2 -1,2 -1,2 -1,2 -1,2 -1,2 -1,2 -1,2 -1,2 -1,2 -1,2 -1,2 -1,2 -1,2 -1,2 -1,2 -1,2 -1,2 -1,2 -1,2 -1,2 -1,2 -62,23 43,-73 z m 19,50 -17,49 -45,-26 z" />
   </g>
   <g
   id="g5657">
    <path
   class="fil6"
   d="m 22462,11468 c -136,-124 -715,-194 -712,124 1,120 22,235 180,219 71,-17 178,-182 178,-97 3,292 -594,224 -395,-262 0,-41 -289,-119 -359,-112 -670,61 -146,723 -43,324 27,2 58,10 58,34 -148,446 -526,28 -393,-257 -63,-266 -937,16 -507,364 9,0 172,-194 173,-78 -178,429 -629,-115 -229,-373 260,-152 388,-89 641,-11 404,-181 474,-49 716,40 91,-94 491,-182 737,12 -3,27 -39,50 -47,73 z"
   id="path5653" />
    <path
   id="path5655"
   class="fil7"
   d="m 21708,11592 v 0 l 2,-34 6,-32 9,-30 13,-27 16,-25 19,-22 22,-20 24,-17 25,-15 27,-13 28,-10 29,-9 30,-7 31,-5 31,-4 32,-2 32,-1 32,1 32,2 32,3 32,4 31,5 30,6 30,7 28,8 27,9 26,10 24,10 23,11 21,12 19,13 17,14 -57,63 -11,-9 -14,-9 -16,-9 -18,-9 -21,-9 -22,-8 -24,-8 -25,-7 -27,-6 -27,-6 -28,-5 -29,-4 -29,-3 -29,-2 -29,-1 -29,1 -28,2 -27,3 -26,4 -25,6 -24,7 -22,8 -20,9 -18,11 -16,12 -14,13 -12,14 -10,15 -8,17 -6,19 -4,21 -1,24 v 0 l -85,1 z m 233,260 -6,1 -16,1 h -16 -15 l -15,-1 -14,-2 -14,-3 -13,-4 -13,-5 -12,-6 -11,-6 -10,-7 -10,-8 -9,-9 -8,-9 -7,-10 -7,-10 -6,-10 -5,-11 -5,-11 -4,-11 -3,-11 -3,-11 -3,-11 -2,-12 -2,-12 -1,-12 -1,-12 -1,-12 -1,-12 v -12 -12 -12 l 85,-1 v 11 11 10 l 1,10 1,10 1,10 1,9 1,9 2,9 2,8 2,8 2,8 3,7 3,7 3,6 3,6 3,5 4,5 4,4 4,4 4,4 5,3 5,3 6,3 6,2 7,2 8,2 9,1 10,1 h 11 11 l 12,-1 -6,1 20,82 z m 0,0 -3,1 h -3 z m 126,-138 v 0 -3 0 l 1,3 4,7 9,7 11,4 h 8 l 4,-1 h 1 l -1,1 -3,2 -4,3 -5,4 -5,5 -6,5 -6,6 -7,6 -7,6 -7,7 -7,7 -8,7 -8,7 -8,7 -8,7 -8,7 -9,6 -9,6 -9,6 -9,5 -10,5 -10,4 -11,3 -20,-82 3,-1 4,-1 5,-2 5,-3 6,-4 6,-4 6,-5 7,-5 7,-6 7,-6 7,-6 7,-7 7,-7 7,-7 7,-7 7,-6 7,-6 7,-6 7,-6 7,-6 7,-5 7,-5 8,-5 10,-4 12,-3 h 15 l 17,6 14,12 9,13 4,12 2,11 1,11 v 0 z m -310,-263 -3,16 -15,42 -11,39 -7,36 -4,33 v 30 l 3,28 5,25 8,23 10,21 11,19 13,17 15,15 16,13 17,11 18,9 19,7 20,5 20,4 20,2 h 20 l 19,-2 18,-4 17,-5 16,-7 14,-9 13,-10 11,-11 9,-13 8,-14 6,-16 4,-18 1,-21 85,-1 -2,32 -6,30 -10,28 -13,25 -17,23 -19,20 -22,17 -23,14 -25,11 -26,8 -27,6 -27,3 h -28 l -28,-2 -28,-5 -27,-8 -27,-10 -26,-13 -25,-16 -23,-19 -21,-21 -19,-24 -17,-27 -14,-30 -11,-32 -7,-35 -4,-37 v -39 l 4,-41 9,-43 13,-45 17,-47 -3,16 85,-1 z m 0,0 v 9 l -3,8 3,-16 z m -405,-154 v 0 l 10,-1 h 11 l 11,1 12,1 12,1 13,2 14,2 14,3 15,3 15,3 15,3 16,4 16,4 16,4 16,4 16,5 16,5 15,5 15,5 15,5 14,5 13,5 13,5 12,5 11,6 11,6 10,6 9,7 9,8 9,10 8,14 4,20 -85,1 2,12 3,5 1,1 -2,-1 -4,-3 -6,-3 -7,-4 -9,-4 -10,-4 -11,-5 -12,-5 -13,-5 -13,-5 -14,-5 -14,-4 -15,-4 -15,-4 -15,-4 -15,-4 -15,-4 -15,-3 -14,-3 -14,-3 -13,-3 -13,-2 -12,-2 -11,-2 -10,-1 -9,-1 h -8 -6 -4 v 0 l -8,-84 z m 8,84 v 0 0 h 1 z m -51,324 44,-32 -12,39 -15,34 -19,29 -22,23 -25,18 -27,12 -28,5 -28,-1 -27,-6 -26,-10 -24,-14 -22,-17 -21,-20 -19,-22 -17,-24 -14,-26 -12,-28 -9,-29 -6,-30 -2,-31 2,-32 7,-32 12,-31 17,-30 23,-29 28,-26 33,-24 39,-21 44,-18 50,-15 56,-11 62,-8 8,84 -56,7 -49,10 -43,12 -36,15 -30,16 -24,17 -19,18 -15,19 -11,19 -7,19 -4,20 -1,20 1,21 4,21 6,20 8,20 10,19 12,17 13,15 14,13 14,11 14,8 14,6 13,3 h 11 l 10,-2 10,-4 10,-7 11,-12 11,-17 11,-23 9,-30 44,-32 -6,84 z m -38,-53 9,-34 35,3 -44,32 z m 59,31 -2,14 v 1 1 1 1 l 1,2 1,1 1,1 1,1 1,1 1,1 v 0 0 0 0 0 0 h -1 -1 -1 -1 -1 -1 -1 -2 -2 -2 -2 -2 -2 -2 -2 -2 l 6,-84 h 3 3 3 3 3 l 3,1 3,1 3,1 3,1 3,1 3,1 3,1 4,1 3,1 4,1 4,2 4,2 4,2 4,2 4,3 4,3 4,3 3,4 3,4 3,4 3,5 3,5 2,5 2,5 1,6 1,6 v 6 l -2,14 -80,-27 z m 83,13 v 7 l -2,7 z m -394,-266 -3,28 -9,23 -7,24 -5,24 -2,25 v 25 l 2,25 4,25 5,24 7,24 9,23 10,22 12,21 13,20 14,18 14,16 15,14 15,12 15,10 15,8 15,5 15,3 14,1 14,-1 14,-4 14,-6 14,-9 15,-13 15,-17 15,-22 15,-26 14,-31 14,-37 80,27 -16,42 -17,38 -19,33 -20,29 -22,25 -24,21 -25,16 -26,12 -27,7 -27,3 -27,-2 -26,-6 -25,-9 -24,-12 -23,-15 -22,-17 -20,-19 -19,-21 -18,-23 -16,-25 -14,-26 -13,-28 -11,-29 -9,-30 -7,-30 -5,-31 -2,-32 v -32 l 3,-32 6,-32 9,-32 13,-31 -3,28 82,-20 z m 0,0 3,14 -6,13 3,-28 z m -548,416 -27,-9 -40,-35 -33,-35 -26,-36 -19,-36 -12,-37 -5,-37 1,-36 8,-34 13,-32 18,-30 22,-28 25,-25 28,-23 30,-21 32,-19 34,-17 35,-15 36,-13 37,-11 37,-9 37,-7 37,-4 36,-2 36,1 34,4 33,7 31,10 29,14 26,19 22,23 17,28 11,32 -82,20 -5,-15 -8,-12 -11,-11 -14,-10 -18,-9 -21,-7 -24,-5 -27,-3 -29,-1 -31,1 -32,4 -32,6 -33,8 -32,10 -32,11 -31,13 -29,15 -27,16 -25,17 -22,18 -19,19 -15,20 -12,20 -8,20 -5,20 -1,21 3,22 8,23 13,25 19,27 26,28 34,30 -27,-9 1,85 z m 0,0 h -15 l -12,-10 27,9 z m 134,-136 -3,17 v -6 -3 1 l 2,3 5,5 6,3 5,1 h 3 v 0 l -2,1 -4,2 -5,3 -6,3 -6,4 -7,5 -7,5 -7,6 -7,6 -7,6 -7,7 -7,7 -7,7 -7,6 -6,6 -6,6 -6,5 -5,5 -5,5 -4,4 -5,4 -7,5 -23,7 -1,-85 -21,6 -2,2 1,-1 3,-3 4,-4 5,-5 5,-5 6,-6 7,-6 7,-7 7,-7 8,-7 8,-7 8,-7 8,-7 9,-7 9,-7 9,-7 9,-6 9,-6 10,-5 10,-5 11,-4 12,-2 h 14 l 16,3 15,8 12,12 8,14 5,14 2,14 1,14 -3,17 -78,-32 z m 81,16 v 9 l -3,8 z m -250,-336 2,-1 -32,23 -27,24 -23,24 -19,25 -15,25 -11,26 -8,26 -5,26 -2,26 v 25 l 3,25 5,24 8,23 10,22 11,21 13,19 14,17 15,15 16,13 16,10 16,8 16,5 16,3 h 16 l 16,-3 16,-6 16,-9 17,-13 17,-18 17,-23 17,-28 16,-34 78,32 -19,41 -21,36 -23,31 -25,26 -27,21 -28,16 -29,10 -30,5 h -30 l -29,-5 -28,-9 -26,-12 -25,-16 -23,-19 -21,-21 -19,-24 -17,-26 -15,-28 -13,-29 -10,-31 -7,-32 -4,-33 -1,-34 3,-35 7,-35 11,-35 15,-34 20,-33 24,-32 29,-31 33,-29 38,-27 2,-1 z m -44,-72 1,-1 h 1 z m 681,63 -30,2 -24,-7 -23,-7 -22,-7 -21,-7 -21,-6 -20,-6 -20,-6 -19,-5 -19,-5 -18,-5 -18,-4 -17,-4 -17,-3 -17,-3 -17,-2 -16,-1 -16,-1 h -16 l -16,1 -17,1 -17,2 -17,3 -17,4 -18,4 -18,5 -19,6 -19,7 -20,8 -21,10 -21,11 -22,12 -23,13 -43,-73 25,-14 24,-13 24,-12 23,-11 23,-10 22,-8 22,-7 22,-6 21,-5 21,-4 21,-3 20,-2 20,-1 20,-1 h 20 l 20,1 20,2 19,2 19,3 19,4 19,4 19,5 20,5 20,5 20,6 20,6 21,6 21,7 21,7 22,7 23,7 23,7 -30,2 35,77 z m 0,0 -15,7 -15,-5 z m 729,31 -45,10 -23,-9 -22,-9 -21,-9 -20,-9 -20,-9 -19,-9 -18,-9 -18,-8 -17,-8 -17,-8 -16,-7 -16,-7 -16,-6 -16,-5 -16,-5 -16,-4 -17,-3 -17,-2 -18,-2 -19,-1 h -19 l -20,1 -22,2 -23,3 -24,5 -26,6 -27,7 -29,9 -30,11 -32,12 -34,14 -36,16 -35,-77 38,-16 36,-15 34,-13 33,-11 31,-10 30,-8 29,-7 28,-5 26,-4 25,-3 24,-1 h 24 l 23,1 22,2 21,3 21,4 20,5 19,6 19,6 19,7 18,7 18,8 18,8 18,8 18,8 18,9 18,9 19,9 19,9 20,8 21,8 21,8 -45,10 61,59 z m 0,0 -19,20 -26,-9 45,-10 z m 665,-23 16,39 -21,-16 -22,-14 -23,-13 -24,-12 -24,-10 -25,-9 -25,-8 -26,-7 -26,-6 -26,-4 -26,-3 -26,-2 -26,-1 h -26 -26 l -25,1 -25,2 -25,3 -24,4 -23,4 -22,5 -22,5 -21,6 -19,6 -18,7 -17,7 -16,7 -14,7 -12,7 -10,7 -9,7 -6,6 -61,-59 12,-12 14,-11 15,-10 16,-10 18,-9 19,-9 20,-8 21,-8 22,-7 23,-7 24,-6 25,-5 26,-5 27,-4 27,-3 28,-2 28,-1 h 29 l 29,1 29,2 29,3 30,4 30,5 29,6 29,8 29,9 29,11 28,12 28,14 27,15 26,17 26,19 16,39 -84,-11 z m 68,-28 19,15 -3,24 z m -44,75 -69,18 2,-5 2,-4 2,-4 2,-4 2,-4 2,-3 2,-3 2,-3 2,-3 2,-3 2,-3 2,-3 2,-2 2,-2 2,-2 2,-2 2,-2 2,-2 2,-2 1,-2 1,-2 1,-2 1,-1 1,-1 1,-1 1,-1 v -1 0 0 0 0 0 l 84,11 -1,5 -1,5 -2,5 -2,5 -2,4 -2,4 -2,4 -2,4 -2,4 -2,3 -2,3 -2,3 -2,3 -2,3 -2,3 -2,3 -2,2 -2,2 -2,2 -2,2 -2,2 -2,2 -1,2 -1,2 -1,1 -1,1 -1,1 -1,1 v 1 0 0 0 l -69,18 57,-63 z m 12,45 -21,62 -48,-44 z" />
   </g>
   <g
   id="g5663">
    <path
   class="fil6"
   d="m 24563,11438 c -167,-98 -668,-159 -666,159 1,120 22,235 180,219 71,-17 178,-182 178,-97 3,292 -594,224 -395,-262 0,-41 -289,-119 -359,-112 -670,61 -146,723 -43,324 27,2 58,10 58,34 -148,446 -526,28 -393,-257 -63,-265 -937,16 -507,364 9,0 172,-194 173,-78 -178,429 -629,-115 -229,-373 260,-152 388,-89 641,-11 404,-181 474,-49 716,40 91,-94 460,-193 671,-19 -10,23 -19,46 -27,69 z"
   id="path5659" />
    <path
   id="path5661"
   class="fil7"
   d="m 23855,11598 v 0 l 1,-33 5,-31 8,-29 11,-27 14,-25 17,-23 19,-20 21,-18 23,-16 24,-13 25,-11 26,-9 27,-8 28,-6 29,-5 29,-3 29,-2 30,-1 30,1 30,2 29,3 29,4 29,4 28,5 27,6 26,7 25,7 24,8 23,9 22,9 20,10 19,10 -43,73 -14,-8 -16,-8 -18,-8 -20,-7 -21,-7 -23,-7 -24,-6 -25,-5 -25,-5 -26,-4 -26,-3 -27,-2 -27,-1 -27,-1 -26,1 -26,2 -25,3 -24,4 -23,5 -22,6 -21,7 -19,9 -18,10 -16,11 -14,12 -12,13 -11,14 -9,16 -7,18 -5,20 -3,22 -1,24 v 0 l -85,1 z m 233,260 -6,1 -16,1 h -16 -15 l -15,-1 -14,-2 -14,-3 -13,-4 -12,-5 -12,-6 -11,-7 -10,-7 -10,-8 -9,-9 -8,-9 -7,-10 -7,-10 -6,-10 -5,-11 -5,-11 -4,-11 -3,-11 -3,-11 -3,-11 -2,-12 -2,-12 -1,-12 -1,-12 -1,-12 -1,-12 v -12 -12 -12 l 85,-1 v 11 11 10 l 1,10 1,10 1,10 1,9 1,9 2,9 2,8 2,8 2,8 3,7 3,7 3,6 3,6 3,5 4,5 4,4 4,4 4,4 5,3 5,3 6,3 6,2 7,2 8,2 9,1 10,1 h 11 11 l 12,-1 -6,1 20,82 z m 0,0 -3,1 h -3 z m 126,-138 v 0 -3 0 l 1,3 4,7 9,7 11,4 h 8 l 4,-1 h 1 l -1,1 -3,2 -4,3 -5,4 -5,5 -6,5 -6,6 -7,6 -7,6 -7,7 -7,7 -8,7 -8,7 -8,7 -8,7 -8,7 -9,6 -9,6 -9,6 -9,5 -10,5 -10,4 -11,3 -20,-82 3,-1 4,-1 4,-2 5,-3 6,-4 6,-4 6,-5 7,-5 7,-6 7,-6 7,-6 7,-7 7,-7 7,-7 7,-7 7,-6 7,-6 7,-6 7,-6 7,-6 7,-5 7,-5 8,-5 10,-4 12,-3 h 15 l 17,6 14,11 9,13 4,12 2,11 1,11 v 0 l -85,1 z m -310,-263 -3,16 -15,42 -11,39 -7,36 -4,33 v 30 l 3,28 5,25 8,23 10,21 11,19 13,17 15,15 16,13 17,11 18,9 19,7 20,6 20,4 20,2 h 20 l 19,-2 18,-4 17,-5 16,-7 14,-9 13,-10 11,-11 9,-13 8,-14 6,-16 4,-18 1,-21 85,-1 -2,32 -6,30 -10,28 -13,25 -17,23 -19,20 -22,17 -23,14 -25,11 -26,8 -27,6 -27,3 h -28 l -28,-2 -28,-5 -27,-8 -27,-10 -26,-13 -25,-16 -23,-19 -21,-21 -19,-24 -17,-27 -14,-30 -11,-32 -7,-35 -4,-37 v -39 l 4,-41 9,-43 13,-45 17,-47 -3,16 85,-1 z m 0,0 v 9 l -3,8 3,-16 z m -405,-154 v 0 l 10,-1 h 11 l 11,1 12,1 12,1 13,2 14,2 14,3 15,3 15,3 15,3 16,4 16,4 16,4 16,4 16,5 16,5 15,5 15,5 15,5 14,5 13,5 13,5 12,5 11,6 11,6 10,6 9,7 9,8 9,10 8,14 4,20 -85,1 2,12 3,5 1,1 -2,-1 -4,-3 -6,-3 -7,-4 -9,-4 -10,-4 -11,-5 -12,-5 -13,-5 -13,-5 -14,-5 -14,-4 -15,-4 -15,-4 -15,-4 -15,-4 -15,-4 -15,-3 -14,-3 -14,-3 -13,-3 -13,-2 -12,-2 -11,-2 -10,-1 -9,-1 h -8 -6 -4 v 0 l -8,-84 z m 8,84 v 0 0 h 1 z m -51,324 44,-32 -12,39 -15,34 -19,29 -22,23 -25,18 -27,12 -28,5 -28,-1 -27,-6 -26,-10 -24,-14 -22,-17 -21,-20 -19,-22 -17,-24 -14,-26 -12,-28 -9,-29 -6,-30 -2,-31 2,-32 7,-32 12,-31 17,-30 23,-29 28,-26 33,-24 39,-21 44,-18 50,-15 56,-11 62,-8 8,84 -56,7 -49,10 -43,12 -36,15 -30,16 -24,17 -19,18 -15,19 -11,19 -7,19 -4,20 -1,20 1,21 4,21 6,20 8,20 10,19 12,17 13,15 14,13 14,11 14,8 14,6 13,3 h 11 l 10,-2 10,-4 10,-7 11,-12 11,-17 11,-23 9,-30 44,-32 -6,84 z m -38,-53 9,-34 35,3 -44,32 z m 59,31 -2,14 v 1 1 1 1 l 1,2 1,1 1,1 1,1 1,1 1,1 v 0 0 0 0 0 0 h -1 -1 -1 -1 -1 -1 -1 -2 -2 -2 -2 -2 -2 -2 -2 -2 l 6,-84 h 3 3 3 3 3 l 3,1 3,1 3,1 3,1 3,1 3,1 3,1 4,1 3,1 4,1 4,2 4,2 4,2 4,2 4,3 4,3 4,3 3,4 3,4 3,4 3,5 3,5 2,5 2,5 1,6 1,6 v 6 l -2,14 -80,-27 z m 83,13 v 7 l -2,7 z m -394,-266 -3,28 -9,23 -7,24 -5,24 -2,25 v 25 l 2,25 4,25 5,24 7,24 9,23 10,22 12,21 13,20 14,18 14,16 15,14 15,12 15,10 15,8 15,5 15,3 14,1 14,-1 14,-4 14,-6 14,-9 15,-13 15,-17 15,-22 15,-26 14,-31 14,-37 80,27 -16,42 -17,38 -19,33 -20,29 -22,25 -24,21 -25,16 -26,12 -27,7 -27,3 -27,-2 -26,-6 -25,-9 -24,-12 -23,-15 -22,-17 -20,-19 -19,-21 -18,-23 -16,-25 -14,-26 -13,-28 -11,-29 -9,-30 -7,-30 -5,-31 -2,-32 v -32 l 3,-32 6,-32 9,-32 13,-31 -3,28 82,-20 z m 0,0 3,14 -6,13 3,-28 z m -548,416 -27,-9 -40,-35 -33,-35 -26,-36 -19,-36 -12,-37 -5,-37 1,-36 8,-34 13,-32 18,-30 22,-28 25,-25 28,-23 30,-21 32,-19 34,-17 35,-15 36,-13 37,-11 37,-9 37,-7 37,-4 36,-2 36,1 34,4 33,7 31,10 29,14 26,19 22,23 17,28 11,32 -82,20 -5,-15 -8,-12 -11,-11 -14,-10 -18,-9 -21,-7 -24,-5 -27,-3 -29,-1 -31,1 -32,4 -32,6 -33,8 -32,10 -32,11 -31,13 -29,15 -27,16 -25,17 -22,18 -19,19 -15,20 -12,20 -8,20 -4,20 -1,21 3,22 8,23 13,25 19,27 26,28 34,30 -27,-9 1,85 z m 0,0 h -15 l -12,-10 27,9 z m 134,-136 -3,17 v -6 -3 1 l 2,3 5,5 6,3 5,1 h 3 v 0 l -2,1 -4,2 -5,3 -6,3 -6,4 -7,5 -7,5 -7,6 -7,6 -7,6 -7,7 -7,7 -7,7 -7,6 -6,6 -6,6 -6,5 -5,5 -5,5 -4,4 -5,4 -7,5 -23,7 -1,-85 -21,6 -2,2 1,-1 3,-3 4,-4 5,-5 5,-5 6,-6 7,-6 7,-7 7,-7 8,-7 8,-7 8,-7 8,-7 9,-7 9,-7 9,-7 9,-6 9,-6 10,-5 10,-5 11,-4 12,-2 h 14 l 16,3 15,8 12,12 8,14 5,14 2,14 1,14 -3,17 -78,-32 z m 81,16 v 9 l -3,8 z m -250,-336 2,-1 -32,23 -27,24 -23,24 -19,25 -15,25 -11,26 -8,26 -5,26 -2,26 v 25 l 3,25 5,24 8,23 10,22 11,21 13,19 14,17 15,15 16,13 16,10 16,8 16,5 16,3 h 16 l 16,-3 16,-6 16,-9 17,-13 17,-18 17,-23 17,-28 16,-34 78,32 -19,41 -21,36 -23,31 -25,26 -27,21 -28,16 -29,10 -30,5 h -30 l -29,-5 -28,-9 -26,-12 -25,-16 -23,-19 -21,-21 -19,-24 -17,-26 -15,-28 -13,-29 -10,-31 -7,-32 -4,-33 -1,-34 3,-35 7,-35 11,-35 15,-34 20,-33 24,-32 29,-31 33,-29 38,-27 2,-1 z m -44,-72 1,-1 h 1 z m 681,63 -30,2 -24,-7 -23,-7 -22,-7 -21,-7 -21,-6 -20,-6 -20,-6 -19,-5 -19,-5 -18,-5 -18,-4 -17,-4 -17,-3 -17,-3 -17,-2 -16,-1 -16,-1 h -16 l -16,1 -17,1 -17,2 -17,3 -17,4 -18,4 -18,5 -19,6 -19,7 -20,8 -21,10 -21,11 -22,12 -23,13 -43,-73 25,-14 24,-13 24,-12 23,-11 23,-10 22,-8 22,-7 22,-6 21,-5 21,-4 21,-3 20,-2 20,-1 20,-1 h 20 l 20,1 20,2 19,2 19,3 19,4 19,4 19,5 20,5 20,5 20,6 20,6 21,6 21,7 21,7 22,7 23,7 23,7 -30,2 35,77 z m 0,0 -15,7 -15,-5 z m 729,31 -45,10 -23,-9 -22,-9 -21,-9 -20,-9 -19,-9 -19,-9 -18,-9 -18,-8 -17,-8 -17,-8 -16,-7 -16,-7 -16,-6 -16,-5 -16,-5 -16,-4 -17,-3 -17,-2 -18,-2 -18,-1 h -19 l -20,1 -22,2 -23,3 -24,5 -26,6 -27,7 -29,9 -30,11 -32,12 -34,14 -36,16 -35,-77 38,-16 36,-15 34,-13 33,-11 31,-10 30,-8 29,-7 27,-5 26,-4 25,-3 24,-1 h 24 l 23,1 22,2 21,3 21,4 20,5 19,6 19,6 19,7 18,7 18,8 18,8 18,8 18,8 18,9 18,9 19,9 19,9 20,8 21,8 21,8 -45,10 61,59 z m 0,0 -19,20 -26,-9 45,-10 z m 602,-65 12,50 -18,-14 -19,-12 -19,-11 -20,-10 -21,-9 -21,-8 -22,-6 -22,-5 -23,-4 -23,-3 -23,-2 -23,-1 h -24 l -23,1 -23,1 -23,2 -23,3 -22,4 -22,4 -21,5 -21,5 -20,6 -19,6 -18,7 -17,7 -16,7 -15,7 -13,7 -12,7 -10,7 -9,7 -7,6 -61,-59 12,-11 13,-11 14,-10 16,-10 17,-9 18,-9 19,-9 20,-8 21,-8 22,-7 23,-7 23,-6 24,-5 25,-5 25,-4 26,-3 26,-2 26,-2 27,-1 h 27 l 27,1 27,3 27,4 27,5 27,6 26,8 26,9 25,11 25,12 24,14 23,16 23,17 12,50 -77,-35 z m 66,-15 25,21 -13,29 z m -33,65 -62,23 1,-2 1,-2 1,-2 1,-2 1,-2 1,-2 1,-2 1,-2 1,-2 1,-2 1,-2 1,-2 1,-2 1,-2 1,-2 1,-2 1,-2 1,-2 1,-2 1,-2 1,-2 1,-2 1,-2 1,-2 1,-2 1,-2 1,-2 1,-2 1,-2 1,-2 1,-2 1,-2 77,35 -1,2 -1,2 -1,2 -1,2 -1,2 -1,2 -1,2 -1,2 -1,2 -1,2 -1,2 -1,2 -1,2 -1,2 -1,2 -1,2 -1,2 -1,2 -1,2 -1,2 -1,2 -1,2 -1,2 -1,2 -1,2 -1,2 -1,2 -1,2 -1,2 -1,2 -1,2 -1,2 -62,23 43,-73 z m 19,50 -17,49 -45,-26 z" />
   </g>
   <g
   id="g5669">
    <path
   class="fil6"
   d="m 26619,11438 c -167,-98 -668,-159 -666,159 1,120 22,235 180,219 71,-17 178,-182 178,-97 3,292 -594,224 -395,-262 0,-41 -289,-119 -359,-112 -670,61 -146,723 -43,324 27,2 58,10 58,34 -148,446 -526,28 -393,-257 -63,-265 -937,16 -507,364 9,0 172,-194 173,-78 -178,429 -629,-115 -229,-373 260,-152 388,-89 641,-11 404,-181 474,-49 716,40 91,-94 460,-193 671,-19 -10,23 -19,46 -27,69 z"
   id="path5665" />
    <path
   id="path5667"
   class="fil7"
   d="m 25911,11598 v 0 l 1,-33 5,-31 8,-29 11,-27 14,-25 17,-23 19,-20 21,-18 23,-16 24,-13 25,-11 26,-9 27,-8 28,-6 29,-5 29,-3 29,-2 30,-1 30,1 30,2 29,3 29,4 29,4 28,5 27,6 26,7 25,7 24,8 23,9 22,9 20,10 19,10 -43,73 -14,-8 -16,-8 -18,-8 -20,-7 -21,-7 -23,-7 -24,-6 -25,-5 -25,-5 -26,-4 -26,-3 -27,-2 -27,-1 -27,-1 -26,1 -26,2 -25,3 -24,4 -23,5 -22,6 -21,7 -19,9 -18,10 -16,11 -14,12 -12,13 -11,14 -9,16 -7,18 -5,20 -3,22 -1,24 v 0 l -85,1 z m 233,260 -6,1 -16,1 h -16 -15 l -15,-1 -14,-2 -14,-3 -13,-4 -13,-5 -12,-6 -11,-6 -10,-7 -10,-8 -9,-9 -8,-9 -7,-10 -7,-10 -6,-10 -5,-11 -5,-11 -4,-11 -3,-11 -3,-11 -3,-11 -2,-12 -2,-12 -1,-12 -1,-12 -1,-12 -1,-12 v -12 -12 -12 l 85,-1 v 11 11 10 l 1,10 1,10 1,10 1,9 1,9 2,9 2,8 2,8 2,8 3,7 3,7 3,6 3,6 3,5 4,5 4,4 4,4 4,4 5,3 5,3 6,3 6,2 7,2 8,2 9,1 10,1 h 11 11 l 12,-1 -6,1 20,82 z m 0,0 -3,1 h -3 z m 126,-138 v 0 -3 0 l 1,3 4,7 9,7 11,4 h 8 l 4,-1 h 1 l -1,1 -3,2 -4,3 -5,4 -5,5 -6,5 -6,6 -7,6 -7,6 -7,7 -7,7 -8,7 -8,7 -8,7 -8,7 -8,7 -9,6 -9,6 -9,6 -9,5 -10,5 -10,4 -11,3 -20,-82 3,-1 4,-1 4,-2 5,-3 6,-4 6,-4 6,-5 7,-5 7,-6 7,-6 7,-6 7,-7 7,-7 7,-7 7,-7 7,-6 7,-6 7,-6 7,-6 7,-6 7,-5 7,-5 8,-5 10,-4 12,-3 h 15 l 17,6 14,11 9,13 4,12 2,11 1,11 v 0 l -85,1 z m -310,-263 -3,16 -15,42 -11,39 -7,36 -4,33 v 30 l 3,28 5,25 8,23 10,21 11,19 13,17 15,15 16,13 17,11 18,9 19,7 20,6 20,4 20,2 h 20 l 19,-2 18,-4 17,-5 16,-7 14,-9 13,-10 11,-11 9,-13 8,-14 6,-16 4,-18 1,-21 85,-1 -2,32 -6,30 -10,28 -13,25 -17,23 -19,20 -22,17 -23,14 -25,11 -26,8 -27,6 -27,3 h -28 l -28,-2 -28,-5 -27,-8 -27,-10 -26,-13 -25,-16 -23,-19 -21,-21 -19,-24 -17,-27 -14,-30 -11,-32 -7,-35 -4,-37 v -39 l 4,-41 9,-43 13,-45 17,-47 -3,16 85,-1 z m 0,0 v 9 l -3,8 3,-16 z m -405,-154 v 0 l 10,-1 h 11 l 11,1 12,1 12,1 13,2 14,2 14,3 15,3 15,3 15,3 16,4 16,4 16,4 16,4 16,5 16,5 15,5 15,5 15,5 14,5 13,5 13,5 12,5 11,6 11,6 10,6 9,7 9,8 9,10 8,14 4,20 -85,1 2,12 3,5 1,1 -2,-1 -4,-3 -6,-3 -7,-4 -9,-4 -10,-4 -11,-5 -12,-5 -13,-5 -13,-5 -14,-5 -14,-4 -15,-4 -15,-4 -15,-4 -15,-4 -15,-4 -15,-3 -14,-3 -14,-3 -13,-3 -13,-2 -12,-2 -11,-2 -10,-1 -9,-1 h -8 -6 -4 v 0 l -8,-84 z m 8,84 v 0 0 h 1 z m -51,324 44,-32 -12,39 -15,34 -19,29 -22,23 -25,18 -27,12 -28,5 -28,-1 -27,-6 -26,-10 -24,-14 -22,-17 -21,-20 -19,-22 -17,-24 -14,-26 -12,-28 -9,-29 -6,-30 -2,-31 2,-32 7,-32 12,-31 17,-30 23,-29 28,-26 33,-24 39,-21 44,-18 50,-15 56,-11 62,-8 8,84 -56,7 -49,10 -43,12 -36,15 -30,16 -24,17 -19,18 -15,19 -11,19 -7,19 -4,20 -1,20 1,21 4,21 6,20 8,20 10,19 12,17 13,15 14,13 14,11 14,8 14,6 13,3 h 11 l 10,-2 10,-4 10,-7 11,-12 11,-17 11,-23 9,-30 44,-32 -6,84 z m -38,-53 9,-34 35,3 -44,32 z m 59,31 -2,14 v 1 1 1 1 l 1,2 1,1 1,1 1,1 1,1 1,1 v 0 0 0 0 0 0 h -1 -1 -1 -1 -1 -1 -1 -2 -2 -2 -2 -2 -2 -2 -2 -2 l 6,-84 h 3 3 3 3 3 l 3,1 3,1 3,1 3,1 4,1 3,1 3,1 4,1 3,1 4,1 4,2 4,2 4,2 4,2 4,3 4,3 4,3 3,4 3,4 3,4 3,5 3,5 2,5 2,5 1,6 1,6 v 6 l -2,14 -80,-27 z m 83,13 v 7 l -2,7 z m -394,-266 -3,28 -9,23 -7,24 -5,24 -2,25 v 25 l 2,25 4,25 5,24 7,24 9,23 10,22 12,21 13,20 14,18 14,16 15,14 15,12 15,10 15,8 15,5 15,3 14,1 14,-1 14,-4 14,-6 14,-9 15,-13 15,-17 15,-22 15,-26 14,-31 14,-37 80,27 -16,42 -17,38 -19,33 -20,29 -22,25 -24,21 -25,16 -26,12 -27,7 -27,3 -27,-2 -26,-6 -25,-9 -24,-12 -23,-15 -22,-17 -20,-19 -19,-21 -18,-23 -16,-25 -14,-26 -13,-28 -11,-29 -9,-30 -7,-30 -5,-31 -2,-32 v -32 l 3,-32 6,-32 9,-32 13,-31 -3,28 82,-20 z m 0,0 3,14 -6,13 3,-28 z m -548,416 -27,-9 -40,-35 -33,-35 -26,-36 -19,-36 -12,-37 -5,-37 1,-36 8,-34 13,-32 18,-30 22,-28 25,-25 28,-23 30,-21 32,-19 34,-17 35,-15 36,-13 37,-11 37,-9 37,-7 37,-4 36,-2 36,1 34,4 33,7 31,10 29,14 26,19 22,23 17,28 11,32 -82,20 -5,-15 -8,-12 -11,-11 -14,-10 -18,-9 -21,-7 -24,-5 -27,-3 -29,-1 -31,1 -32,4 -32,6 -33,8 -32,10 -32,11 -31,13 -29,15 -27,16 -25,17 -22,18 -19,19 -15,20 -12,20 -8,20 -4,20 -1,21 3,22 8,23 13,25 19,27 26,28 34,30 -27,-9 1,85 z m 0,0 h -15 l -12,-10 27,9 z m 134,-136 -3,17 v -6 -3 1 l 2,3 5,5 6,3 5,1 h 3 v 0 l -2,1 -4,2 -5,3 -6,3 -6,4 -7,5 -7,5 -7,6 -7,6 -7,6 -7,7 -7,7 -7,7 -7,6 -6,6 -6,6 -6,5 -5,5 -5,5 -4,4 -5,4 -7,5 -23,7 -1,-85 -21,6 -2,2 1,-1 3,-3 4,-4 5,-5 5,-5 6,-6 7,-6 7,-7 7,-7 8,-7 8,-7 8,-7 8,-7 9,-7 9,-7 9,-7 9,-6 9,-6 10,-5 10,-5 11,-4 12,-2 h 14 l 16,3 15,8 12,12 8,14 5,14 2,14 1,14 -3,17 -78,-32 z m 81,16 v 9 l -3,8 z m -250,-336 2,-1 -32,23 -27,24 -23,24 -19,25 -15,25 -11,26 -8,26 -5,26 -2,26 v 25 l 3,25 5,24 8,23 10,22 11,21 13,19 14,17 15,15 16,13 16,10 16,8 16,5 16,3 h 16 l 16,-3 16,-6 16,-9 17,-13 17,-18 17,-23 17,-28 16,-34 78,32 -19,41 -21,36 -23,31 -25,26 -27,21 -28,16 -29,10 -30,5 h -30 l -29,-5 -28,-9 -26,-12 -25,-16 -23,-19 -21,-21 -19,-24 -17,-26 -15,-28 -13,-29 -10,-31 -7,-32 -4,-33 -1,-34 3,-35 7,-35 11,-35 15,-34 20,-33 24,-32 29,-31 33,-29 38,-27 2,-1 z m -44,-72 1,-1 h 1 z m 681,63 -30,2 -24,-7 -23,-7 -22,-7 -21,-7 -21,-6 -20,-6 -20,-6 -19,-5 -19,-5 -18,-5 -18,-4 -17,-4 -17,-3 -17,-3 -17,-2 -16,-1 -16,-1 h -16 l -16,1 -17,1 -17,2 -17,3 -17,4 -18,4 -18,5 -19,6 -19,7 -20,8 -21,10 -21,11 -22,12 -23,13 -43,-73 25,-14 24,-13 24,-12 23,-11 23,-10 22,-8 22,-7 22,-6 21,-5 21,-4 21,-3 20,-2 20,-1 20,-1 h 20 l 20,1 20,2 19,2 19,3 19,4 19,4 19,5 20,5 20,5 20,6 20,6 21,6 21,7 21,7 22,7 23,7 23,7 -30,2 35,77 z m 0,0 -15,7 -15,-5 z m 729,31 -45,10 -23,-9 -22,-9 -21,-9 -20,-9 -20,-9 -19,-9 -18,-9 -18,-8 -17,-8 -17,-8 -16,-7 -16,-7 -16,-6 -16,-5 -16,-5 -16,-4 -17,-3 -17,-2 -18,-2 -19,-1 h -19 l -20,1 -22,2 -23,3 -24,5 -26,6 -27,7 -29,9 -30,11 -32,12 -34,14 -36,16 -35,-77 38,-16 36,-15 34,-13 33,-11 31,-10 30,-8 29,-7 28,-5 26,-4 25,-3 24,-1 h 24 l 23,1 22,2 21,3 21,4 20,5 19,6 19,6 19,7 18,7 18,8 18,8 18,8 18,8 18,9 18,9 19,9 19,9 20,8 21,8 21,8 -45,10 61,59 z m 0,0 -19,20 -26,-9 45,-10 z m 602,-65 12,50 -18,-14 -19,-12 -19,-11 -20,-10 -21,-9 -21,-8 -22,-6 -22,-5 -23,-4 -23,-3 -23,-2 -23,-1 h -24 l -23,1 -23,1 -23,2 -23,3 -22,4 -22,4 -21,5 -21,5 -20,6 -19,6 -18,7 -17,7 -16,7 -15,7 -13,7 -12,7 -10,7 -9,7 -7,6 -61,-59 12,-11 13,-11 14,-10 16,-10 17,-9 18,-9 19,-9 20,-8 21,-8 22,-7 23,-7 23,-6 24,-5 25,-5 25,-4 26,-3 26,-2 26,-2 27,-1 h 27 l 27,1 27,3 27,4 27,5 27,6 26,8 26,9 25,11 25,12 24,14 23,16 23,17 12,50 -77,-34 z m 66,-15 25,20 -13,29 -12,-50 z m -33,65 -62,23 1,-2 1,-2 1,-2 1,-2 1,-2 1,-2 1,-2 1,-2 1,-2 1,-2 1,-2 1,-2 1,-2 1,-2 1,-2 1,-2 1,-2 1,-2 1,-2 1,-2 1,-2 1,-2 1,-2 1,-2 1,-2 1,-2 1,-2 1,-2 1,-2 1,-2 1,-2 1,-2 77,34 -1,2 -1,2 -1,2 -1,2 -1,2 -1,2 -1,2 -1,2 -1,2 -1,2 -1,2 -1,2 -1,2 -1,2 -1,2 -1,2 -1,2 -1,2 -1,2 -1,2 -1,2 -1,2 -1,2 -1,2 -1,2 -1,2 -1,2 -1,2 -1,2 -1,2 -1,2 -1,2 -62,23 43,-73 z m 19,50 -17,49 -45,-26 z" />
   </g>
   <path
   class="fil6 str1"
   d="m 27512,11879 c -32,19 -65,23 -97,16 19,-7 75,-13 97,-16 z m -261,-429 c -174,-246 -931,29 -521,361 9,0 172,-194 173,-78 -178,429 -629,-115 -229,-373 256,-150 399,-83 645,-7 0,10 -24,57 -35,57 l 4,23 -36,18 z"
   id="path5671" />
  </g>
  <g
   id="g5679"
   transform="translate(-471.3217,-7096.01)">
   <path
   class="fil6"
   d="m 27673,11910 c 36,-82 69,-179 70,-217 166,-632 -703,-239 -294,-40 -5,27 -92,79 -122,57 -280,-241 115,-558 419,-404 157,74 133,404 18,604 l -91,-1 z"
   id="path5675" />
   <path
   id="path5677"
   class="fil7"
   d="m 27783,11704 1,-10 v 6 6 l -1,6 -1,6 -1,6 -1,6 -1,6 -1,6 -2,7 -2,7 -2,7 -2,7 -2,7 -2,7 -2,8 -2,8 -3,8 -3,8 -3,8 -3,8 -3,8 -3,8 -3,8 -3,8 -3,8 -3,8 -3,8 -3,8 -3,8 -3,8 -3,8 -4,8 -77,-35 3,-7 3,-8 3,-8 3,-8 3,-8 3,-8 3,-8 3,-8 3,-8 3,-8 3,-8 3,-8 3,-8 3,-7 2,-7 2,-7 2,-7 2,-7 2,-7 2,-6 2,-6 2,-6 1,-6 1,-5 1,-5 1,-5 1,-4 1,-4 1,-4 v -3 -2 -2 l 1,-10 82,22 z m -83,-11 v -5 l 1,-5 z m -293,-47 23,46 -39,-22 -32,-24 -26,-26 -20,-28 -13,-30 -5,-31 2,-31 8,-29 13,-27 17,-24 20,-22 23,-20 26,-18 27,-16 29,-13 30,-11 31,-8 32,-5 32,-2 32,2 32,6 31,11 29,16 27,21 23,26 19,31 14,36 9,40 3,45 -2,49 -7,54 -13,59 -82,-22 12,-53 6,-47 2,-40 -3,-34 -6,-29 -9,-23 -11,-18 -13,-15 -15,-12 -17,-9 -19,-6 -21,-4 -22,-1 -23,1 -24,4 -24,6 -23,8 -22,10 -21,12 -19,13 -16,14 -13,14 -10,14 -7,14 -4,13 -1,12 2,12 5,13 10,14 16,16 23,17 31,17 23,46 -83,-16 z m 60,-30 29,14 -6,32 z m -112,63 -3,-2 -2,-1 -2,-1 h -1 v 0 0 h 1 2 2 l 3,-1 3,-1 3,-1 3,-1 4,-1 4,-2 4,-2 4,-2 4,-2 4,-2 4,-2 3,-2 3,-2 3,-2 3,-2 2,-2 2,-2 2,-2 1,-1 1,-1 v 0 1 l -1,2 -1,4 83,16 -2,9 -3,7 -4,6 -4,6 -4,5 -4,5 -4,5 -5,4 -5,4 -5,4 -5,4 -5,4 -5,4 -6,3 -6,3 -6,3 -6,3 -6,3 -6,3 -6,2 -6,2 -7,2 -7,2 -7,1 -7,1 -7,1 h -8 -8 l -8,-1 -8,-2 -9,-4 -8,-5 -3,-2 55,-64 z m -52,67 -2,-1 -2,-1 3,2 z m 425,-401 -1,-1 -26,-12 -26,-9 -26,-7 -26,-5 -26,-3 -26,-1 -26,1 -26,3 -25,5 -24,7 -24,8 -23,10 -22,11 -20,12 -19,13 -17,14 -16,15 -14,16 -12,16 -10,17 -8,17 -6,17 -4,17 -2,18 v 18 l 3,18 5,18 8,19 11,19 14,20 18,20 22,20 -55,64 -27,-25 -23,-26 -19,-27 -16,-28 -12,-28 -8,-29 -4,-29 -1,-28 3,-28 6,-27 9,-26 12,-25 14,-24 17,-23 19,-21 21,-20 22,-18 24,-17 25,-15 27,-14 28,-12 29,-10 30,-8 31,-6 32,-4 32,-2 32,1 33,3 33,6 33,9 32,12 32,15 -1,-1 -36,77 z m 0,0 v 0 h -1 l 1,1 z m 36,523 -37,21 10,-18 9,-18 9,-19 8,-20 8,-20 7,-21 7,-21 6,-21 5,-21 5,-22 4,-22 3,-22 3,-21 2,-21 1,-21 1,-21 v -20 l -1,-20 -2,-19 -2,-18 -3,-17 -4,-17 -5,-16 -5,-15 -6,-13 -7,-12 -7,-11 -8,-10 -8,-9 -9,-8 -9,-6 -10,-5 36,-77 18,10 17,12 15,13 14,15 12,16 11,17 10,18 8,19 7,20 6,20 5,21 4,22 3,22 2,23 1,23 v 23 l -1,24 -1,24 -2,24 -3,24 -4,24 -5,24 -5,24 -6,24 -7,24 -7,23 -8,23 -9,23 -9,22 -10,22 -11,21 -11,21 -37,21 v -85 z m 36,63 -12,21 h -25 z m -128,21 -38,-60 39,-25 91,1 v 85 l -91,-1 z m 0,0 h -65 l 26,-59 38,60 z" />
  </g>
 </g>
</svg>
