<?xml version="1.0" encoding="UTF-8" standalone="no"?>
<!-- Creator: CorelDRAW 2017 -->

<svg
   xml:space="preserve"
   width="297mm"
   height="210mm"
   version="1.1"
   style="shape-rendering:geometricPrecision; text-rendering:geometricPrecision; image-rendering:optimizeQuality; fill-rule:evenodd; clip-rule:evenodd"
   viewBox="0 0 29700 21000"
   id="svg11170"
   sodipodi:docname="wl11.svg"
   inkscape:version="1.1.1 (3bf5ae0d25, 2021-09-20)"
   xmlns:inkscape="http://www.inkscape.org/namespaces/inkscape"
   xmlns:sodipodi="http://sodipodi.sourceforge.net/DTD/sodipodi-0.dtd"
   xmlns="http://www.w3.org/2000/svg"
   xmlns:svg="http://www.w3.org/2000/svg"><sodipodi:namedview
   id="namedview11172"
   pagecolor="#ffffff"
   bordercolor="#666666"
   borderopacity="1.0"
   inkscape:pageshadow="2"
   inkscape:pageopacity="0.0"
   inkscape:pagecheckerboard="0"
   inkscape:document-units="mm"
   showgrid="false"
   inkscape:zoom="1.0104563"
   inkscape:cx="561.62743"
   inkscape:cy="402.29348"
   inkscape:window-width="1920"
   inkscape:window-height="991"
   inkscape:window-x="-9"
   inkscape:window-y="-9"
   inkscape:window-maximized="1"
   inkscape:current-layer="Warstwa_x0020_1_0" />
 <defs
   id="defs10965">
  <style
   type="text/css"
   id="style10963">
   <![CDATA[
    .str0 {stroke:black;stroke-width:20}
    .str1 {stroke:#FCD5A6;stroke-width:50.8}
    .fil4 {fill:#FEFEFE}
    .fil5 {fill:#FBD9CA}
    .fil2 {fill:#FCD5A6}
    .fil3 {fill:#86755D}
    .fil8 {fill:#F5B3B6}
    .fil6 {fill:#A2DAF7}
    .fil1 {fill:#B0CA1F}
    .fil7 {fill:#63A375}
    .fil0 {fill:#000066}
   ]]>
  </style>
 </defs>
 <g
   id="Warstwa_x0020_1"
   inkscape:label="Warstwa 1">
  <metadata
   id="CorelCorpID_0Corel-Layer" />
  
 </g>
 <g
   id="Warstwa_x0020_1_0"
   inkscape:label="Warstwa 1_0">
  <metadata
   id="CorelCorpID_1Corel-Layer" />
  <g
   id="kwiat">
   <g
   id="g10998">
    <path
   class="fil1"
   d="M15062 14901l-354 -212c-47,-470 -61,-913 -108,-1383 -410,200 -826,6 -1179,-542 165,-247 547,-197 1148,151l-83 -864c-536,212 -1068,113 -1343,-660 441,-150 879,-107 1307,360 -25,-333 -50,-666 -75,-999 -553,164 -943,-50 -1123,-638 312,-151 688,-62 1127,267l-111 -856c-577,165 -963,-27 -1158,-577 299,-135 668,-42 1108,280l3 -322c97,14 189,3 271,-37l100 377c419,-404 785,-526 1098,-367 -162,547 -540,765 -1068,758l139 827c248,-339 606,-622 987,-478 -149,658 -450,987 -973,836l128 867c347,-453 731,-620 1151,-500 -69,663 -421,1013 -1193,895l95 824c344,-391 618,-610 922,-446 -169,642 -404,1082 -880,796l61 1644z"
   id="path10972" />
    <path
   class="fil2"
   d="M14183 7213c319,-65 709,277 693,811 -16,534 -178,817 -496,881 -319,65 -659,-273 -745,-698 -86,-425 230,-929 548,-994z"
   id="path10974" />
    <path
   class="fil3"
   d="M14223 7561c187,-38 417,163 407,477 -9,314 -104,480 -292,518 -187,38 -387,-161 -438,-411 -51,-250 135,-546 322,-584z"
   id="path10976" />
    <path
   class="fil4"
   d="M14225 7803c74,-15 166,65 162,189 -4,125 -41,191 -116,206 -74,15 -154,-64 -174,-163 -20,-99 54,-217 128,-232z"
   id="path10978" />
    <path
   class="fil4"
   d="M15056 8578c56,32 68,118 26,190 -42,72 -122,105 -178,72 -56,-32 -68,-118 -26,-190 42,-72 122,-105 178,-72z"
   id="path10980" />
    <path
   class="fil4"
   d="M15289 8130c72,42 97,135 55,207 -42,72 -135,97 -207,55 -72,-42 -97,-135 -55,-207 42,-72 135,-97 207,-55z"
   id="path10982" />
    <path
   class="fil4"
   d="M15314 7640c72,42 97,135 55,207 -42,72 -135,97 -207,55 -72,-42 -97,-135 -55,-207 42,-72 135,-97 207,-55z"
   id="path10984" />
    <path
   class="fil4"
   d="M14965 7101c72,42 97,135 55,207 -42,72 -135,97 -207,55 -72,-42 -97,-135 -55,-207 42,-72 135,-97 207,-55z"
   id="path10986" />
    <path
   class="fil4"
   d="M14420 6812c72,42 102,126 66,187 -36,61 -123,78 -196,36 -72,-42 -102,-126 -66,-187 36,-61 123,-78 196,-36z"
   id="path10988" />
    <path
   class="fil4"
   d="M13869 6869c72,42 94,139 50,216 -45,78 -140,107 -212,65 -72,-42 -94,-139 -50,-216 45,-78 140,-107 212,-65z"
   id="path10990" />
    <path
   class="fil4"
   d="M13479 7342c72,42 102,126 66,187 -36,61 -123,78 -196,36 -72,-42 -102,-126 -66,-187 36,-61 123,-78 196,-36z"
   id="path10992" />
    <path
   class="fil4"
   d="M13382 7869c72,42 93,141 47,221 -46,80 -143,112 -215,70 -72,-42 -93,-141 -47,-221 46,-80 143,-112 215,-70z"
   id="path10994" />
    <path
   class="fil4"
   d="M13494 8413c72,42 101,128 64,192 -37,64 -126,82 -198,41 -72,-42 -101,-128 -64,-192 37,-64 126,-82 198,-41z"
   id="path10996" />
   </g>
   <g
   id="g11026">
    <path
   class="fil1"
   d="M17180 15051l-206 -358c188,-433 391,-828 579,-1261 -455,-25 -725,-397 -766,-1047 264,-136 574,94 930,690l348 -795c-572,-76 -988,-421 -852,-1230 459,84 820,334 967,950 140,-303 280,-606 420,-909 -563,-126 -799,-502 -671,-1103 346,20 631,280 855,782l320 -802c-585,-136 -829,-492 -732,-1067 327,27 604,289 832,784l160 -280c77,59 163,94 254,100l-96 378c563,-149 942,-78 1138,213 -407,400 -844,406 -1301,143l-280 790c381,-176 832,-249 1095,63 -450,503 -873,644 -1257,257l-309 820c523,-227 940,-186 1249,123 -383,546 -860,680 -1478,201l-318 766c491,-174 836,-232 1022,59 -460,479 -879,749 -1156,268l-746 1466z"
   id="path11000" />
    <path
   class="fil5 str1"
   d="M20151 7906c310,98 485,586 211,1045 -274,459 -552,627 -862,529 -310,-99 -443,-559 -311,-972 131,-413 652,-700 962,-602z"
   id="path11002" />
    <path
   class="fil3"
   d="M20016 8229c182,58 285,345 124,615 -161,270 -325,369 -507,311 -182,-58 -260,-329 -183,-572 77,-243 384,-412 566,-354z"
   id="path11004" />
    <path
   class="fil4"
   d="M19900 8441c72,23 113,137 49,244 -64,107 -129,147 -201,124 -72,-23 -103,-131 -73,-227 31,-96 152,-164 225,-141z"
   id="path11006" />
    <path
   class="fil4"
   d="M20250 9523c33,56 2,136 -70,179 -72,43 -157,32 -190,-23 -33,-56 -2,-136 70,-179 72,-43 157,-32 190,23z"
   id="path11008" />
    <path
   class="fil4"
   d="M20671 9245c43,72 19,165 -52,208 -72,43 -165,19 -208,-52 -43,-72 -19,-165 52,-208 72,-43 165,-19 208,52z"
   id="path11010" />
    <path
   class="fil4"
   d="M20931 8829c43,72 19,165 -52,208 -72,43 -165,19 -208,-52 -43,-72 -19,-165 52,-208 72,-43 165,-19 208,52z"
   id="path11012" />
    <path
   class="fil4"
   d="M20888 8188c43,72 19,165 -52,208 -72,43 -165,19 -208,-52 -43,-72 -19,-165 52,-208 72,-43 165,-19 208,52z"
   id="path11014" />
    <path
   class="fil4"
   d="M20553 7671c43,72 28,160 -33,196 -61,36 -146,8 -188,-64 -43,-72 -28,-160 33,-196 61,-36 146,-8 188,64z"
   id="path11016" />
    <path
   class="fil4"
   d="M20044 7452c43,72 15,167 -62,213 -77,46 -174,25 -217,-47 -43,-72 -15,-167 62,-213 77,-46 174,-25 217,47z"
   id="path11018" />
    <path
   class="fil4"
   d="M19472 7676c43,72 28,160 -33,196 -61,36 -146,8 -188,-64 -43,-72 -28,-160 33,-196 61,-36 146,-8 188,64z"
   id="path11020" />
    <path
   class="fil4"
   d="M19131 8089c43,72 13,169 -67,216 -80,48 -179,28 -222,-44 -43,-72 -13,-169 67,-216 80,-48 179,-28 222,44z"
   id="path11022" />
    <path
   class="fil4"
   d="M18965 8619c43,72 26,161 -38,199 -64,38 -150,11 -193,-61 -43,-72 -26,-161 38,-199 64,-38 150,-11 193,61z"
   id="path11024" />
   </g>
   <path
   class="fil6"
   d="M11067 14785c2374,-49 4873,-275 7177,-174 -173,531 -322,1094 -552,1607l-5814 67c-296,-491 -603,-974 -811,-1500z"
   id="path11028" />
   <path
   class="fil7"
   d="M11739 14966l5871 -94c101,-2 261,44 227,130l-311 811c-33,86 -175,140 -276,142l-4948 138c-101,3 -292,-131 -334,-213l-395 -778c-42,-83 63,-134 164,-136z"
   id="path11030" />
   <path
   class="fil6"
   d="M11067 14784c-104,98 -201,120 -289,233 -81,103 -134,50 -199,226 -90,242 187,228 301,330 114,101 -94,290 -84,454 6,90 746,207 880,249 49,15 116,-21 157,2 109,59 -71,-173 -82,-231 -15,-86 -362,-143 -437,-164 -251,-70 375,-551 -156,-518 -134,8 -251,-225 -142,-306 20,-15 140,-75 51,-274z"
   id="path11032" />
   <path
   class="fil6"
   d="M11844 16276c-79,329 -145,1538 305,756 326,-566 530,516 869,-110 355,-655 596,608 1012,16 361,-513 838,258 952,132 268,-297 305,-627 852,-30 289,315 643,-480 899,-359 104,49 698,822 761,312 149,-1222 1065,-405 1235,-919 73,-223 -636,-635 -120,-666 874,-54 82,-758 -285,-735 -351,22 93,360 98,432 5,73 -464,125 -393,259l273 520 -427 97c-146,33 -103,183 -167,210 -123,53 -161,-4 -202,88 -136,298 -281,412 -302,372 -84,-164 -449,-449 -723,-428 -229,17 -382,520 -563,339 -639,-635 -523,-162 -1076,33 -258,91 -373,-821 -911,-22 -296,439 -445,-846 -1099,34 -175,235 -318,-512 -489,-273 -311,435 -271,-143 -498,-59z"
   id="path11034" />
   <g
   id="g11066">
    <path
   class="fil4"
   d="M12301 7577c83,-5 156,66 161,159 6,92 -58,172 -141,177 -83,5 -156,-66 -161,-159 -6,-92 58,-172 141,-177z"
   id="path11036" />
    <path
   class="fil4"
   d="M12744 7841c83,-5 156,66 161,159 6,92 -57,172 -141,177 -83,5 -156,-66 -161,-159 -6,-92 57,-172 141,-177z"
   id="path11038" />
    <path
   class="fil4"
   d="M11932 7970c83,-5 156,66 161,159 6,93 -78,207 -161,212 -83,5 -198,-18 -203,-111 -6,-93 120,-254 203,-260z"
   id="path11040" />
    <path
   class="fil4"
   d="M12382 8167c83,-5 156,66 161,159 6,93 -78,207 -161,212 -83,5 -198,-18 -203,-111 -6,-93 120,-254 203,-260z"
   id="path11042" />
    <path
   class="fil4"
   d="M12466 8679c73,-5 137,58 142,139 5,81 -68,182 -141,186 -73,5 -174,-16 -179,-98 -5,-81 105,-224 178,-228z"
   id="path11044" />
    <path
   class="fil4"
   d="M12493 9327c69,-25 148,17 175,94 28,77 -14,194 -83,219 -69,25 -171,33 -199,-43 -28,-77 38,-244 107,-269z"
   id="path11046" />
    <path
   class="fil4"
   d="M12568 9897c83,-5 156,66 161,159 6,92 -57,172 -141,177 -83,5 -156,-66 -161,-159 -6,-92 57,-172 141,-177z"
   id="path11048" />
    <path
   class="fil4"
   d="M12583 10502c83,-5 156,66 161,159 6,92 -57,172 -141,177 -83,5 -156,-66 -161,-159 -6,-92 57,-172 141,-177z"
   id="path11050" />
    <path
   class="fil4"
   d="M12630 11094c83,-5 156,66 161,159 6,92 -57,172 -141,177 -83,5 -156,-66 -161,-159 -6,-92 57,-172 141,-177z"
   id="path11052" />
    <path
   class="fil4"
   d="M12708 11629c83,-5 156,66 161,159 6,92 -58,172 -141,177 -83,5 -156,-66 -161,-159 -6,-92 57,-172 141,-177z"
   id="path11054" />
    <path
   class="fil4"
   d="M13003 12161c67,-4 125,53 129,127 5,74 -46,138 -113,142 -67,4 -125,-53 -129,-127 -5,-74 46,-138 113,-142z"
   id="path11056" />
    <path
   class="fil4"
   d="M12978 12904c59,-4 110,54 115,128 5,74 -39,137 -98,141 -59,4 -110,-54 -115,-128 -5,-74 39,-137 98,-141z"
   id="path11058" />
    <path
   class="fil4"
   d="M13175 13363c59,-4 111,64 116,150 5,86 -38,160 -97,163 -59,4 -111,-64 -116,-150 -5,-86 38,-160 97,-163z"
   id="path11060" />
    <path
   class="fil4"
   d="M13523 13813c80,-5 150,61 155,148 5,86 -56,161 -136,166 -80,5 -150,-61 -155,-148 -5,-86 56,-161 136,-166z"
   id="path11062" />
    <path
   class="fil4"
   d="M14007 14199c80,-5 150,61 155,148 5,86 -56,161 -136,166 -80,5 -150,-61 -155,-148 -5,-86 56,-161 136,-166z"
   id="path11064" />
   </g>
   <path
   class="fil8"
   d="M13848 15100c39,59 1,135 -86,170 -87,34 -190,14 -229,-45 -39,-59 -1,-135 86,-170 87,-34 190,-14 229,45z"
   id="path11068" />
   <path
   class="fil8"
   d="M13827 15675c40,70 2,160 -84,200 -86,40 -190,15 -230,-56 -40,-70 -2,-160 84,-200 86,-40 190,-15 230,56z"
   id="path11070" />
   <path
   class="fil8"
   d="M13486 15382c33,71 4,160 -66,198 -69,39 -153,12 -186,-58 -33,-71 -4,-160 66,-198 69,-39 153,-12 186,58z"
   id="path11072" />
   <path
   class="fil8"
   d="M12947 15414c38,79 4,178 -77,222 -81,43 -177,14 -216,-64 -38,-79 -4,-178 77,-222 81,-43 177,-14 216,64z"
   id="path11074" />
   <path
   class="fil8"
   d="M12582 15144c38,79 4,178 -77,222 -81,43 -177,14 -216,-64 -38,-79 -4,-178 77,-222 81,-43 177,-14 216,64z"
   id="path11076" />
   <path
   class="fil8"
   d="M12299 15465c38,79 4,178 -77,222 -81,43 -177,14 -216,-64 -38,-79 -4,-178 77,-222 81,-43 177,-14 216,64z"
   id="path11078" />
   <path
   class="fil8"
   d="M12630 15748c42,79 3,178 -86,222 -89,44 -196,15 -238,-63 -42,-79 -3,-178 86,-222 89,-44 196,-15 238,63z"
   id="path11080" />
   <path
   class="fil8"
   d="M14312 15352c42,79 3,178 -86,222 -89,44 -196,15 -238,-63 -42,-79 -3,-178 86,-222 89,-44 196,-15 238,63z"
   id="path11082" />
   <path
   class="fil8"
   d="M15036 15646c37,70 3,160 -77,199 -80,39 -176,14 -213,-57 -37,-70 -3,-160 77,-199 80,-39 176,-14 213,57z"
   id="path11084" />
   <path
   class="fil8"
   d="M14815 15334c37,70 3,160 -77,199 -80,39 -176,14 -213,-57 -37,-70 -3,-160 77,-199 80,-39 176,-14 213,57z"
   id="path11086" />
   <path
   class="fil8"
   d="M15101 15058c37,70 3,160 -77,199 -80,39 -176,14 -213,-57 -37,-70 -3,-160 77,-199 80,-39 176,-14 213,57z"
   id="path11088" />
   <path
   class="fil8"
   d="M15322 15370c37,70 3,160 -77,199 -80,39 -176,14 -213,-57 -37,-70 -3,-160 77,-199 80,-39 176,-14 213,57z"
   id="path11090" />
   <path
   class="fil8"
   d="M15970 15678c37,70 3,160 -77,199 -80,39 -176,14 -213,-57 -37,-70 -3,-160 77,-199 80,-39 176,-14 213,57z"
   id="path11092" />
   <path
   class="fil8"
   d="M15734 15397c30,56 2,128 -62,160 -64,31 -141,11 -171,-45 -30,-56 -2,-128 62,-160 64,-31 141,-11 171,45z"
   id="path11094" />
   <path
   class="fil8"
   d="M16001 15021c36,56 1,128 -77,161 -78,32 -171,13 -207,-43 -36,-56 -1,-128 77,-161 78,-32 171,-13 207,43z"
   id="path11096" />
   <path
   class="fil8"
   d="M16316 15395c36,56 1,128 -77,161 -78,32 -171,13 -207,-43 -36,-56 -1,-128 78,-161 78,-32 171,-13 207,43z"
   id="path11098" />
   <path
   class="fil8"
   d="M16831 15374c36,56 1,128 -77,161 -78,32 -171,13 -207,-43 -36,-56 -1,-128 78,-161 78,-32 171,-13 207,43z"
   id="path11100" />
   <path
   class="fil8"
   d="M17240 15634c37,70 3,159 -75,198 -78,39 -171,14 -208,-56 -37,-70 -3,-159 75,-198 78,-39 171,-14 208,56z"
   id="path11102" />
   <path
   class="fil8"
   d="M17228 15074c37,70 3,159 -75,198 -78,39 -171,14 -208,-56 -37,-70 -3,-159 75,-198 78,-39 171,-14 208,56z"
   id="path11104" />
   <path
   class="fil8"
   d="M17582 15344c37,70 3,159 -75,198 -78,39 -171,14 -208,-56 -37,-70 -3,-159 75,-198 78,-39 171,-14 208,56z"
   id="path11106" />
   <g
   id="g11138">
    <path
   class="fil4"
   d="M16444 7321c-83,5 -146,85 -141,177 6,92 78,164 161,159 83,-5 146,-85 141,-177 -6,-92 -78,-164 -161,-159z"
   id="path11108" />
    <path
   class="fil4"
   d="M16037 7638c-83,5 -146,85 -141,177 6,92 78,164 161,159 83,-5 146,-85 141,-177 -6,-92 -78,-164 -161,-159z"
   id="path11110" />
    <path
   class="fil4"
   d="M16859 7666c-83,5 -146,84 -141,177 6,93 102,196 186,191 83,-5 194,-43 188,-135 -6,-93 -150,-238 -233,-233z"
   id="path11112" />
    <path
   class="fil4"
   d="M16436 7917c-83,5 -146,84 -141,177 6,93 102,196 186,191 83,-5 194,-42 188,-135 -6,-93 -150,-238 -233,-233z"
   id="path11114" />
    <path
   class="fil4"
   d="M16416 8435c-73,5 -129,74 -124,156 5,81 90,172 163,168 73,-5 170,-37 165,-119 -5,-81 -132,-209 -205,-204z"
   id="path11116" />
    <path
   class="fil4"
   d="M16469 9081c-72,-16 -144,35 -162,115 -18,80 38,190 110,207 72,16 174,12 192,-68 18,-80 -68,-238 -139,-254z"
   id="path11118" />
    <path
   class="fil4"
   d="M16465 9656c-83,5 -146,85 -141,177 6,92 78,164 161,159 83,-5 146,-85 141,-177 -6,-92 -78,-164 -161,-159z"
   id="path11120" />
    <path
   class="fil4"
   d="M16525 10259c-83,5 -146,85 -141,177 6,92 78,164 161,159 83,-5 146,-85 141,-177 -6,-92 -78,-164 -161,-159z"
   id="path11122" />
    <path
   class="fil4"
   d="M16550 10852c-83,5 -146,85 -141,177 6,92 78,164 161,159 83,-5 146,-85 141,-177 -6,-92 -78,-164 -161,-159z"
   id="path11124" />
    <path
   class="fil4"
   d="M16538 11392c-83,5 -146,85 -141,177 6,92 78,164 161,159 83,-5 146,-85 141,-177 -6,-92 -78,-164 -161,-159z"
   id="path11126" />
    <path
   class="fil4"
   d="M16312 11957c-67,4 -117,68 -113,142 5,74 63,131 129,127 67,-4 117,-68 113,-142 -5,-74 -63,-131 -129,-127z"
   id="path11128" />
    <path
   class="fil4"
   d="M16428 12691c-59,4 -103,67 -98,141 5,74 56,131 115,128 59,-4 103,-67 98,-141 -5,-74 -56,-131 -115,-128z"
   id="path11130" />
    <path
   class="fil4"
   d="M16289 13171c-59,4 -102,77 -97,163 5,86 57,154 116,150 59,-4 102,-77 97,-163 -5,-86 -57,-154 -116,-150z"
   id="path11132" />
    <path
   class="fil4"
   d="M15999 13661c-80,5 -141,79 -136,166 5,86 75,153 155,148 80,-5 141,-79 136,-166 -5,-86 -75,-153 -155,-148z"
   id="path11134" />
    <path
   class="fil4"
   d="M15566 14103c-80,5 -141,79 -136,166 5,86 75,153 155,148 80,-5 141,-79 136,-166 -5,-86 -75,-153 -155,-148z"
   id="path11136" />
   </g>
   <g
   id="g11166">
    <path
   class="fil1"
   d="M13335 14701l-413 19c-299,-366 -556,-727 -855,-1093 -231,393 -685,462 -1282,200 0,-297 347,-467 1040,-509l-547 -674c-330,473 -827,684 -1484,193 285,-369 673,-575 1288,-423 -205,-264 -410,-527 -615,-791 -370,443 -813,480 -1288,90 176,-298 539,-432 1087,-401l-566 -652c-389,457 -817,511 -1284,160 174,-278 534,-404 1078,-380l-175 -270c88,-42 159,-102 205,-180l292 259c126,-568 363,-873 712,-913 168,545 -27,936 -470,1222l573 612c19,-419 160,-853 558,-944 240,631 171,1071 -349,1235l586 651c38,-569 266,-920 683,-1053 309,591 210,1077 -499,1405l535 634c70,-516 177,-850 521,-881 215,628 261,1125 -293,1150l960 1336z"
   id="path11140" />
    <path
   class="fil2 str1"
   d="M8350 8782c230,-230 744,-162 1026,292 282,454 304,779 74,1009 -230,230 -700,137 -1007,-170 -307,-306 -323,-901 -93,-1131z"
   id="path11142" />
    <path
   class="fil3"
   d="M8575 9050c135,-135 437,-95 603,172 166,267 179,458 44,593 -135,135 -412,80 -592,-100 -180,-180 -190,-530 -55,-665z"
   id="path11144" />
    <path
   class="fil4"
   d="M8711 9250c54,-54 174,-38 240,68 66,106 71,182 17,236 -54,54 -164,32 -235,-40 -72,-72 -75,-211 -22,-264z"
   id="path11146" />
    <path
   class="fil4"
   d="M9832 9436c65,-4 122,61 127,144 5,83 -43,154 -108,158 -65,4 -122,-61 -127,-144 -5,-83 43,-154 108,-158z"
   id="path11148" />
    <path
   class="fil4"
   d="M9779 8934c83,-5 155,59 160,142 5,83 -59,155 -142,160 -83,5 -155,-59 -160,-142 -5,-83 59,-155 142,-160z"
   id="path11150" />
    <path
   class="fil4"
   d="M9528 8512c83,-5 155,59 160,142 5,83 -59,155 -142,160 -83,5 -155,-59 -160,-142 -5,-83 59,-155 142,-160z"
   id="path11152" />
    <path
   class="fil4"
   d="M8940 8256c83,-5 155,59 160,142 5,83 -59,155 -142,160 -83,5 -155,-59 -160,-142 -5,-83 59,-155 142,-160z"
   id="path11154" />
    <path
   class="fil4"
   d="M8326 8316c83,-5 155,48 159,119 4,71 -60,133 -143,138 -83,5 -155,-48 -159,-119 -4,-71 60,-133 143,-138z"
   id="path11156" />
    <path
   class="fil4"
   d="M7898 8669c83,-5 156,64 161,153 6,89 -58,166 -141,172 -83,5 -156,-64 -161,-153 -6,-89 58,-166 141,-172z"
   id="path11158" />
    <path
   class="fil4"
   d="M7835 9279c83,-5 155,48 159,119 4,71 -60,133 -143,138 -83,5 -155,-48 -159,-119 -4,-71 60,-133 143,-138z"
   id="path11160" />
    <path
   class="fil4"
   d="M8045 9771c83,-5 156,66 161,159 6,92 -57,172 -141,177 -83,5 -156,-66 -161,-159 -6,-92 58,-172 141,-177z"
   id="path11162" />
    <path
   class="fil4"
   d="M8440 10163c83,-5 155,51 159,125 5,74 -60,138 -143,144 -83,5 -155,-51 -159,-125 -5,-74 60,-138 143,-144z"
   id="path11164" />
   </g>
  </g>
 </g>
</svg>
