<?xml version="1.0" encoding="UTF-8" standalone="no"?>
<!-- Creator: CorelDRAW 2017 -->

<svg
   xml:space="preserve"
   width="297mm"
   height="210mm"
   version="1.1"
   style="shape-rendering:geometricPrecision; text-rendering:geometricPrecision; image-rendering:optimizeQuality; fill-rule:evenodd; clip-rule:evenodd"
   viewBox="0 0 29700 21000"
   id="svg10748"
   sodipodi:docname="wz12.svg"
   inkscape:version="1.1.1 (3bf5ae0d25, 2021-09-20)"
   xmlns:inkscape="http://www.inkscape.org/namespaces/inkscape"
   xmlns:sodipodi="http://sodipodi.sourceforge.net/DTD/sodipodi-0.dtd"
   xmlns="http://www.w3.org/2000/svg"
   xmlns:svg="http://www.w3.org/2000/svg"><sodipodi:namedview
   id="namedview10750"
   pagecolor="#ffffff"
   bordercolor="#666666"
   borderopacity="1.0"
   inkscape:pageshadow="2"
   inkscape:pageopacity="0.0"
   inkscape:pagecheckerboard="0"
   inkscape:document-units="mm"
   showgrid="false"
   inkscape:zoom="1.0104563"
   inkscape:cx="561.62743"
   inkscape:cy="239.00092"
   inkscape:window-width="1920"
   inkscape:window-height="991"
   inkscape:window-x="-9"
   inkscape:window-y="-9"
   inkscape:window-maximized="1"
   inkscape:current-layer="Warstwa_x0020_1" />
 <defs
   id="defs10541">
  <style
   type="text/css"
   id="style10539">
   <![CDATA[
    .str7 {stroke:#CCCC33;stroke-width:67.73}
    .str3 {stroke:#FF9999;stroke-width:49.06}
    .str8 {stroke:#669966;stroke-width:133.65}
    .str5 {stroke:#009933;stroke-width:98.13}
    .str6 {stroke:#FF99CC;stroke-width:98.13}
    .str11 {stroke:#CCCCFF;stroke-width:98.13}
    .str9 {stroke:#339966;stroke-width:104.06}
    .str2 {stroke:#FFCC00;stroke-width:78.49}
    .str4 {stroke:#669933;stroke-width:78.49}
    .str10 {stroke:#FF9933;stroke-width:147.97}
    .str0 {stroke:#00CCFF;stroke-width:94.53}
    .str1 {stroke:#999933;stroke-width:94.53}
    .str12 {stroke:red;stroke-width:94.53}
    .str13 {stroke:#990000;stroke-width:102.26}
    .fil5 {fill:#009933}
    .fil0 {fill:#00CCFF}
    .fil9 {fill:#339966}
    .fil12 {fill:#33CC99}
    .fil4 {fill:#669933}
    .fil8 {fill:#669966}
    .fil14 {fill:#990000}
    .fil1 {fill:#999933}
    .fil7 {fill:#CCCC33}
    .fil11 {fill:#CCCCFF}
    .fil13 {fill:red}
    .fil10 {fill:#FF9933}
    .fil3 {fill:#FF9999}
    .fil6 {fill:#FF99CC}
    .fil2 {fill:#FFCC00}
   ]]>
  </style>
 </defs>
 <g
   id="Warstwa_x0020_1"
   inkscape:label="Warstwa 1">
  <metadata
   id="CorelCorpID_0Corel-Layer" />
  <path
   class="fil0 str0"
   d="M16695 7044c-73,-104 34,-411 -68,-473 -62,52 -31,163 -25,262 18,311 100,213 -44,466 -45,79 -90,106 -135,170l-239 354c-45,77 -88,118 -124,180 -49,83 -68,120 -119,186 -271,352 -85,447 167,782 131,174 278,324 397,500 40,59 86,114 176,133 -21,-79 -107,-141 -153,-190 -28,-29 -28,-44 -47,-71 -35,-50 -70,-69 -105,-115 -69,-90 -113,-175 -194,-263l-199 -259c-44,-54 -79,-81 -61,-165 156,-74 1166,-13 1450,-11 477,2 340,-81 540,178l601 636c41,47 68,94 112,142 22,25 37,40 47,73 12,43 4,28 8,60l8 43c5,23 141,24 178,25 89,3 52,-40 179,-31 59,4 240,38 299,3 74,-44 1,-83 -42,-89 -17,-2 -60,-1 -82,-1l-426 -11c-61,-24 -243,-269 -311,-334l-461 -487c-31,-30 -44,-45 -77,-76 -42,-39 -60,-38 -41,-116 161,-47 746,10 959,-8 148,-13 339,-5 491,-3 424,6 360,-23 473,141 80,115 316,333 414,449 77,92 154,175 238,253 220,207 55,164 129,360 85,-14 36,-20 69,-94 122,-9 99,36 170,94 53,44 23,9 70,65 57,68 282,316 343,319 42,-76 5,-126 -58,-163 -127,-75 -204,-145 -295,-247 -69,-77 -121,-18 -113,-157 98,-33 350,1 552,-34 -1,-110 -114,-62 -231,-66 -408,-16 -412,90 -682,-234 -114,-138 -330,-313 -445,-452 -42,-50 -121,-115 -128,-179 81,-91 783,-44 933,-39 128,5 947,14 999,-10 89,-162 -275,-86 -389,-85 -177,2 -355,6 -524,10 -175,4 -349,-21 -523,-9 -122,8 -410,31 -522,9 -19,-116 192,-289 261,-390 51,-75 91,-114 146,-192 40,-57 111,-134 156,-183 62,-65 252,-340 318,-357 29,-7 229,20 298,20 122,0 198,40 287,-8 9,-210 -348,14 -456,-88 -83,-79 190,-291 245,-348 109,-114 157,-159 114,-245 -76,11 -90,61 -140,135 -37,55 -70,104 -118,153 -60,60 -76,61 -136,134 -28,35 -60,94 -103,99 -75,9 -70,-17 -74,-283 -1,-49 4,-107 0,-155 -5,-79 -4,-82 -58,-108 -64,64 -24,422 -2,516 49,210 -12,258 -156,400l-649 807c-48,78 -87,81 -208,81 -259,0 -157,-27 -559,-6 -144,8 -1094,21 -1152,5 -9,-81 21,-109 56,-150 84,-97 230,-255 279,-346 60,-111 103,-154 170,-254 80,-119 204,-243 273,-354 73,-119 156,-111 295,-114 77,-1 27,4 73,18 55,17 44,11 108,12 43,1 153,21 177,6 57,-36 18,-102 -57,-110 -106,-11 -287,41 -408,22 -17,-164 114,-197 176,-317 52,-101 191,-209 176,-308 -103,-4 -199,179 -240,261l-214 311c-59,-21 -55,-22 -63,-100 -7,-66 22,-497 -86,-404 -58,50 16,444 31,504 44,175 -76,259 -178,382l-374 490c-52,74 -71,108 -134,171 -222,220 37,307 -568,271 -109,-7 -187,11 -277,-3 -127,-20 -983,41 -1141,-11 -19,-91 44,-154 92,-222 45,-65 67,-125 123,-199 128,-169 405,-633 532,-771 104,-112 469,44 586,-40 -14,-131 -242,-16 -420,-55 -77,-190 371,-462 323,-622 -77,13 -78,62 -123,118l-205 286c-59,75 -39,121 -133,118z"
   id="path10544" />
  <path
   class="fil1 str1"
   d="M17237 3346c-79,0 -159,8 -237,9 -98,0 -173,14 -207,-31 -53,-97 41,-92 93,-151 42,-49 38,-152 -4,-204 -252,70 -129,314 -250,377 -57,24 -204,-6 -292,-5 -96,0 -252,29 -325,-19 -8,-115 62,-92 139,-169 173,-173 70,-281 -61,-162 -103,95 -198,188 -199,365 -1,145 58,177 122,256 62,77 81,160 214,159 129,-180 -164,-191 -171,-330 28,-83 530,-69 577,-43 94,52 52,146 111,245 159,264 298,122 157,-39 -66,-76 -114,-45 -91,-181 147,-53 307,-12 474,-24 105,-7 153,-33 214,31 135,141 73,210 182,326 47,50 140,89 169,-11 65,-225 -231,-136 -174,-320 98,-30 735,-18 751,-12 110,57 147,352 302,383 120,24 116,-126 8,-183 -479,-251 180,-204 358,-190 246,20 297,-51 387,172 48,119 4,84 96,176 50,50 144,100 176,2 21,-67 -66,-131 -101,-161 -77,-65 -139,-34 -132,-153 98,-53 594,-18 795,-24 268,-8 151,388 402,407 152,-156 -110,-234 -122,-373 98,-33 219,-22 345,-18 112,4 273,-42 336,44 29,39 37,84 59,128 25,49 204,352 299,243 137,-273 -338,-186 -224,-374 69,-83 293,34 341,-66 -50,-85 -229,-12 -317,-37 -11,-111 32,-92 98,-149 187,-161 -4,-317 -142,-125 -10,13 -65,106 -70,117 -28,57 -10,92 -52,134 -58,60 -633,32 -677,18 -21,-143 45,-89 107,-182 67,-101 68,-137 17,-229 -89,-6 -104,-1 -137,57 -37,63 -50,77 -78,126 -68,122 -11,236 -187,238 -132,2 -255,-27 -407,-21 -131,5 -273,31 -374,-9 -10,-127 45,-99 109,-170 50,-55 117,-105 84,-179 -92,-124 -172,10 -222,92 -74,123 -33,210 -158,267 -62,28 -250,-16 -353,-15 -92,1 -335,30 -387,-2 -64,-81 45,-121 99,-169 57,-51 122,-128 49,-219 -185,-100 -242,351 -346,396 -7,3 -698,-2 -746,-12 -53,-204 299,-128 84,-435 -217,71 -200,382 -291,427 -57,29 -151,4 -222,4z"
   id="path10546" />
  <path
   class="fil2 str2"
   d="M25714 1835c-21,-52 3,-462 1,-561 -2,-131 30,-144 144,-134 65,6 191,-27 248,22 52,44 7,438 4,535 -4,140 3,150 -136,162 -84,7 -211,23 -262,-24zm924 -678c50,-19 312,-45 372,-10 73,43 23,258 19,342 -5,97 15,324 -42,371 -46,38 -318,27 -366,-2 -20,-64 0,-633 17,-701zm-2676 704c-21,-74 -6,-436 -4,-545 2,-104 32,-156 139,-155 369,5 245,-22 249,578 1,119 -22,140 -136,148 -85,6 -187,4 -248,-27zm1316 6c-24,-72 -5,-431 -5,-550 0,-122 -8,-180 117,-179 82,1 212,-22 254,25 55,60 5,422 12,534 7,122 13,170 -111,177 -74,4 -208,10 -267,-7zm1799 -16c-23,-51 14,-449 17,-549 4,-124 -2,-169 123,-165 126,4 141,-16 260,20 24,87 20,173 9,272 -30,260 78,431 -140,453 -83,8 -212,20 -268,-31zm-2316 5c-41,16 -292,48 -340,8 -35,-30 -22,-300 -20,-364 2,-112 -8,-303 50,-335 25,-14 249,-32 336,11 19,94 0,229 -12,328 -14,117 15,247 -15,353zm-951 -690c1,0 -7,-36 49,-6 46,24 55,103 52,153 -35,667 70,570 -305,575 -202,3 -114,-12 -108,-444 1,-77 -22,-216 34,-256 59,-42 218,-4 278,-21zm1020 683c-23,-62 6,-441 5,-547 -1,-146 15,-159 149,-157 68,1 178,-31 227,30 49,60 4,444 6,550 2,138 -3,134 -135,151 -71,9 -201,1 -252,-27zm1485 -729c77,47 248,-46 276,98 14,71 -17,257 -18,352 -1,98 40,275 -63,301 -58,15 -297,-6 -343,-23l16 -600c10,-117 42,-101 81,-130 -134,-14 -249,-12 -380,-17 -143,-5 -278,13 -408,4l-753 9c-125,18 -280,-10 -392,2 -247,27 -1153,0 -1186,18 -4,133 183,-15 285,67 42,83 -7,240 -11,341 -4,129 25,263 -37,335 -88,19 -285,-58 -226,60 43,30 66,20 129,17l447 -11c173,15 400,-8 579,-15 196,-7 425,-14 619,-3 91,5 217,-17 288,-10 73,7 227,15 299,7l1043 -10c65,1 63,14 140,9 195,-14 390,4 591,4 105,0 201,-9 296,-10 76,-1 180,58 192,-22 13,-90 -160,-47 -221,-56 -27,-81 4,-356 2,-519 0,-25 -3,-60 -1,-84 14,-158 177,-27 249,-99 -23,-76 -55,-54 -126,-47 -64,6 -130,-1 -194,4 -127,9 -246,8 -379,13 -189,7 -397,-6 -590,6l-155 -6c-2,0 -8,-9 -47,16z"
   id="path10548" />
  <path
   class="fil3 str3"
   d="M27068 4418c-134,-24 -35,169 -86,261 -37,24 -271,42 -313,13 -34,-28 -20,1 -29,-58 -13,-90 35,-179 -53,-194 -58,83 17,152 -43,235 -58,26 -298,30 -341,4 -39,-37 7,-189 -29,-266 -125,-5 1,151 -84,270 -43,7 -335,26 -364,-6 -56,-104 46,-224 -67,-228 -51,83 29,152 -31,239 -28,12 -323,9 -346,0 -47,-84 5,-146 -31,-218 -98,3 -25,122 -59,216 -58,19 -268,19 -344,10 -37,-97 -1,-123 -13,-177 -17,-72 11,-24 -34,-48 -38,22 -14,-13 -29,37 -15,51 36,121 -8,167 -41,26 -330,28 -355,14l-17 -42c-10,-71 29,-94 -13,-166 -116,17 -10,139 -66,199 -39,27 -268,38 -327,9 -47,-91 38,-170 -57,-203 -63,48 -13,99 -29,188 -75,35 -283,52 -351,-1 -32,-99 50,-197 -75,-211 -64,104 -2,95 -23,214 -166,63 -299,-39 -317,31 -29,113 166,5 329,53 27,131 -62,249 44,286 90,-62 -4,-177 52,-277 61,-48 271,-27 343,2 9,69 -8,207 4,238 21,57 11,29 51,32 67,-87 -63,-274 85,-290l245 0c125,58 -40,249 78,292 46,-38 38,-71 32,-143 -7,-77 -19,-110 27,-141 37,-21 265,-24 319,-10 71,120 -23,197 58,257 24,-16 35,15 29,-120 -3,-69 -11,-79 17,-137 36,-11 325,5 344,13 40,97 -25,171 31,252 38,-14 45,28 45,-157 0,-92 4,-137 101,-120 127,22 144,0 252,4 52,110 -7,237 70,268 77,-79 -21,-178 49,-265 18,-9 319,-12 350,0 75,116 -47,264 94,271 60,-190 -125,-292 178,-268 56,4 107,0 161,6 106,98 -53,270 93,287 47,-94 -26,-221 45,-277 49,-36 283,-12 333,7 30,141 -61,275 72,272 40,-91 -4,-162 17,-264 82,-58 66,-16 177,-18 107,-1 98,-29 197,11 10,84 -28,269 39,265 89,-6 5,-193 54,-264 82,-51 304,66 247,-73 -30,-35 -196,7 -252,-16 -23,-85 31,-309 -54,-285 -101,29 27,209 -50,274 -33,28 -235,28 -295,26 -143,-4 -41,-170 -79,-283z"
   id="path10550" />
  <path
   class="fil4 str4"
   d="M25503 7464c-62,52 -57,76 -184,177 -244,194 -137,269 -547,-55 -152,-120 -120,-75 -215,11 -60,54 -243,224 -307,228 -109,7 -312,-253 -421,-299 -77,24 -102,103 -160,154 -355,318 -289,118 -482,-30 -13,-10 5,-5 -26,-15 -34,-11 -23,-3 -31,-2 -48,150 95,145 190,250 30,33 28,59 55,96 146,-2 306,-295 423,-340 109,-41 157,73 235,121 212,130 157,300 414,23 92,-99 168,-243 339,-116 40,30 68,41 112,71 54,37 42,51 95,87 56,38 50,28 96,82 177,5 258,-317 459,-343 121,-16 424,328 487,323 58,-5 282,-296 425,-331 98,-24 252,138 346,214 53,42 52,66 85,109 196,21 161,-124 442,-330 102,-75 161,40 245,95 70,46 55,38 102,95 9,11 39,43 50,51 6,4 17,11 26,12 89,15 57,-76 -37,-144 -49,-35 -93,-78 -139,-114 -46,-37 -98,-59 -145,-94 -79,-58 -116,-44 -155,30 -49,94 -36,64 -117,123 -121,87 -194,221 -321,117l-271 -220c-111,-93 -77,-67 -299,99 -104,78 -186,211 -302,151 -176,-91 -324,-311 -469,-286z"
   id="path10552" />
  <g
   id="_1795965941328">
   <path
   class="fil5 str5"
   d="M23091 17305c15,123 241,61 301,21 78,-51 131,-149 233,-175 49,-13 140,1 190,9 85,14 273,181 425,194 108,9 263,-45 321,-96 273,-244 343,-126 563,-27 172,78 85,82 310,70 288,-15 386,-283 625,-161 200,101 300,241 617,179 111,-22 218,-145 257,-164 168,-81 427,136 455,146 124,42 419,70 436,-115 8,-89 -48,-99 -92,-49 -54,62 -22,61 -132,81 -143,26 -196,9 -305,-77 -252,-198 -382,-61 -594,49 -411,214 -536,-294 -937,-121 -171,73 3,56 -287,121 -314,71 -394,-97 -458,-122 -53,-20 -89,-34 -160,-34 -159,0 -213,26 -299,109 -76,74 -46,36 -135,77 -229,104 -323,-6 -456,-85 -114,-68 -356,-132 -476,-5 -210,221 -332,108 -401,174z"
   id="path10554" />
   <path
   class="fil5 str5"
   d="M23099 16275c64,28 104,4 177,20 53,11 87,39 132,64 96,56 145,100 276,116 300,38 309,-184 596,-188 252,-4 362,186 631,155 243,-28 205,-273 600,-162 143,40 332,273 555,204 175,-54 132,-89 234,-158 65,-44 259,-77 351,-50 124,35 342,272 565,166 108,-52 104,-101 252,-141 208,-57 235,53 322,53 70,-109 -67,-202 -254,-165 -131,26 -63,-33 -244,76 -81,48 -135,116 -314,94 -122,-15 -246,-274 -605,-140 -59,22 -95,33 -144,65 -146,95 -227,191 -456,58 -227,-132 -138,-183 -439,-179 -97,1 -86,15 -157,53 -64,34 -86,31 -137,72 -48,39 -63,54 -145,64 -271,31 -428,-195 -650,-157 -302,51 -377,255 -626,179 -88,-27 -88,-10 -145,-66 -108,-106 -434,-211 -374,-33z"
   id="path10556" />
   <path
   class="fil5 str5"
   d="M23093 16776c77,75 439,21 569,29 47,3 86,18 142,19 62,0 79,-15 140,-17 102,-3 207,-1 310,-3l1223 1c208,-1 423,11 632,7l1194 0c98,-1 193,-3 281,-1 112,3 177,49 236,-44 -28,-113 -102,-47 -208,-46l-1531 14c-107,-1 -196,-11 -309,-7 -106,5 -166,-1 -266,-1l-1533 1c-102,1 -199,-6 -295,-6 -87,0 -552,-6 -577,1l-7 52z"
   id="path10558" />
  </g>
  <g
   id="_1795965938768">
   <path
   class="fil6 str6"
   d="M23521 14357c85,-19 135,-75 182,-121 233,-230 284,-77 593,69 107,51 282,-175 406,-173 59,1 157,66 206,95 37,22 66,33 100,55 43,29 36,42 88,65 39,5 176,-155 284,-221 89,-56 108,-23 176,16 61,35 121,52 185,83 55,27 108,85 177,62 7,-2 130,-86 153,-101 182,-119 203,-85 374,-5 370,174 214,39 514,-77 109,-42 221,67 360,144 81,45 124,6 184,-36 38,-27 123,-73 161,-92 59,-29 122,-58 88,-149 -73,-11 -94,39 -149,74 -44,28 -101,47 -159,79 -138,77 -182,-49 -324,-98 -198,-68 -186,32 -339,66 -54,12 -41,3 -82,32 -135,92 -133,17 -252,-30 -143,-56 -166,-123 -328,-30 -89,51 -211,167 -346,100 -57,-28 -120,-122 -306,-159 -91,-18 -87,43 -140,82 -44,33 -96,41 -153,86 -121,97 -223,-21 -322,-73 -243,-128 -174,-10 -481,101 -158,57 -366,-234 -509,-162l-288 178c-83,65 -133,-4 -315,-97 -40,-20 -106,-86 -142,-51 -59,57 44,103 87,121l319 166z"
   id="path10561" />
   <path
   class="fil6 str6"
   d="M27789 13528c54,-122 -104,-180 -197,-215 -163,-63 -163,-106 -316,13 -63,49 -81,39 -146,78 -52,31 -90,69 -173,38 -33,-12 -90,-61 -138,-87 -49,-26 -94,-53 -151,-75 -83,-32 -87,-33 -149,19 -49,41 -91,50 -140,85 -119,84 -174,118 -298,34 -36,-24 -277,-149 -297,-148 -38,2 -225,162 -272,190 -103,62 -179,-43 -307,-108 -238,-120 -146,-82 -295,11 -211,133 -231,147 -379,43 -240,-168 -327,-151 -514,34 -224,222 -360,-246 -627,-121 -35,17 -69,61 -130,95 -41,23 -142,48 -156,83 -36,90 73,73 110,53 49,-26 85,-63 132,-95 173,-118 122,-93 297,-6 123,61 245,150 307,137 104,-22 156,-146 261,-194 86,-39 243,52 325,93 193,96 112,136 289,15 262,-179 132,-180 589,49 115,58 210,-69 272,-129 131,-126 170,-23 301,33 209,88 205,159 303,93 372,-251 245,-243 595,-76 162,77 127,121 306,7 65,-41 77,-28 139,-86 50,-47 78,-63 163,-23 71,33 220,165 296,158z"
   id="path10563" />
   <path
   class="fil6 str6"
   d="M27746 13823l7 -77c-55,-21 -199,4 -270,11 -92,8 -212,1 -308,2 -185,2 -388,5 -576,9 -316,6 -873,-32 -1164,-6l-1702 10c-79,0 -592,-15 -610,-4 -45,30 -27,79 19,91 33,9 115,-5 147,-9 110,-12 186,10 289,4l1166 -8c191,5 397,-33 595,-7 184,24 400,-15 600,-7 205,7 1726,25 1808,-9z"
   id="path10565" />
  </g>
  <g
   id="_1795965938576">
   <path
   class="fil7 str7"
   d="M7329 10684c60,-13 38,7 69,-80 67,-185 41,-255 135,-306 84,30 148,139 143,255 -5,109 -125,205 -69,296 100,-19 60,-87 110,-184 106,-10 127,20 151,110 28,106 2,160 110,147 45,-132 -122,-174 -71,-310l182 -28c-15,-98 -23,-78 -128,-76 -219,4 -197,-19 -264,-120 -37,-55 -59,-63 -48,-147 131,-27 293,59 402,15 -3,-141 -298,-119 -402,-105 -100,14 -145,-14 -241,-124 -133,-151 -221,-179 -349,-300 -28,-26 -269,-192 -335,-186 -56,161 155,154 259,224 323,217 266,235 396,346 162,138 -3,219 -49,350 -25,73 -52,153 -3,222z"
   id="path10568" />
   <path
   class="fil7 str7"
   d="M9197 10575c79,-19 81,-38 94,-133 9,-67 19,-149 48,-197 125,-21 177,78 184,198 8,143 -116,222 -40,329 91,-42 13,-133 111,-220 113,20 109,135 143,230 26,74 13,54 62,67 92,-141 -78,-150 -56,-314 103,-16 132,25 211,-11 7,-118 -170,-67 -299,-106 -67,-20 -215,-199 -153,-255 52,-27 99,-3 172,15 14,4 84,22 92,23 35,4 75,6 91,-21 34,-139 -219,-95 -319,-96 -219,-1 -223,-72 -326,-170 -234,-224 -268,-181 -411,-332 -42,-44 -109,-68 -190,-66 -28,173 75,75 360,305 43,34 92,63 142,99 339,248 1,407 84,655z"
   id="path10570" />
   <path
   class="fil7 str7"
   d="M11113 10033c31,198 -143,346 -71,483 68,-17 44,7 79,-180 33,-176 118,-266 213,-73 28,58 48,101 38,174 -5,39 -37,122 -50,175 -20,82 -32,111 36,147 61,-68 15,-137 54,-246 247,-108 101,239 261,289 52,-100 -57,-117 -24,-273 128,-33 117,49 211,6 -14,-126 -169,-78 -331,-134 -81,-28 -195,-184 -170,-288 153,-29 242,78 375,39 -7,-131 -88,-102 -263,-119 -531,-53 -279,-63 -514,-249 -66,-52 -168,-129 -231,-158 -61,-28 -182,-147 -242,-90 -132,124 199,35 522,405 47,54 54,53 107,94z"
   id="path10572" />
   <path
   class="fil7 str7"
   d="M12195 9566c19,154 143,43 351,245 68,66 285,140 222,351 -23,76 -75,271 -36,336 34,-7 47,41 79,-141 12,-66 11,-142 33,-190 152,-16 189,172 186,219 -5,86 -144,229 -58,329 93,-23 33,-116 75,-233 251,-47 111,352 286,339 82,-117 -78,-178 -78,-324 69,-47 88,-13 107,-92 -141,-121 -198,81 -320,-162 -27,-54 -40,-85 -33,-153 112,-17 191,55 277,0 -7,-110 -108,-81 -313,-97 -249,-20 -346,-260 -513,-339 -99,-47 -196,-175 -266,-87z"
   id="path10574" />
  </g>
  <path
   class="fil0 str0"
   d="M16678 9689c-61,100 -53,190 -50,320 2,103 -39,277 65,299 47,-88 -17,-414 23,-515 92,-19 143,89 272,244 49,59 72,98 115,156 45,61 70,120 153,122 -1,-103 -45,-91 -94,-148 -36,-41 -60,-92 -96,-141 -69,-92 -208,-152 -206,-291 64,-5 174,0 240,4 92,6 146,51 185,-39 -68,-52 -488,-29 -607,-12z"
   id="path10577" />
  <g
   id="_1831515994080">
   <path
   class="fil8 str8"
   d="M9044 1656c-216,-18 -95,-191 -303,-155 -31,197 179,128 195,296 -84,73 -82,24 -182,72 13,186 190,22 362,67 124,33 296,89 275,264 -258,89 -548,-96 -570,124 97,56 508,6 648,0 122,-5 193,8 293,65 84,48 164,88 160,198 -60,29 -776,55 -837,52 -131,-6 -127,-48 -238,18l11 106c107,19 610,18 743,8 143,-10 230,-59 324,-65 145,-9 200,100 306,21 40,-67 -25,-191 -40,-287l15 -737c20,-134 82,-240 -98,-267 -153,408 176,1391 -296,902 -186,-193 -169,-136 -128,-613 11,-130 77,-249 -48,-315 -162,100 -3,497 -90,656 -89,79 -266,-165 -308,-229 -103,-154 60,-328 -56,-462 -95,45 -73,174 -137,282z"
   id="path10579" />
   <path
   class="fil8 str8"
   d="M14253 2202c-139,29 -193,-34 -258,-98 -110,-110 -55,-128 -69,-297 -39,-458 90,-617 -103,-631 -122,202 90,498 -74,715 -64,85 -45,107 -95,187 -171,9 -514,-43 -635,34 48,224 612,-51 974,89 124,48 223,65 187,217 -111,76 -768,7 -963,64 -22,181 316,125 607,118 133,-3 218,-24 336,-37 130,-13 285,38 355,-2 5,-142 -55,-103 -140,-192 -18,-173 69,-1128 -4,-1196 -163,-153 -106,399 -104,446 5,150 31,454 -14,581z"
   id="path10581" />
   <path
   class="fil8 str8"
   d="M10760 1510c151,145 950,-15 1066,30 58,23 186,124 222,161 49,208 -20,912 53,1049 172,5 134,-130 114,-277 -18,-134 -14,-272 -20,-413 -6,-155 -23,-233 -40,-374 -32,-271 82,-124 83,-318 -172,-56 -99,49 -304,74 -208,25 -241,-26 -408,-31 -142,-5 -290,17 -432,15 -142,-2 -301,-47 -335,84z"
   id="path10583" />
   <path
   class="fil8 str8"
   d="M7820 1843c108,191 -46,876 116,993 107,-59 77,-88 73,-224 -3,-92 -2,-187 -17,-279 -121,-757 45,-607 76,-740 24,-104 -82,-91 -148,-53 -228,131 -52,93 -488,68 -92,-5 -183,-21 -264,-26 -91,-6 -204,10 -285,-1 -97,-13 -157,-90 -220,-25 -221,229 820,127 950,178l204 109z"
   id="path10585" />
   <path
   class="fil8 str8"
   d="M6459 1946l-2 108c171,99 477,3 684,37 44,66 23,78 54,126l140 -20c153,347 -101,787 149,793 79,-159 -19,-728 -5,-859 13,-123 61,-88 84,-201 -223,-41 -1,83 -535,55 -165,-8 -410,-64 -567,-39z"
   id="path10587" />
   <path
   class="fil8 str8"
   d="M11382 2103c68,-42 82,-45 183,-32 89,135 9,228 16,393 9,227 20,342 132,354 43,-69 -5,-405 -9,-542 -2,-76 -4,-217 4,-289 15,-139 71,-124 70,-228 -178,-21 -102,192 -389,153 -163,-22 -403,-43 -585,-32 -190,11 -142,98 -105,121l501 -7c105,-12 104,8 163,82 2,3 8,10 10,13 2,3 6,9 10,13z"
   id="path10589" />
   <path
   class="fil8 str8"
   d="M6596 2543c80,157 -299,167 -285,404 185,78 232,-246 449,-281 33,47 55,80 58,160 3,100 -31,116 22,189 160,83 73,-274 74,-352 3,-270 156,-186 176,-354 -105,-1 -158,66 -258,87 -144,31 -672,-108 -548,69 57,81 157,17 278,58l34 18z"
   id="path10591" />
   <path
   class="fil8 str8"
   d="M10573 2372c75,70 225,19 356,70 16,254 -401,218 -254,444 203,-2 321,-502 468,-369 63,110 16,261 47,385 176,5 124,-189 95,-335 -54,-271 36,-197 59,-398 -252,68 90,171 -585,130 -117,-7 -149,-38 -186,72z"
   id="path10593" />
   <path
   class="fil8 str8"
   d="M12887 1342c-94,201 282,133 255,348 -158,51 -245,-43 -274,108 125,74 250,6 368,-11 123,-18 211,97 320,34 -61,-119 -159,-75 -134,-326 15,-154 80,-343 -102,-342 -57,137 36,389 -137,360 -142,-23 -158,-247 -297,-171z"
   id="path10595" />
  </g>
  <g
   id="_1831515996736">
   <path
   class="fil9 str9"
   d="M12595 6500c-162,-12 -38,257 -475,195 -404,-57 -355,-89 -412,-101 -78,-16 -81,27 -38,76 113,129 674,159 832,48 40,-29 121,-153 93,-218z"
   id="path10598" />
   <path
   class="fil9 str9"
   d="M14128 6630c-18,177 355,223 492,232 82,6 188,-43 273,-82 94,-44 173,-74 176,-192 -217,-38 57,124 -461,154 -116,7 -169,31 -269,-15 -74,-34 -142,-91 -210,-98z"
   id="path10600" />
   <path
   class="fil9 str9"
   d="M11187 7161c67,71 112,6 187,-42 41,-26 201,-47 277,-59 209,-32 358,132 493,139 6,-117 -92,-101 -188,-158 -321,-192 -747,-5 -770,121z"
   id="path10602" />
   <path
   class="fil9 str9"
   d="M13723 7213c44,-2 134,-65 211,-84 218,-53 491,-7 670,134 66,52 27,51 122,61 -2,-150 -77,-118 -181,-188 -85,-57 -160,-72 -280,-95 -115,-22 -236,-11 -355,5 -108,15 -237,23 -187,167z"
   id="path10604" />
   <path
   class="fil9 str9"
   d="M12925 6638c66,231 550,238 748,152 176,-76 265,-313 132,-245 -64,33 -76,168 -302,201 -356,53 -330,-80 -578,-109z"
   id="path10606" />
   <path
   class="fil9 str9"
   d="M8674 7155c69,5 305,-225 702,-31 96,47 90,108 199,98 -2,-102 -58,-138 -159,-174 -224,-80 -247,-130 -571,-58 -89,20 -211,43 -171,165z"
   id="path10608" />
   <path
   class="fil9 str9"
   d="M12430 7201c76,-3 351,-258 715,-81 66,32 142,101 216,104 -5,-186 -325,-218 -465,-234 -127,-14 -501,5 -466,211z"
   id="path10610" />
   <path
   class="fil9 str9"
   d="M10840 7162c-2,-166 -434,-328 -698,-214 -61,26 -217,58 -237,116 -17,52 28,69 69,54 46,-16 42,-50 97,-74 159,-69 376,-66 538,0 108,44 138,125 230,117z"
   id="path10612" />
   <path
   class="fil9 str9"
   d="M9856 6692c-62,0 -228,3 -279,-6 -89,-15 -107,-80 -212,-49 -14,149 403,143 511,138 130,-6 175,-32 228,-107 51,-72 118,-148 90,-228 -128,16 -86,252 -338,252z"
   id="path10614" />
   <path
   class="fil9 str9"
   d="M10460 6577c-13,265 913,263 869,-81 -144,8 -46,64 -157,120 -367,187 -617,-44 -713,-39z"
   id="path10616" />
   <path
   class="fil9 str9"
   d="M8501 6592c5,86 168,150 277,113 83,-28 40,-13 127,-23 112,-14 303,-182 292,-292 -108,-9 -122,117 -258,177 -141,61 -296,6 -437,25z"
   id="path10618" />
  </g>
  <g
   id="_1831515995808">
   <path
   class="fil10 str10"
   d="M14175 18417c65,-120 -60,-118 -36,-303 157,-48 345,36 454,96l5 286c116,-43 15,23 73,-92 106,-208 129,-33 339,105 130,86 218,103 215,272 -92,76 -137,67 -232,137 -87,64 -130,126 -261,128 -34,-59 -36,-128 -81,-191 -34,55 -30,102 -32,173 -3,112 29,237 -295,285 -175,26 -141,-89 -152,-150l-25 -89c-157,134 6,291 -227,364 -384,121 -236,-118 -303,-221 -134,34 -98,178 -250,220 -120,33 -297,-36 -357,-91 -15,-190 79,-87 42,-254 -149,10 -127,135 -264,168 -117,28 -241,-61 -282,-152 43,-160 134,-51 87,-195 -130,-40 -116,100 -325,65 -228,-39 -298,-316 -9,-433 164,-66 187,46 383,45 -54,-141 -125,-60 -78,-212 12,-39 178,-281 358,-167 130,82 -10,92 183,140 -40,-198 -80,-38 -80,-224 107,-107 232,-109 411,-76 73,87 122,271 283,261 -39,-112 -377,-353 133,-312 350,29 102,300 320,418zm3240 -643c-12,-232 158,-79 129,-340 -178,7 -170,123 -246,263 -57,106 -223,175 -335,77 -94,-134 148,-103 36,-327 -230,7 -128,487 -519,468 -248,-12 11,-186 -115,-361 -205,13 -84,327 -175,465 -32,49 -131,90 -193,125 -111,63 -96,96 -242,96 -49,-168 149,-427 -82,-392 -146,249 168,482 -284,724 -134,71 -219,-73 -326,-142 -504,-324 -103,-261 -43,-438 -98,-165 -232,43 -357,91 -87,33 -177,6 -264,-23 -100,-34 -122,-43 -134,-147 90,-146 126,-2 128,-193 -170,-56 -233,76 -315,147 -87,76 -259,94 -357,21 -66,-151 60,-102 52,-260 -127,-18 -176,96 -265,172 -114,96 -320,213 -489,209 -67,-210 90,-152 33,-348 -200,-3 -182,296 -284,432 -66,87 -127,71 -210,162 -70,77 -73,139 -232,105 -62,-181 59,-298 -30,-425 -262,69 110,489 -277,684 -165,83 -192,-39 -327,-103 -112,-54 -230,-89 -273,-205 73,-149 151,-34 152,-204 -145,-14 -486,271 -707,-34 40,-168 162,-79 160,-266 -194,-17 -235,229 -565,175 -418,-68 -7,-235 -130,-352 -22,-15 -5,-58 -90,1 -73,51 -106,195 -173,254 -71,63 -463,166 -471,2 -2,-51 14,-40 53,-132 35,-80 8,-121 -82,-128 -37,36 -136,273 -163,339 -49,116 -202,184 -322,118 -55,-119 154,-371 -115,-318 -32,74 -23,198 -41,301 -24,136 -67,147 -75,279 73,36 181,45 250,89 76,49 78,104 183,98 21,-131 -83,-103 -123,-247 277,-350 409,49 520,68 90,16 29,11 81,-15 -48,-191 -136,-22 -132,-239 101,-67 359,-80 476,-58 69,133 37,220 94,319 145,-11 85,-82 88,-183 0,-6 1,-15 2,-20 1,-5 5,-15 5,-19 28,-147 290,-44 336,11 91,109 -1,216 127,259 103,-135 -70,-275 238,-152 228,91 177,80 177,331 142,-26 59,-34 167,-108 44,9 390,181 418,203 15,187 -251,431 -418,444 -70,-118 -1,-167 -167,-142l10 308c-79,87 -134,147 -301,138 -48,-109 -4,-151 -124,-158 -68,131 21,289 -164,333 -158,37 -194,3 -227,-126 -2,-8 -4,-16 -6,-23l-17 -44c-1,-12 -6,-15 -11,-22 -122,30 -85,147 -187,267 -455,65 -309,-12 -342,-285 -289,11 -58,355 -583,132 -1,-189 68,-32 49,-238 -129,-38 -103,-12 -205,33 -84,37 -136,31 -212,52 -8,94 68,254 100,367 42,146 12,274 153,281 118,-193 -66,-199 32,-362 92,-43 142,-18 223,17 307,130 77,469 334,522 55,-78 29,-94 27,-108 -11,-83 3,12 -34,-80 -103,-264 121,-219 300,-221 404,-4 228,444 490,389 67,-232 -171,-129 -76,-365 93,-106 294,-133 410,-53 97,67 209,212 330,180 11,-30 27,42 7,-66 -20,-110 -178,-85 -203,-189 -32,-137 228,-243 329,-229 153,20 223,156 431,127 -3,-190 -117,-100 -258,-190 -13,-183 120,-203 221,-302 90,-89 139,-266 286,-209 30,12 97,82 147,118 286,208 38,326 167,578l97 -3c32,-124 -52,-142 1,-314 504,-69 292,547 533,629 127,-176 -75,-173 41,-400 100,-18 404,58 453,128 81,116 8,358 238,349 54,-237 -147,-130 -70,-359 112,-40 494,-68 596,14 53,43 59,95 150,167 74,59 295,172 189,-26 -54,-101 -237,-61 -226,-209 41,-104 235,-230 382,-190 172,46 257,190 388,137 49,-223 -90,-119 -210,-238 26,-133 138,-176 233,-247 382,-283 185,-239 441,-54 78,56 114,41 148,148 45,142 -73,459 107,507 139,-134 4,-160 60,-345 72,-4 521,170 526,174 168,120 -13,499 220,465 74,-184 -62,-179 13,-330 133,-79 406,-50 477,55 74,109 71,382 235,260 21,-29 47,14 12,-83 -24,-67 -8,-12 -46,-59 -52,-64 -53,-33 -59,-142 98,-75 354,-135 510,-45 132,76 140,248 389,234 -22,-213 -182,-118 -275,-299 30,-138 118,-133 234,-194 161,-86 217,-300 61,-230 -22,10 -39,31 -56,48 -71,68 -43,75 -155,83 -68,-79 -23,-89 -106,-149 -78,61 -76,223 -185,311 -80,64 -324,77 -442,42 -23,-144 55,-109 -9,-231 -180,29 -106,204 -249,258 -111,42 -336,5 -414,-71 13,-201 151,-46 90,-248 -292,-27 -129,320 -756,46 5,-290 160,-78 156,-299 -173,-79 -121,60 -311,57 -137,-2 -197,-98 -236,-193 39,-108 199,-239 316,-260 108,54 124,180 233,125 22,-28 42,50 20,-69 -18,-102 -51,-5 -105,-141 41,-88 194,-249 342,-204 120,37 190,237 327,151 -74,-178 -166,-5 -155,-246 100,-62 270,-118 424,-95 95,115 70,265 225,249 15,-177 -74,-95 -52,-267 74,-61 209,-92 331,-40 159,68 75,151 157,229 13,-19 54,-340 318,-176 185,115 -31,339 158,386 66,-91 -1,-108 59,-167 64,-64 72,11 176,-59 3,-177 -118,-102 -225,-239 21,-84 44,-101 99,-158 93,-97 99,-110 46,-158 -226,-142 -130,486 -729,204z"
   id="path10621" />
   <path
   class="fil10 str10"
   d="M9632 18987c148,36 276,-22 406,-12 140,11 275,68 401,-4l5 -136c-183,-80 -245,9 -455,12 -83,1 -167,2 -250,15 -109,16 -131,12 -108,126z"
   id="path10623" />
   <path
   class="fil10 str10"
   d="M16828 18729c20,5 91,14 113,17 79,12 161,27 230,43 177,41 330,72 345,-139 -175,-89 -156,-66 -372,-46 -130,12 -331,-31 -403,78l88 47z"
   id="path10625" />
   <path
   class="fil10 str10"
   d="M13160 18761c71,98 92,28 377,62 515,61 421,-146 319,-175 -63,-18 -299,51 -458,69 -97,11 -152,-15 -238,44z"
   id="path10627" />
  </g>
  <path
   class="fil0 str0"
   d="M18753 10187c25,-115 -3,-250 -15,-365 -8,-76 8,-66 -62,-68 -32,66 -20,162 -17,238 6,121 -22,171 94,194z"
   id="path10630" />
  <path
   class="fil0 str0"
   d="M18922 9751c17,123 213,278 249,338 24,39 55,127 115,61 54,-59 -114,-169 -152,-210 -45,-50 -62,-58 -95,-91 -59,-61 -25,-71 -118,-98z"
   id="path10632" />
  <g
   id="_1831517843232">
   <path
   class="fil11 str11"
   d="M24182 10722c-186,0 -384,-6 -562,17 -54,7 -90,-1 -140,-3 -48,-1 -83,12 -140,10 -97,-3 -196,-54 -230,46 67,101 383,23 496,28 123,5 98,31 243,2 69,-14 202,-3 278,0 167,6 375,2 542,-10 69,-5 44,8 105,12 41,3 283,-21 402,-13 184,14 335,-16 497,-7 422,24 1168,24 1602,24 89,0 178,-8 267,-3 74,4 208,42 250,-24 45,-69 -23,-128 -99,-112 -98,22 -134,30 -249,33l-1111 -5c-714,-17 -1426,2 -2150,4z"
   id="path10634" />
   <path
   class="fil11 str11"
   d="M27077 11169c96,-107 20,-225 -94,-192 -46,13 -78,66 -61,136 15,62 84,60 154,56z"
   id="path10636" />
   <path
   class="fil11 str11"
   d="M25983 11042c-54,-31 -167,-104 -198,20 -33,131 183,196 198,-20z"
   id="path10638" />
   <path
   class="fil11 str11"
   d="M27541 10563c45,-84 -8,-125 -40,-163 -262,-17 -107,252 40,163z"
   id="path10640" />
   <path
   class="fil11 str11"
   d="M26529 10566c52,-117 -77,-212 -144,-143 -72,75 33,199 144,143z"
   id="path10642" />
   <path
   class="fil11 str11"
   d="M24696 11101c64,115 202,91 185,-23 -19,-124 -160,-97 -185,23z"
   id="path10644" />
   <path
   class="fil11 str11"
   d="M23660 11134c38,25 72,44 144,36 33,-42 84,-122 -12,-157 -91,-33 -141,28 -132,120z"
   id="path10646" />
   <path
   class="fil11 str11"
   d="M23117 10428c-9,42 -12,37 -5,82 20,125 193,77 156,-38 -20,-63 -89,-91 -151,-45z"
   id="path10648" />
   <path
   class="fil11 str11"
   d="M25381 10528c21,-36 25,-54 -1,-105 -20,-39 -38,-47 -87,-50 -142,131 9,247 88,155z"
   id="path10650" />
   <path
   class="fil11 str11"
   d="M24196 10386c-138,65 -70,196 26,180 42,-7 73,-52 65,-95 -6,-36 -50,-71 -91,-85z"
   id="path10652" />
  </g>
  <g
   id="_1831517840640">
   <path
   class="fil12"
   d="M2634 5138c292,36 192,-108 450,80 175,127 136,178 167,427 258,45 273,31 426,171 116,107 258,170 209,411 -217,71 -242,0 -364,0 -1,0 -49,-25 -125,37 61,100 86,67 183,142 39,427 -495,311 -612,327 22,191 271,121 66,392 -158,209 -245,136 -511,121l112 287c301,-321 281,128 463,155 72,-143 -48,-276 -6,-495 33,-174 123,-316 328,-258 110,196 -12,365 141,456 216,-264 -183,-310 75,-819 70,-138 37,-167 190,-190 120,81 117,140 115,312 -3,237 -38,270 84,337 106,-163 15,-365 10,-540 -5,-158 105,-240 128,-503 -301,15 -361,-123 -488,-300 -168,-235 61,-554 -138,-635l-51 353c-156,75 -129,38 -212,-43 -332,-327 -100,-378 -192,-635 -53,-147 1,-55 -82,-97 -39,66 -15,545 -264,278 -107,-115 -163,-287 -328,-339 50,107 120,156 190,244 144,182 43,124 38,325z"
   id="path10655" />
   <path
   class="fil12"
   d="M4519 7024c46,17 594,-115 564,331 -145,97 -127,-23 -196,99 99,175 136,-25 381,38 148,39 193,158 338,193 -32,-193 -129,-168 -163,-303 -55,-218 118,-275 -32,-402 -46,26 -37,-19 -84,118 -30,88 18,46 -52,147 -144,-2 -235,-118 -265,-258 -49,-222 109,-330 -29,-464 -122,82 -47,481 -333,207 -100,-95 -176,-280 -360,-344 56,145 153,191 247,292 193,207 45,189 -16,347z"
   id="path10657" />
   <path
   class="fil12"
   d="M4064 5569c94,82 107,45 191,97 61,38 89,102 165,167 79,68 88,47 115,177 7,33 14,122 25,146 59,135 -10,41 99,80 47,-217 -53,-139 -56,-657 -25,-8 -469,-59 -541,-10z"
   id="path10659" />
   <path
   class="fil12"
   d="M4766 4741c180,172 194,-28 389,192l138 127c84,130 -18,106 118,192 25,-40 63,51 24,-133 -7,-31 -47,-97 -54,-152 -17,-152 61,-145 90,-289 -280,36 -58,132 -498,32 -219,-50 -192,20 -208,32z"
   id="path10661" />
   <path
   class="fil12"
   d="M4434 5105c84,141 52,57 212,99 294,77 232,459 402,523 26,-54 -59,-412 -46,-606 -117,25 -190,55 -309,14 -23,-8 -112,-55 -121,-57 -207,-44 -105,7 -139,28z"
   id="path10663" />
  </g>
  <path
   class="fil0 str0"
   d="M20622 9785c-43,28 -48,34 -41,191 3,61 14,160 74,151 84,-13 -6,-321 -33,-342z"
   id="path10666" />
  <g
   id="_1831517837056">
   <path
   class="fil4 str4"
   d="M27294 7885c-19,107 24,138 125,139 23,-34 77,-83 38,-143 -44,-68 -127,-26 -164,3z"
   id="path10668" />
   <path
   class="fil4 str4"
   d="M25472 7878c-8,78 -13,110 43,149 151,51 168,-275 -43,-149z"
   id="path10670" />
   <path
   class="fil4 str4"
   d="M26526 8004c72,-109 -21,-195 -119,-147 -72,35 -22,182 119,147z"
   id="path10672" />
   <path
   class="fil4 str4"
   d="M27685 7366c-56,101 -11,221 82,167 56,-32 81,-199 -82,-167z"
   id="path10674" />
   <path
   class="fil4 str4"
   d="M25926 7414c3,174 146,124 164,56 13,-51 -4,-102 -53,-107 -44,-4 -85,32 -111,51z"
   id="path10676" />
   <path
   class="fil4 str4"
   d="M24750 8011c21,-65 -1,-88 -37,-124 -215,-3 -60,311 37,124z"
   id="path10678" />
   <path
   class="fil4 str4"
   d="M25139 7446c-27,-49 -45,-72 -114,-72 -146,130 90,262 114,72z"
   id="path10680" />
   <path
   class="fil4 str4"
   d="M23395 7601c127,-6 122,-104 42,-169 -125,4 -118,113 -42,169z"
   id="path10682" />
   <path
   class="fil4 str4"
   d="M26961 7526c76,-97 16,-188 -77,-150 -59,24 -57,153 77,150z"
   id="path10684" />
   <path
   class="fil4 str4"
   d="M23853 8077c24,-53 38,-24 32,-111 -32,-32 -102,-75 -136,-10 -46,90 25,124 104,121z"
   id="path10686" />
   <path
   class="fil4 str4"
   d="M24213 7572c71,37 94,-30 96,-101 -152,-139 -157,46 -96,101z"
   id="path10688" />
  </g>
  <g
   id="_1831517829312">
   <path
   class="fil13 str12"
   d="M17807 13029c-25,-102 16,-272 -23,-364 -215,4 99,449 -150,654 -72,59 -69,141 -176,126 -25,-76 -3,-193 1,-274 4,-72 19,-34 -21,-81 -139,-55 -42,347 -43,424 -1,92 -48,135 -82,194 -41,71 -48,132 -146,131 -20,-100 7,-378 -64,-425 -114,58 13,394 7,490 -7,124 -164,272 -225,388 -262,35 -622,-29 -840,-12 -95,8 -219,-19 -181,84 110,52 999,-30 1065,18 42,31 69,121 101,170 46,71 100,77 99,197 -1,116 -77,424 -26,508 99,0 73,-53 74,-203 0,-77 -10,-185 23,-241 75,-66 238,202 240,276 4,100 -144,385 1,406 60,-90 -15,-245 68,-336 126,-3 213,141 199,264 -10,92 -119,350 -13,414 61,-40 34,-144 46,-229 21,-141 1,-140 131,-157l24 -87c135,-12 406,91 399,-48 -74,-49 -424,-10 -553,-25 -26,-36 -40,-59 -73,-91 -51,-50 -66,-45 -61,-127 108,-16 409,71 362,-54 -75,-61 -360,3 -479,-15 -30,-42 -47,-71 -91,-110 -51,-45 -80,-54 -75,-142 122,-38 233,14 359,-30 -37,-145 -305,-47 -417,-43 -95,4 -98,-42 -144,-101 -47,-62 -107,-83 -88,-182 108,-41 1745,11 2082,19 120,3 237,2 356,3 162,2 166,-24 271,76 89,-33 34,-63 203,-66 95,-2 172,13 271,13 102,1 175,-14 270,-13 97,0 192,12 289,11 157,-1 381,-8 541,4 57,4 67,15 119,18 177,10 341,40 339,-104 -103,-53 -801,-17 -966,-16 -233,2 -850,29 -1032,0 -9,-90 26,-81 69,-147 40,-63 47,-88 132,-91 127,-4 325,62 428,6 64,-158 -240,-12 -376,-87 -2,-78 47,-106 91,-164 52,-69 58,-88 180,-87 87,1 155,2 237,14 88,13 153,21 150,-83 -101,-48 -220,32 -350,-19 -13,-104 185,-258 207,-265 85,-29 343,31 450,10 21,-185 -173,-41 -289,-114 -62,-68 128,-248 190,-258 146,-22 314,48 456,2l0 -82c-83,-45 -134,25 -341,0 -8,-104 81,-156 138,-224 65,-77 160,-108 151,-219 -183,-26 -214,304 -383,313 -101,-140 97,-367 -102,-344 -34,83 15,335 5,454 -8,98 -48,100 -95,150 -69,72 -152,179 -156,2 -2,-99 35,-182 8,-276 -241,-7 62,391 -165,621 -52,53 -80,106 -181,98 -17,-111 29,-244 -30,-312 -45,17 -44,6 -56,70 -5,25 -1,93 2,119 19,169 67,257 -64,390 -61,62 -53,108 -156,105 -26,-116 30,-203 15,-304 -9,-58 -20,-59 -63,-74 -148,78 51,432 -85,595 -28,34 -34,35 -54,65 -144,218 -162,86 -484,111 -92,7 -124,4 -211,-3 -124,-10 -305,12 -451,0 -121,-10 -119,-3 -224,7 -62,6 -139,-14 -207,-20 -170,-14 -1113,41 -1160,-6 -46,-46 30,-102 60,-145 38,-53 59,-121 107,-149 68,-40 334,45 442,7l-3 -67c-102,-59 -185,57 -318,-24 -26,-64 103,-253 181,-273 60,-16 330,59 430,25 -14,-164 -202,-9 -351,-107 -2,-84 174,-270 240,-310 120,-75 306,56 411,10 73,-32 23,5 45,-52 -73,-101 -219,22 -344,-68 -1,-79 44,-93 93,-143 28,-28 99,-119 122,-132 135,-80 358,52 475,-29l0 -51c-86,-47 -220,23 -352,-18 -4,-66 3,-72 39,-112 70,-77 192,-173 185,-248 -172,-64 -197,320 -349,265 -38,-91 15,-241 -22,-350 -143,-11 -49,258 -45,395 3,135 9,127 -68,198 -69,64 -60,106 -170,113z"
   id="path10691" />
   <path
   class="fil13 str12"
   d="M19945 15185c35,-69 -28,-268 22,-395 89,-10 93,18 134,74 41,57 80,77 118,122 8,119 -100,409 14,478 92,-58 41,-282 68,-376 102,-11 83,26 142,93 43,48 88,61 97,143 13,107 -59,358 -13,433l27 3c11,-3 42,20 52,-62 4,-35 -6,-113 -6,-154 -2,-192 38,-146 140,-123l33 -76c111,-4 321,44 350,-71 -4,-4 -3,-27 -67,-39 -49,-9 -61,8 -100,17 -95,21 -132,-6 -242,14 -140,25 -277,-167 -274,-223 154,-36 271,52 293,-102 -198,-51 -332,113 -535,-73 -67,-61 -99,-36 -83,-136 75,-38 172,3 244,8 85,6 127,-100 -23,-104 -124,-4 -200,20 -290,21 -166,2 -85,-90 -199,-105 -19,90 25,72 42,153 25,117 -121,481 56,480z"
   id="path10693" />
   <path
   class="fil13 str12"
   d="M17935 15516c35,160 140,70 74,293 -25,86 -59,284 -18,355l42 2c82,-82 12,-242 71,-362 84,-8 94,22 126,70 52,75 206,282 302,272 24,-93 -88,-134 -141,-196 -46,-53 -34,-48 -94,-92 -46,-34 -62,-36 -61,-108 104,-63 204,12 324,-29 -23,-117 -183,-83 -359,-73 -162,9 -143,-118 -266,-130z"
   id="path10695" />
   <path
   class="fil13 str12"
   d="M21096 15561c-209,1 -199,-97 -296,-91 8,121 118,41 88,283 -15,118 -61,263 40,295 90,-99 -11,-213 54,-330 73,0 152,98 200,149 67,72 84,172 200,148 47,-126 -46,-125 -123,-191 -160,-136 -170,-73 -178,-177 101,-10 199,21 285,-20 29,-168 -131,-66 -268,-66z"
   id="path10697" />
   <path
   class="fil13 str12"
   d="M18368 13903c59,319 324,9 88,-89 -47,25 -61,44 -88,89z"
   id="path10699" />
   <path
   class="fil13 str12"
   d="M16086 14016c84,-86 62,-193 -51,-220 -123,61 -91,215 51,220z"
   id="path10701" />
   <path
   class="fil13 str12"
   d="M19000 13853l-107 -4c-164,267 266,249 107,4z"
   id="path10703" />
   <path
   class="fil13 str12"
   d="M16458 14004c89,9 94,-1 147,-35 0,-242 -271,-201 -147,35z"
   id="path10705" />
   <path
   class="fil13 str12"
   d="M16288 15169c95,-6 135,-70 115,-180 -151,-100 -223,69 -115,180z"
   id="path10707" />
   <path
   class="fil13 str12"
   d="M16040 14810l79 4c85,-85 43,-193 -51,-217 -95,49 -97,138 -29,212z"
   id="path10709" />
   <path
   class="fil13 str12"
   d="M18615 13661c38,39 69,72 157,52 43,-123 25,-199 -122,-173 -34,47 -40,52 -36,120z"
   id="path10711" />
   <path
   class="fil13 str12"
   d="M18863 14678c3,147 80,161 185,83l0 -94c-76,-54 -108,-61 -185,11z"
   id="path10713" />
   <path
   class="fil13 str12"
   d="M18663 15064l99 9c186,-226 -263,-247 -99,-9z"
   id="path10715" />
   <path
   class="fil13 str12"
   d="M16239 13649c69,17 61,12 111,-21 26,-95 19,-167 -78,-181 -70,62 -68,111 -33,202z"
   id="path10717" />
   <path
   class="fil13 str12"
   d="M16430 14716l33 61c133,32 199,-16 126,-140 -90,-27 -134,13 -159,79z"
   id="path10719" />
   <path
   class="fil13 str12"
   d="M17086 15364c-24,47 -48,92 -30,159 64,35 78,32 144,1 23,-101 -27,-153 -114,-161z"
   id="path10721" />
   <path
   class="fil13 str12"
   d="M18390 14749c39,21 63,42 131,30 46,-104 18,-164 -82,-176 -41,40 -53,83 -49,146z"
   id="path10723" />
  </g>
  <g
   id="_1831187041136">
   <path
   class="fil14 str13"
   d="M3077 14240c168,17 127,-152 217,-249 49,-53 111,-42 198,-42 182,1 88,20 183,69 150,-87 188,-86 394,-42 135,29 81,-63 378,-1 25,211 -117,88 -86,234 110,-5 102,-161 174,-233 69,-69 270,-50 345,0 3,136 -75,62 -92,204 124,-29 108,-126 178,-198 56,-57 253,-75 317,-29 12,11 63,4 -18,105l-44 66c-1,4 -1,9 -1,13 0,41 -4,14 12,41 66,-20 51,-19 86,-85 18,-33 41,-100 61,-122 46,-49 216,-60 278,-11 44,107 -81,127 -94,243 89,-1 75,-16 112,-86 23,-43 57,-104 85,-134 54,-58 268,-81 344,-37 10,8 72,16 -39,119 -45,42 -69,56 -67,137 105,-17 132,-153 187,-219 114,-136 390,-99 252,84 -9,12 -43,47 -45,50 -14,20 -10,7 -17,34 -6,27 -2,27 2,39 166,12 38,-364 486,-253 11,164 -131,125 -119,248 123,15 150,-154 210,-223 80,-93 306,-43 399,-12 83,-54 35,-60 183,-53 85,4 147,2 197,54 -10,134 -103,98 -102,219 134,-9 112,-139 193,-226 70,-75 263,-57 355,-21 -5,87 -55,89 -69,160 -17,85 1,50 14,68 92,-48 69,-157 144,-224 54,-48 267,-65 321,-11 57,57 -49,111 -69,220 150,-13 83,-136 182,-218 75,-62 212,-81 303,-14 2,159 -142,113 -104,249l72 -1c94,-51 85,-245 217,-275 73,-17 187,-40 198,48 3,27 13,-2 -3,44 -33,94 -185,80 -137,220 126,14 235,-204 266,-305 65,-211 -285,-426 -225,-268 25,65 130,84 58,158 -64,45 -208,40 -263,-9 -67,-60 -44,-177 -159,-169 -46,102 62,63 7,187l-29 13c-6,2 -156,52 -221,-48 -64,-98 0,-138 -168,-156 21,141 90,60 88,211 -464,124 -327,-277 -497,-201 -22,18 -60,-5 21,83 45,49 61,28 52,118 -77,42 -219,30 -309,13 -41,-57 -132,-329 -223,-174 43,98 115,27 91,182 -331,52 -290,4 -396,-153 -45,-66 -32,-79 -113,-58 12,124 113,92 67,196 -80,42 -225,41 -296,9 -95,-87 0,-219 -182,-207 -6,145 116,98 57,220l-309 21c-48,-65 -78,-225 -175,-226 -43,163 72,49 54,201 -65,45 -209,57 -267,-7 -68,-75 -47,-215 -173,-193 -3,102 134,93 63,228 -86,30 -238,13 -289,-36 -53,-52 -75,-225 -168,-181 -14,27 -27,-39 -6,46 16,65 176,143 24,179 -49,12 -154,21 -197,-8 -54,-80 -112,-254 -233,-240 -22,165 141,86 115,239 -429,126 -357,-251 -535,-200 -10,126 116,29 78,207 -124,32 -251,6 -315,-60 -74,-76 -85,-198 -193,-152 -1,132 168,76 119,227 -466,97 -313,-319 -520,-205 18,110 132,57 101,194 -56,22 -278,38 -329,-7 -68,-59 -60,-210 -196,-205 16,119 151,110 85,194 -46,56 -230,54 -296,22 -67,-46 -47,-45 -71,-131 -11,-41 -8,-56 -42,-74 -66,-36 -64,-3 -86,12 30,96 113,77 97,201l-313 24c-98,-106 -54,-182 -185,-189 22,112 69,45 39,168 -57,22 -259,21 -320,7 -107,-24 -76,-128 -173,-169 23,72 71,82 35,144 -65,53 -242,46 -313,-9 -94,-74 -15,-182 -181,-185 12,93 7,23 54,95 52,79 21,64 18,82 -14,86 -195,35 -275,57 24,135 81,71 205,71 164,-1 48,51 231,3 69,-18 181,-22 252,-5 146,35 317,-16 513,16 62,10 511,-101 400,92 -43,74 -116,34 -125,161z"
   id="path10726" />
   <path
   class="fil14 str13"
   d="M2936 15618l1264 4c161,-3 210,-45 401,-32 261,18 538,21 808,36l861 -12c188,-14 655,30 789,9 81,-13 122,-7 201,-5 114,3 100,-15 188,-31 93,-17 282,28 397,26 173,-2 222,-12 393,15 162,25 202,-54 365,-20 46,9 111,32 162,40 138,22 93,-6 187,-32l400 -8c119,155 189,54 169,-86 -118,-74 -827,-24 -1017,-17 -87,3 -743,32 -792,10 -2,-1 -153,-117 -153,-117 25,-494 8,-231 247,-435 39,-34 54,-51 101,-83 71,-48 76,-26 81,-106 -105,-31 -108,31 -183,97 -63,56 -119,118 -217,107 -113,-342 199,-237 214,-405 -110,-1 -95,54 -202,41 -35,-54 -16,-43 -34,-96 -25,-73 -5,-50 -59,-69 -57,91 35,156 -56,177 -63,15 -72,-62 -177,-46 5,154 93,66 180,146 67,61 65,184 44,280 -186,40 -216,-207 -322,-172 -23,69 23,65 79,112 56,48 66,82 121,117 73,45 95,26 119,120 17,65 17,147 -3,198 -104,39 -251,-127 -336,-223 -53,-59 -40,-88 -134,-76 -12,100 66,92 187,207 134,127 177,135 155,238 -198,48 -807,-60 -966,46 -72,-96 -40,-23 -164,-23 -83,0 -99,-30 -217,-21l-1160 10c-118,-5 -78,-54 -77,-132 -95,-38 -72,25 -109,-69 -76,-196 111,-226 185,-279 53,-38 46,-36 103,-60 69,-30 73,-16 85,-88 -147,-78 -158,202 -367,148 -44,-308 150,-171 209,-311 -105,-61 -63,52 -202,6l-11 -216c-97,14 -41,86 -96,191 -137,22 -100,-69 -200,-32 -3,150 302,71 220,381 -125,39 -202,-84 -259,-141 -49,-49 -53,-39 -108,-22 23,70 -11,13 51,63l190 157c74,44 79,20 118,103 27,57 52,126 12,189 -117,129 -449,-265 -449,-266 -26,-16 -157,-18 61,144 141,105 177,123 176,224l-1546 8c-139,-3 -379,36 -493,-2 -20,-128 188,-222 296,-269 83,-36 90,-28 106,-104 -185,6 -314,242 -497,264 -31,4 -17,-3 -50,5 -57,14 1,-4 -39,17 -157,84 -182,-10 -286,-82 -181,-124 -141,-199 -256,-163 -5,103 70,92 148,144 86,57 240,199 28,197 -48,0 -70,-12 -114,-16 -84,-8 -148,4 -150,77 81,51 194,4 299,2 132,-3 254,-11 386,-11 139,0 188,33 329,30 126,-3 257,-3 385,-4z"
   id="path10728" />
   <path
   class="fil14 str13"
   d="M3108 12413c-1,189 -354,236 -377,407 77,35 113,-33 256,-166 76,-70 156,-191 289,-164 83,347 -274,310 -345,516 97,-16 100,-36 159,-88 228,-198 235,114 137,189 -75,58 -147,55 -173,143 123,19 67,-60 209,-63l58 86c152,-130 100,-3 239,0 -24,-129 -127,-79 -204,-148 -55,-49 -11,-202 12,-259 134,-13 110,21 180,84 44,39 111,88 171,45 -27,-92 -362,-224 -378,-257l-15 -235c262,-111 139,-121 556,-116 272,3 1932,-5 1960,19 89,77 -177,253 -232,286 -82,48 -94,22 -91,106 102,51 150,-72 246,-154 48,-41 74,-60 115,-104 42,-46 63,-87 158,-69 63,199 -21,244 -142,321 -29,18 -205,192 -213,262 171,-10 201,-292 361,-223 41,82 3,179 -43,228 -60,64 -157,62 -155,176 125,-10 94,-86 164,-72 101,22 -22,108 77,165 65,-48 16,-66 37,-166 138,-16 40,44 182,34 -26,-138 -286,-69 -168,-347 153,-14 160,151 268,152 13,-92 -45,-62 -119,-138 -59,-61 -106,-89 -166,-124 -39,-273 10,-151 103,-313 23,-39 39,-52 42,-120l-2422 -9c-202,4 -385,38 -586,33 -202,-5 -383,-31 -586,-33 -196,-2 -385,11 -587,6 -209,-5 -498,-58 -504,79 120,77 1383,-53 1526,29z"
   id="path10730" />
   <path
   class="fil14 str13"
   d="M8710 12389c12,83 24,42 -185,193 -79,57 -200,109 -185,208 117,6 298,-316 460,-300 59,103 38,209 -76,270 -83,44 -55,41 -114,88 -54,43 -95,35 -89,127 114,-16 158,-176 283,-156 86,229 -151,217 -176,348l177 -41c22,88 -12,125 48,169 52,-52 24,-70 50,-136l142 19c-12,-113 -221,-117 -129,-318 18,-10 8,-14 44,-14 114,0 143,176 296,184 0,-90 -19,-85 -81,-128 -47,-32 -83,-54 -130,-90 -56,-43 -229,-149 -115,-269 71,-45 319,230 404,255 41,12 56,9 86,-12 -14,-69 8,-22 -34,-62 -10,-10 -48,-29 -67,-42 -41,-26 -77,-56 -118,-84 -90,-62 -228,-79 -206,-207 113,-44 556,42 492,-100 -38,-53 -294,-11 -350,-7 -394,31 -779,8 -1171,-5 -125,-4 -259,16 -383,7 -383,-27 -346,-9 -716,-2 -77,2 -324,-11 -391,30l3 55c67,46 87,9 260,17 262,12 527,-22 861,0 177,12 1034,-34 1111,2z"
   id="path10732" />
   <path
   class="fil14 str13"
   d="M2164 15263c63,-29 167,-77 237,-115 69,-37 183,-81 203,-169 -146,13 -295,273 -402,93l-22 19c-203,167 -307,-216 -432,-102 21,53 229,173 297,206 57,28 72,43 118,69z"
   id="path10734" />
   <path
   class="fil14 str13"
   d="M2198 14985c82,-183 162,-67 216,-166 -29,-21 10,-9 -38,-14 -75,-8 -97,24 -142,-21 -44,-61 -16,-23 -21,-92 -6,-69 28,-55 -36,-85 -53,62 5,64 -23,172 -140,57 -168,-81 -282,-24 6,116 158,77 253,158l73 73z"
   id="path10736" />
   <path
   class="fil14 str13"
   d="M8103 15079c-76,-9 -355,211 -378,292 124,-30 381,-227 378,-292z"
   id="path10738" />
   <path
   class="fil14 str13"
   d="M1915 14104c-78,3 -141,72 -145,151 84,-11 133,-63 145,-151z"
   id="path10740" />
   <path
   class="fil14 str13"
   d="M7319 14048c-70,11 -105,34 -102,105 85,16 106,-22 102,-105z"
   id="path10742" />
   <path
   class="fil14 str13"
   d="M6408 12386l15 -80 -97 -7c-4,82 -3,91 82,87z"
   id="path10744" />
  </g>
 </g>
</svg>
