<?xml version="1.0" encoding="UTF-8" standalone="no"?>
<!-- Creator: CorelDRAW 2017 -->

<svg
   xml:space="preserve"
   width="297mm"
   height="210mm"
   version="1.1"
   style="shape-rendering:geometricPrecision; text-rendering:geometricPrecision; image-rendering:optimizeQuality; fill-rule:evenodd; clip-rule:evenodd"
   viewBox="0 0 29700 21000"
   id="svg10748"
   sodipodi:docname="wl13.svg"
   inkscape:version="1.1.1 (3bf5ae0d25, 2021-09-20)"
   xmlns:inkscape="http://www.inkscape.org/namespaces/inkscape"
   xmlns:sodipodi="http://sodipodi.sourceforge.net/DTD/sodipodi-0.dtd"
   xmlns="http://www.w3.org/2000/svg"
   xmlns:svg="http://www.w3.org/2000/svg"><sodipodi:namedview
   id="namedview10750"
   pagecolor="#ffffff"
   bordercolor="#666666"
   borderopacity="1.0"
   inkscape:pageshadow="2"
   inkscape:pageopacity="0.0"
   inkscape:pagecheckerboard="0"
   inkscape:document-units="mm"
   showgrid="false"
   inkscape:zoom="0.25261409"
   inkscape:cx="789.74218"
   inkscape:cy="251.37157"
   inkscape:window-width="1920"
   inkscape:window-height="991"
   inkscape:window-x="-9"
   inkscape:window-y="-9"
   inkscape:window-maximized="1"
   inkscape:current-layer="Warstwa_x0020_1" />
 <defs
   id="defs10541">
  <style
   type="text/css"
   id="style10539">
   <![CDATA[
    .str7 {stroke:#CCCC33;stroke-width:67.73}
    .str3 {stroke:#FF9999;stroke-width:49.06}
    .str8 {stroke:#669966;stroke-width:133.65}
    .str5 {stroke:#009933;stroke-width:98.13}
    .str6 {stroke:#FF99CC;stroke-width:98.13}
    .str11 {stroke:#CCCCFF;stroke-width:98.13}
    .str9 {stroke:#339966;stroke-width:104.06}
    .str2 {stroke:#FFCC00;stroke-width:78.49}
    .str4 {stroke:#669933;stroke-width:78.49}
    .str10 {stroke:#FF9933;stroke-width:147.97}
    .str0 {stroke:#00CCFF;stroke-width:94.53}
    .str1 {stroke:#999933;stroke-width:94.53}
    .str12 {stroke:red;stroke-width:94.53}
    .str13 {stroke:#990000;stroke-width:102.26}
    .fil5 {fill:#009933}
    .fil0 {fill:#00CCFF}
    .fil9 {fill:#339966}
    .fil12 {fill:#33CC99}
    .fil4 {fill:#669933}
    .fil8 {fill:#669966}
    .fil14 {fill:#990000}
    .fil1 {fill:#999933}
    .fil7 {fill:#CCCC33}
    .fil11 {fill:#CCCCFF}
    .fil13 {fill:red}
    .fil10 {fill:#FF9933}
    .fil3 {fill:#FF9999}
    .fil6 {fill:#FF99CC}
    .fil2 {fill:#FFCC00}
   ]]>
  </style>
 </defs>
 <g
   id="Warstwa_x0020_1"
   inkscape:label="Warstwa 1">
  <metadata
   id="CorelCorpID_0Corel-Layer" />
  
  
  
  
  
  
  
  
  
  <g
   id="_1831515994080"
   style="fill:#669966;fill-opacity:1"
   transform="matrix(1.8370151,0,0,1.8370151,729.686,3956.137)">
   <path
   class="fil8 str8"
   d="m 9044,1656 c -216,-18 -95,-191 -303,-155 -31,197 179,128 195,296 -84,73 -82,24 -182,72 13,186 190,22 362,67 124,33 296,89 275,264 -258,89 -548,-96 -570,124 97,56 508,6 648,0 122,-5 193,8 293,65 84,48 164,88 160,198 -60,29 -776,55 -837,52 -131,-6 -127,-48 -238,18 l 11,106 c 107,19 610,18 743,8 143,-10 230,-59 324,-65 145,-9 200,100 306,21 40,-67 -25,-191 -40,-287 l 15,-737 c 20,-134 82,-240 -98,-267 -153,408 176,1391 -296,902 -186,-193 -169,-136 -128,-613 11,-130 77,-249 -48,-315 -162,100 -3,497 -90,656 -89,79 -266,-165 -308,-229 -103,-154 60,-328 -56,-462 -95,45 -73,174 -137,282 z"
   id="path10579"
   style="fill:#669966;fill-opacity:1" />
   <path
   class="fil8 str8"
   d="m 14253,2202 c -139,29 -193,-34 -258,-98 -110,-110 -55,-128 -69,-297 -39,-458 90,-617 -103,-631 -122,202 90,498 -74,715 -64,85 -45,107 -95,187 -171,9 -514,-43 -635,34 48,224 612,-51 974,89 124,48 223,65 187,217 -111,76 -768,7 -963,64 -22,181 316,125 607,118 133,-3 218,-24 336,-37 130,-13 285,38 355,-2 5,-142 -55,-103 -140,-192 -18,-173 69,-1128 -4,-1196 -163,-153 -106,399 -104,446 5,150 31,454 -14,581 z"
   id="path10581"
   style="fill:#669966;fill-opacity:1" />
   <path
   class="fil8 str8"
   d="m 10760,1510 c 151,145 950,-15 1066,30 58,23 186,124 222,161 49,208 -20,912 53,1049 172,5 134,-130 114,-277 -18,-134 -14,-272 -20,-413 -6,-155 -23,-233 -40,-374 -32,-271 82,-124 83,-318 -172,-56 -99,49 -304,74 -208,25 -241,-26 -408,-31 -142,-5 -290,17 -432,15 -142,-2 -301,-47 -335,84 z"
   id="path10583"
   style="fill:#669966;fill-opacity:1" />
   <path
   class="fil8 str8"
   d="m 7820,1843 c 108,191 -46,876 116,993 107,-59 77,-88 73,-224 -3,-92 -2,-187 -17,-279 -121,-757 45,-607 76,-740 24,-104 -82,-91 -148,-53 -228,131 -52,93 -488,68 -92,-5 -183,-21 -264,-26 -91,-6 -204,10 -285,-1 -97,-13 -157,-90 -220,-25 -221,229 820,127 950,178 l 204,109 z"
   id="path10585"
   style="fill:#669966;fill-opacity:1" />
   <path
   class="fil8 str8"
   d="m 6459,1946 -2,108 c 171,99 477,3 684,37 44,66 23,78 54,126 l 140,-20 c 153,347 -101,787 149,793 79,-159 -19,-728 -5,-859 13,-123 61,-88 84,-201 -223,-41 -1,83 -535,55 -165,-8 -410,-64 -567,-39 z"
   id="path10587"
   style="fill:#669966;fill-opacity:1" />
   <path
   class="fil8 str8"
   d="m 11382,2103 c 68,-42 82,-45 183,-32 89,135 9,228 16,393 9,227 20,342 132,354 43,-69 -5,-405 -9,-542 -2,-76 -4,-217 4,-289 15,-139 71,-124 70,-228 -178,-21 -102,192 -389,153 -163,-22 -403,-43 -585,-32 -190,11 -142,98 -105,121 l 501,-7 c 105,-12 104,8 163,82 2,3 8,10 10,13 2,3 6,9 10,13 z"
   id="path10589"
   style="fill:#669966;fill-opacity:1" />
   <path
   class="fil8 str8"
   d="m 6596,2543 c 80,157 -299,167 -285,404 185,78 232,-246 449,-281 33,47 55,80 58,160 3,100 -31,116 22,189 160,83 73,-274 74,-352 3,-270 156,-186 176,-354 -105,-1 -158,66 -258,87 -144,31 -672,-108 -548,69 57,81 157,17 278,58 l 34,18 z"
   id="path10591"
   style="fill:#669966;fill-opacity:1" />
   <path
   class="fil8 str8"
   d="m 10573,2372 c 75,70 225,19 356,70 16,254 -401,218 -254,444 203,-2 321,-502 468,-369 63,110 16,261 47,385 176,5 124,-189 95,-335 -54,-271 36,-197 59,-398 -252,68 90,171 -585,130 -117,-7 -149,-38 -186,72 z"
   id="path10593"
   style="fill:#669966;fill-opacity:1" />
   <path
   class="fil8 str8"
   d="m 12887,1342 c -94,201 282,133 255,348 -158,51 -245,-43 -274,108 125,74 250,6 368,-11 123,-18 211,97 320,34 -61,-119 -159,-75 -134,-326 15,-154 80,-343 -102,-342 -57,137 36,389 -137,360 -142,-23 -158,-247 -297,-171 z"
   id="path10595"
   style="fill:#669966;fill-opacity:1" />
  </g>
  
  
  
  
  
  
  
  
  
  
 </g>
</svg>
