<?xml version="1.0" encoding="UTF-8" standalone="no"?>
<!-- Creator: CorelDRAW 2017 -->

<svg
   xml:space="preserve"
   width="297mm"
   height="210mm"
   version="1.1"
   style="shape-rendering:geometricPrecision; text-rendering:geometricPrecision; image-rendering:optimizeQuality; fill-rule:evenodd; clip-rule:evenodd"
   viewBox="0 0 29700 21000"
   id="svg10748"
   sodipodi:docname="wl14.svg"
   inkscape:version="1.1.1 (3bf5ae0d25, 2021-09-20)"
   xmlns:inkscape="http://www.inkscape.org/namespaces/inkscape"
   xmlns:sodipodi="http://sodipodi.sourceforge.net/DTD/sodipodi-0.dtd"
   xmlns="http://www.w3.org/2000/svg"
   xmlns:svg="http://www.w3.org/2000/svg"><sodipodi:namedview
   id="namedview10750"
   pagecolor="#ffffff"
   bordercolor="#666666"
   borderopacity="1.0"
   inkscape:pageshadow="2"
   inkscape:pageopacity="0.0"
   inkscape:pagecheckerboard="0"
   inkscape:document-units="mm"
   showgrid="false"
   inkscape:zoom="0.25261409"
   inkscape:cx="789.74218"
   inkscape:cy="251.37157"
   inkscape:window-width="1920"
   inkscape:window-height="991"
   inkscape:window-x="-9"
   inkscape:window-y="-9"
   inkscape:window-maximized="1"
   inkscape:current-layer="Warstwa_x0020_1" />
 <defs
   id="defs10541">
  <style
   type="text/css"
   id="style10539">
   <![CDATA[
    .str7 {stroke:#CCCC33;stroke-width:67.73}
    .str3 {stroke:#FF9999;stroke-width:49.06}
    .str8 {stroke:#669966;stroke-width:133.65}
    .str5 {stroke:#009933;stroke-width:98.13}
    .str6 {stroke:#FF99CC;stroke-width:98.13}
    .str11 {stroke:#CCCCFF;stroke-width:98.13}
    .str9 {stroke:#339966;stroke-width:104.06}
    .str2 {stroke:#FFCC00;stroke-width:78.49}
    .str4 {stroke:#669933;stroke-width:78.49}
    .str10 {stroke:#FF9933;stroke-width:147.97}
    .str0 {stroke:#00CCFF;stroke-width:94.53}
    .str1 {stroke:#999933;stroke-width:94.53}
    .str12 {stroke:red;stroke-width:94.53}
    .str13 {stroke:#990000;stroke-width:102.26}
    .fil5 {fill:#009933}
    .fil0 {fill:#00CCFF}
    .fil9 {fill:#339966}
    .fil12 {fill:#33CC99}
    .fil4 {fill:#669933}
    .fil8 {fill:#669966}
    .fil14 {fill:#990000}
    .fil1 {fill:#999933}
    .fil7 {fill:#CCCC33}
    .fil11 {fill:#CCCCFF}
    .fil13 {fill:red}
    .fil10 {fill:#FF9933}
    .fil3 {fill:#FF9999}
    .fil6 {fill:#FF99CC}
    .fil2 {fill:#FFCC00}
   ]]>
  </style>
 </defs>
 <g
   id="Warstwa_x0020_1"
   inkscape:label="Warstwa 1">
  <metadata
   id="CorelCorpID_0Corel-Layer" />
  
  
  <path
   class="fil2 str2"
   d="m 20943.72,9891.7435 c -62.704,-155.2668 8.958,-1379.4853 2.986,-1675.0893 -5.972,-391.1528 89.577,-429.9695 429.97,-400.1105 194.083,17.9154 570.306,-80.6192 740.503,65.6898 155.266,131.3796 20.901,1307.8237 11.943,1597.4559 -11.943,418.0259 8.958,447.8849 -406.082,483.7156 -250.816,20.9013 -630.025,68.676 -782.306,-71.6615 z M 23702.691,7867.304 c 149.295,-56.7321 931.6,-134.3654 1110.754,-29.859 217.971,128.3937 68.676,770.3619 56.732,1021.1774 -14.929,289.6322 44.789,967.4313 -125.407,1107.7685 -137.352,113.4641 -949.516,80.6191 -1092.839,-5.9718 -59.718,-191.0975 0,-1890.074 50.76,-2093.1151 z m -7990.266,2102.0728 c -62.703,-220.9565 -17.915,-1301.8519 -11.943,-1627.3149 5.972,-310.5335 95.549,-465.8002 415.04,-462.8143 1101.796,14.9295 731.545,-65.6898 743.489,1725.8496 2.985,355.3219 -65.69,418.0258 -406.083,441.9128 -253.801,17.916 -558.363,11.944 -740.503,-80.6191 z m 3929.443,17.9154 c -71.661,-214.9847 -14.929,-1286.9224 -14.929,-1642.2444 0,-364.2796 -23.887,-537.4618 349.35,-534.4759 244.844,2.9859 633.011,-65.6897 758.418,74.6475 164.225,179.1539 14.93,1260.0493 35.831,1594.47 20.901,364.2797 38.817,507.6028 -331.435,528.5046 -220.956,11.943 -621.067,29.859 -797.235,-20.9018 z m 5371.632,-47.7743 c -68.675,-152.2809 41.803,-1340.6687 50.761,-1639.2585 11.943,-370.2515 -5.972,-504.617 367.265,-492.6734 376.224,11.9436 421.012,-47.7744 776.334,59.718 71.662,259.7732 59.718,516.5605 26.873,812.1645 -89.577,776.3337 232.9,1286.9224 -418.026,1352.6125 -247.829,23.887 -633.01,59.718 -800.221,-92.5631 z m -6915.341,14.9294 c -122.422,47.7747 -871.883,143.3237 -1015.206,23.8872 -104.506,-89.5769 -65.69,-895.7696 -59.718,-1086.8672 5.972,-334.4206 -23.887,-904.7273 149.295,-1000.2761 74.647,-41.8026 743.489,-95.5488 1003.262,32.8449 56.732,280.6745 0,683.7708 -35.831,979.3748 -41.802,349.3502 44.789,737.5171 -44.788,1054.0223 z m -2839.59,-2060.2702 c 2.986,0 -20.902,-107.4924 146.309,-17.9154 137.351,71.6616 164.224,307.5476 155.267,456.8425 -104.507,1991.5948 209.012,1701.9628 -910.7,1716.8918 -603.151,8.958 -340.392,-35.831 -322.477,-1325.739 2.986,-229.9142 -65.689,-644.9542 101.521,-764.3901 176.168,-125.4078 650.926,-11.9436 830.08,-62.7039 z m 3045.617,2039.369 c -68.676,-185.1258 17.915,-1316.7815 14.929,-1633.2867 -2.986,-435.9413 44.789,-474.758 444.899,-468.7862 203.041,2.9859 531.49,-92.5628 677.799,89.577 146.309,179.1539 11.944,1325.7391 17.916,1642.2444 5.971,412.054 -8.958,400.1104 -403.097,450.8704 -211.999,26.873 -600.166,2.986 -752.446,-80.6189 z m 4434.06,-2176.7204 c 229.914,140.3373 740.502,-137.3513 824.108,292.6181 41.802,211.9989 -50.761,767.3761 -53.747,1051.0365 -2.985,292.6181 119.436,821.1222 -188.111,898.7555 -173.182,44.7882 -886.812,-17.9154 -1024.164,-68.6756 l 47.775,-1791.5394 c 29.859,-349.3502 125.408,-301.5758 241.858,-388.1668 -400.111,-41.8026 -743.489,-35.8308 -1134.642,-50.7603 -426.983,-14.9295 -830.08,38.8167 -1218.247,11.9436 l -2248.382,26.8731 c -373.237,53.7461 -836.051,-29.859 -1170.472,5.9718 -737.517,80.6192 -3442.741,0 -3541.276,53.7461 -11.944,397.1246 546.419,-44.7885 850.981,200.0553 125.408,247.8296 -20.901,716.6157 -32.845,1018.1915 -11.943,385.1809 74.648,785.2914 -110.478,1000.2759 -262.759,56.732 -850.981,-173.1819 -674.813,179.154 128.394,89.577 197.069,59.718 385.181,50.76 l 1334.697,-32.844 c 516.56,44.788 1194.359,-23.888 1728.835,-44.789 585.236,-20.901 1269.007,-41.802 1848.272,-8.958 271.716,14.93 647.94,-50.76 859.938,-29.859 217.971,20.902 677.799,44.789 892.784,20.902 l 3114.293,-29.859 c 194.083,2.986 188.111,41.802 418.026,26.873 582.25,-41.803 1164.5,11.943 1764.666,11.943 313.519,0 600.166,-26.873 883.826,-29.859 226.928,-2.985 537.462,173.183 573.293,-65.689 38.816,-268.7313 -477.744,-140.3376 -659.884,-167.2107 -80.619,-241.8578 11.943,-1062.98 5.972,-1549.6816 0,-74.6474 -8.958,-179.1539 -2.986,-250.8155 41.802,-471.772 528.504,-80.6192 743.489,-295.604 -68.676,-226.9283 -164.225,-161.2385 -376.224,-140.3372 -191.097,17.9154 -388.167,-2.9859 -579.264,11.9436 -379.209,26.8731 -734.531,23.8872 -1131.656,38.8167 -564.335,20.9013 -1185.402,-17.9154 -1761.68,17.9154 l -462.814,-17.9154 c -5.972,0 -23.888,-26.8731 -140.338,47.7743 z"
   id="path10548" />
  
  
  
  
  
  
  
  
  
  
  
  
  
  
  
  
  
 </g>
</svg>
