<?xml version="1.0" encoding="UTF-8" standalone="no"?>
<!-- Creator: CorelDRAW 2017 -->

<svg
   xml:space="preserve"
   width="297mm"
   height="210mm"
   version="1.1"
   style="shape-rendering:geometricPrecision; text-rendering:geometricPrecision; image-rendering:optimizeQuality; fill-rule:evenodd; clip-rule:evenodd"
   viewBox="0 0 29700 21000"
   id="svg10748"
   sodipodi:docname="wl15.svg"
   inkscape:version="1.1.1 (3bf5ae0d25, 2021-09-20)"
   xmlns:inkscape="http://www.inkscape.org/namespaces/inkscape"
   xmlns:sodipodi="http://sodipodi.sourceforge.net/DTD/sodipodi-0.dtd"
   xmlns="http://www.w3.org/2000/svg"
   xmlns:svg="http://www.w3.org/2000/svg"><sodipodi:namedview
   id="namedview10750"
   pagecolor="#ffffff"
   bordercolor="#666666"
   borderopacity="1.0"
   inkscape:pageshadow="2"
   inkscape:pageopacity="0.0"
   inkscape:pagecheckerboard="0"
   inkscape:document-units="mm"
   showgrid="false"
   inkscape:zoom="0.25261409"
   inkscape:cx="789.74218"
   inkscape:cy="251.37157"
   inkscape:window-width="1920"
   inkscape:window-height="991"
   inkscape:window-x="-9"
   inkscape:window-y="-9"
   inkscape:window-maximized="1"
   inkscape:current-layer="Warstwa_x0020_1" />
 <defs
   id="defs10541">
  <style
   type="text/css"
   id="style10539">
   <![CDATA[
    .str7 {stroke:#CCCC33;stroke-width:67.73}
    .str3 {stroke:#FF9999;stroke-width:49.06}
    .str8 {stroke:#669966;stroke-width:133.65}
    .str5 {stroke:#009933;stroke-width:98.13}
    .str6 {stroke:#FF99CC;stroke-width:98.13}
    .str11 {stroke:#CCCCFF;stroke-width:98.13}
    .str9 {stroke:#339966;stroke-width:104.06}
    .str2 {stroke:#FFCC00;stroke-width:78.49}
    .str4 {stroke:#669933;stroke-width:78.49}
    .str10 {stroke:#FF9933;stroke-width:147.97}
    .str0 {stroke:#00CCFF;stroke-width:94.53}
    .str1 {stroke:#999933;stroke-width:94.53}
    .str12 {stroke:red;stroke-width:94.53}
    .str13 {stroke:#990000;stroke-width:102.26}
    .fil5 {fill:#009933}
    .fil0 {fill:#00CCFF}
    .fil9 {fill:#339966}
    .fil12 {fill:#33CC99}
    .fil4 {fill:#669933}
    .fil8 {fill:#669966}
    .fil14 {fill:#990000}
    .fil1 {fill:#999933}
    .fil7 {fill:#CCCC33}
    .fil11 {fill:#CCCCFF}
    .fil13 {fill:red}
    .fil10 {fill:#FF9933}
    .fil3 {fill:#FF9999}
    .fil6 {fill:#FF99CC}
    .fil2 {fill:#FFCC00}
   ]]>
  </style>
 </defs>
 <g
   id="Warstwa_x0020_1"
   inkscape:label="Warstwa 1">
  <metadata
   id="CorelCorpID_0Corel-Layer" />
  
  <path
   class="fil1 str1"
   d="m 15424.092,9083.8671 c -208.095,0 -418.825,21.073 -624.286,23.7071 -258.144,0 -455.703,36.8777 -545.264,-81.6578 -139.608,-255.5098 107.999,-242.3392 244.974,-397.7523 110.633,-129.072 100.096,-400.3865 -10.537,-537.3608 -663.798,184.3885 -339.801,827.1141 -658.53,993.0638 -150.145,63.2189 -537.361,-15.8047 -769.164,-13.1706 -252.875,0 -663.798,76.3895 -856.089,-50.0483 -21.073,-302.924 163.315,-242.3392 366.143,-445.1665 455.703,-455.703 184.388,-740.1882 -160.682,-426.7277 -271.314,250.2415 -521.556,495.2148 -524.19,961.4543 -2.634,381.9476 152.779,466.2395 321.363,674.3351 163.316,202.8273 213.364,421.4596 563.702,418.8256 339.802,-474.1422 -431.996,-503.1175 -450.435,-869.2604 73.756,-218.6321 1396.085,-181.7544 1519.888,-113.2672 247.608,136.9743 136.975,384.5817 292.388,645.3597 418.825,695.4079 784.968,321.3629 413.557,-102.7307 -173.852,-200.1932 -300.29,-118.5355 -239.705,-476.776 387.216,-139.6084 808.675,-31.6094 1248.573,-63.2189 276.583,-18.4388 403.021,-86.926 563.702,81.6578 355.607,371.4111 192.291,553.1655 479.41,858.7237 123.804,131.706 368.777,234.436 445.167,-28.976 171.218,-592.6768 -608.482,-358.24 -458.337,-842.9183 258.144,-79.0237 1936.079,-47.4142 1978.225,-31.6095 289.753,150.1449 387.216,927.2108 795.505,1008.8688 316.094,63.219 305.558,-331.8996 21.073,-482.0445 -1261.745,-661.1645 474.141,-537.3608 943.015,-500.4831 647.994,52.6825 782.334,-134.3402 1019.405,453.0689 126.438,313.4607 10.537,221.2662 252.876,463.6057 131.706,131.705 379.313,263.412 463.605,5.268 55.317,-176.486 -173.852,-345.07 -266.046,-424.0936 -202.828,-171.2179 -366.143,-89.5602 -347.704,-403.0206 258.144,-139.6084 1564.668,-47.4142 2094.126,-63.2189 705.945,-21.073 397.753,1022.0391 1058.917,1072.0871 400.387,-410.9226 -289.753,-616.3841 -321.363,-982.527 258.144,-86.926 576.873,-57.9507 908.772,-47.4142 295.022,10.5365 719.115,-110.6331 885.065,115.9014 76.389,102.7307 97.462,221.2662 155.413,337.1675 65.853,129.072 537.361,927.2103 787.602,640.0913 360.875,-719.1149 -890.333,-489.9464 -590.043,-985.1612 181.755,-218.6321 771.798,89.5601 898.236,-173.852 -131.706,-223.9003 -603.214,-31.6095 -835.017,-97.4625 -28.975,-292.3875 84.292,-242.3392 258.144,-392.4841 492.581,-424.0935 -10.536,-835.0165 -374.045,-329.2652 -26.341,34.2436 -171.218,279.2169 -184.389,308.1922 -73.755,150.145 -26.341,242.3392 -136.974,352.9723 -152.779,158.0473 -1667.399,84.2919 -1783.3,47.4142 -55.317,-376.6794 118.535,-234.4368 281.851,-479.4101 176.486,-266.0463 179.12,-360.8746 44.78,-603.2138 -234.437,-15.8047 -273.949,-2.6341 -360.875,150.1449 -97.462,165.9497 -131.706,202.8274 -205.461,331.8993 -179.12,321.3628 -28.976,621.6527 -492.581,626.9209 -347.704,5.2683 -671.701,-71.1213 -1072.087,-55.3165 -345.07,13.1706 -719.115,81.6577 -985.162,-23.7071 -26.341,-334.5334 118.536,-260.778 287.119,-447.8007 131.707,-144.8766 308.193,-276.5827 221.267,-471.5077 -242.339,-326.631 -453.069,26.3412 -584.775,242.3392 -194.925,323.9969 -86.926,553.1655 -416.191,703.3104 -163.316,73.7554 -658.531,-42.146 -929.845,-39.5118 -242.339,2.6341 -882.431,79.0236 -1019.405,-5.2683 -168.584,-213.3638 118.535,-318.7287 260.778,-445.1665 150.145,-134.3402 321.363,-337.1675 129.072,-576.8726 -487.313,-263.4121 -637.458,924.5766 -911.406,1043.1121 -18.439,7.9024 -1838.617,-5.2683 -1965.055,-31.6095 -139.608,-537.3607 787.602,-337.1675 221.266,-1145.8428 -571.604,187.0226 -526.824,1006.2344 -766.529,1124.7699 -150.145,76.3895 -397.752,10.5365 -584.775,10.5365 z"
   id="path10546" />
  
  
  
  
  
  
  
  
  
  
  
  
  
  
  
  
  
  
 </g>
</svg>
