<?xml version="1.0" encoding="UTF-8" standalone="no"?>
<!-- Creator: CorelDRAW 2017 -->

<svg
   xml:space="preserve"
   width="297mm"
   height="210mm"
   version="1.1"
   style="shape-rendering:geometricPrecision; text-rendering:geometricPrecision; image-rendering:optimizeQuality; fill-rule:evenodd; clip-rule:evenodd"
   viewBox="0 0 29700 21000"
   id="svg10748"
   sodipodi:docname="wl16.svg"
   inkscape:version="1.1.1 (3bf5ae0d25, 2021-09-20)"
   xmlns:inkscape="http://www.inkscape.org/namespaces/inkscape"
   xmlns:sodipodi="http://sodipodi.sourceforge.net/DTD/sodipodi-0.dtd"
   xmlns="http://www.w3.org/2000/svg"
   xmlns:svg="http://www.w3.org/2000/svg"><sodipodi:namedview
   id="namedview10750"
   pagecolor="#ffffff"
   bordercolor="#666666"
   borderopacity="1.0"
   inkscape:pageshadow="2"
   inkscape:pageopacity="0.0"
   inkscape:pagecheckerboard="0"
   inkscape:document-units="mm"
   showgrid="false"
   inkscape:zoom="0.25261409"
   inkscape:cx="789.74218"
   inkscape:cy="251.37157"
   inkscape:window-width="1920"
   inkscape:window-height="991"
   inkscape:window-x="-9"
   inkscape:window-y="-9"
   inkscape:window-maximized="1"
   inkscape:current-layer="Warstwa_x0020_1" />
 <defs
   id="defs10541">
  <style
   type="text/css"
   id="style10539">
   <![CDATA[
    .str7 {stroke:#CCCC33;stroke-width:67.73}
    .str3 {stroke:#FF9999;stroke-width:49.06}
    .str8 {stroke:#669966;stroke-width:133.65}
    .str5 {stroke:#009933;stroke-width:98.13}
    .str6 {stroke:#FF99CC;stroke-width:98.13}
    .str11 {stroke:#CCCCFF;stroke-width:98.13}
    .str9 {stroke:#339966;stroke-width:104.06}
    .str2 {stroke:#FFCC00;stroke-width:78.49}
    .str4 {stroke:#669933;stroke-width:78.49}
    .str10 {stroke:#FF9933;stroke-width:147.97}
    .str0 {stroke:#00CCFF;stroke-width:94.53}
    .str1 {stroke:#999933;stroke-width:94.53}
    .str12 {stroke:red;stroke-width:94.53}
    .str13 {stroke:#990000;stroke-width:102.26}
    .fil5 {fill:#009933}
    .fil0 {fill:#00CCFF}
    .fil9 {fill:#339966}
    .fil12 {fill:#33CC99}
    .fil4 {fill:#669933}
    .fil8 {fill:#669966}
    .fil14 {fill:#990000}
    .fil1 {fill:#999933}
    .fil7 {fill:#CCCC33}
    .fil11 {fill:#CCCCFF}
    .fil13 {fill:red}
    .fil10 {fill:#FF9933}
    .fil3 {fill:#FF9999}
    .fil6 {fill:#FF99CC}
    .fil2 {fill:#FFCC00}
   ]]>
  </style>
 </defs>
 <g
   id="Warstwa_x0020_1"
   inkscape:label="Warstwa 1">
  <metadata
   id="CorelCorpID_0Corel-Layer" />
  
  
  
  
  
  
  
  
  
  
  
  
  
  
  
  <g
   id="_1831517840640"
   transform="matrix(2.9483044,0,0,2.9483044,9657.6101,-10160.609)">
   <path
   class="fil12"
   d="m 2634,5138 c 292,36 192,-108 450,80 175,127 136,178 167,427 258,45 273,31 426,171 116,107 258,170 209,411 -217,71 -242,0 -364,0 -1,0 -49,-25 -125,37 61,100 86,67 183,142 39,427 -495,311 -612,327 22,191 271,121 66,392 -158,209 -245,136 -511,121 l 112,287 c 301,-321 281,128 463,155 72,-143 -48,-276 -6,-495 33,-174 123,-316 328,-258 110,196 -12,365 141,456 216,-264 -183,-310 75,-819 70,-138 37,-167 190,-190 120,81 117,140 115,312 -3,237 -38,270 84,337 106,-163 15,-365 10,-540 -5,-158 105,-240 128,-503 -301,15 -361,-123 -488,-300 -168,-235 61,-554 -138,-635 l -51,353 c -156,75 -129,38 -212,-43 -332,-327 -100,-378 -192,-635 -53,-147 1,-55 -82,-97 -39,66 -15,545 -264,278 -107,-115 -163,-287 -328,-339 50,107 120,156 190,244 144,182 43,124 38,325 z"
   id="path10655" />
   <path
   class="fil12"
   d="m 4519,7024 c 46,17 594,-115 564,331 -145,97 -127,-23 -196,99 99,175 136,-25 381,38 148,39 193,158 338,193 -32,-193 -129,-168 -163,-303 -55,-218 118,-275 -32,-402 -46,26 -37,-19 -84,118 -30,88 18,46 -52,147 -144,-2 -235,-118 -265,-258 -49,-222 109,-330 -29,-464 -122,82 -47,481 -333,207 -100,-95 -176,-280 -360,-344 56,145 153,191 247,292 193,207 45,189 -16,347 z"
   id="path10657" />
   <path
   class="fil12"
   d="m 4064,5569 c 94,82 107,45 191,97 61,38 89,102 165,167 79,68 88,47 115,177 7,33 14,122 25,146 59,135 -10,41 99,80 47,-217 -53,-139 -56,-657 -25,-8 -469,-59 -541,-10 z"
   id="path10659" />
   <path
   class="fil12"
   d="m 4766,4741 c 180,172 194,-28 389,192 l 138,127 c 84,130 -18,106 118,192 25,-40 63,51 24,-133 -7,-31 -47,-97 -54,-152 -17,-152 61,-145 90,-289 -280,36 -58,132 -498,32 -219,-50 -192,20 -208,32 z"
   id="path10661" />
   <path
   class="fil12"
   d="m 4434,5105 c 84,141 52,57 212,99 294,77 232,459 402,523 26,-54 -59,-412 -46,-606 -117,25 -190,55 -309,14 -23,-8 -112,-55 -121,-57 -207,-44 -105,7 -139,28 z"
   id="path10663" />
  </g>
  
  
  
  
 </g>
</svg>
