<?xml version="1.0" encoding="UTF-8" standalone="no"?>
<!-- Creator: CorelDRAW 2017 -->

<svg
   xml:space="preserve"
   width="297mm"
   height="210mm"
   version="1.1"
   style="shape-rendering:geometricPrecision; text-rendering:geometricPrecision; image-rendering:optimizeQuality; fill-rule:evenodd; clip-rule:evenodd"
   viewBox="0 0 29700 21000"
   id="svg10748"
   sodipodi:docname="wl17.svg"
   inkscape:version="1.1.1 (3bf5ae0d25, 2021-09-20)"
   xmlns:inkscape="http://www.inkscape.org/namespaces/inkscape"
   xmlns:sodipodi="http://sodipodi.sourceforge.net/DTD/sodipodi-0.dtd"
   xmlns="http://www.w3.org/2000/svg"
   xmlns:svg="http://www.w3.org/2000/svg"><sodipodi:namedview
   id="namedview10750"
   pagecolor="#ffffff"
   bordercolor="#666666"
   borderopacity="1.0"
   inkscape:pageshadow="2"
   inkscape:pageopacity="0.0"
   inkscape:pagecheckerboard="0"
   inkscape:document-units="mm"
   showgrid="false"
   inkscape:zoom="0.25261409"
   inkscape:cx="789.74218"
   inkscape:cy="251.37157"
   inkscape:window-width="1920"
   inkscape:window-height="991"
   inkscape:window-x="-9"
   inkscape:window-y="-9"
   inkscape:window-maximized="1"
   inkscape:current-layer="Warstwa_x0020_1" />
 <defs
   id="defs10541">
  <style
   type="text/css"
   id="style10539">
   <![CDATA[
    .str7 {stroke:#CCCC33;stroke-width:67.73}
    .str3 {stroke:#FF9999;stroke-width:49.06}
    .str8 {stroke:#669966;stroke-width:133.65}
    .str5 {stroke:#009933;stroke-width:98.13}
    .str6 {stroke:#FF99CC;stroke-width:98.13}
    .str11 {stroke:#CCCCFF;stroke-width:98.13}
    .str9 {stroke:#339966;stroke-width:104.06}
    .str2 {stroke:#FFCC00;stroke-width:78.49}
    .str4 {stroke:#669933;stroke-width:78.49}
    .str10 {stroke:#FF9933;stroke-width:147.97}
    .str0 {stroke:#00CCFF;stroke-width:94.53}
    .str1 {stroke:#999933;stroke-width:94.53}
    .str12 {stroke:red;stroke-width:94.53}
    .str13 {stroke:#990000;stroke-width:102.26}
    .fil5 {fill:#009933}
    .fil0 {fill:#00CCFF}
    .fil9 {fill:#339966}
    .fil12 {fill:#33CC99}
    .fil4 {fill:#669933}
    .fil8 {fill:#669966}
    .fil14 {fill:#990000}
    .fil1 {fill:#999933}
    .fil7 {fill:#CCCC33}
    .fil11 {fill:#CCCCFF}
    .fil13 {fill:red}
    .fil10 {fill:#FF9933}
    .fil3 {fill:#FF9999}
    .fil6 {fill:#FF99CC}
    .fil2 {fill:#FFCC00}
   ]]>
  </style>
 </defs>
 <g
   id="Warstwa_x0020_1"
   inkscape:label="Warstwa 1">
  <metadata
   id="CorelCorpID_0Corel-Layer" />
  
  
  
  
  
  
  
  
  
  
  <g
   id="_1831515996736"
   transform="matrix(2.5060541,0,0,2.5060541,-10206.202,-9336.956)">
   <path
   class="fil9 str9"
   d="m 12595,6500 c -162,-12 -38,257 -475,195 -404,-57 -355,-89 -412,-101 -78,-16 -81,27 -38,76 113,129 674,159 832,48 40,-29 121,-153 93,-218 z"
   id="path10598" />
   <path
   class="fil9 str9"
   d="m 14128,6630 c -18,177 355,223 492,232 82,6 188,-43 273,-82 94,-44 173,-74 176,-192 -217,-38 57,124 -461,154 -116,7 -169,31 -269,-15 -74,-34 -142,-91 -210,-98 z"
   id="path10600" />
   <path
   class="fil9 str9"
   d="m 11187,7161 c 67,71 112,6 187,-42 41,-26 201,-47 277,-59 209,-32 358,132 493,139 6,-117 -92,-101 -188,-158 -321,-192 -747,-5 -770,121 z"
   id="path10602" />
   <path
   class="fil9 str9"
   d="m 13723,7213 c 44,-2 134,-65 211,-84 218,-53 491,-7 670,134 66,52 27,51 122,61 -2,-150 -77,-118 -181,-188 -85,-57 -160,-72 -280,-95 -115,-22 -236,-11 -355,5 -108,15 -237,23 -187,167 z"
   id="path10604" />
   <path
   class="fil9 str9"
   d="m 12925,6638 c 66,231 550,238 748,152 176,-76 265,-313 132,-245 -64,33 -76,168 -302,201 -356,53 -330,-80 -578,-109 z"
   id="path10606" />
   <path
   class="fil9 str9"
   d="m 8674,7155 c 69,5 305,-225 702,-31 96,47 90,108 199,98 -2,-102 -58,-138 -159,-174 -224,-80 -247,-130 -571,-58 -89,20 -211,43 -171,165 z"
   id="path10608" />
   <path
   class="fil9 str9"
   d="m 12430,7201 c 76,-3 351,-258 715,-81 66,32 142,101 216,104 -5,-186 -325,-218 -465,-234 -127,-14 -501,5 -466,211 z"
   id="path10610" />
   <path
   class="fil9 str9"
   d="m 10840,7162 c -2,-166 -434,-328 -698,-214 -61,26 -217,58 -237,116 -17,52 28,69 69,54 46,-16 42,-50 97,-74 159,-69 376,-66 538,0 108,44 138,125 230,117 z"
   id="path10612" />
   <path
   class="fil9 str9"
   d="m 9856,6692 c -62,0 -228,3 -279,-6 -89,-15 -107,-80 -212,-49 -14,149 403,143 511,138 130,-6 175,-32 228,-107 51,-72 118,-148 90,-228 -128,16 -86,252 -338,252 z"
   id="path10614" />
   <path
   class="fil9 str9"
   d="m 10460,6577 c -13,265 913,263 869,-81 -144,8 -46,64 -157,120 -367,187 -617,-44 -713,-39 z"
   id="path10616" />
   <path
   class="fil9 str9"
   d="m 8501,6592 c 5,86 168,150 277,113 83,-28 40,-13 127,-23 112,-14 303,-182 292,-292 -108,-9 -122,117 -258,177 -141,61 -296,6 -437,25 z"
   id="path10618" />
  </g>
  
  
  
  
  
  
  
  
  
 </g>
</svg>
