<?xml version="1.0" encoding="UTF-8" standalone="no"?>
<!-- Creator: CorelDRAW 2017 -->

<svg
   xml:space="preserve"
   width="297mm"
   height="210mm"
   version="1.1"
   style="shape-rendering:geometricPrecision; text-rendering:geometricPrecision; image-rendering:optimizeQuality; fill-rule:evenodd; clip-rule:evenodd"
   viewBox="0 0 29700 21000"
   id="svg10748"
   sodipodi:docname="wl18.svg"
   inkscape:version="1.1.1 (3bf5ae0d25, 2021-09-20)"
   xmlns:inkscape="http://www.inkscape.org/namespaces/inkscape"
   xmlns:sodipodi="http://sodipodi.sourceforge.net/DTD/sodipodi-0.dtd"
   xmlns="http://www.w3.org/2000/svg"
   xmlns:svg="http://www.w3.org/2000/svg"><sodipodi:namedview
   id="namedview10750"
   pagecolor="#ffffff"
   bordercolor="#666666"
   borderopacity="1.0"
   inkscape:pageshadow="2"
   inkscape:pageopacity="0.0"
   inkscape:pagecheckerboard="0"
   inkscape:document-units="mm"
   showgrid="false"
   inkscape:zoom="0.25261409"
   inkscape:cx="789.74218"
   inkscape:cy="251.37157"
   inkscape:window-width="1920"
   inkscape:window-height="991"
   inkscape:window-x="-9"
   inkscape:window-y="-9"
   inkscape:window-maximized="1"
   inkscape:current-layer="Warstwa_x0020_1" />
 <defs
   id="defs10541">
  <style
   type="text/css"
   id="style10539">
   <![CDATA[
    .str7 {stroke:#CCCC33;stroke-width:67.73}
    .str3 {stroke:#FF9999;stroke-width:49.06}
    .str8 {stroke:#669966;stroke-width:133.65}
    .str5 {stroke:#009933;stroke-width:98.13}
    .str6 {stroke:#FF99CC;stroke-width:98.13}
    .str11 {stroke:#CCCCFF;stroke-width:98.13}
    .str9 {stroke:#339966;stroke-width:104.06}
    .str2 {stroke:#FFCC00;stroke-width:78.49}
    .str4 {stroke:#669933;stroke-width:78.49}
    .str10 {stroke:#FF9933;stroke-width:147.97}
    .str0 {stroke:#00CCFF;stroke-width:94.53}
    .str1 {stroke:#999933;stroke-width:94.53}
    .str12 {stroke:red;stroke-width:94.53}
    .str13 {stroke:#990000;stroke-width:102.26}
    .fil5 {fill:#009933}
    .fil0 {fill:#00CCFF}
    .fil9 {fill:#339966}
    .fil12 {fill:#33CC99}
    .fil4 {fill:#669933}
    .fil8 {fill:#669966}
    .fil14 {fill:#990000}
    .fil1 {fill:#999933}
    .fil7 {fill:#CCCC33}
    .fil11 {fill:#CCCCFF}
    .fil13 {fill:red}
    .fil10 {fill:#FF9933}
    .fil3 {fill:#FF9999}
    .fil6 {fill:#FF99CC}
    .fil2 {fill:#FFCC00}
   ]]>
  </style>
 </defs>
 <g
   id="Warstwa_x0020_1"
   inkscape:label="Warstwa 1">
  <metadata
   id="CorelCorpID_0Corel-Layer" />
  
  
  
  <path
   class="fil3 str3"
   d="m 24196.245,5854.6438 c -547.029,-97.9753 -142.881,689.9096 -351.078,1065.4817 -151.046,97.9753 -1106.305,171.4568 -1277.762,53.0699 -138.798,-114.3045 -81.646,4.0823 -118.387,-236.7737 -53.07,-367.4074 142.881,-730.7326 -216.362,-791.9672 -236.774,338.8314 69.399,620.5104 -175.539,959.3417 -236.774,106.14 -1216.527,122.4692 -1392.066,16.3293 -159.21,-151.0453 28.576,-771.5557 -118.387,-1085.8932 -510.288,-20.4115 4.082,616.4281 -342.913,1102.2224 -175.54,28.5761 -1367.573,106.1399 -1485.96,-24.4938 -228.609,-424.5598 187.786,-914.4364 -273.514,-930.7656 -208.198,338.8313 118.387,620.5104 -126.551,975.6709 -114.305,48.9877 -1318.585,36.7408 -1412.478,0 -191.868,-342.9136 20.411,-596.0165 -126.551,-889.9425 -400.066,12.2469 -102.058,498.0412 -240.856,881.7779 -236.774,77.5638 -1094.058,77.5638 -1404.313,40.8231 -151.046,-395.9836 -4.083,-502.1236 -53.07,-722.5681 -69.4,-293.9259 44.905,-97.9753 -138.799,-195.9506 -155.127,89.8107 -57.152,-53.07 -118.387,151.0453 -61.234,208.1975 146.963,493.9589 -32.658,681.7449 -167.375,106.14 -1347.161,114.3046 -1449.218,57.1523 l -69.4,-171.4568 c -40.823,-289.8437 118.387,-383.7367 -53.07,-677.6627 -473.549,69.3992 -40.823,567.4405 -269.433,812.3788 -159.21,110.2222 -1094.058,155.1276 -1334.914,36.7407 -191.868,-371.4898 155.127,-693.9919 -232.691,-828.7079 -257.186,195.9506 -53.07,404.1482 -118.387,767.4733 -306.173,142.8807 -1155.293,212.2799 -1432.8891,-4.0823 -130.634,-404.1482 204.1151,-804.2141 -306.173,-861.3663 -261.2679,424.5597 -8.165,387.8189 -93.893,873.6132 -677.663,257.1853 -1220.6096,-159.2099 -1294.0911,126.5515 -118.3868,461.3005 677.6627,20.4115 1343.0781,216.3622 110.223,534.782 -253.1026,1016.494 179.622,1167.5392 367.4071,-253.1029 -16.329,-722.568 212.28,-1130.7985 249.0201,-195.9506 1106.3041,-110.2222 1400.2301,8.1646 36.741,281.6791 -32.658,845.0372 16.329,971.5887 85.729,232.6913 44.906,118.3868 208.198,130.6337 273.514,-355.1605 -257.185,-1118.5516 346.996,-1183.8685 h 1000.165 c 510.29,236.7737 -163.292,1016.494 318.421,1192.0331 187.786,-155.1276 155.128,-289.8436 130.634,-583.7696 -28.576,-314.3375 -77.564,-449.0536 110.222,-575.605 151.045,-85.7284 1081.811,-97.9753 1302.256,-40.8231 289.843,489.8766 -93.894,804.2141 236.773,1049.1524 97.976,-65.3168 142.881,61.2346 118.387,-489.8766 -12.247,-281.679 -44.905,-322.5021 69.399,-559.2758 146.963,-44.9053 1326.749,20.4115 1404.313,53.07 163.292,395.9836 -102.057,698.0742 126.552,1028.7409 155.127,-57.1523 183.703,114.3045 183.703,-640.9219 0,-375.5721 16.33,-559.2758 412.313,-489.8766 518.453,89.8107 587.852,0 1028.741,16.3292 212.28,449.0535 -28.576,967.5063 285.761,1094.0578 314.338,-322.5021 -85.728,-726.6504 200.033,-1081.8109 73.482,-36.7407 1302.256,-48.9877 1428.807,0 306.173,473.5474 -191.868,1077.7286 383.737,1106.3047 244.938,-775.638 -510.288,-1192.0331 726.65,-1094.0578 228.609,16.3292 436.807,0 657.251,24.4938 432.725,400.0659 -216.362,1102.2224 379.655,1171.6216 191.868,-383.7367 -106.14,-902.1894 183.703,-1130.7985 200.033,-146.963 1155.293,-48.9877 1359.408,28.5761 122.469,575.6051 -249.021,1122.6339 293.926,1110.387 163.292,-371.4897 -16.329,-661.3334 69.399,-1077.7285 334.749,-236.7737 269.432,-65.3169 722.568,-73.4815 436.807,-4.0823 400.066,-118.3869 804.214,44.9053 40.823,342.9137 -114.304,1098.1401 159.21,1081.8109 363.325,-24.4938 20.412,-787.8849 220.445,-1077.7286 334.749,-208.1975 1241.02,269.4322 1008.329,-298.0082 -122.469,-142.8807 -800.132,28.5761 -1028.741,-65.3169 -93.893,-346.996 126.552,-1261.4323 -220.444,-1163.457 -412.313,118.3869 110.222,853.2018 -204.116,1118.5516 -134.716,114.3046 -959.341,114.3046 -1204.28,106.14 -583.769,-16.3293 -167.374,-693.9919 -322.502,-1155.2924 z"
   id="path10550" />
  
  
  
  
  
  
  
  
  
  
  
  
  
  
  
  
 </g>
</svg>
