<?xml version="1.0" encoding="UTF-8" standalone="no"?>
<!-- Creator: CorelDRAW 2017 -->

<svg
   xml:space="preserve"
   width="297mm"
   height="210mm"
   version="1.1"
   style="shape-rendering:geometricPrecision; text-rendering:geometricPrecision; image-rendering:optimizeQuality; fill-rule:evenodd; clip-rule:evenodd"
   viewBox="0 0 29700 21000"
   id="svg10748"
   sodipodi:docname="wl19.svg"
   inkscape:version="1.1.1 (3bf5ae0d25, 2021-09-20)"
   xmlns:inkscape="http://www.inkscape.org/namespaces/inkscape"
   xmlns:sodipodi="http://sodipodi.sourceforge.net/DTD/sodipodi-0.dtd"
   xmlns="http://www.w3.org/2000/svg"
   xmlns:svg="http://www.w3.org/2000/svg"><sodipodi:namedview
   id="namedview10750"
   pagecolor="#ffffff"
   bordercolor="#666666"
   borderopacity="1.0"
   inkscape:pageshadow="2"
   inkscape:pageopacity="0.0"
   inkscape:pagecheckerboard="0"
   inkscape:document-units="mm"
   showgrid="false"
   inkscape:zoom="0.25261409"
   inkscape:cx="789.74218"
   inkscape:cy="251.37157"
   inkscape:window-width="1920"
   inkscape:window-height="991"
   inkscape:window-x="-9"
   inkscape:window-y="-9"
   inkscape:window-maximized="1"
   inkscape:current-layer="Warstwa_x0020_1" />
 <defs
   id="defs10541">
  <style
   type="text/css"
   id="style10539">
   <![CDATA[
    .str7 {stroke:#CCCC33;stroke-width:67.73}
    .str3 {stroke:#FF9999;stroke-width:49.06}
    .str8 {stroke:#669966;stroke-width:133.65}
    .str5 {stroke:#009933;stroke-width:98.13}
    .str6 {stroke:#FF99CC;stroke-width:98.13}
    .str11 {stroke:#CCCCFF;stroke-width:98.13}
    .str9 {stroke:#339966;stroke-width:104.06}
    .str2 {stroke:#FFCC00;stroke-width:78.49}
    .str4 {stroke:#669933;stroke-width:78.49}
    .str10 {stroke:#FF9933;stroke-width:147.97}
    .str0 {stroke:#00CCFF;stroke-width:94.53}
    .str1 {stroke:#999933;stroke-width:94.53}
    .str12 {stroke:red;stroke-width:94.53}
    .str13 {stroke:#990000;stroke-width:102.26}
    .fil5 {fill:#009933}
    .fil0 {fill:#00CCFF}
    .fil9 {fill:#339966}
    .fil12 {fill:#33CC99}
    .fil4 {fill:#669933}
    .fil8 {fill:#669966}
    .fil14 {fill:#990000}
    .fil1 {fill:#999933}
    .fil7 {fill:#CCCC33}
    .fil11 {fill:#CCCCFF}
    .fil13 {fill:red}
    .fil10 {fill:#FF9933}
    .fil3 {fill:#FF9999}
    .fil6 {fill:#FF99CC}
    .fil2 {fill:#FFCC00}
   ]]>
  </style>
 </defs>
 <g
   id="Warstwa_x0020_1"
   inkscape:label="Warstwa 1">
  <metadata
   id="CorelCorpID_0Corel-Layer" />
  <path
   class="fil0 str0"
   d="m 15294.792,5298.5787 c -143.632,-204.6265 66.898,-808.6681 -133.794,-930.657 -121.989,102.3133 -60.994,320.7127 -49.189,515.5014 35.416,611.9118 196.756,419.0907 -86.573,916.884 -88.54,155.4374 -177.08,208.5616 -265.62,334.4856 l -470.248,696.5171 c -88.54,151.5023 -173.145,232.1723 -243.978,354.1612 -96.41,163.3077 -133.794,236.1075 -234.14,365.9666 -533.209,692.5819 -167.242,879.5004 328.583,1538.6337 257.751,342.3559 546.983,637.4902 781.123,983.7817 78.702,116.086 169.21,224.302 346.291,261.686 -41.319,-155.438 -210.53,-277.427 -301.037,-373.8375 -55.092,-57.0593 -55.092,-86.5728 -92.476,-139.697 -68.865,-98.3781 -137.729,-135.7618 -206.594,-226.2696 -135.762,-177.0806 -222.334,-344.3234 -381.707,-517.4689 l -391.545,-509.5987 c -86.573,-106.2483 -155.437,-159.3725 -120.021,-324.6478 306.94,-145.5996 2294.177,-25.5783 2852.965,-21.6431 938.527,3.9351 668.971,-159.3726 1062.484,350.2261 l 1182.505,1251.3696 c 80.67,92.4754 133.794,184.9509 220.367,279.3939 43.286,49.189 72.8,78.702 92.475,143.632 23.611,84.606 7.87,55.093 15.741,118.055 l 15.74,84.605 c 9.838,45.254 277.427,47.221 350.226,49.189 175.113,5.903 102.314,-78.703 352.194,-60.995 116.086,7.871 472.215,74.768 588.301,5.903 145.6,-86.573 1.968,-163.308 -82.637,-175.114 -33.449,-3.935 -118.054,-1.967 -161.341,-1.967 l -838.181,-21.644 c -120.021,-47.221 -478.118,-529.2738 -611.912,-657.1654 l -907.046,-958.2028 c -60.995,-59.0269 -86.573,-88.5403 -151.503,-149.5348 -82.637,-76.7349 -118.053,-74.7673 -80.67,-228.2372 316.778,-92.4754 1467.802,19.6756 1886.893,-15.7405 291.199,-25.5783 667.003,-9.8378 966.073,-5.9027 834.246,11.8054 708.322,-45.2539 930.657,277.4263 157.405,226.2697 621.749,655.1983 814.571,883.4355 151.502,181.0157 303.004,344.3234 468.279,497.7933 432.864,407.2863 108.216,322.6803 253.816,708.3233 167.243,-27.546 70.832,-39.351 135.762,-184.951 240.042,-17.708 194.788,70.832 334.485,184.951 104.281,86.573 45.254,17.708 137.73,127.891 112.151,133.795 554.852,621.751 674.874,627.654 82.637,-149.535 9.837,-247.913 -114.119,-320.713 -249.88,-147.568 -401.383,-285.297 -580.431,-485.989 -135.762,-151.502 -238.075,-35.416 -222.334,-308.908 192.821,-64.929 688.646,1.968 1086.094,-66.897 -1.968,-216.4318 -224.302,-121.989 -454.507,-129.859 -802.765,-31.481 -810.636,177.081 -1341.877,-460.4096 -224.303,-271.5236 -649.296,-615.847 -875.566,-889.3382 -82.637,-98.3781 -238.075,-226.2697 -251.848,-352.1937 159.373,-179.0481 1540.602,-86.5727 1835.736,-76.7349 251.848,9.8378 1863.281,27.5459 1965.595,-19.6756 175.113,-318.7451 -541.08,-169.2104 -765.382,-167.2428 -348.259,3.9351 -698.485,11.8054 -1031.003,19.6756 -344.323,7.8703 -686.679,-41.3188 -1029.035,-17.7081 -240.042,15.7405 -806.7,60.9945 -1027.067,17.7081 -37.384,-228.2372 377.772,-568.6255 513.533,-767.3493 100.346,-147.5672 179.049,-224.3021 287.265,-377.772 78.702,-112.151 218.399,-263.6533 306.939,-360.0639 121.989,-127.8915 495.826,-668.9712 625.685,-702.4197 57.059,-13.773 450.572,39.3512 586.334,39.3512 240.042,0 389.577,78.7025 564.69,-15.7405 17.708,-413.1881 -684.712,27.5459 -897.208,-173.1455 -163.308,-155.4374 373.836,-572.5606 482.052,-684.7117 214.465,-224.3021 308.908,-312.8424 224.303,-482.0528 -149.535,21.6432 -177.081,120.0214 -275.459,265.621 -72.8,108.2159 -137.73,204.6264 -232.173,301.037 -118.053,118.0537 -149.534,120.0213 -267.588,263.6534 -55.092,68.8646 -118.054,184.9508 -202.659,194.7886 -147.567,17.7081 -137.729,-33.4485 -145.6,-556.8201 -1.967,-96.4106 7.871,-210.5292 0,-304.9722 -9.837,-155.4374 -7.87,-161.3401 -114.118,-212.4967 -125.924,125.924 -47.222,830.3113 -3.935,1015.2622 96.41,413.188 -23.611,507.631 -306.94,787.0249 l -1276.948,1587.8228 c -94.443,153.4699 -171.178,159.3726 -409.253,159.3726 -509.599,0 -308.907,-53.1242 -1099.867,-11.8054 -283.329,15.7405 -2152.514,41.3188 -2266.632,9.8378 -17.708,-159.3726 41.319,-214.4643 110.183,-295.1344 165.276,-190.8535 452.54,-501.7284 548.95,-680.7765 118.054,-218.3995 202.659,-303.0046 334.486,-499.7609 157.405,-234.1399 401.383,-478.1176 537.144,-696.517 143.632,-234.14 306.94,-218.3995 580.431,-224.3021 151.503,-1.9676 53.124,7.8702 143.632,35.4161 108.216,33.4485 86.573,21.6432 212.497,23.6107 84.605,1.9676 301.037,41.3188 348.259,11.8054 112.151,-70.8322 35.416,-200.6914 -112.151,-216.4319 -208.562,-21.6431 -564.691,80.6701 -802.766,43.2864 -33.448,-322.6802 224.302,-387.6098 346.291,-623.7172 102.313,-198.7238 375.804,-411.2206 346.291,-606.0092 -202.659,-7.8703 -391.545,352.1936 -472.215,513.5337 l -421.058,611.9119 c -116.086,-41.3188 -108.216,-43.2864 -123.957,-196.7562 -13.773,-129.8591 43.287,-977.8785 -169.21,-794.8952 -114.119,98.3781 31.481,873.5977 60.994,991.6514 86.573,344.3234 -149.534,509.5987 -350.226,751.6088 l -735.868,964.1056 c -102.313,145.5996 -139.697,212.4967 -263.653,336.4531 -436.799,432.8638 72.799,604.0417 -1117.576,533.2094 -214.464,-13.7729 -367.934,21.6432 -545.015,-5.9027 -249.88,-39.3512 -1934.113,80.6701 -2244.988,-21.6431 -37.384,-179.0482 86.573,-303.0046 181.016,-436.7989 88.54,-127.8915 131.826,-245.9453 242.01,-391.5449 251.848,-332.518 796.862,-1245.467 1046.743,-1516.9906 204.626,-220.3669 922.787,86.5728 1152.991,-78.7024 -27.545,-257.7507 -476.15,-31.481 -826.376,-108.216 -151.502,-373.8368 729.966,-909.0138 635.523,-1223.8238 -151.502,25.5784 -153.47,121.9889 -242.01,232.1724 l -403.351,562.7228 c -116.086,147.5672 -76.735,238.0751 -261.685,232.1724 z"
   id="path10544" />
  
  
  
  
  
  
  
  <path
   class="fil0 str0"
   d="m 15261.344,10502.782 c -120.021,196.756 -104.281,373.837 -98.378,629.621 3.935,202.659 -76.735,545.015 127.891,588.301 92.476,-173.146 -33.448,-814.572 45.254,-1013.296 181.016,-37.383 281.362,175.113 535.177,480.087 96.411,116.086 141.665,192.821 226.27,306.939 88.54,120.022 137.729,236.108 301.037,240.043 -1.968,-202.659 -88.54,-179.048 -184.951,-291.199 -70.832,-80.67 -118.054,-181.016 -188.886,-277.427 -135.762,-181.015 -409.253,-299.07 -405.318,-572.561 125.924,-9.838 342.356,0 472.215,7.87 181.016,11.805 287.264,100.346 363.999,-76.735 -133.794,-102.313 -960.17,-57.059 -1194.31,-23.611 z"
   id="path10577" />
  
  
  
  <path
   class="fil0 str0"
   d="m 19344.036,11482.629 c 49.189,-226.27 -5.903,-491.891 -29.514,-718.161 -15.74,-149.535 15.741,-129.859 -121.989,-133.795 -62.962,129.86 -39.351,318.747 -33.448,468.281 11.805,238.075 -43.286,336.453 184.951,381.707 z"
   id="path10630" />
  <path
   class="fil0 str0"
   d="m 19676.554,10624.771 c 33.448,242.01 419.091,546.983 489.923,665.037 47.221,76.735 108.216,249.88 226.27,120.021 106.248,-116.086 -224.303,-332.518 -299.07,-413.188 -88.54,-98.379 -121.989,-114.12 -186.918,-179.049 -116.087,-120.021 -49.189,-139.697 -232.173,-192.821 z"
   id="path10632" />
  
  
  <path
   class="fil0 str0"
   d="m 23021.41,10691.668 c -84.605,55.092 -94.443,66.897 -80.67,375.805 5.902,120.022 27.546,314.81 145.599,297.102 165.276,-25.578 -11.805,-631.588 -64.929,-672.907 z"
   id="path10666" />
  
  
  
 </g>
</svg>
