<?xml version="1.0" encoding="UTF-8" standalone="no"?>
<!-- Created with Inkscape (http://www.inkscape.org/) -->

<svg
   width="210mm"
   height="297mm"
   viewBox="0 0 210 297"
   version="1.1"
   id="svg439"
   inkscape:version="1.1.1 (3bf5ae0d25, 2021-09-20)"
   sodipodi:docname="wl2.svg"
   xmlns:inkscape="http://www.inkscape.org/namespaces/inkscape"
   xmlns:sodipodi="http://sodipodi.sourceforge.net/DTD/sodipodi-0.dtd"
   xmlns="http://www.w3.org/2000/svg"
   xmlns:svg="http://www.w3.org/2000/svg">
  <sodipodi:namedview
     id="namedview441"
     pagecolor="#ffffff"
     bordercolor="#666666"
     borderopacity="1.0"
     inkscape:pageshadow="2"
     inkscape:pageopacity="0.0"
     inkscape:pagecheckerboard="0"
     inkscape:document-units="mm"
     showgrid="false"
     inkscape:zoom="0.71446409"
     inkscape:cx="396.80091"
     inkscape:cy="561.95967"
     inkscape:window-width="1920"
     inkscape:window-height="991"
     inkscape:window-x="-9"
     inkscape:window-y="-9"
     inkscape:window-maximized="1"
     inkscape:current-layer="layer1" />
  <defs
     id="defs436" />
  <g
     inkscape:label="Warstwa 1"
     inkscape:groupmode="layer"
     id="layer1">
    <g
       id="g12551"
       transform="matrix(2.7061786,0,0,2.7061786,-306.38743,-118.00388)"
       style="display:inline">
      <g
         id="g12523">
        <path
           style="fill:#ff4500;fill-opacity:1;stroke-width:0.481753"
           d="m 135.40398,126.30877 -2.76811,-0.13934 -0.30813,-2.45048 c -0.40803,-3.24494 -0.3228,-52.167336 0.0962,-55.188511 0.17957,-1.294904 0.54827,-2.357623 0.81936,-2.361589 0.27109,-0.0039 0.71468,-0.13931 0.98576,-0.300755 0.67819,-0.403919 37.68306,-0.147811 39.06097,0.270333 l 1.10899,0.336536 v 29.601679 29.601687 l -1.1076,0.33584 c -1.08121,0.32784 -32.39057,0.5713 -37.88739,0.2946 z"
           id="path12471" />
        <path
           style="fill:#ffffff;fill-opacity:1;stroke-width:0.481753"
           d="m 170.87411,124.36735 c 0.54996,-0.28119 1.04744,-1.20196 1.21981,-2.25773 0.1601,-0.98059 0.44645,-13.59597 0.63633,-28.034194 0.33691,-25.616904 0.32252,-26.252518 -0.59489,-26.301837 -5.6186,-0.302031 -23.83396,-0.398333 -30.0795,-0.159031 l -7.94541,0.304436 -0.30722,4.779036 c -0.23834,3.707541 -0.54944,48.34232 -0.35575,51.04254 0.0281,0.39277 0.98513,0.60233 2.87629,0.62985 1.55874,0.0227 3.94306,0.18161 5.29849,0.35316 3.8201,0.48348 28.18995,0.1867 29.25185,-0.35623 z"
           id="path12473" />
        <path
           style="fill:#ff4500;fill-opacity:1;stroke-width:0.481753"
           d="m 136.61813,97.842426 c 0.17853,-13.013813 0.46145,-24.648848 0.6287,-25.855637 l 0.3041,-2.194155 10.16823,-0.03495 c 5.59253,-0.01924 12.80944,-0.11677 16.03761,-0.216782 l 5.86936,-0.181855 -0.44766,17.00808 c -0.24621,9.354443 -0.46161,20.716223 -0.47868,25.248393 -0.0171,4.53218 -0.0726,8.61113 -0.12323,9.06435 -0.0857,0.76618 -1.22235,0.82404 -16.18761,0.82404 h -16.09542 z"
           id="path12475" />
        <path
           style="fill:#ffffff;fill-opacity:1;stroke-width:0.481753"
           d="m 152.49696,114.8633 c 0.18476,-0.28558 0.53389,-2.2456 0.77587,-4.3556 0.40336,-3.51726 0.57258,-3.94174 2.03438,-5.10336 0.87693,-0.69685 1.97478,-1.36373 2.43965,-1.48195 0.46489,-0.11821 1.41896,0.29302 2.12015,0.91386 0.7012,0.62083 1.56902,1.12878 1.92849,1.12878 1.11119,0 1.89173,-1.31812 1.55025,-2.61794 -0.22584,-0.85967 -0.97032,-1.49244 -2.53281,-2.15275 -2.43686,-1.0298 -3.75251,-0.87052 -5.51124,0.66727 -0.60888,0.53238 -1.19297,0.87884 -1.29798,0.76991 -0.10503,-0.10893 -0.007,-1.46942 0.21721,-3.023315 0.33109,-2.29172 0.69402,-3.069783 1.92187,-4.120153 0.93551,-0.800289 2.07554,-1.294904 2.98457,-1.294904 0.80898,0 1.47087,0.204433 1.47087,0.454308 0,0.736009 1.92815,1.505807 2.97592,1.188108 1.2526,-0.379809 1.26447,-2.181148 0.0215,-3.255824 -0.65265,-0.564265 -1.80497,-0.824988 -3.71885,-0.841421 -2.24296,-0.01924 -3.00577,0.184947 -3.98968,1.068011 -1.66745,1.496549 -2.25488,0.773027 -1.63024,-2.007942 0.56494,-2.515172 2.03033,-4.795106 3.95912,-6.159827 1.31396,-0.929683 1.31492,-0.929653 3.0607,0.101132 1.39537,0.823869 1.94844,0.927769 2.75192,0.516959 0.6583,-0.336586 1.00559,-0.987072 1.00559,-1.883505 0,-2.616648 -3.74834,-3.72797 -6.57301,-1.948777 -0.76875,0.48422 -2.07522,1.665603 -2.90325,2.625286 -1.90765,2.210981 -2.33523,1.675293 -2.34538,-2.93843 -0.008,-3.943102 -0.90255,-6.43919 -2.44381,-6.824251 -0.82866,-0.207015 -1.17786,0.0088 -1.55812,0.964669 -0.39217,0.985432 -0.23875,1.766549 0.7678,3.909314 0.69184,1.472793 1.39666,3.644968 1.56625,4.827049 l 0.30836,2.149254 -1.73212,-0.507868 c -2.39517,-0.702279 -5.04126,-0.133184 -6.25932,1.346196 -0.55392,0.67275 -1.00712,1.413147 -1.00712,1.645332 0,0.938322 1.63499,0.930144 2.97291,-0.01482 0.78271,-0.552849 1.97049,-1.005174 2.63951,-1.005174 1.83701,0 3.25947,2.035223 3.25947,4.663572 v 2.182208 l -3.18492,-0.0088 c -3.73366,-0.0106 -5.03152,0.788489 -4.50927,2.776346 0.3698,1.407669 1.52445,1.594579 2.3212,0.375745 0.74985,-1.147104 3.65871,-0.816477 4.64436,0.527904 0.41946,0.572138 0.72863,2.048248 0.72863,3.478858 0,1.36678 -0.064,2.48505 -0.14223,2.48505 -0.0782,0 -1.01231,-0.42379 -2.07574,-0.94175 -1.06344,-0.51797 -2.34031,-0.94175 -2.83748,-0.94175 -1.09096,0 -3.32357,2.0305 -3.32357,3.02272 0,0.39113 0.48149,0.95733 1.06997,1.25821 0.87127,0.44546 1.17884,0.40481 1.65621,-0.21887 0.815,-1.06481 3.03549,-0.97702 3.66396,0.14486 0.28062,0.50094 0.51023,2.58456 0.51023,4.63028 0,2.0457 0.14787,3.86073 0.32859,4.03339 0.50612,0.48352 1.54702,0.37226 1.92066,-0.20533 z"
           id="path12477" />
      </g>
    </g>
  </g>
</svg>
