<?xml version="1.0" encoding="UTF-8" standalone="no"?>
<!-- Creator: CorelDRAW 2017 -->

<svg
   xml:space="preserve"
   width="297mm"
   height="210mm"
   version="1.1"
   style="shape-rendering:geometricPrecision; text-rendering:geometricPrecision; image-rendering:optimizeQuality; fill-rule:evenodd; clip-rule:evenodd"
   viewBox="0 0 29700 21000"
   id="svg10748"
   sodipodi:docname="wl20.svg"
   inkscape:version="1.1.1 (3bf5ae0d25, 2021-09-20)"
   xmlns:inkscape="http://www.inkscape.org/namespaces/inkscape"
   xmlns:sodipodi="http://sodipodi.sourceforge.net/DTD/sodipodi-0.dtd"
   xmlns="http://www.w3.org/2000/svg"
   xmlns:svg="http://www.w3.org/2000/svg"><sodipodi:namedview
   id="namedview10750"
   pagecolor="#ffffff"
   bordercolor="#666666"
   borderopacity="1.0"
   inkscape:pageshadow="2"
   inkscape:pageopacity="0.0"
   inkscape:pagecheckerboard="0"
   inkscape:document-units="mm"
   showgrid="false"
   inkscape:zoom="0.25261409"
   inkscape:cx="789.74218"
   inkscape:cy="251.37157"
   inkscape:window-width="1920"
   inkscape:window-height="991"
   inkscape:window-x="-9"
   inkscape:window-y="-9"
   inkscape:window-maximized="1"
   inkscape:current-layer="Warstwa_x0020_1" />
 <defs
   id="defs10541">
  <style
   type="text/css"
   id="style10539">
   <![CDATA[
    .str7 {stroke:#CCCC33;stroke-width:67.73}
    .str3 {stroke:#FF9999;stroke-width:49.06}
    .str8 {stroke:#669966;stroke-width:133.65}
    .str5 {stroke:#009933;stroke-width:98.13}
    .str6 {stroke:#FF99CC;stroke-width:98.13}
    .str11 {stroke:#CCCCFF;stroke-width:98.13}
    .str9 {stroke:#339966;stroke-width:104.06}
    .str2 {stroke:#FFCC00;stroke-width:78.49}
    .str4 {stroke:#669933;stroke-width:78.49}
    .str10 {stroke:#FF9933;stroke-width:147.97}
    .str0 {stroke:#00CCFF;stroke-width:94.53}
    .str1 {stroke:#999933;stroke-width:94.53}
    .str12 {stroke:red;stroke-width:94.53}
    .str13 {stroke:#990000;stroke-width:102.26}
    .fil5 {fill:#009933}
    .fil0 {fill:#00CCFF}
    .fil9 {fill:#339966}
    .fil12 {fill:#33CC99}
    .fil4 {fill:#669933}
    .fil8 {fill:#669966}
    .fil14 {fill:#990000}
    .fil1 {fill:#999933}
    .fil7 {fill:#CCCC33}
    .fil11 {fill:#CCCCFF}
    .fil13 {fill:red}
    .fil10 {fill:#FF9933}
    .fil3 {fill:#FF9999}
    .fil6 {fill:#FF99CC}
    .fil2 {fill:#FFCC00}
   ]]>
  </style>
 </defs>
 <g
   id="Warstwa_x0020_1"
   inkscape:label="Warstwa 1">
  <metadata
   id="CorelCorpID_0Corel-Layer" />
  
  
  
  
  <path
   class="fil4 str4"
   d="m 19373.547,8005.1583 c -229.534,192.5119 -211.023,281.3635 -681.196,655.2807 -903.325,718.2172 -507.195,995.8781 -2025.076,-203.6183 -562.727,-444.2581 -444.258,-277.6613 -795.963,40.7236 -222.129,199.9162 -899.622,829.2818 -1136.56,844.0904 -403.534,25.915 -1155.071,-936.6441 -1558.605,-1106.943 -285.066,88.8516 -377.62,381.3215 -592.344,570.1311 -1314.264,1177.2835 -1069.922,436.8538 -1784.437,-111.0645 -48.128,-37.0215 18.511,-18.5107 -96.256,-55.5322 -125.873,-40.7237 -85.149,-11.1065 -114.767,-7.4043 -177.703,555.3225 351.705,536.8118 703.409,925.5376 111.065,122.1706 103.66,218.4265 203.618,355.4061 540.514,-7.4043 1132.858,-1092.1341 1566.01,-1258.7308 403.534,-151.7882 581.238,270.2569 870.005,447.9602 784.856,481.2795 581.238,1110.6441 1532.691,85.1494 340.598,-366.5129 621.961,-899.6225 1255.029,-429.4494 148.086,111.0645 251.746,151.7881 414.641,262.8527 199.916,136.9795 155.49,188.8096 351.704,322.0871 207.32,140.6817 185.107,103.6602 355.406,303.5759 655.281,18.5108 955.155,-1173.5813 1699.287,-1269.8372 447.961,-59.2344 1569.712,1214.3053 1802.948,1195.7946 214.724,-18.5108 1044.006,-1095.8366 1573.414,-1225.4118 362.81,-88.8516 932.942,510.8967 1280.944,792.2602 196.214,155.4903 192.512,244.3419 314.682,403.5344 725.622,77.7451 596.047,-459.0667 1636.351,-1221.7097 377.619,-277.6613 596.046,148.086 907.027,351.7043 259.15,170.2989 203.618,140.6817 377.619,351.7043 33.32,40.7237 144.384,159.1925 185.108,188.8097 22.213,14.8086 62.936,40.7236 96.256,44.4258 329.491,55.5322 211.022,-281.3634 -136.98,-533.1097 -181.405,-129.5752 -344.3,-288.7677 -514.599,-422.0451 -170.299,-136.9796 -362.811,-218.4269 -536.812,-348.0022 -292.47,-214.7247 -429.449,-162.8946 -573.833,111.0645 -181.405,348.0022 -133.277,236.9377 -433.152,455.3645 -447.96,322.0871 -718.217,818.1753 -1188.39,433.1517 l -1003.283,-814.4732 c -410.938,-344.3 -285.065,-248.044 -1106.943,366.5129 -385.023,288.7678 -688.6,781.1538 -1118.049,559.0248 -651.579,-336.8957 -1199.497,-1151.3688 -1736.309,-1058.8151 z"
   id="path10552" />
  
  
  
  
  
  
  
  
  
  
  
  
  <g
   id="_1831517837056"
   transform="matrix(3.7021505,0,0,3.7021505,-75042.397,-19627.693)">
   <path
   class="fil4 str4"
   d="m 27294,7885 c -19,107 24,138 125,139 23,-34 77,-83 38,-143 -44,-68 -127,-26 -164,3 z"
   id="path10668" />
   <path
   class="fil4 str4"
   d="m 25472,7878 c -8,78 -13,110 43,149 151,51 168,-275 -43,-149 z"
   id="path10670" />
   <path
   class="fil4 str4"
   d="m 26526,8004 c 72,-109 -21,-195 -119,-147 -72,35 -22,182 119,147 z"
   id="path10672" />
   <path
   class="fil4 str4"
   d="m 27685,7366 c -56,101 -11,221 82,167 56,-32 81,-199 -82,-167 z"
   id="path10674" />
   <path
   class="fil4 str4"
   d="m 25926,7414 c 3,174 146,124 164,56 13,-51 -4,-102 -53,-107 -44,-4 -85,32 -111,51 z"
   id="path10676" />
   <path
   class="fil4 str4"
   d="m 24750,8011 c 21,-65 -1,-88 -37,-124 -215,-3 -60,311 37,124 z"
   id="path10678" />
   <path
   class="fil4 str4"
   d="m 25139,7446 c -27,-49 -45,-72 -114,-72 -146,130 90,262 114,72 z"
   id="path10680" />
   <path
   class="fil4 str4"
   d="m 23395,7601 c 127,-6 122,-104 42,-169 -125,4 -118,113 -42,169 z"
   id="path10682" />
   <path
   class="fil4 str4"
   d="m 26961,7526 c 76,-97 16,-188 -77,-150 -59,24 -57,153 77,150 z"
   id="path10684" />
   <path
   class="fil4 str4"
   d="m 23853,8077 c 24,-53 38,-24 32,-111 -32,-32 -102,-75 -136,-10 -46,90 25,124 104,121 z"
   id="path10686" />
   <path
   class="fil4 str4"
   d="m 24213,7572 c 71,37 94,-30 96,-101 -152,-139 -157,46 -96,101 z"
   id="path10688" />
  </g>
  
  
 </g>
</svg>
