<?xml version="1.0" encoding="UTF-8" standalone="no"?>
<!-- Creator: CorelDRAW 2017 -->

<svg
   xml:space="preserve"
   width="297mm"
   height="210mm"
   version="1.1"
   style="shape-rendering:geometricPrecision; text-rendering:geometricPrecision; image-rendering:optimizeQuality; fill-rule:evenodd; clip-rule:evenodd"
   viewBox="0 0 29700 21000"
   id="svg10748"
   sodipodi:docname="wl21.svg"
   inkscape:version="1.1.1 (3bf5ae0d25, 2021-09-20)"
   xmlns:inkscape="http://www.inkscape.org/namespaces/inkscape"
   xmlns:sodipodi="http://sodipodi.sourceforge.net/DTD/sodipodi-0.dtd"
   xmlns="http://www.w3.org/2000/svg"
   xmlns:svg="http://www.w3.org/2000/svg"><sodipodi:namedview
   id="namedview10750"
   pagecolor="#ffffff"
   bordercolor="#666666"
   borderopacity="1.0"
   inkscape:pageshadow="2"
   inkscape:pageopacity="0.0"
   inkscape:pagecheckerboard="0"
   inkscape:document-units="mm"
   showgrid="false"
   inkscape:zoom="0.25261409"
   inkscape:cx="789.74218"
   inkscape:cy="251.37157"
   inkscape:window-width="1920"
   inkscape:window-height="991"
   inkscape:window-x="-9"
   inkscape:window-y="-9"
   inkscape:window-maximized="1"
   inkscape:current-layer="Warstwa_x0020_1" />
 <defs
   id="defs10541">
  <style
   type="text/css"
   id="style10539">
   <![CDATA[
    .str7 {stroke:#CCCC33;stroke-width:67.73}
    .str3 {stroke:#FF9999;stroke-width:49.06}
    .str8 {stroke:#669966;stroke-width:133.65}
    .str5 {stroke:#009933;stroke-width:98.13}
    .str6 {stroke:#FF99CC;stroke-width:98.13}
    .str11 {stroke:#CCCCFF;stroke-width:98.13}
    .str9 {stroke:#339966;stroke-width:104.06}
    .str2 {stroke:#FFCC00;stroke-width:78.49}
    .str4 {stroke:#669933;stroke-width:78.49}
    .str10 {stroke:#FF9933;stroke-width:147.97}
    .str0 {stroke:#00CCFF;stroke-width:94.53}
    .str1 {stroke:#999933;stroke-width:94.53}
    .str12 {stroke:red;stroke-width:94.53}
    .str13 {stroke:#990000;stroke-width:102.26}
    .fil5 {fill:#009933}
    .fil0 {fill:#00CCFF}
    .fil9 {fill:#339966}
    .fil12 {fill:#33CC99}
    .fil4 {fill:#669933}
    .fil8 {fill:#669966}
    .fil14 {fill:#990000}
    .fil1 {fill:#999933}
    .fil7 {fill:#CCCC33}
    .fil11 {fill:#CCCCFF}
    .fil13 {fill:red}
    .fil10 {fill:#FF9933}
    .fil3 {fill:#FF9999}
    .fil6 {fill:#FF99CC}
    .fil2 {fill:#FFCC00}
   ]]>
  </style>
 </defs>
 <g
   id="Warstwa_x0020_1"
   inkscape:label="Warstwa 1">
  <metadata
   id="CorelCorpID_0Corel-Layer" />
  
  
  
  
  
  
  
  <g
   id="_1795965938576"
   transform="matrix(2.9174931,0,0,2.9174931,-10611.669,-20488.014)">
   <path
   class="fil7 str7"
   d="m 7329,10684 c 60,-13 38,7 69,-80 67,-185 41,-255 135,-306 84,30 148,139 143,255 -5,109 -125,205 -69,296 100,-19 60,-87 110,-184 106,-10 127,20 151,110 28,106 2,160 110,147 45,-132 -122,-174 -71,-310 l 182,-28 c -15,-98 -23,-78 -128,-76 -219,4 -197,-19 -264,-120 -37,-55 -59,-63 -48,-147 131,-27 293,59 402,15 -3,-141 -298,-119 -402,-105 -100,14 -145,-14 -241,-124 -133,-151 -221,-179 -349,-300 -28,-26 -269,-192 -335,-186 -56,161 155,154 259,224 323,217 266,235 396,346 162,138 -3,219 -49,350 -25,73 -52,153 -3,222 z"
   id="path10568" />
   <path
   class="fil7 str7"
   d="m 9197,10575 c 79,-19 81,-38 94,-133 9,-67 19,-149 48,-197 125,-21 177,78 184,198 8,143 -116,222 -40,329 91,-42 13,-133 111,-220 113,20 109,135 143,230 26,74 13,54 62,67 92,-141 -78,-150 -56,-314 103,-16 132,25 211,-11 7,-118 -170,-67 -299,-106 -67,-20 -215,-199 -153,-255 52,-27 99,-3 172,15 14,4 84,22 92,23 35,4 75,6 91,-21 34,-139 -219,-95 -319,-96 -219,-1 -223,-72 -326,-170 -234,-224 -268,-181 -411,-332 -42,-44 -109,-68 -190,-66 -28,173 75,75 360,305 43,34 92,63 142,99 339,248 1,407 84,655 z"
   id="path10570" />
   <path
   class="fil7 str7"
   d="m 11113,10033 c 31,198 -143,346 -71,483 68,-17 44,7 79,-180 33,-176 118,-266 213,-73 28,58 48,101 38,174 -5,39 -37,122 -50,175 -20,82 -32,111 36,147 61,-68 15,-137 54,-246 247,-108 101,239 261,289 52,-100 -57,-117 -24,-273 128,-33 117,49 211,6 -14,-126 -169,-78 -331,-134 -81,-28 -195,-184 -170,-288 153,-29 242,78 375,39 -7,-131 -88,-102 -263,-119 -531,-53 -279,-63 -514,-249 -66,-52 -168,-129 -231,-158 -61,-28 -182,-147 -242,-90 -132,124 199,35 522,405 47,54 54,53 107,94 z"
   id="path10572" />
   <path
   class="fil7 str7"
   d="m 12195,9566 c 19,154 143,43 351,245 68,66 285,140 222,351 -23,76 -75,271 -36,336 34,-7 47,41 79,-141 12,-66 11,-142 33,-190 152,-16 189,172 186,219 -5,86 -144,229 -58,329 93,-23 33,-116 75,-233 251,-47 111,352 286,339 82,-117 -78,-178 -78,-324 69,-47 88,-13 107,-92 -141,-121 -198,81 -320,-162 -27,-54 -40,-85 -33,-153 112,-17 191,55 277,0 -7,-110 -108,-81 -313,-97 -249,-20 -346,-260 -513,-339 -99,-47 -196,-175 -266,-87 z"
   id="path10574" />
  </g>
  
  
  
  
  
  
  
  
  
  
  
  
 </g>
</svg>
