<?xml version="1.0" encoding="UTF-8" standalone="no"?>
<!-- Creator: CorelDRAW 2017 -->

<svg
   xml:space="preserve"
   width="297mm"
   height="210mm"
   version="1.1"
   style="shape-rendering:geometricPrecision; text-rendering:geometricPrecision; image-rendering:optimizeQuality; fill-rule:evenodd; clip-rule:evenodd"
   viewBox="0 0 29700 21000"
   id="svg10748"
   sodipodi:docname="wl22.svg"
   inkscape:version="1.1.1 (3bf5ae0d25, 2021-09-20)"
   xmlns:inkscape="http://www.inkscape.org/namespaces/inkscape"
   xmlns:sodipodi="http://sodipodi.sourceforge.net/DTD/sodipodi-0.dtd"
   xmlns="http://www.w3.org/2000/svg"
   xmlns:svg="http://www.w3.org/2000/svg"><sodipodi:namedview
   id="namedview10750"
   pagecolor="#ffffff"
   bordercolor="#666666"
   borderopacity="1.0"
   inkscape:pageshadow="2"
   inkscape:pageopacity="0.0"
   inkscape:pagecheckerboard="0"
   inkscape:document-units="mm"
   showgrid="false"
   inkscape:zoom="0.25261409"
   inkscape:cx="789.74218"
   inkscape:cy="251.37157"
   inkscape:window-width="1920"
   inkscape:window-height="991"
   inkscape:window-x="-9"
   inkscape:window-y="-9"
   inkscape:window-maximized="1"
   inkscape:current-layer="Warstwa_x0020_1" />
 <defs
   id="defs10541">
  <style
   type="text/css"
   id="style10539">
   <![CDATA[
    .str7 {stroke:#CCCC33;stroke-width:67.73}
    .str3 {stroke:#FF9999;stroke-width:49.06}
    .str8 {stroke:#669966;stroke-width:133.65}
    .str5 {stroke:#009933;stroke-width:98.13}
    .str6 {stroke:#FF99CC;stroke-width:98.13}
    .str11 {stroke:#CCCCFF;stroke-width:98.13}
    .str9 {stroke:#339966;stroke-width:104.06}
    .str2 {stroke:#FFCC00;stroke-width:78.49}
    .str4 {stroke:#669933;stroke-width:78.49}
    .str10 {stroke:#FF9933;stroke-width:147.97}
    .str0 {stroke:#00CCFF;stroke-width:94.53}
    .str1 {stroke:#999933;stroke-width:94.53}
    .str12 {stroke:red;stroke-width:94.53}
    .str13 {stroke:#990000;stroke-width:102.26}
    .fil5 {fill:#009933}
    .fil0 {fill:#00CCFF}
    .fil9 {fill:#339966}
    .fil12 {fill:#33CC99}
    .fil4 {fill:#669933}
    .fil8 {fill:#669966}
    .fil14 {fill:#990000}
    .fil1 {fill:#999933}
    .fil7 {fill:#CCCC33}
    .fil11 {fill:#CCCCFF}
    .fil13 {fill:red}
    .fil10 {fill:#FF9933}
    .fil3 {fill:#FF9999}
    .fil6 {fill:#FF99CC}
    .fil2 {fill:#FFCC00}
   ]]>
  </style>
 </defs>
 <g
   id="Warstwa_x0020_1"
   inkscape:label="Warstwa 1">
  <metadata
   id="CorelCorpID_0Corel-Layer" />
  
  
  
  
  
  
  
  
  
  
  
  
  
  
  
  
  
  
  
  <g
   id="_1831187041136"
   transform="matrix(2.1261494,0,0,2.1261494,6498.2681,-20967.982)">
   <path
   class="fil14 str13"
   d="m 3077,14240 c 168,17 127,-152 217,-249 49,-53 111,-42 198,-42 182,1 88,20 183,69 150,-87 188,-86 394,-42 135,29 81,-63 378,-1 25,211 -117,88 -86,234 110,-5 102,-161 174,-233 69,-69 270,-50 345,0 3,136 -75,62 -92,204 124,-29 108,-126 178,-198 56,-57 253,-75 317,-29 12,11 63,4 -18,105 l -44,66 c -1,4 -1,9 -1,13 0,41 -4,14 12,41 66,-20 51,-19 86,-85 18,-33 41,-100 61,-122 46,-49 216,-60 278,-11 44,107 -81,127 -94,243 89,-1 75,-16 112,-86 23,-43 57,-104 85,-134 54,-58 268,-81 344,-37 10,8 72,16 -39,119 -45,42 -69,56 -67,137 105,-17 132,-153 187,-219 114,-136 390,-99 252,84 -9,12 -43,47 -45,50 -14,20 -10,7 -17,34 -6,27 -2,27 2,39 166,12 38,-364 486,-253 11,164 -131,125 -119,248 123,15 150,-154 210,-223 80,-93 306,-43 399,-12 83,-54 35,-60 183,-53 85,4 147,2 197,54 -10,134 -103,98 -102,219 134,-9 112,-139 193,-226 70,-75 263,-57 355,-21 -5,87 -55,89 -69,160 -17,85 1,50 14,68 92,-48 69,-157 144,-224 54,-48 267,-65 321,-11 57,57 -49,111 -69,220 150,-13 83,-136 182,-218 75,-62 212,-81 303,-14 2,159 -142,113 -104,249 l 72,-1 c 94,-51 85,-245 217,-275 73,-17 187,-40 198,48 3,27 13,-2 -3,44 -33,94 -185,80 -137,220 126,14 235,-204 266,-305 65,-211 -285,-426 -225,-268 25,65 130,84 58,158 -64,45 -208,40 -263,-9 -67,-60 -44,-177 -159,-169 -46,102 62,63 7,187 l -29,13 c -6,2 -156,52 -221,-48 -64,-98 0,-138 -168,-156 21,141 90,60 88,211 -464,124 -327,-277 -497,-201 -22,18 -60,-5 21,83 45,49 61,28 52,118 -77,42 -219,30 -309,13 -41,-57 -132,-329 -223,-174 43,98 115,27 91,182 -331,52 -290,4 -396,-153 -45,-66 -32,-79 -113,-58 12,124 113,92 67,196 -80,42 -225,41 -296,9 -95,-87 0,-219 -182,-207 -6,145 116,98 57,220 l -309,21 c -48,-65 -78,-225 -175,-226 -43,163 72,49 54,201 -65,45 -209,57 -267,-7 -68,-75 -47,-215 -173,-193 -3,102 134,93 63,228 -86,30 -238,13 -289,-36 -53,-52 -75,-225 -168,-181 -14,27 -27,-39 -6,46 16,65 176,143 24,179 -49,12 -154,21 -197,-8 -54,-80 -112,-254 -233,-240 -22,165 141,86 115,239 -429,126 -357,-251 -535,-200 -10,126 116,29 78,207 -124,32 -251,6 -315,-60 -74,-76 -85,-198 -193,-152 -1,132 168,76 119,227 -466,97 -313,-319 -520,-205 18,110 132,57 101,194 -56,22 -278,38 -329,-7 -68,-59 -60,-210 -196,-205 16,119 151,110 85,194 -46,56 -230,54 -296,22 -67,-46 -47,-45 -71,-131 -11,-41 -8,-56 -42,-74 -66,-36 -64,-3 -86,12 30,96 113,77 97,201 l -313,24 c -98,-106 -54,-182 -185,-189 22,112 69,45 39,168 -57,22 -259,21 -320,7 -107,-24 -76,-128 -173,-169 23,72 71,82 35,144 -65,53 -242,46 -313,-9 -94,-74 -15,-182 -181,-185 12,93 7,23 54,95 52,79 21,64 18,82 -14,86 -195,35 -275,57 24,135 81,71 205,71 164,-1 48,51 231,3 69,-18 181,-22 252,-5 146,35 317,-16 513,16 62,10 511,-101 400,92 -43,74 -116,34 -125,161 z"
   id="path10726" />
   <path
   class="fil14 str13"
   d="m 2936,15618 1264,4 c 161,-3 210,-45 401,-32 261,18 538,21 808,36 l 861,-12 c 188,-14 655,30 789,9 81,-13 122,-7 201,-5 114,3 100,-15 188,-31 93,-17 282,28 397,26 173,-2 222,-12 393,15 162,25 202,-54 365,-20 46,9 111,32 162,40 138,22 93,-6 187,-32 l 400,-8 c 119,155 189,54 169,-86 -118,-74 -827,-24 -1017,-17 -87,3 -743,32 -792,10 -2,-1 -153,-117 -153,-117 25,-494 8,-231 247,-435 39,-34 54,-51 101,-83 71,-48 76,-26 81,-106 -105,-31 -108,31 -183,97 -63,56 -119,118 -217,107 -113,-342 199,-237 214,-405 -110,-1 -95,54 -202,41 -35,-54 -16,-43 -34,-96 -25,-73 -5,-50 -59,-69 -57,91 35,156 -56,177 -63,15 -72,-62 -177,-46 5,154 93,66 180,146 67,61 65,184 44,280 -186,40 -216,-207 -322,-172 -23,69 23,65 79,112 56,48 66,82 121,117 73,45 95,26 119,120 17,65 17,147 -3,198 -104,39 -251,-127 -336,-223 -53,-59 -40,-88 -134,-76 -12,100 66,92 187,207 134,127 177,135 155,238 -198,48 -807,-60 -966,46 -72,-96 -40,-23 -164,-23 -83,0 -99,-30 -217,-21 l -1160,10 c -118,-5 -78,-54 -77,-132 -95,-38 -72,25 -109,-69 -76,-196 111,-226 185,-279 53,-38 46,-36 103,-60 69,-30 73,-16 85,-88 -147,-78 -158,202 -367,148 -44,-308 150,-171 209,-311 -105,-61 -63,52 -202,6 l -11,-216 c -97,14 -41,86 -96,191 -137,22 -100,-69 -200,-32 -3,150 302,71 220,381 -125,39 -202,-84 -259,-141 -49,-49 -53,-39 -108,-22 23,70 -11,13 51,63 l 190,157 c 74,44 79,20 118,103 27,57 52,126 12,189 -117,129 -449,-265 -449,-266 -26,-16 -157,-18 61,144 141,105 177,123 176,224 l -1546,8 c -139,-3 -379,36 -493,-2 -20,-128 188,-222 296,-269 83,-36 90,-28 106,-104 -185,6 -314,242 -497,264 -31,4 -17,-3 -50,5 -57,14 1,-4 -39,17 -157,84 -182,-10 -286,-82 -181,-124 -141,-199 -256,-163 -5,103 70,92 148,144 86,57 240,199 28,197 -48,0 -70,-12 -114,-16 -84,-8 -148,4 -150,77 81,51 194,4 299,2 132,-3 254,-11 386,-11 139,0 188,33 329,30 126,-3 257,-3 385,-4 z"
   id="path10728" />
   <path
   class="fil14 str13"
   d="m 3108,12413 c -1,189 -354,236 -377,407 77,35 113,-33 256,-166 76,-70 156,-191 289,-164 83,347 -274,310 -345,516 97,-16 100,-36 159,-88 228,-198 235,114 137,189 -75,58 -147,55 -173,143 123,19 67,-60 209,-63 l 58,86 c 152,-130 100,-3 239,0 -24,-129 -127,-79 -204,-148 -55,-49 -11,-202 12,-259 134,-13 110,21 180,84 44,39 111,88 171,45 -27,-92 -362,-224 -378,-257 l -15,-235 c 262,-111 139,-121 556,-116 272,3 1932,-5 1960,19 89,77 -177,253 -232,286 -82,48 -94,22 -91,106 102,51 150,-72 246,-154 48,-41 74,-60 115,-104 42,-46 63,-87 158,-69 63,199 -21,244 -142,321 -29,18 -205,192 -213,262 171,-10 201,-292 361,-223 41,82 3,179 -43,228 -60,64 -157,62 -155,176 125,-10 94,-86 164,-72 101,22 -22,108 77,165 65,-48 16,-66 37,-166 138,-16 40,44 182,34 -26,-138 -286,-69 -168,-347 153,-14 160,151 268,152 13,-92 -45,-62 -119,-138 -59,-61 -106,-89 -166,-124 -39,-273 10,-151 103,-313 23,-39 39,-52 42,-120 l -2422,-9 c -202,4 -385,38 -586,33 -202,-5 -383,-31 -586,-33 -196,-2 -385,11 -587,6 -209,-5 -498,-58 -504,79 120,77 1383,-53 1526,29 z"
   id="path10730" />
   <path
   class="fil14 str13"
   d="m 8710,12389 c 12,83 24,42 -185,193 -79,57 -200,109 -185,208 117,6 298,-316 460,-300 59,103 38,209 -76,270 -83,44 -55,41 -114,88 -54,43 -95,35 -89,127 114,-16 158,-176 283,-156 86,229 -151,217 -176,348 l 177,-41 c 22,88 -12,125 48,169 52,-52 24,-70 50,-136 l 142,19 c -12,-113 -221,-117 -129,-318 18,-10 8,-14 44,-14 114,0 143,176 296,184 0,-90 -19,-85 -81,-128 -47,-32 -83,-54 -130,-90 -56,-43 -229,-149 -115,-269 71,-45 319,230 404,255 41,12 56,9 86,-12 -14,-69 8,-22 -34,-62 -10,-10 -48,-29 -67,-42 -41,-26 -77,-56 -118,-84 -90,-62 -228,-79 -206,-207 113,-44 556,42 492,-100 -38,-53 -294,-11 -350,-7 -394,31 -779,8 -1171,-5 -125,-4 -259,16 -383,7 -383,-27 -346,-9 -716,-2 -77,2 -324,-11 -391,30 l 3,55 c 67,46 87,9 260,17 262,12 527,-22 861,0 177,12 1034,-34 1111,2 z"
   id="path10732" />
   <path
   class="fil14 str13"
   d="m 2164,15263 c 63,-29 167,-77 237,-115 69,-37 183,-81 203,-169 -146,13 -295,273 -402,93 l -22,19 c -203,167 -307,-216 -432,-102 21,53 229,173 297,206 57,28 72,43 118,69 z"
   id="path10734" />
   <path
   class="fil14 str13"
   d="m 2198,14985 c 82,-183 162,-67 216,-166 -29,-21 10,-9 -38,-14 -75,-8 -97,24 -142,-21 -44,-61 -16,-23 -21,-92 -6,-69 28,-55 -36,-85 -53,62 5,64 -23,172 -140,57 -168,-81 -282,-24 6,116 158,77 253,158 l 73,73 z"
   id="path10736" />
   <path
   class="fil14 str13"
   d="m 8103,15079 c -76,-9 -355,211 -378,292 124,-30 381,-227 378,-292 z"
   id="path10738" />
   <path
   class="fil14 str13"
   d="m 1915,14104 c -78,3 -141,72 -145,151 84,-11 133,-63 145,-151 z"
   id="path10740" />
   <path
   class="fil14 str13"
   d="m 7319,14048 c -70,11 -105,34 -102,105 85,16 106,-22 102,-105 z"
   id="path10742" />
   <path
   class="fil14 str13"
   d="m 6408,12386 15,-80 -97,-7 c -4,82 -3,91 82,87 z"
   id="path10744" />
  </g>
 </g>
</svg>
