<?xml version="1.0" encoding="UTF-8" standalone="no"?>
<!-- Creator: CorelDRAW 2017 -->

<svg
   xml:space="preserve"
   width="297mm"
   height="210mm"
   version="1.1"
   style="shape-rendering:geometricPrecision; text-rendering:geometricPrecision; image-rendering:optimizeQuality; fill-rule:evenodd; clip-rule:evenodd"
   viewBox="0 0 29700 21000"
   id="svg10748"
   sodipodi:docname="wl23.svg"
   inkscape:version="1.1.1 (3bf5ae0d25, 2021-09-20)"
   xmlns:inkscape="http://www.inkscape.org/namespaces/inkscape"
   xmlns:sodipodi="http://sodipodi.sourceforge.net/DTD/sodipodi-0.dtd"
   xmlns="http://www.w3.org/2000/svg"
   xmlns:svg="http://www.w3.org/2000/svg"><sodipodi:namedview
   id="namedview10750"
   pagecolor="#ffffff"
   bordercolor="#666666"
   borderopacity="1.0"
   inkscape:pageshadow="2"
   inkscape:pageopacity="0.0"
   inkscape:pagecheckerboard="0"
   inkscape:document-units="mm"
   showgrid="false"
   inkscape:zoom="0.25261409"
   inkscape:cx="789.74218"
   inkscape:cy="251.37157"
   inkscape:window-width="1920"
   inkscape:window-height="991"
   inkscape:window-x="-9"
   inkscape:window-y="-9"
   inkscape:window-maximized="1"
   inkscape:current-layer="Warstwa_x0020_1" />
 <defs
   id="defs10541">
  <style
   type="text/css"
   id="style10539">
   <![CDATA[
    .str7 {stroke:#CCCC33;stroke-width:67.73}
    .str3 {stroke:#FF9999;stroke-width:49.06}
    .str8 {stroke:#669966;stroke-width:133.65}
    .str5 {stroke:#009933;stroke-width:98.13}
    .str6 {stroke:#FF99CC;stroke-width:98.13}
    .str11 {stroke:#CCCCFF;stroke-width:98.13}
    .str9 {stroke:#339966;stroke-width:104.06}
    .str2 {stroke:#FFCC00;stroke-width:78.49}
    .str4 {stroke:#669933;stroke-width:78.49}
    .str10 {stroke:#FF9933;stroke-width:147.97}
    .str0 {stroke:#00CCFF;stroke-width:94.53}
    .str1 {stroke:#999933;stroke-width:94.53}
    .str12 {stroke:red;stroke-width:94.53}
    .str13 {stroke:#990000;stroke-width:102.26}
    .fil5 {fill:#009933}
    .fil0 {fill:#00CCFF}
    .fil9 {fill:#339966}
    .fil12 {fill:#33CC99}
    .fil4 {fill:#669933}
    .fil8 {fill:#669966}
    .fil14 {fill:#990000}
    .fil1 {fill:#999933}
    .fil7 {fill:#CCCC33}
    .fil11 {fill:#CCCCFF}
    .fil13 {fill:red}
    .fil10 {fill:#FF9933}
    .fil3 {fill:#FF9999}
    .fil6 {fill:#FF99CC}
    .fil2 {fill:#FFCC00}
   ]]>
  </style>
 </defs>
 <g
   id="Warstwa_x0020_1"
   inkscape:label="Warstwa 1">
  <metadata
   id="CorelCorpID_0Corel-Layer" />
  
  
  
  
  
  
  
  
  
  
  
  <g
   id="_1831515995808"
   transform="matrix(2.0124027,0,0,2.0124027,-8567.7723,-28784.833)">
   <path
   class="fil10 str10"
   d="m 14175,18417 c 65,-120 -60,-118 -36,-303 157,-48 345,36 454,96 l 5,286 c 116,-43 15,23 73,-92 106,-208 129,-33 339,105 130,86 218,103 215,272 -92,76 -137,67 -232,137 -87,64 -130,126 -261,128 -34,-59 -36,-128 -81,-191 -34,55 -30,102 -32,173 -3,112 29,237 -295,285 -175,26 -141,-89 -152,-150 l -25,-89 c -157,134 6,291 -227,364 -384,121 -236,-118 -303,-221 -134,34 -98,178 -250,220 -120,33 -297,-36 -357,-91 -15,-190 79,-87 42,-254 -149,10 -127,135 -264,168 -117,28 -241,-61 -282,-152 43,-160 134,-51 87,-195 -130,-40 -116,100 -325,65 -228,-39 -298,-316 -9,-433 164,-66 187,46 383,45 -54,-141 -125,-60 -78,-212 12,-39 178,-281 358,-167 130,82 -10,92 183,140 -40,-198 -80,-38 -80,-224 107,-107 232,-109 411,-76 73,87 122,271 283,261 -39,-112 -377,-353 133,-312 350,29 102,300 320,418 z m 3240,-643 c -12,-232 158,-79 129,-340 -178,7 -170,123 -246,263 -57,106 -223,175 -335,77 -94,-134 148,-103 36,-327 -230,7 -128,487 -519,468 -248,-12 11,-186 -115,-361 -205,13 -84,327 -175,465 -32,49 -131,90 -193,125 -111,63 -96,96 -242,96 -49,-168 149,-427 -82,-392 -146,249 168,482 -284,724 -134,71 -219,-73 -326,-142 -504,-324 -103,-261 -43,-438 -98,-165 -232,43 -357,91 -87,33 -177,6 -264,-23 -100,-34 -122,-43 -134,-147 90,-146 126,-2 128,-193 -170,-56 -233,76 -315,147 -87,76 -259,94 -357,21 -66,-151 60,-102 52,-260 -127,-18 -176,96 -265,172 -114,96 -320,213 -489,209 -67,-210 90,-152 33,-348 -200,-3 -182,296 -284,432 -66,87 -127,71 -210,162 -70,77 -73,139 -232,105 -62,-181 59,-298 -30,-425 -262,69 110,489 -277,684 -165,83 -192,-39 -327,-103 -112,-54 -230,-89 -273,-205 73,-149 151,-34 152,-204 -145,-14 -486,271 -707,-34 40,-168 162,-79 160,-266 -194,-17 -235,229 -565,175 -418,-68 -7,-235 -130,-352 -22,-15 -5,-58 -90,1 -73,51 -106,195 -173,254 -71,63 -463,166 -471,2 -2,-51 14,-40 53,-132 35,-80 8,-121 -82,-128 -37,36 -136,273 -163,339 -49,116 -202,184 -322,118 -55,-119 154,-371 -115,-318 -32,74 -23,198 -41,301 -24,136 -67,147 -75,279 73,36 181,45 250,89 76,49 78,104 183,98 21,-131 -83,-103 -123,-247 277,-350 409,49 520,68 90,16 29,11 81,-15 -48,-191 -136,-22 -132,-239 101,-67 359,-80 476,-58 69,133 37,220 94,319 145,-11 85,-82 88,-183 0,-6 1,-15 2,-20 1,-5 5,-15 5,-19 28,-147 290,-44 336,11 91,109 -1,216 127,259 103,-135 -70,-275 238,-152 228,91 177,80 177,331 142,-26 59,-34 167,-108 44,9 390,181 418,203 15,187 -251,431 -418,444 -70,-118 -1,-167 -167,-142 l 10,308 c -79,87 -134,147 -301,138 -48,-109 -4,-151 -124,-158 -68,131 21,289 -164,333 -158,37 -194,3 -227,-126 -2,-8 -4,-16 -6,-23 l -17,-44 c -1,-12 -6,-15 -11,-22 -122,30 -85,147 -187,267 -455,65 -309,-12 -342,-285 -289,11 -58,355 -583,132 -1,-189 68,-32 49,-238 -129,-38 -103,-12 -205,33 -84,37 -136,31 -212,52 -8,94 68,254 100,367 42,146 12,274 153,281 118,-193 -66,-199 32,-362 92,-43 142,-18 223,17 307,130 77,469 334,522 55,-78 29,-94 27,-108 -11,-83 3,12 -34,-80 -103,-264 121,-219 300,-221 404,-4 228,444 490,389 67,-232 -171,-129 -76,-365 93,-106 294,-133 410,-53 97,67 209,212 330,180 11,-30 27,42 7,-66 -20,-110 -178,-85 -203,-189 -32,-137 228,-243 329,-229 153,20 223,156 431,127 -3,-190 -117,-100 -258,-190 -13,-183 120,-203 221,-302 90,-89 139,-266 286,-209 30,12 97,82 147,118 286,208 38,326 167,578 l 97,-3 c 32,-124 -52,-142 1,-314 504,-69 292,547 533,629 127,-176 -75,-173 41,-400 100,-18 404,58 453,128 81,116 8,358 238,349 54,-237 -147,-130 -70,-359 112,-40 494,-68 596,14 53,43 59,95 150,167 74,59 295,172 189,-26 -54,-101 -237,-61 -226,-209 41,-104 235,-230 382,-190 172,46 257,190 388,137 49,-223 -90,-119 -210,-238 26,-133 138,-176 233,-247 382,-283 185,-239 441,-54 78,56 114,41 148,148 45,142 -73,459 107,507 139,-134 4,-160 60,-345 72,-4 521,170 526,174 168,120 -13,499 220,465 74,-184 -62,-179 13,-330 133,-79 406,-50 477,55 74,109 71,382 235,260 21,-29 47,14 12,-83 -24,-67 -8,-12 -46,-59 -52,-64 -53,-33 -59,-142 98,-75 354,-135 510,-45 132,76 140,248 389,234 -22,-213 -182,-118 -275,-299 30,-138 118,-133 234,-194 161,-86 217,-300 61,-230 -22,10 -39,31 -56,48 -71,68 -43,75 -155,83 -68,-79 -23,-89 -106,-149 -78,61 -76,223 -185,311 -80,64 -324,77 -442,42 -23,-144 55,-109 -9,-231 -180,29 -106,204 -249,258 -111,42 -336,5 -414,-71 13,-201 151,-46 90,-248 -292,-27 -129,320 -756,46 5,-290 160,-78 156,-299 -173,-79 -121,60 -311,57 -137,-2 -197,-98 -236,-193 39,-108 199,-239 316,-260 108,54 124,180 233,125 22,-28 42,50 20,-69 -18,-102 -51,-5 -105,-141 41,-88 194,-249 342,-204 120,37 190,237 327,151 -74,-178 -166,-5 -155,-246 100,-62 270,-118 424,-95 95,115 70,265 225,249 15,-177 -74,-95 -52,-267 74,-61 209,-92 331,-40 159,68 75,151 157,229 13,-19 54,-340 318,-176 185,115 -31,339 158,386 66,-91 -1,-108 59,-167 64,-64 72,11 176,-59 3,-177 -118,-102 -225,-239 21,-84 44,-101 99,-158 93,-97 99,-110 46,-158 -226,-142 -130,486 -729,204 z"
   id="path10621" />
   <path
   class="fil10 str10"
   d="m 9632,18987 c 148,36 276,-22 406,-12 140,11 275,68 401,-4 l 5,-136 c -183,-80 -245,9 -455,12 -83,1 -167,2 -250,15 -109,16 -131,12 -108,126 z"
   id="path10623" />
   <path
   class="fil10 str10"
   d="m 16828,18729 c 20,5 91,14 113,17 79,12 161,27 230,43 177,41 330,72 345,-139 -175,-89 -156,-66 -372,-46 -130,12 -331,-31 -403,78 l 88,47 z"
   id="path10625" />
   <path
   class="fil10 str10"
   d="m 13160,18761 c 71,98 92,28 377,62 515,61 421,-146 319,-175 -63,-18 -299,51 -458,69 -97,11 -152,-15 -238,44 z"
   id="path10627" />
  </g>
  
  
  
  
  
  
  
  
 </g>
</svg>
