<?xml version="1.0" encoding="UTF-8" standalone="no"?>
<!-- Creator: CorelDRAW 2017 -->

<svg
   xml:space="preserve"
   width="297mm"
   height="210mm"
   version="1.1"
   style="shape-rendering:geometricPrecision; text-rendering:geometricPrecision; image-rendering:optimizeQuality; fill-rule:evenodd; clip-rule:evenodd"
   viewBox="0 0 29700 21000"
   id="svg10748"
   sodipodi:docname="wl24.svg"
   inkscape:version="1.1.1 (3bf5ae0d25, 2021-09-20)"
   xmlns:inkscape="http://www.inkscape.org/namespaces/inkscape"
   xmlns:sodipodi="http://sodipodi.sourceforge.net/DTD/sodipodi-0.dtd"
   xmlns="http://www.w3.org/2000/svg"
   xmlns:svg="http://www.w3.org/2000/svg"><sodipodi:namedview
   id="namedview10750"
   pagecolor="#ffffff"
   bordercolor="#666666"
   borderopacity="1.0"
   inkscape:pageshadow="2"
   inkscape:pageopacity="0.0"
   inkscape:pagecheckerboard="0"
   inkscape:document-units="mm"
   showgrid="false"
   inkscape:zoom="0.25261409"
   inkscape:cx="789.74218"
   inkscape:cy="251.37157"
   inkscape:window-width="1920"
   inkscape:window-height="991"
   inkscape:window-x="-9"
   inkscape:window-y="-9"
   inkscape:window-maximized="1"
   inkscape:current-layer="Warstwa_x0020_1" />
 <defs
   id="defs10541">
  <style
   type="text/css"
   id="style10539">
   <![CDATA[
    .str7 {stroke:#CCCC33;stroke-width:67.73}
    .str3 {stroke:#FF9999;stroke-width:49.06}
    .str8 {stroke:#669966;stroke-width:133.65}
    .str5 {stroke:#009933;stroke-width:98.13}
    .str6 {stroke:#FF99CC;stroke-width:98.13}
    .str11 {stroke:#CCCCFF;stroke-width:98.13}
    .str9 {stroke:#339966;stroke-width:104.06}
    .str2 {stroke:#FFCC00;stroke-width:78.49}
    .str4 {stroke:#669933;stroke-width:78.49}
    .str10 {stroke:#FF9933;stroke-width:147.97}
    .str0 {stroke:#00CCFF;stroke-width:94.53}
    .str1 {stroke:#999933;stroke-width:94.53}
    .str12 {stroke:red;stroke-width:94.53}
    .str13 {stroke:#990000;stroke-width:102.26}
    .fil5 {fill:#009933}
    .fil0 {fill:#00CCFF}
    .fil9 {fill:#339966}
    .fil12 {fill:#33CC99}
    .fil4 {fill:#669933}
    .fil8 {fill:#669966}
    .fil14 {fill:#990000}
    .fil1 {fill:#999933}
    .fil7 {fill:#CCCC33}
    .fil11 {fill:#CCCCFF}
    .fil13 {fill:red}
    .fil10 {fill:#FF9933}
    .fil3 {fill:#FF9999}
    .fil6 {fill:#FF99CC}
    .fil2 {fill:#FFCC00}
   ]]>
  </style>
 </defs>
 <g
   id="Warstwa_x0020_1"
   inkscape:label="Warstwa 1">
  <metadata
   id="CorelCorpID_0Corel-Layer" />
  
  
  
  
  
  
  
  
  
  
  
  
  
  
  
  
  
  
  <g
   id="_1831517829312"
   transform="matrix(2.2498029,0,0,2.2498029,-21749.302,-23092.492)">
   <path
   class="fil13 str12"
   d="m 17807,13029 c -25,-102 16,-272 -23,-364 -215,4 99,449 -150,654 -72,59 -69,141 -176,126 -25,-76 -3,-193 1,-274 4,-72 19,-34 -21,-81 -139,-55 -42,347 -43,424 -1,92 -48,135 -82,194 -41,71 -48,132 -146,131 -20,-100 7,-378 -64,-425 -114,58 13,394 7,490 -7,124 -164,272 -225,388 -262,35 -622,-29 -840,-12 -95,8 -219,-19 -181,84 110,52 999,-30 1065,18 42,31 69,121 101,170 46,71 100,77 99,197 -1,116 -77,424 -26,508 99,0 73,-53 74,-203 0,-77 -10,-185 23,-241 75,-66 238,202 240,276 4,100 -144,385 1,406 60,-90 -15,-245 68,-336 126,-3 213,141 199,264 -10,92 -119,350 -13,414 61,-40 34,-144 46,-229 21,-141 1,-140 131,-157 l 24,-87 c 135,-12 406,91 399,-48 -74,-49 -424,-10 -553,-25 -26,-36 -40,-59 -73,-91 -51,-50 -66,-45 -61,-127 108,-16 409,71 362,-54 -75,-61 -360,3 -479,-15 -30,-42 -47,-71 -91,-110 -51,-45 -80,-54 -75,-142 122,-38 233,14 359,-30 -37,-145 -305,-47 -417,-43 -95,4 -98,-42 -144,-101 -47,-62 -107,-83 -88,-182 108,-41 1745,11 2082,19 120,3 237,2 356,3 162,2 166,-24 271,76 89,-33 34,-63 203,-66 95,-2 172,13 271,13 102,1 175,-14 270,-13 97,0 192,12 289,11 157,-1 381,-8 541,4 57,4 67,15 119,18 177,10 341,40 339,-104 -103,-53 -801,-17 -966,-16 -233,2 -850,29 -1032,0 -9,-90 26,-81 69,-147 40,-63 47,-88 132,-91 127,-4 325,62 428,6 64,-158 -240,-12 -376,-87 -2,-78 47,-106 91,-164 52,-69 58,-88 180,-87 87,1 155,2 237,14 88,13 153,21 150,-83 -101,-48 -220,32 -350,-19 -13,-104 185,-258 207,-265 85,-29 343,31 450,10 21,-185 -173,-41 -289,-114 -62,-68 128,-248 190,-258 146,-22 314,48 456,2 v -82 c -83,-45 -134,25 -341,0 -8,-104 81,-156 138,-224 65,-77 160,-108 151,-219 -183,-26 -214,304 -383,313 -101,-140 97,-367 -102,-344 -34,83 15,335 5,454 -8,98 -48,100 -95,150 -69,72 -152,179 -156,2 -2,-99 35,-182 8,-276 -241,-7 62,391 -165,621 -52,53 -80,106 -181,98 -17,-111 29,-244 -30,-312 -45,17 -44,6 -56,70 -5,25 -1,93 2,119 19,169 67,257 -64,390 -61,62 -53,108 -156,105 -26,-116 30,-203 15,-304 -9,-58 -20,-59 -63,-74 -148,78 51,432 -85,595 -28,34 -34,35 -54,65 -144,218 -162,86 -484,111 -92,7 -124,4 -211,-3 -124,-10 -305,12 -451,0 -121,-10 -119,-3 -224,7 -62,6 -139,-14 -207,-20 -170,-14 -1113,41 -1160,-6 -46,-46 30,-102 60,-145 38,-53 59,-121 107,-149 68,-40 334,45 442,7 l -3,-67 c -102,-59 -185,57 -318,-24 -26,-64 103,-253 181,-273 60,-16 330,59 430,25 -14,-164 -202,-9 -351,-107 -2,-84 174,-270 240,-310 120,-75 306,56 411,10 73,-32 23,5 45,-52 -73,-101 -219,22 -344,-68 -1,-79 44,-93 93,-143 28,-28 99,-119 122,-132 135,-80 358,52 475,-29 v -51 c -86,-47 -220,23 -352,-18 -4,-66 3,-72 39,-112 70,-77 192,-173 185,-248 -172,-64 -197,320 -349,265 -38,-91 15,-241 -22,-350 -143,-11 -49,258 -45,395 3,135 9,127 -68,198 -69,64 -60,106 -170,113 z"
   id="path10691" />
   <path
   class="fil13 str12"
   d="m 19945,15185 c 35,-69 -28,-268 22,-395 89,-10 93,18 134,74 41,57 80,77 118,122 8,119 -100,409 14,478 92,-58 41,-282 68,-376 102,-11 83,26 142,93 43,48 88,61 97,143 13,107 -59,358 -13,433 l 27,3 c 11,-3 42,20 52,-62 4,-35 -6,-113 -6,-154 -2,-192 38,-146 140,-123 l 33,-76 c 111,-4 321,44 350,-71 -4,-4 -3,-27 -67,-39 -49,-9 -61,8 -100,17 -95,21 -132,-6 -242,14 -140,25 -277,-167 -274,-223 154,-36 271,52 293,-102 -198,-51 -332,113 -535,-73 -67,-61 -99,-36 -83,-136 75,-38 172,3 244,8 85,6 127,-100 -23,-104 -124,-4 -200,20 -290,21 -166,2 -85,-90 -199,-105 -19,90 25,72 42,153 25,117 -121,481 56,480 z"
   id="path10693" />
   <path
   class="fil13 str12"
   d="m 17935,15516 c 35,160 140,70 74,293 -25,86 -59,284 -18,355 l 42,2 c 82,-82 12,-242 71,-362 84,-8 94,22 126,70 52,75 206,282 302,272 24,-93 -88,-134 -141,-196 -46,-53 -34,-48 -94,-92 -46,-34 -62,-36 -61,-108 104,-63 204,12 324,-29 -23,-117 -183,-83 -359,-73 -162,9 -143,-118 -266,-130 z"
   id="path10695" />
   <path
   class="fil13 str12"
   d="m 21096,15561 c -209,1 -199,-97 -296,-91 8,121 118,41 88,283 -15,118 -61,263 40,295 90,-99 -11,-213 54,-330 73,0 152,98 200,149 67,72 84,172 200,148 47,-126 -46,-125 -123,-191 -160,-136 -170,-73 -178,-177 101,-10 199,21 285,-20 29,-168 -131,-66 -268,-66 z"
   id="path10697" />
   <path
   class="fil13 str12"
   d="m 18368,13903 c 59,319 324,9 88,-89 -47,25 -61,44 -88,89 z"
   id="path10699" />
   <path
   class="fil13 str12"
   d="m 16086,14016 c 84,-86 62,-193 -51,-220 -123,61 -91,215 51,220 z"
   id="path10701" />
   <path
   class="fil13 str12"
   d="m 19000,13853 -107,-4 c -164,267 266,249 107,4 z"
   id="path10703" />
   <path
   class="fil13 str12"
   d="m 16458,14004 c 89,9 94,-1 147,-35 0,-242 -271,-201 -147,35 z"
   id="path10705" />
   <path
   class="fil13 str12"
   d="m 16288,15169 c 95,-6 135,-70 115,-180 -151,-100 -223,69 -115,180 z"
   id="path10707" />
   <path
   class="fil13 str12"
   d="m 16040,14810 79,4 c 85,-85 43,-193 -51,-217 -95,49 -97,138 -29,212 z"
   id="path10709" />
   <path
   class="fil13 str12"
   d="m 18615,13661 c 38,39 69,72 157,52 43,-123 25,-199 -122,-173 -34,47 -40,52 -36,120 z"
   id="path10711" />
   <path
   class="fil13 str12"
   d="m 18863,14678 c 3,147 80,161 185,83 v -94 c -76,-54 -108,-61 -185,11 z"
   id="path10713" />
   <path
   class="fil13 str12"
   d="m 18663,15064 99,9 c 186,-226 -263,-247 -99,-9 z"
   id="path10715" />
   <path
   class="fil13 str12"
   d="m 16239,13649 c 69,17 61,12 111,-21 26,-95 19,-167 -78,-181 -70,62 -68,111 -33,202 z"
   id="path10717" />
   <path
   class="fil13 str12"
   d="m 16430,14716 33,61 c 133,32 199,-16 126,-140 -90,-27 -134,13 -159,79 z"
   id="path10719" />
   <path
   class="fil13 str12"
   d="m 17086,15364 c -24,47 -48,92 -30,159 64,35 78,32 144,1 23,-101 -27,-153 -114,-161 z"
   id="path10721" />
   <path
   class="fil13 str12"
   d="m 18390,14749 c 39,21 63,42 131,30 46,-104 18,-164 -82,-176 -41,40 -53,83 -49,146 z"
   id="path10723" />
  </g>
  
 </g>
</svg>
