<?xml version="1.0" encoding="UTF-8" standalone="no"?>
<!-- Creator: CorelDRAW 2017 -->

<svg
   xml:space="preserve"
   width="297mm"
   height="210mm"
   version="1.1"
   style="shape-rendering:geometricPrecision; text-rendering:geometricPrecision; image-rendering:optimizeQuality; fill-rule:evenodd; clip-rule:evenodd"
   viewBox="0 0 29700 21000"
   id="svg10748"
   sodipodi:docname="wl25.svg"
   inkscape:version="1.1.1 (3bf5ae0d25, 2021-09-20)"
   xmlns:inkscape="http://www.inkscape.org/namespaces/inkscape"
   xmlns:sodipodi="http://sodipodi.sourceforge.net/DTD/sodipodi-0.dtd"
   xmlns="http://www.w3.org/2000/svg"
   xmlns:svg="http://www.w3.org/2000/svg"><sodipodi:namedview
   id="namedview10750"
   pagecolor="#ffffff"
   bordercolor="#666666"
   borderopacity="1.0"
   inkscape:pageshadow="2"
   inkscape:pageopacity="0.0"
   inkscape:pagecheckerboard="0"
   inkscape:document-units="mm"
   showgrid="false"
   inkscape:zoom="0.25261409"
   inkscape:cx="789.74218"
   inkscape:cy="251.37157"
   inkscape:window-width="1920"
   inkscape:window-height="991"
   inkscape:window-x="-9"
   inkscape:window-y="-9"
   inkscape:window-maximized="1"
   inkscape:current-layer="Warstwa_x0020_1" />
 <defs
   id="defs10541">
  <style
   type="text/css"
   id="style10539">
   <![CDATA[
    .str7 {stroke:#CCCC33;stroke-width:67.73}
    .str3 {stroke:#FF9999;stroke-width:49.06}
    .str8 {stroke:#669966;stroke-width:133.65}
    .str5 {stroke:#009933;stroke-width:98.13}
    .str6 {stroke:#FF99CC;stroke-width:98.13}
    .str11 {stroke:#CCCCFF;stroke-width:98.13}
    .str9 {stroke:#339966;stroke-width:104.06}
    .str2 {stroke:#FFCC00;stroke-width:78.49}
    .str4 {stroke:#669933;stroke-width:78.49}
    .str10 {stroke:#FF9933;stroke-width:147.97}
    .str0 {stroke:#00CCFF;stroke-width:94.53}
    .str1 {stroke:#999933;stroke-width:94.53}
    .str12 {stroke:red;stroke-width:94.53}
    .str13 {stroke:#990000;stroke-width:102.26}
    .fil5 {fill:#009933}
    .fil0 {fill:#00CCFF}
    .fil9 {fill:#339966}
    .fil12 {fill:#33CC99}
    .fil4 {fill:#669933}
    .fil8 {fill:#669966}
    .fil14 {fill:#990000}
    .fil1 {fill:#999933}
    .fil7 {fill:#CCCC33}
    .fil11 {fill:#CCCCFF}
    .fil13 {fill:red}
    .fil10 {fill:#FF9933}
    .fil3 {fill:#FF9999}
    .fil6 {fill:#FF99CC}
    .fil2 {fill:#FFCC00}
   ]]>
  </style>
 </defs>
 <g
   id="Warstwa_x0020_1"
   inkscape:label="Warstwa 1">
  <metadata
   id="CorelCorpID_0Corel-Layer" />
  
  
  
  
  
  <g
   id="_1795965941328"
   transform="matrix(4.001321,0,0,4.001321,-84077.426,-58692.214)">
   <path
   class="fil5 str5"
   d="m 23091,17305 c 15,123 241,61 301,21 78,-51 131,-149 233,-175 49,-13 140,1 190,9 85,14 273,181 425,194 108,9 263,-45 321,-96 273,-244 343,-126 563,-27 172,78 85,82 310,70 288,-15 386,-283 625,-161 200,101 300,241 617,179 111,-22 218,-145 257,-164 168,-81 427,136 455,146 124,42 419,70 436,-115 8,-89 -48,-99 -92,-49 -54,62 -22,61 -132,81 -143,26 -196,9 -305,-77 -252,-198 -382,-61 -594,49 -411,214 -536,-294 -937,-121 -171,73 3,56 -287,121 -314,71 -394,-97 -458,-122 -53,-20 -89,-34 -160,-34 -159,0 -213,26 -299,109 -76,74 -46,36 -135,77 -229,104 -323,-6 -456,-85 -114,-68 -356,-132 -476,-5 -210,221 -332,108 -401,174 z"
   id="path10554" />
   <path
   class="fil5 str5"
   d="m 23099,16275 c 64,28 104,4 177,20 53,11 87,39 132,64 96,56 145,100 276,116 300,38 309,-184 596,-188 252,-4 362,186 631,155 243,-28 205,-273 600,-162 143,40 332,273 555,204 175,-54 132,-89 234,-158 65,-44 259,-77 351,-50 124,35 342,272 565,166 108,-52 104,-101 252,-141 208,-57 235,53 322,53 70,-109 -67,-202 -254,-165 -131,26 -63,-33 -244,76 -81,48 -135,116 -314,94 -122,-15 -246,-274 -605,-140 -59,22 -95,33 -144,65 -146,95 -227,191 -456,58 -227,-132 -138,-183 -439,-179 -97,1 -86,15 -157,53 -64,34 -86,31 -137,72 -48,39 -63,54 -145,64 -271,31 -428,-195 -650,-157 -302,51 -377,255 -626,179 -88,-27 -88,-10 -145,-66 -108,-106 -434,-211 -374,-33 z"
   id="path10556" />
   <path
   class="fil5 str5"
   d="m 23093,16776 c 77,75 439,21 569,29 47,3 86,18 142,19 62,0 79,-15 140,-17 102,-3 207,-1 310,-3 l 1223,1 c 208,-1 423,11 632,7 h 1194 c 98,-1 193,-3 281,-1 112,3 177,49 236,-44 -28,-113 -102,-47 -208,-46 l -1531,14 c -107,-1 -196,-11 -309,-7 -106,5 -166,-1 -266,-1 l -1533,1 c -102,1 -199,-6 -295,-6 -87,0 -552,-6 -577,1 l -7,52 z"
   id="path10558" />
  </g>
  
  
  
  
  
  
  
  
  
  
  
  
  
  
 </g>
</svg>
