<?xml version="1.0" encoding="UTF-8" standalone="no"?>
<!-- Creator: CorelDRAW 2017 -->

<svg
   xml:space="preserve"
   width="297mm"
   height="210mm"
   version="1.1"
   style="shape-rendering:geometricPrecision; text-rendering:geometricPrecision; image-rendering:optimizeQuality; fill-rule:evenodd; clip-rule:evenodd"
   viewBox="0 0 29700 21000"
   id="svg10748"
   sodipodi:docname="wl26.svg"
   inkscape:version="1.1.1 (3bf5ae0d25, 2021-09-20)"
   xmlns:inkscape="http://www.inkscape.org/namespaces/inkscape"
   xmlns:sodipodi="http://sodipodi.sourceforge.net/DTD/sodipodi-0.dtd"
   xmlns="http://www.w3.org/2000/svg"
   xmlns:svg="http://www.w3.org/2000/svg"><sodipodi:namedview
   id="namedview10750"
   pagecolor="#ffffff"
   bordercolor="#666666"
   borderopacity="1.0"
   inkscape:pageshadow="2"
   inkscape:pageopacity="0.0"
   inkscape:pagecheckerboard="0"
   inkscape:document-units="mm"
   showgrid="false"
   inkscape:zoom="0.25261409"
   inkscape:cx="789.74218"
   inkscape:cy="251.37157"
   inkscape:window-width="1920"
   inkscape:window-height="991"
   inkscape:window-x="-9"
   inkscape:window-y="-9"
   inkscape:window-maximized="1"
   inkscape:current-layer="Warstwa_x0020_1" />
 <defs
   id="defs10541">
  <style
   type="text/css"
   id="style10539">
   <![CDATA[
    .str7 {stroke:#CCCC33;stroke-width:67.73}
    .str3 {stroke:#FF9999;stroke-width:49.06}
    .str8 {stroke:#669966;stroke-width:133.65}
    .str5 {stroke:#009933;stroke-width:98.13}
    .str6 {stroke:#FF99CC;stroke-width:98.13}
    .str11 {stroke:#CCCCFF;stroke-width:98.13}
    .str9 {stroke:#339966;stroke-width:104.06}
    .str2 {stroke:#FFCC00;stroke-width:78.49}
    .str4 {stroke:#669933;stroke-width:78.49}
    .str10 {stroke:#FF9933;stroke-width:147.97}
    .str0 {stroke:#00CCFF;stroke-width:94.53}
    .str1 {stroke:#999933;stroke-width:94.53}
    .str12 {stroke:red;stroke-width:94.53}
    .str13 {stroke:#990000;stroke-width:102.26}
    .fil5 {fill:#009933}
    .fil0 {fill:#00CCFF}
    .fil9 {fill:#339966}
    .fil12 {fill:#33CC99}
    .fil4 {fill:#669933}
    .fil8 {fill:#669966}
    .fil14 {fill:#990000}
    .fil1 {fill:#999933}
    .fil7 {fill:#CCCC33}
    .fil11 {fill:#CCCCFF}
    .fil13 {fill:red}
    .fil10 {fill:#FF9933}
    .fil3 {fill:#FF9999}
    .fil6 {fill:#FF99CC}
    .fil2 {fill:#FFCC00}
   ]]>
  </style>
 </defs>
 <g
   id="Warstwa_x0020_1"
   inkscape:label="Warstwa 1">
  <metadata
   id="CorelCorpID_0Corel-Layer" />
  
  
  
  
  
  
  <g
   id="_1795965938768"
   transform="matrix(3.6179546,0,0,3.6179546,-73534.971,-42110.333)">
   <path
   class="fil6 str6"
   d="m 23521,14357 c 85,-19 135,-75 182,-121 233,-230 284,-77 593,69 107,51 282,-175 406,-173 59,1 157,66 206,95 37,22 66,33 100,55 43,29 36,42 88,65 39,5 176,-155 284,-221 89,-56 108,-23 176,16 61,35 121,52 185,83 55,27 108,85 177,62 7,-2 130,-86 153,-101 182,-119 203,-85 374,-5 370,174 214,39 514,-77 109,-42 221,67 360,144 81,45 124,6 184,-36 38,-27 123,-73 161,-92 59,-29 122,-58 88,-149 -73,-11 -94,39 -149,74 -44,28 -101,47 -159,79 -138,77 -182,-49 -324,-98 -198,-68 -186,32 -339,66 -54,12 -41,3 -82,32 -135,92 -133,17 -252,-30 -143,-56 -166,-123 -328,-30 -89,51 -211,167 -346,100 -57,-28 -120,-122 -306,-159 -91,-18 -87,43 -140,82 -44,33 -96,41 -153,86 -121,97 -223,-21 -322,-73 -243,-128 -174,-10 -481,101 -158,57 -366,-234 -509,-162 l -288,178 c -83,65 -133,-4 -315,-97 -40,-20 -106,-86 -142,-51 -59,57 44,103 87,121 l 319,166 z"
   id="path10561" />
   <path
   class="fil6 str6"
   d="m 27789,13528 c 54,-122 -104,-180 -197,-215 -163,-63 -163,-106 -316,13 -63,49 -81,39 -146,78 -52,31 -90,69 -173,38 -33,-12 -90,-61 -138,-87 -49,-26 -94,-53 -151,-75 -83,-32 -87,-33 -149,19 -49,41 -91,50 -140,85 -119,84 -174,118 -298,34 -36,-24 -277,-149 -297,-148 -38,2 -225,162 -272,190 -103,62 -179,-43 -307,-108 -238,-120 -146,-82 -295,11 -211,133 -231,147 -379,43 -240,-168 -327,-151 -514,34 -224,222 -360,-246 -627,-121 -35,17 -69,61 -130,95 -41,23 -142,48 -156,83 -36,90 73,73 110,53 49,-26 85,-63 132,-95 173,-118 122,-93 297,-6 123,61 245,150 307,137 104,-22 156,-146 261,-194 86,-39 243,52 325,93 193,96 112,136 289,15 262,-179 132,-180 589,49 115,58 210,-69 272,-129 131,-126 170,-23 301,33 209,88 205,159 303,93 372,-251 245,-243 595,-76 162,77 127,121 306,7 65,-41 77,-28 139,-86 50,-47 78,-63 163,-23 71,33 220,165 296,158 z"
   id="path10563" />
   <path
   class="fil6 str6"
   d="m 27746,13823 7,-77 c -55,-21 -199,4 -270,11 -92,8 -212,1 -308,2 -185,2 -388,5 -576,9 -316,6 -873,-32 -1164,-6 l -1702,10 c -79,0 -592,-15 -610,-4 -45,30 -27,79 19,91 33,9 115,-5 147,-9 110,-12 186,10 289,4 l 1166,-8 c 191,5 397,-33 595,-7 184,24 400,-15 600,-7 205,7 1726,25 1808,-9 z"
   id="path10565" />
  </g>
  
  
  
  
  
  
  
  
  
  
  
  
  
 </g>
</svg>
