<?xml version="1.0" encoding="UTF-8" standalone="no"?>
<!-- Creator: CorelDRAW 2017 -->

<svg
   xml:space="preserve"
   width="297mm"
   height="210mm"
   version="1.1"
   style="shape-rendering:geometricPrecision; text-rendering:geometricPrecision; image-rendering:optimizeQuality; fill-rule:evenodd; clip-rule:evenodd"
   viewBox="0 0 29700 21000"
   id="svg10748"
   sodipodi:docname="wl27.svg"
   inkscape:version="1.1.1 (3bf5ae0d25, 2021-09-20)"
   xmlns:inkscape="http://www.inkscape.org/namespaces/inkscape"
   xmlns:sodipodi="http://sodipodi.sourceforge.net/DTD/sodipodi-0.dtd"
   xmlns="http://www.w3.org/2000/svg"
   xmlns:svg="http://www.w3.org/2000/svg"><sodipodi:namedview
   id="namedview10750"
   pagecolor="#ffffff"
   bordercolor="#666666"
   borderopacity="1.0"
   inkscape:pageshadow="2"
   inkscape:pageopacity="0.0"
   inkscape:pagecheckerboard="0"
   inkscape:document-units="mm"
   showgrid="false"
   inkscape:zoom="0.25261409"
   inkscape:cx="789.74218"
   inkscape:cy="251.37157"
   inkscape:window-width="1920"
   inkscape:window-height="991"
   inkscape:window-x="-9"
   inkscape:window-y="-9"
   inkscape:window-maximized="1"
   inkscape:current-layer="Warstwa_x0020_1" />
 <defs
   id="defs10541">
  <style
   type="text/css"
   id="style10539">
   <![CDATA[
    .str7 {stroke:#CCCC33;stroke-width:67.73}
    .str3 {stroke:#FF9999;stroke-width:49.06}
    .str8 {stroke:#669966;stroke-width:133.65}
    .str5 {stroke:#009933;stroke-width:98.13}
    .str6 {stroke:#FF99CC;stroke-width:98.13}
    .str11 {stroke:#CCCCFF;stroke-width:98.13}
    .str9 {stroke:#339966;stroke-width:104.06}
    .str2 {stroke:#FFCC00;stroke-width:78.49}
    .str4 {stroke:#669933;stroke-width:78.49}
    .str10 {stroke:#FF9933;stroke-width:147.97}
    .str0 {stroke:#00CCFF;stroke-width:94.53}
    .str1 {stroke:#999933;stroke-width:94.53}
    .str12 {stroke:red;stroke-width:94.53}
    .str13 {stroke:#990000;stroke-width:102.26}
    .fil5 {fill:#009933}
    .fil0 {fill:#00CCFF}
    .fil9 {fill:#339966}
    .fil12 {fill:#33CC99}
    .fil4 {fill:#669933}
    .fil8 {fill:#669966}
    .fil14 {fill:#990000}
    .fil1 {fill:#999933}
    .fil7 {fill:#CCCC33}
    .fil11 {fill:#CCCCFF}
    .fil13 {fill:red}
    .fil10 {fill:#FF9933}
    .fil3 {fill:#FF9999}
    .fil6 {fill:#FF99CC}
    .fil2 {fill:#FFCC00}
   ]]>
  </style>
 </defs>
 <g
   id="Warstwa_x0020_1"
   inkscape:label="Warstwa 1">
  <metadata
   id="CorelCorpID_0Corel-Layer" />
  
  
  
  
  
  
  
  
  
  
  
  
  
  
  <g
   id="_1831517843232"
   transform="matrix(4.0780896,0,0,4.0780896,-86259.546,-35410.018)">
   <path
   class="fil11 str11"
   d="m 24182,10722 c -186,0 -384,-6 -562,17 -54,7 -90,-1 -140,-3 -48,-1 -83,12 -140,10 -97,-3 -196,-54 -230,46 67,101 383,23 496,28 123,5 98,31 243,2 69,-14 202,-3 278,0 167,6 375,2 542,-10 69,-5 44,8 105,12 41,3 283,-21 402,-13 184,14 335,-16 497,-7 422,24 1168,24 1602,24 89,0 178,-8 267,-3 74,4 208,42 250,-24 45,-69 -23,-128 -99,-112 -98,22 -134,30 -249,33 l -1111,-5 c -714,-17 -1426,2 -2150,4 z"
   id="path10634" />
   <path
   class="fil11 str11"
   d="m 27077,11169 c 96,-107 20,-225 -94,-192 -46,13 -78,66 -61,136 15,62 84,60 154,56 z"
   id="path10636" />
   <path
   class="fil11 str11"
   d="m 25983,11042 c -54,-31 -167,-104 -198,20 -33,131 183,196 198,-20 z"
   id="path10638" />
   <path
   class="fil11 str11"
   d="m 27541,10563 c 45,-84 -8,-125 -40,-163 -262,-17 -107,252 40,163 z"
   id="path10640" />
   <path
   class="fil11 str11"
   d="m 26529,10566 c 52,-117 -77,-212 -144,-143 -72,75 33,199 144,143 z"
   id="path10642" />
   <path
   class="fil11 str11"
   d="m 24696,11101 c 64,115 202,91 185,-23 -19,-124 -160,-97 -185,23 z"
   id="path10644" />
   <path
   class="fil11 str11"
   d="m 23660,11134 c 38,25 72,44 144,36 33,-42 84,-122 -12,-157 -91,-33 -141,28 -132,120 z"
   id="path10646" />
   <path
   class="fil11 str11"
   d="m 23117,10428 c -9,42 -12,37 -5,82 20,125 193,77 156,-38 -20,-63 -89,-91 -151,-45 z"
   id="path10648" />
   <path
   class="fil11 str11"
   d="m 25381,10528 c 21,-36 25,-54 -1,-105 -20,-39 -38,-47 -87,-50 -142,131 9,247 88,155 z"
   id="path10650" />
   <path
   class="fil11 str11"
   d="m 24196,10386 c -138,65 -70,196 26,180 42,-7 73,-52 65,-95 -6,-36 -50,-71 -91,-85 z"
   id="path10652" />
  </g>
  
  
  
  
  
 </g>
</svg>
