<?xml version="1.0" encoding="UTF-8" standalone="no"?>
<!-- Created with Inkscape (http://www.inkscape.org/) -->

<svg
   width="210mm"
   height="297mm"
   viewBox="0 0 210 297"
   version="1.1"
   id="svg439"
   inkscape:version="1.1.1 (3bf5ae0d25, 2021-09-20)"
   sodipodi:docname="wl3.svg"
   xmlns:inkscape="http://www.inkscape.org/namespaces/inkscape"
   xmlns:sodipodi="http://sodipodi.sourceforge.net/DTD/sodipodi-0.dtd"
   xmlns="http://www.w3.org/2000/svg"
   xmlns:svg="http://www.w3.org/2000/svg">
  <sodipodi:namedview
     id="namedview441"
     pagecolor="#ffffff"
     bordercolor="#666666"
     borderopacity="1.0"
     inkscape:pageshadow="2"
     inkscape:pageopacity="0.0"
     inkscape:pagecheckerboard="0"
     inkscape:document-units="mm"
     showgrid="false"
     inkscape:zoom="0.71446409"
     inkscape:cx="396.80091"
     inkscape:cy="561.95967"
     inkscape:window-width="1920"
     inkscape:window-height="991"
     inkscape:window-x="-9"
     inkscape:window-y="-9"
     inkscape:window-maximized="1"
     inkscape:current-layer="layer1" />
  <defs
     id="defs436" />
  <g
     inkscape:label="Warstwa 1"
     inkscape:groupmode="layer"
     id="layer1">
    <g
       id="g12693"
       transform="matrix(1.6246248,0,0,1.6246248,-568.27431,25.329417)"
       style="display:inline">
      <path
         d="m 396.77418,44.162863 c 0.1101,-1.127578 5.25116,-5.026765 6.33284,-5.340374 1.65477,-0.479146 3.08893,-0.3265 4.70148,-0.944189 1.87424,-0.718109 1.92177,-2.382152 3.42231,-2.382152 h 12.52864 c 0.0914,0 7.53671,0.931571 3.85488,1.895892 v 0.541437 c 3.39703,0.889818 2.06167,4.640123 7.46923,5.146245 0.12596,0.607352 0.24114,0.622658 0.24114,1.354055 0,1.020308 -0.15865,0.51217 -0.24114,1.625381 l 2.36516,3.46985 2.01626,3.445964 0.56482,9.869602 1.25321,1.181661 0.0647,0.450142 -0.26145,-0.210047 -1.09212,1.715854 0.84023,-0.03554 c -0.38425,2.160923 -2.9797,7.532427 -4.09203,8.791284 -1.09072,1.234458 -1.70843,2.944664 -2.63118,3.813538 -2.94117,2.769613 -0.84812,0.534609 -2.4098,3.790981 -1.51707,3.16404 -14.60009,4.343286 -19.50705,4.343286 h -3.13253 c -1.53509,0 -0.98617,-0.947527 -2.81819,-1.43619 -1.04929,-0.279217 -1.89776,-0.482922 -3.09439,-0.855074 -1.88647,-0.586801 -3.78955,-1.990661 -5.12567,-3.175685 -1.75244,-1.554225 -5.56652,-9.946926 -6.55015,-10.241881 0.3929,-1.220497 0.0254,-2.975537 -0.3475,-5.034003 -0.5169,-2.852586 -2.47758,-0.17578 -3.02548,-2.820635 l 2.89183,0.20275 0.23353,-5.620422 -2.13309,-0.427044 c 0.3349,-1.597567 0.41768,-1.48496 1.60899,-2.127192 1.69837,-0.916404 0.21195,-0.07805 -0.19228,-1.778836 2.04473,-0.0514 2.49817,-2.387118 1.68679,-3.250217 l 1.24064,-0.419803 -0.44338,0.117208 -1.04878,-2.258234 0.24463,-0.168482 3.37907,-1.335398 z m 58.93662,-7.705881 c -1.08996,-1.594898 -2.3367,-4.211187 -4.48442,-4.211187 h -0.24083 c -2.73062,0 -2.40879,1.283978 -3.13218,2.9793 l -0.18435,-0.554456 -8.85036,3.714999 0.26494,-0.07117 -4.56276,-1.940059 0.12089,0.324213 -2.28584,-5.353662 c 1.8389,-2.284817 6.14532,-5.263853 5.85985,-9.120748 3.91225,-1.174027 -2.55474,-6.394379 -6.40458,-0.969967 -2.12357,2.992322 -4.15215,4.972258 -6.12406,8.28316 l -7.65776,-1.439305 -0.0523,0.355761 h -0.72302 c -1.16344,3e-6 -0.0866,-12.187979 -3.85488,-12.187979 -0.70315,0 -1.24952,0.36382 -1.92752,0.541571 v 1.624975 c -1.90778,0.04791 -1.89699,3.328349 -1.92764,4.875324 1.10611,0.108737 0.0222,1.003127 0.17768,2.977019 0.0771,0.97654 0.38602,1.856021 -0.59863,2.768122 -0.63259,0.58641 -5.59244,2.01739 -5.84332,1.838434 l -7.74832,-12.085145 -0.20306,0.16807 c -2.70429,0 -4.06087,3.361107 -3.40097,5.701104 0.99843,3.541138 4.55731,4.911442 2.67836,5.40347 l -0.26367,0.236827 3.51894,4.960449 -0.0562,-0.780537 -3.81992,4.372283 0.38348,0.117208 -2.89387,-0.04147 -0.29952,1.685388 -2.17164,-0.930359 -0.21386,0.504514 -4.27729,-2.306836 0.21544,-0.504245 h 1.44574 c -0.19767,-0.83155 -7.09704,-6.542188 -8.67385,-5.417165 l -1.55204,2.642462 1.32352,0.264464 -0.25097,3.051661 0.27541,-0.347042 9.53238,9.640971 c -0.61453,1.365468 -0.44288,0.171719 -1.08016,1.617322 -0.35143,0.798124 -0.41159,1.308413 -0.71435,1.858709 -0.60156,1.094011 -1.66734,1.309485 -3.40071,1.022589 -1.8718,-0.309868 -8.11666,-0.79168 -9.19288,-0.79168 h -0.96381 c -1.70335,0 -6.172,6.332903 0.75947,7.271708 2.61389,0.354289 4.12877,-0.210365 6.25783,0.259862 1.21533,0.268112 1.64789,0.408387 2.88562,0.566272 2.3143,0.295717 0.87912,0.658763 2.38499,1.110777 l -0.82534,4.85816 c 0.0765,0.217028 1.06642,2.37395 1.06642,3.26754 v 0.541428 c 0,0.879471 -7.18731,1.41982 -8.13065,1.694246 -1.20669,0.350926 -2.14597,1.798573 -1.10078,3.239619 0.69287,0.955178 2.12053,0.59981 3.49558,1.513929 2.81349,1.870408 5.96116,0.08408 8.70336,1.049858 1.7683,0.623447 3.29692,5.020708 3.29692,7.128196 -1.86419,1.108651 -4.17963,1.758942 -6.23695,2.739249 -2.38718,1.137112 -3.32212,2.703014 -5.08715,4.031961 l 1.5711,3.855833 c 6.36197,-0.06409 13.74042,-5.695082 16.01734,-5.751718 l 0.046,0.434563 2.13807,-0.286515 -1.595,4.116393 -0.58921,0.06885 -3.13726,6.113653 -2.4098,4.445997 -0.16595,0.28175 2.53123,1.96867 c 1.66849,-0.56627 6.21573,-3.91599 5.83187,-5.768089 l 0.35029,0.374159 4.09675,-4.847538 0.26431,0.158329 0.29635,-2.733886 3.906,0.290322 -0.22274,4.051285 c -0.20402,3.570428 0.67389,9.207608 2.87403,9.207608 h 0.96381 c 6.01523,0 2.89107,-6.573732 2.89107,-13.000458 h 5.7824 c 1.12417,0 0.75583,-0.541967 2.40943,-0.541967 1.19308,2.534532 4.86412,11.917475 7.46935,11.917475 h 1.68644 c 3.71286,0 3.44075,-3.96768 1.15301,-6.713372 -1.03619,-1.243691 -3.94278,-5.718561 -4.2852,-7.370925 4.09206,-0.382464 6.79025,-4.333484 8.43268,-4.333484 2.66612,0 5.89022,6.276488 7.71002,6.500306 0.20338,2.615219 7.71005,-0.209413 7.71005,-1.354077 v -0.541809 c 0,-0.7345 -3.65401,-3.882009 -4.5396,-4.917905 -1.64869,-1.928377 -3.58699,-2.702348 -4.85686,-3.207382 l 0.28715,-0.338996 -2.94654,-3.158233 0.3179,-0.21798 2.65025,-2.979439 1.16421,-2.043966 -0.2586,-0.282708 13.95528,2.06183 c 3.00664,0.360476 2.9512,-3.189392 3.86456,-3.603427 -0.10629,-5.373791 -3.00895,-3.96349 -6.74624,-4.333738 l -7.98149,-0.964347 0.0317,-0.38973 h -0.72273 v -1.083395 c 0,-1.79321 0.24115,-0.518615 0.24115,-1.625394 v -0.27065 c 0,-0.984083 -0.2862,-0.950228 -0.48178,-1.895918 l 0.64696,0.01269 0.0463,-2.71793 4.84503,-0.327287 c 1.78191,-0.0844 2.10158,0.120254 4.24296,-0.599048 1.79641,-0.603582 1.49365,-2.228821 2.50604,-2.328165 V 54.72489 h 0.72314 v -2.166942 c -1.02943,-0.418994 -1.36893,-2.137545 -2.89146,-1.895889 l -5.07455,0.692602 0.82331,1.680152 -0.0286,0.373358 -4.34506,1.040056 -0.01,-0.272871 -0.32323,-2.151386 c -1.82884,0.03893 -1.64903,-0.579566 -2.44883,-3.167657 -0.32005,-1.035883 -1.6029,-4.523723 -1.60607,-4.69489 l 8.62084,-3.942152 0.14119,0.239366 3.1913,-4.003098 z"
         style="fill:#ff4500;fill-opacity:1;fill-rule:evenodd;stroke:none;stroke-width:1.30653"
         id="path8733" />
      <path
         d="m 402.55696,54.638726 -1.48997,-0.383543 -0.019,-0.273823 0.78758,-0.425712 c -0.25161,-1.059115 -1.25794,-1.35447 -2.40917,-1.35447 h -1.20492 c -4.11794,0 -2.85928,6.285639 -1.41569,7.279621 3.02291,2.081311 5.8213,-1.3833 5.75276,-4.842168"
         style="fill:#ff4500;fill-opacity:1;fill-rule:evenodd;stroke:none;stroke-width:1.30653"
         id="path8735" />
      <path
         d="m 403.07814,67.121676 c -1.11728,-2.313823 -1.74339,-3.544918 -4.85825,-3.544918 -2.60269,0 -4.31226,3.210746 -2.89146,6.229656 1.75968,0 1.76656,0.541586 3.13254,0.541586 h 0.24082 l 3.00816,-0.345563 z"
         style="fill:#ff4500;fill-opacity:1;fill-rule:evenodd;stroke:none;stroke-width:1.30653"
         id="path8737" />
      <path
         d="m 414.36297,66.014643 c 0,-2.596563 -0.1907,-4.33377 -3.13216,-4.33377 -1.23046,0 -1.68171,0.721871 -2.65063,0.81249 v 1.083395 h -0.9638 v 0.812491 c 0,1.781375 -0.9112,4.875325 1.44571,4.875325 h 0.4819 c 2.3526,0 3.88008,-1.674099 4.81898,-3.249931"
         style="fill:#ff4500;fill-opacity:1;fill-rule:evenodd;stroke:none;stroke-width:1.30653"
         id="path8739" />
      <path
         d="m 411.23081,75.764753 c 0,2.849603 1.30842,3.663299 2.89108,4.604801 1.26504,-0.752332 4.33707,-1.387488 4.33707,-3.521279 v -1.354046 c 0,-1.127562 -2.41412,-2.437852 -3.37327,-2.437852 -2.09736,0 -3.85488,0.319386 -3.85488,2.708376"
         style="fill:#ff4500;fill-opacity:1;fill-rule:evenodd;stroke:none;stroke-width:1.30653"
         id="path8741" />
      <path
         d="m 432.19223,73.598344 -1.13397,-1.759767 c -0.8823,-0.265891 -1.11272,-1.212819 -1.51628,-1.219672 l -2.41031,0.06251 c -0.48435,1.981523 -1.92651,1.09412 -1.92651,2.375029 v 0.270968 l 0.27859,3.51633 0.68525,0.0032 c 0.78784,0 0.63437,0.812745 1.92724,0.812745 h 0.4819 c 2.20369,0 3.80583,-0.764421 3.85517,-3.250217 l -0.53023,-0.70442 0.28905,-0.108197 z"
         style="fill:#ff4500;fill-opacity:1;fill-rule:evenodd;stroke:none;stroke-width:1.30653"
         id="path8743" />
      <path
         d="m 415.56763,52.742844 c 0.61555,0.463434 0.75757,1.166776 1.57643,1.486829 1.01214,0.394965 1.58637,-0.132629 2.76023,-0.132629 0.89172,0 1.56755,0.541555 1.92764,0.541555 h 0.24115 c 1.42908,0 1.68644,-2.262387 1.68644,-4.062425 -1.03695,-0.422087 -1.10358,-2.166812 -3.13219,-2.166812 h -0.4819 c -1.29963,0 -2.04971,0.63165 -3.02253,1.206647 -1.6212,0.957881 -0.91983,1.637997 -1.55521,3.126708"
         style="fill:#ff4500;fill-opacity:1;fill-rule:evenodd;stroke:none;stroke-width:1.30653"
         id="path8745" />
      <path
         d="m 403.52039,81.994536 h 0.96383 c 1.47027,0 3.61406,-3.538858 3.61406,-4.062835 0,-2.418815 -2.16517,-2.979439 -4.33669,-2.979439 h -1.20463 c -0.94322,0 -0.0254,0.409212 -1.44562,0.541967 -0.34712,1.674797 1.03733,6.500307 2.40905,6.500307"
         style="fill:#ff4500;fill-opacity:1;fill-rule:evenodd;stroke:none;stroke-width:1.30653"
         id="path8747" />
      <path
         d="m 433.86569,60.862734 c -2.23218,0.0063 -1.81691,-0.417906 -3.64356,1.041132 -0.86301,0.689254 -2.12589,1.522686 -2.12589,3.02735 0,0.836002 0.72298,0.617578 0.72298,2.979312 2.1428,1.274437 3.07304,-0.54184 5.3005,-0.54184 l 0.7998,-1.573961 -0.36936,0.0095 -0.26336,-1.620793 0.31507,-0.06441 c 0,-1.473126 0.0949,-2.120085 -1.00845,-2.457335 l 0.27256,-0.798657 z"
         style="fill:#ff4500;fill-opacity:1;fill-rule:evenodd;stroke:none;stroke-width:1.30653"
         id="path8749" />
      <path
         d="m 424.24136,62.764267 c 0.0787,-0.689508 1.38089,-0.616467 -0.40258,-1.151866 -0.35461,-0.10661 -1.54477,-0.473496 -2.00685,-0.473496 -0.92706,0 -1.55241,0.479144 -1.89306,1.139397 -0.90292,1.751296 -1.23909,-0.523183 -1.23909,1.298456 v 0.270968 l 0.11803,3.518868 c 0.33592,0.589212 0.56304,1.085394 1.56829,1.085394 h 0.24114 c 2.78364,0 3.69699,-2.650915 4.57789,-2.979408 l -0.10248,-2.161872 c 0.0822,-0.568937 -0.38018,-0.501544 -0.86145,-0.546536"
         style="fill:#ff4500;fill-opacity:1;fill-rule:evenodd;stroke:none;stroke-width:1.30653"
         id="path8751" />
      <path
         d="m 399.90633,44.075728 c 0,1.923281 0.38462,5.958736 2.65063,5.958736 h 0.24082 c 1.40098,0 2.69858,-1.293912 3.33611,-2.147213 l -0.44478,-1.37379 h 0.4819 v -1.354325 c -0.99471,-0.451352 -0.23352,-1.895895 -2.40942,-1.895895 -1.83937,0 -2.53466,0.466931 -3.85526,0.812487"
         style="fill:#ff4500;fill-opacity:1;fill-rule:evenodd;stroke:none;stroke-width:1.30653"
         id="path8753" />
      <path
         d="m 409.30317,42.179706 0.24082,1.896022 c 0.71258,0.423833 1.25857,1.083408 2.16873,1.083408 l 1.21037,0.06244 3.12632,-0.333344 c 0.1542,-0.743616 0.4819,-1.100592 0.4819,-1.624978 0,-0.679307 -1.05855,-0.473772 -1.76754,-0.858933 l 0.80386,-2.120497 c -0.38795,-0.101629 -1.19854,-0.541434 -1.20466,-0.541434 -2.55297,0 -4.01014,0.675817 -5.0598,2.437326"
         style="fill:#ff4500;fill-opacity:1;fill-rule:evenodd;stroke:none;stroke-width:1.30653"
         id="path8755" />
      <path
         d="m 405.44803,54.368076 c 0,0.992141 1.41218,3.607741 1.44574,4.062453 1.11259,0.02856 0.80729,0.270968 1.68641,0.270968 1.42043,0 3.85517,-1.067848 3.85517,-2.166568 0,-0.790724 -0.32399,-1.404654 -0.53267,-2.045838 l -1.15377,-0.662951 c -2.42608,0 -1.98955,0.37834 -3.61406,-1.354042 -0.67291,0.506142 -1.68682,0.812075 -1.68682,1.895882"
         style="fill:#ff4500;fill-opacity:1;fill-rule:evenodd;stroke:none;stroke-width:1.30653"
         id="path8757" />
      <path
         d="m 425.68707,54.909662 0.96346,1.371084 5.68613,-0.125013 0.57855,-0.433104 c 0,-1.847562 -1.48286,-4.062828 -2.65025,-4.062828 h -0.9638 c -2.41784,0 -3.14044,0.964727 -3.61409,3.249956"
         style="fill:#ff4500;fill-opacity:1;fill-rule:evenodd;stroke:none;stroke-width:1.30653"
         id="path8759" />
      <path
         d="m 420.14537,43.534161 c 0,1.726604 1.33434,3.520867 2.89145,3.520867 h 0.48155 c 1.39054,0 2.61783,-1.658402 2.88343,-2.938213 l -1.43771,-0.31174 c -0.2916,-1.406821 -0.62177,-2.708386 -2.16848,-2.708386 h -0.48177 c -1.2021,0 -2.16847,1.324391 -2.16847,2.437463"
         style="fill:#ff4500;fill-opacity:1;fill-rule:evenodd;stroke:none;stroke-width:1.30653"
         id="path8761" />
    </g>
  </g>
</svg>
