<?xml version="1.0" encoding="UTF-8" standalone="no"?>
<!-- Created with Inkscape (http://www.inkscape.org/) -->

<svg
   width="210mm"
   height="297mm"
   viewBox="0 0 210 297"
   version="1.1"
   id="svg439"
   inkscape:version="1.1.1 (3bf5ae0d25, 2021-09-20)"
   sodipodi:docname="wl4.svg"
   xmlns:inkscape="http://www.inkscape.org/namespaces/inkscape"
   xmlns:sodipodi="http://sodipodi.sourceforge.net/DTD/sodipodi-0.dtd"
   xmlns="http://www.w3.org/2000/svg"
   xmlns:svg="http://www.w3.org/2000/svg">
  <sodipodi:namedview
     id="namedview441"
     pagecolor="#ffffff"
     bordercolor="#666666"
     borderopacity="1.0"
     inkscape:pageshadow="2"
     inkscape:pageopacity="0.0"
     inkscape:pagecheckerboard="0"
     inkscape:document-units="mm"
     showgrid="false"
     inkscape:zoom="0.71446409"
     inkscape:cx="396.80091"
     inkscape:cy="449.98763"
     inkscape:window-width="1920"
     inkscape:window-height="991"
     inkscape:window-x="-9"
     inkscape:window-y="-9"
     inkscape:window-maximized="1"
     inkscape:current-layer="layer1" />
  <defs
     id="defs436" />
  <g
     inkscape:label="Warstwa 1"
     inkscape:groupmode="layer"
     id="layer1">
    <g
       id="g12532"
       transform="matrix(2.1213748,0,0,2.1213748,-346.22403,-234.88177)"
       style="display:inline">
      <path
         style="fill:#ff4500;fill-opacity:1;stroke-width:0.481753"
         d="m 190.61534,199.79689 -2.26674,-0.17345 -0.3209,-5.70154 c -0.17649,-3.13584 -0.3209,-16.5808 -0.3209,-29.87769 v -24.17615 h 21.85956 21.85957 l -0.15218,27.66393 c -0.0838,15.21515 -0.28856,28.6387 -0.45526,29.83007 l -0.30308,2.16615 -5.95589,0.30595 c -6.0172,0.3091 -29.75858,0.28303 -33.94418,-0.0372 z"
         id="path12457" />
      <path
         style="fill:#ffffff;fill-opacity:1;stroke-width:0.481753"
         d="m 228.61608,197.79378 c 0.59573,-0.3613 0.74104,-1.66311 0.74816,-6.70276 0.005,-3.4399 0.0929,-15.85682 0.19566,-27.59318 0.15663,-17.89179 0.0747,-21.44588 -0.50707,-22.0017 -0.58394,-0.55787 -3.76515,-0.61528 -20.07698,-0.36233 l -19.38308,0.30058 -0.42644,1.07151 c -0.24088,0.60527 -0.22848,7.6919 0.0285,16.28607 0.25018,8.36801 0.46134,20.52956 0.46921,27.02568 0.008,6.49611 0.16219,11.95239 0.34291,12.12503 0.52439,0.50099 37.77448,0.35733 38.60916,-0.1489 z"
         id="path12459" />
      <path
         style="fill:#ff4500;fill-opacity:1;stroke-width:0.481753"
         d="m 195.53107,194.63699 c -1.45513,-0.3521 -1.90968,-7.1876 -1.90968,-28.71788 v -20.26639 l 2.85398,-0.28498 c 1.56969,-0.15673 8.53049,-0.43153 15.46844,-0.61065 12.47435,-0.32205 12.61807,-0.31483 12.93858,0.64991 0.76826,2.31251 1.12676,16.59658 0.79184,31.55077 -0.19875,8.87467 -0.48339,16.25233 -0.63252,16.3948 -0.14913,0.14247 -5.44987,0.44909 -11.77944,0.6814 -6.32957,0.2323 -12.72819,0.50663 -14.21916,0.60962 -1.49098,0.10299 -3.0714,0.10002 -3.51204,-0.007 z"
         id="path12461" />
      <path
         style="fill:#ffffff;fill-opacity:1;stroke-width:0.481753"
         d="m 205.67925,186.61086 c 0.68749,-0.96656 1.24998,-2.35815 1.24998,-3.09243 0,-1.12076 -0.15822,-1.28708 -0.98576,-1.03615 -0.89526,0.27146 -0.98577,0.0846 -0.98577,-2.0348 0,-2.30021 0.0251,-2.3382 1.7484,-2.64706 0.9616,-0.17235 2.73598,-0.17187 3.94306,9.8e-4 l 2.19467,0.31442 v 2.53634 c 0,2.22244 -0.12201,2.53636 -0.98577,2.53636 -1.48525,0 -1.22806,1.57959 0.5308,3.25991 0.8341,0.79686 1.79353,1.44884 2.13206,1.44884 0.72283,0 2.38551,-1.65604 3.22809,-3.2152 0.32584,-0.60295 0.46775,-1.40668 0.31535,-1.78609 -0.21557,-0.53669 -0.49754,-0.57711 -1.27016,-0.18208 -0.93367,0.4775 -0.99308,0.36771 -0.99308,-1.83528 0,-1.32753 0.25895,-2.49605 0.59742,-2.6959 0.32859,-0.19401 1.27123,-0.31394 2.09475,-0.26651 3.00897,0.1733 2.98349,0.27839 2.89954,-11.9607 -0.0601,-8.76022 -0.21824,-11.22987 -0.73932,-11.54537 -0.36459,-0.22075 -1.93399,-0.4046 -3.48757,-0.40856 -2.67842,-0.007 -2.84006,-0.0742 -3.12169,-1.30212 -0.50923,-2.22023 -0.65506,-2.4721 -1.4314,-2.4721 -0.53325,0 -0.75479,0.48111 -0.75479,1.6391 0,1.32099 -0.22156,1.69222 -1.14165,1.91283 -0.62791,0.15056 -2.23593,0.20756 -3.5734,0.12668 -2.36638,-0.14308 -2.43838,-0.19135 -2.67819,-1.7951 -0.18777,-1.25568 -0.48115,-1.64807 -1.23221,-1.64807 -0.82051,0 -0.97634,0.29602 -0.92955,1.76578 l 0.0562,1.76578 h -2.58224 c -2.49781,0 -2.59232,0.0481 -2.8903,1.47149 -0.6728,3.21383 -0.0473,21.06572 0.76531,21.84205 0.17814,0.17017 1.2069,0.42256 2.28614,0.56085 1.70418,0.21837 2.00125,0.43768 2.25868,1.66734 0.16303,0.77873 0.29641,1.9418 0.29641,2.5846 0,0.92131 -0.18258,1.10082 -0.86254,0.848 -1.54204,-0.57335 -1.82246,-0.50157 -1.98521,0.50817 -0.24109,1.49585 2.36867,4.20784 4.6783,4.86155 0.0579,0.0164 0.66794,-0.76096 1.35542,-1.72751 z"
         id="path12463" />
      <path
         style="fill:#ff4500;fill-opacity:1;stroke-width:0.481753"
         d="m 203.10938,174.36321 -3.57339,-0.16251 -0.0959,-7.27794 c -0.0527,-4.00286 -0.10817,-7.96659 -0.12323,-8.80828 -0.0248,-1.38166 0.1248,-1.54443 1.53899,-1.67537 1.39299,-0.12896 1.58394,9.8e-4 1.72509,1.17317 0.22683,1.88385 1.66794,2.00423 2.05164,0.17138 0.30029,-1.43439 0.30176,-1.43496 3.73017,-1.43496 3.37516,0 3.43224,0.0206 3.58572,1.2949 0.0858,0.71221 0.37776,1.27137 0.64884,1.24259 0.27109,-0.0288 0.78223,-0.61148 1.13588,-1.2949 0.4712,-0.91058 1.02013,-1.24259 2.05444,-1.24259 3.05011,0 2.97072,-0.25303 2.97072,9.46788 v 8.89626 l -6.03782,-0.0935 c -3.32079,-0.0514 -7.64585,-0.16669 -9.61122,-0.25607 z"
         id="path12465" />
      <path
         style="fill:#ffffff;fill-opacity:1;stroke-width:0.481753"
         d="m 215.0535,169.07798 c 0.68227,-1.28629 1.2405,-2.58063 1.2405,-2.87629 0,-0.33829 -0.4568,-0.42804 -1.2322,-0.24213 -0.67771,0.16251 -1.23221,0.10811 -1.23221,-0.12088 0,-0.22899 0.40584,-0.92168 0.90187,-1.53932 0.49602,-0.61763 1.04355,-1.49378 1.21674,-1.947 0.22451,-0.58757 0.0647,-0.82403 -0.55685,-0.82403 -0.47945,0 -1.08243,-0.19843 -1.33996,-0.44096 -0.59136,-0.55691 -4.16486,0.46371 -4.16486,1.18951 0,0.28496 0.44359,0.90164 0.98576,1.37039 1.24611,1.07736 1.25837,1.941 0.0319,2.24741 -0.68332,0.17071 -0.87791,0.5158 -0.68606,1.21667 0.1473,0.53811 0.57654,1.22316 0.95387,1.52234 0.37733,0.29917 0.68606,0.79347 0.68606,1.09844 0,0.62721 0.98477,1.68458 1.56892,1.68458 0.2123,0 0.94424,-1.05242 1.62651,-2.33873 z"
         id="path12469" />
      <path
         style="fill:#ffffff;fill-opacity:1;stroke-width:0.481753"
         d="m 206.21283,170.25474 c 1.66427,-1.21271 3.11992,-4.01766 2.085,-4.01766 -0.30341,0 -0.95726,0.35069 -1.45301,0.77929 -0.84332,0.72912 -0.90034,0.72154 -0.88568,-0.11771 0.008,-0.49337 0.34132,-1.30833 0.73932,-1.81105 0.80853,-1.02124 0.97939,-3.08841 0.25526,-3.08841 -0.25761,0 -0.67017,0.34446 -0.91679,0.76547 -0.37594,0.64176 -0.5009,0.56566 -0.77321,-0.47088 -0.3457,-1.3159 -1.78467,-1.72991 -1.78467,-0.51346 0,0.57875 -0.19801,0.62164 -0.99308,0.21513 -0.77117,-0.39428 -1.05448,-0.35487 -1.26787,0.17637 -0.15113,0.37628 0.074,1.32841 0.5002,2.11587 0.42624,0.78746 0.77498,1.54821 0.77498,1.69057 0,0.14234 -0.35673,0.25881 -0.79275,0.25881 -0.61746,0 -0.71867,0.28634 -0.45773,1.29491 0.2944,1.13787 2.51784,3.88472 3.14449,3.88472 0.12701,0 0.9485,-0.52289 1.82554,-1.16197 z"
         id="path12467" />
    </g>
  </g>
</svg>
