<?xml version="1.0" encoding="UTF-8" standalone="no"?>
<!-- Created with Inkscape (http://www.inkscape.org/) -->

<svg
   width="210mm"
   height="297mm"
   viewBox="0 0 210 297"
   version="1.1"
   id="svg439"
   inkscape:version="1.1.1 (3bf5ae0d25, 2021-09-20)"
   sodipodi:docname="wl5.svg"
   xmlns:inkscape="http://www.inkscape.org/namespaces/inkscape"
   xmlns:sodipodi="http://sodipodi.sourceforge.net/DTD/sodipodi-0.dtd"
   xmlns="http://www.w3.org/2000/svg"
   xmlns:svg="http://www.w3.org/2000/svg">
  <sodipodi:namedview
     id="namedview441"
     pagecolor="#ffffff"
     bordercolor="#666666"
     borderopacity="1.0"
     inkscape:pageshadow="2"
     inkscape:pageopacity="0.0"
     inkscape:pagecheckerboard="0"
     inkscape:document-units="mm"
     showgrid="false"
     inkscape:zoom="0.71446409"
     inkscape:cx="396.80091"
     inkscape:cy="449.98763"
     inkscape:window-width="1920"
     inkscape:window-height="991"
     inkscape:window-x="-9"
     inkscape:window-y="-9"
     inkscape:window-maximized="1"
     inkscape:current-layer="layer1" />
  <defs
     id="defs436" />
  <g
     inkscape:label="Warstwa 1"
     inkscape:groupmode="layer"
     id="layer1">
    <g
       id="g12544"
       transform="matrix(2.1284205,0,0,2.1284205,-211.53181,-220.80042)"
       style="display:inline">
      <path
         style="fill:#ff4500;fill-opacity:1;stroke-width:0.481753"
         d="m 134.87779,200.3073 c -0.95629,-0.16174 -1.39518,-0.57466 -1.58412,-1.49037 -0.14374,-0.69665 -0.32479,-13.9159 -0.40233,-29.37612 -0.11316,-22.56338 -0.0147,-28.23061 0.49921,-28.72339 0.49981,-0.4793 4.96722,-0.64523 20.37253,-0.75669 13.22129,-0.0956 19.9373,0.0197 20.35344,0.34967 0.45838,0.36343 0.70349,3.97843 0.93558,13.79816 0.38339,16.22079 -0.29256,44.93367 -1.07544,45.68158 -0.37144,0.35486 -6.4145,0.55346 -19.15935,0.62963 -10.23922,0.0611 -19.212,0.0106 -19.93952,-0.11247 z"
         id="path12131" />
      <path
         style="fill:#ffffff;fill-opacity:1;stroke-width:0.481753"
         d="m 172.71476,198.63059 c 0.7318,-0.45563 0.9689,-54.25461 0.2471,-56.06833 l -0.51003,-1.28157 -9.25375,0.002 c -5.08956,5.1e-4 -13.70512,0.13903 -19.14567,0.30743 l -9.89193,0.3062 0.21484,28.0628 c 0.11814,15.43454 0.39252,28.2747 0.6097,28.53368 0.45347,0.54072 36.86903,0.67444 37.72974,0.13855 z"
         id="path12439" />
      <path
         style="fill:#ff4500;fill-opacity:1;stroke-width:0.481753"
         d="m 142.36158,193.86717 c 0,-0.34234 0.65923,-1.45478 1.46494,-2.47209 0.80572,-1.01732 1.47111,-2.03866 1.47865,-2.26966 0.007,-0.231 0.86231,-1.71426 1.89949,-3.29613 1.03719,-1.58188 2.86702,-4.62405 4.06629,-6.76039 1.19928,-2.13634 2.31915,-3.88446 2.48863,-3.88472 0.28693,-5.2e-4 9.7648,13.59831 12.22454,17.53964 l 1.102,1.76578 h -12.36226 c -9.91966,0 -12.36228,-0.12298 -12.36228,-0.62243 z"
         id="path12441" />
      <path
         style="fill:#ffffff;fill-opacity:1;stroke-width:0.481753"
         d="m 155.66942,189.30997 c 1.02785,-0.98195 1.2885,-3.05187 0.5287,-4.19864 -0.24309,-0.36689 -1.15827,-0.66706 -2.03376,-0.66706 -1.77918,0 -2.93089,1.1147 -2.93089,2.83676 0,1.22656 1.59158,2.97069 2.71085,2.97069 0.40664,0 1.18293,-0.42379 1.7251,-0.94175 z"
         id="path12443" />
      <path
         style="fill:#ff4500;fill-opacity:1;stroke-width:0.481753"
         d="m 153.0352,164.43448 c -0.44878,-0.47376 -0.81596,-1.08567 -0.81596,-1.35983 0,-0.27416 -2.27342,-3.72446 -5.05205,-7.66733 -6.81787,-9.67457 -6.59504,-9.31107 -6.0306,-9.83781 0.26713,-0.24928 6.23221,-0.6063 13.25576,-0.79339 l 12.77008,-0.34016 -1.63918,2.77796 c -1.48435,2.51561 -9.66849,15.25333 -11.08823,17.25764 -0.55418,0.78236 -0.62537,0.78047 -1.39982,-0.0371 z"
         id="path12453" />
      <path
         style="fill:#ffffff;fill-opacity:1;stroke-width:0.481753"
         d="m 156.06149,156.23323 c 0.86973,-0.68958 0.54818,-3.20095 -0.48929,-3.8214 -0.56473,-0.33773 -1.28537,-0.35035 -2.21797,-0.0388 -0.97656,0.32622 -1.42645,0.83162 -1.53504,1.72442 -0.0845,0.69463 0.10008,1.71582 0.41016,2.26933 0.44451,0.79348 0.84136,0.93981 1.87594,0.69174 0.7217,-0.17304 1.60198,-0.54441 1.9562,-0.82526 z"
         id="path12455" />
      <path
         style="fill:#ff4500;fill-opacity:1;stroke-width:0.481753"
         d="m 163.34847,180.11103 c -3.23138,-4.65239 -5.96389,-8.88384 -6.07223,-9.40323 -0.12001,-0.57522 0.76816,-2.34288 2.27217,-4.52217 1.35806,-1.96779 4.01965,-6.17911 5.91465,-9.35848 3.37535,-5.66305 3.45155,-5.74829 3.74505,-4.18903 0.16478,0.8754 0.2357,9.31818 0.15759,18.76172 l -0.142,17.17007 z"
         id="path12449" />
      <path
         style="fill:#ffffff;fill-opacity:1;stroke-width:0.481753"
         d="m 165.73831,171.61851 c 0.80882,-0.7727 0.98365,-1.95851 0.47536,-3.22398 -0.20237,-0.5038 -0.92404,-0.74482 -2.23017,-0.74482 -1.64816,0 -2.00571,0.18772 -2.44103,1.28156 -0.75653,1.90099 0.11955,3.42719 1.9673,3.42719 0.79971,0 1.80255,-0.33298 2.22854,-0.73995 z"
         id="path12451" />
      <path
         style="fill:#ff4500;fill-opacity:1;stroke-width:0.481753"
         d="m 138.09607,185.89613 c 0.1741,-2.1366 0.32525,-10.87722 0.33589,-19.42361 0.0224,-17.9673 -0.55039,-17.13754 5.40904,-7.83608 2.03272,3.17264 4.41669,6.86221 5.29772,8.19901 0.88103,1.33681 1.60187,2.8762 1.60187,3.42086 0,0.54468 -0.88719,2.12632 -1.97153,3.51477 -1.08434,1.38846 -1.97153,2.68747 -1.97153,2.88669 0,0.44834 -2.72938,4.40415 -4.31078,6.24783 -0.64399,0.7508 -1.82599,2.60486 -2.62665,4.12016 -0.80067,1.5153 -1.59635,2.75509 -1.76817,2.75509 -0.17182,0 -0.16995,-1.74813 0.004,-3.88472 z"
         id="path12445" />
      <path
         style="fill:#ffffff;fill-opacity:1;stroke-width:0.481753"
         d="m 146.38905,172.52091 c 1.11844,-0.96697 1.14586,-1.94913 0.0857,-3.06834 -0.92634,-0.97789 -3.13068,-1.14046 -4.01453,-0.29606 -0.62879,0.60071 -0.81428,3.30301 -0.26288,3.82979 0.63157,0.60337 3.29802,0.30733 4.19177,-0.46539 z"
         id="path12447" />
    </g>
  </g>
</svg>
