<?xml version="1.0" encoding="UTF-8" standalone="no"?>
<!-- Created with Inkscape (http://www.inkscape.org/) -->

<svg
   width="210mm"
   height="297mm"
   viewBox="0 0 210 297"
   version="1.1"
   id="svg439"
   inkscape:version="1.1.1 (3bf5ae0d25, 2021-09-20)"
   sodipodi:docname="wl6.svg"
   xmlns:inkscape="http://www.inkscape.org/namespaces/inkscape"
   xmlns:sodipodi="http://sodipodi.sourceforge.net/DTD/sodipodi-0.dtd"
   xmlns="http://www.w3.org/2000/svg"
   xmlns:svg="http://www.w3.org/2000/svg">
  <sodipodi:namedview
     id="namedview441"
     pagecolor="#ffffff"
     bordercolor="#666666"
     borderopacity="1.0"
     inkscape:pageshadow="2"
     inkscape:pageopacity="0.0"
     inkscape:pagecheckerboard="0"
     inkscape:document-units="mm"
     showgrid="false"
     inkscape:zoom="0.71446409"
     inkscape:cx="396.80091"
     inkscape:cy="449.98763"
     inkscape:window-width="1920"
     inkscape:window-height="991"
     inkscape:window-x="-9"
     inkscape:window-y="-9"
     inkscape:window-maximized="1"
     inkscape:current-layer="layer1" />
  <defs
     id="defs436" />
  <g
     inkscape:label="Warstwa 1"
     inkscape:groupmode="layer"
     id="layer1">
    <g
       id="g12676"
       transform="matrix(2.1758808,0,0,2.1758808,-353.06347,-68.073973)"
       style="display:inline">
      <path
         style="fill:#ff4500;fill-opacity:1;stroke-width:0.481753"
         d="m 190.17122,126.27875 c -1.60137,-0.27989 -1.74873,-0.45348 -2.05472,-2.42046 -0.4898,-3.14869 0.0165,-54.863687 0.55032,-56.204916 0.40015,-1.005468 0.82116,-1.173884 3.3225,-1.329086 1.57535,-0.09777 10.80928,-0.145435 20.51983,-0.105992 11.37372,0.04624 17.83647,0.244545 18.16403,0.557472 0.34933,0.333749 0.34973,9.650251 0.002,29.769741 -0.27896,16.106191 -0.65265,29.423171 -0.83042,29.593291 -0.42148,0.40335 -37.41916,0.53388 -39.6728,0.13995 z"
         id="path12479" />
      <path
         style="fill:#ffffff;fill-opacity:1;stroke-width:0.481753"
         d="m 228.35116,124.66837 c 0.48462,-0.63315 0.64435,-7.0173 0.71381,-28.529391 l 0.0895,-27.713697 -1.87106,-0.295395 c -2.43655,-0.384668 -30.6643,-0.393788 -34.49633,-0.01109 l -2.95044,0.29461 -0.44882,19.128993 c -0.49842,21.24365 -0.5046,34.63056 -0.0169,36.48723 l 0.3218,1.22491 12.19162,0.1596 c 6.70539,0.0878 15.26304,0.13943 19.01702,0.11478 5.87064,-0.0386 6.91274,-0.15892 7.44973,-0.8605 z"
         id="path12481" />
      <path
         style="fill:#ff4500;fill-opacity:1;stroke-width:0.481753"
         d="m 193.44976,114.79394 c -0.15994,-3.69048 -0.1313,-14.973841 0.0636,-25.074116 0.34803,-18.031738 0.37229,-18.360412 1.34021,-18.158796 1.57781,0.328664 4.91156,0.238762 12.81495,-0.345578 4.29879,-0.317836 9.45621,-0.402888 12.32207,-0.203196 l 4.92883,0.343438 0.15319,17.893264 c 0.0843,9.841289 0.005,21.124644 -0.17511,25.074104 l -0.32831,7.18086 h -15.41432 -15.41433 z"
         id="path12483" />
      <path
         style="fill:#ffffff;fill-opacity:1;stroke-width:0.481753"
         d="m 211.89629,116.70699 c 0.3579,-0.82545 0.66205,-2.45639 0.6759,-3.62431 0.0237,-1.99797 -0.0695,-2.14986 -1.57668,-2.56975 -1.18605,-0.33041 -1.60187,-0.71766 -1.60187,-1.49182 0,-1.45564 1.74489,-3.42385 3.74216,-4.2211 1.97324,-0.78766 2.273,-2.1311 0.47553,-2.1311 -0.66222,0 -1.99302,0.44471 -2.9573,0.98826 l -1.75326,0.98826 v -4.27231 c 0,-4.270737 4.8e-4,-4.272554 1.47864,-5.00279 l 1.47865,-0.730492 v 1.607989 c 0,0.884389 0.40301,2.083462 0.89557,2.664588 0.74056,0.873728 1.07068,0.967065 1.90728,0.539321 0.96863,-0.495244 2.61886,-3.186101 2.61886,-4.27029 0,-0.284586 0.56457,-0.517429 1.25461,-0.517429 1.50352,0 3.8056,-2.048269 3.58463,-3.189414 -0.098,-0.506023 -1.02596,-1.062356 -2.45757,-1.473323 -2.03351,-0.583762 -2.33667,-0.846408 -2.61542,-2.265896 -0.25411,-1.29406 -0.51697,-1.577076 -1.35474,-1.458638 -0.67485,0.09542 -1.23389,0.701111 -1.59372,1.726752 -0.49125,1.400228 -0.62886,1.493889 -1.21078,0.824026 -0.51043,-0.587561 -0.52619,-0.905799 -0.0709,-1.429953 0.43195,-0.497237 0.45032,-1.142549 0.07,-2.45853 -0.42974,-1.486919 -0.38481,-1.85431 0.26961,-2.204188 1.48394,-0.793367 2.70601,-2.256 2.54845,-3.050075 -0.11195,-0.564069 -0.75065,-0.836473 -2.19829,-0.937536 -1.89571,-0.132359 -2.06313,-0.25766 -2.35928,-1.765783 -0.23566,-1.200134 -0.57268,-1.623323 -1.29277,-1.623323 -0.56063,0 -1.21227,0.499603 -1.53543,1.177182 -0.30879,0.647452 -0.72047,1.177192 -0.91484,1.177192 -0.19438,0 -0.62953,-0.317846 -0.96701,-0.706313 -0.33747,-0.388477 -1.13669,-0.706313 -1.77604,-0.706313 -1.4475,0 -1.95129,1.555715 -1.26866,3.917638 0.46007,1.591801 0.41381,1.696182 -0.95324,2.151462 -1.70774,0.568742 -2.27284,1.6647 -1.3852,2.686474 0.47219,0.543552 1.3319,0.697468 3.25422,0.582603 2.68429,-0.160406 3.38475,0.271727 2.80005,1.727389 -0.191,0.475532 -0.97267,0.706314 -2.39226,0.706314 -1.71868,0 -2.2615,-0.222997 -2.93572,-1.206034 -0.55218,-0.805128 -1.18545,-1.157323 -1.90499,-1.05947 -0.82997,0.112863 -1.13451,0.546321 -1.32428,1.884919 -0.18832,1.328389 -0.65327,1.998273 -1.97153,2.840459 -1.13652,0.726084 -1.77831,1.538732 -1.88105,2.381812 -0.14319,1.174924 -0.016,1.279698 1.55291,1.279698 1.56887,0 1.74446,0.144649 2.14329,1.765783 0.34372,1.397096 0.6925,1.794899 1.6705,1.905229 0.99836,0.112628 1.45165,-0.226972 2.35694,-1.765783 0.61646,-1.047876 1.40498,-1.905229 1.75224,-1.905229 0.81945,0 2.05251,1.354619 2.49547,2.741516 0.19209,0.601402 0.20705,1.63471 0.0333,2.296255 l -0.31599,1.202801 -1.11571,-1.001352 c -1.36022,-1.220794 -2.77728,-1.305944 -2.77728,-0.166884 0,0.458961 0.63135,1.571406 1.403,2.472096 1.72989,2.01921 2.54006,3.45028 2.54006,4.48673 0,0.59131 -0.49689,0.36319 -1.96051,-0.90006 -1.1871,-1.0246 -2.2565,-1.5836 -2.71085,-1.41704 -0.41269,0.15129 -0.75035,0.49358 -0.75035,0.76064 0,0.26705 0.88719,1.40506 1.97154,2.52891 1.08434,1.12384 1.97152,2.23701 1.97152,2.47371 0,0.23669 -0.55448,0.5633 -1.2322,0.7258 -1.04033,0.24945 -1.23136,0.56903 -1.22678,2.05226 0.009,3.08035 0.56653,5.23091 1.41052,5.44581 0.44111,0.11231 2.27225,0.22879 4.06919,0.25883 3.22828,0.054 3.27491,0.0368 3.91787,-1.44618 z"
         id="path12485" />
      <path
         style="fill:#ff4500;fill-opacity:1;stroke-width:0.481753"
         d="m 206.08055,80.419992 c -0.26206,-0.323726 -0.65618,-0.886205 -0.87582,-1.249944 -0.2676,-0.443156 -0.21248,-0.551022 0.16705,-0.326926 0.58364,0.344596 1.75135,2.165461 1.38871,2.165461 -0.11189,0 -0.41787,-0.264865 -0.67994,-0.588591 z"
         id="path12517" />
      <path
         style="fill:#ff4500;fill-opacity:1;stroke-width:0.481753"
         d="m 211.98714,80.683453 c 0.45827,-0.437796 0.97161,-0.663787 1.14075,-0.502194 0.48508,0.463418 -0.2596,1.298202 -1.15809,1.298202 -0.75239,0 -0.75103,-0.06194 0.0174,-0.796008 z"
         id="path12515" />
      <path
         style="fill:#ff4500;fill-opacity:1;stroke-width:0.481753"
         d="m 208.40788,80.593335 c 0,-0.517959 0.2218,-1.072702 0.49289,-1.232764 0.27107,-0.160062 0.49287,0.132771 0.49287,0.650731 0,0.517969 -0.2218,1.072712 -0.49287,1.232774 -0.27109,0.160052 -0.49289,-0.132771 -0.49289,-0.650741 z"
         id="path12513" />
      <path
         style="fill:#ff4500;fill-opacity:1;stroke-width:0.481753"
         d="m 202.49328,84.08589 c 0,-0.518274 1.97037,-1.164627 2.71648,-0.891094 0.65187,0.238979 0.6839,0.379485 0.15893,0.69741 -0.69346,0.419949 -2.87541,0.566925 -2.87541,0.193684 z"
         id="path12511" />
      <path
         style="fill:#ff4500;fill-opacity:1;stroke-width:0.481753"
         d="m 210.17385,85.309711 c -0.21231,-0.328203 -0.25292,-0.723895 -0.0902,-0.879323 0.44112,-0.421412 0.92207,0.198386 0.68382,0.881218 -0.16695,0.478496 -0.28304,0.478123 -0.59358,-0.002 z"
         id="path12509" />
      <path
         style="fill:#ff4500;fill-opacity:1;stroke-width:0.481753"
         d="m 199.80348,89.046054 c -0.15596,-0.241089 -0.0582,-0.571432 0.21735,-0.734105 0.2755,-0.162673 0.50092,0.03455 0.50092,0.438337 0,0.827108 -0.29575,0.948894 -0.71827,0.295768 z"
         id="path12507" />
      <path
         style="fill:#ff4500;fill-opacity:1;stroke-width:0.481753"
         d="m 202.98617,89.955269 c 0.95558,-0.589975 1.47865,-0.589975 1.47865,0 0,0.258975 -0.49905,0.467629 -1.10899,0.463663 -0.89677,-0.0059 -0.96751,-0.09453 -0.36966,-0.463663 z"
         id="path12505" />
      <path
         style="fill:#ff4500;fill-opacity:1;stroke-width:0.481753"
         d="m 215.08285,90.45868 c -0.15597,-0.241089 -0.0582,-0.571431 0.21735,-0.734104 0.27551,-0.162673 0.50092,0.03455 0.50092,0.438336 0,0.827108 -0.29576,0.948894 -0.71827,0.295768 z"
         id="path12503" />
      <path
         style="fill:#ff4500;fill-opacity:1;stroke-width:0.481753"
         d="m 217.77265,91.838764 c 0,-0.258975 0.34579,-0.470869 0.76841,-0.470869 0.42264,0 0.63134,0.211894 0.4638,0.470869 -0.16754,0.258985 -0.51333,0.470879 -0.76842,0.470879 -0.25509,0 -0.46379,-0.211894 -0.46379,-0.470879 z"
         id="path12501" />
      <path
         style="fill:#ff4500;fill-opacity:1;stroke-width:0.481753"
         d="m 197.07158,92.074208 c 0.6696,-0.770809 1.97153,-0.959555 1.97153,-0.285814 0,0.433487 -1.1668,0.992127 -2.07219,0.992127 -0.31058,0 -0.27087,-0.278647 0.1007,-0.706313 z"
         id="path12499" />
      <path
         style="fill:#ff4500;fill-opacity:1;stroke-width:0.481753"
         d="m 209.39364,90.244725 c 0,-2.275634 0.16167,-3.025416 0.61611,-2.857472 0.392,0.144856 0.6161,1.194784 0.6161,2.88648 0,1.707158 -0.22051,2.729903 -0.6161,2.857471 -0.45135,0.145543 -0.61611,-0.626316 -0.61611,-2.886479 z"
         id="path12497" />
      <path
         style="fill:#ff4500;fill-opacity:1;stroke-width:0.481753"
         d="m 205.4632,92.559606 c -0.48408,-0.557237 -0.39995,-0.935926 0.43254,-1.947 l 1.03349,-1.255215 v 1.947 c 0,2.035036 -0.45223,2.422227 -1.46603,1.255215 z"
         id="path12495" />
      <path
         style="fill:#ff4500;fill-opacity:1;stroke-width:0.481753"
         d="m 200.55511,93.698729 c 0.0313,-1.525637 0.0664,-1.559092 0.57538,-0.549688 0.40077,0.794723 0.39208,1.218079 -0.0334,1.624521 -0.43858,0.418997 -0.56745,0.163458 -0.54202,-1.074833 z"
         id="path12493" />
      <path
         style="fill:#ff4500;fill-opacity:1;stroke-width:0.481753"
         d="m 204.91301,115.81705 c -0.50554,-0.30573 -0.32565,-0.42205 0.6608,-0.4273 1.47185,-0.008 1.73688,0.22307 0.69462,0.60516 -0.36344,0.13323 -0.97338,0.0532 -1.35542,-0.17786 z"
         id="path12487" />
      <path
         style="fill:#ff4500;fill-opacity:1;stroke-width:0.481753"
         d="m 209.23962,113.66581 c -0.64277,-0.61407 -0.33589,-1.10853 0.68798,-1.10853 0.57359,0 0.94072,0.24682 0.83174,0.55917 -0.24009,0.68811 -1.06308,0.98561 -1.51972,0.54936 z"
         id="path12489" />
      <path
         style="fill:#ff4500;fill-opacity:1;stroke-width:0.481753"
         d="m 204.46482,113.05989 c 0,-0.50619 1.91743,-1.18212 2.30447,-0.81237 0.14226,0.13592 0.11245,0.4731 -0.0663,0.74932 -0.39953,0.61758 -2.23823,0.66939 -2.23823,0.063 z"
         id="path12491" />
      <path
         style="display:inline;fill:#ff4500;fill-opacity:1;stroke-width:0.481753"
         d="m 214.81758,95.326699 c 0.058,-1.52486 0.0249,-1.560307 -0.54225,-0.582399 -0.44658,0.769916 -0.46262,1.193073 -0.0617,1.623693 0.41333,0.443932 0.55693,0.196368 0.60396,-1.041295 z"
         id="path12493-1" />
    </g>
  </g>
</svg>
